<svg xmlns="http://www.w3.org/2000/svg" xmlns:xlink="http://www.w3.org/1999/xlink" width="280.63" height="139.64" viewBox="0 0 280.63 139.64">
  <defs>
    <radialGradient id="radial-gradient" cx="0.5" cy="0.5" r="0.458" gradientTransform="translate(-0.107) scale(1.214 1)" gradientUnits="objectBoundingBox">
      <stop offset="0.198" stop-color="#353534"/>
      <stop offset="0.883" stop-color="#161615"/>
    </radialGradient>
    <radialGradient id="radial-gradient-2" cx="0.5" cy="0.5" r="0.44" gradientTransform="translate(-0.177) scale(1.354 1)" xlink:href="#radial-gradient"/>
    <radialGradient id="radial-gradient-3" cx="0.5" cy="0.5" r="0.431" gradientTransform="translate(-0.218) scale(1.436 1)" xlink:href="#radial-gradient"/>
    <radialGradient id="radial-gradient-4" cx="0.5" cy="0.5" r="0.525" gradientTransform="translate(0.045) scale(0.91 1)" xlink:href="#radial-gradient"/>
    <radialGradient id="radial-gradient-5" cx="0.5" cy="0.5" r="0.526" gradientTransform="translate(0.045) scale(0.909 1)" xlink:href="#radial-gradient"/>
    <radialGradient id="radial-gradient-6" cx="0.5" cy="0.5" r="0.455" gradientTransform="translate(-0.118) scale(1.236 1)" xlink:href="#radial-gradient"/>
    <radialGradient id="radial-gradient-7" cx="0.5" cy="0.5" r="0.644" gradientTransform="translate(0.171) scale(0.657 1)" xlink:href="#radial-gradient"/>
    <radialGradient id="radial-gradient-8" cx="0.5" cy="0.5" r="0.455" gradientTransform="translate(-0.118) scale(1.236 1)" xlink:href="#radial-gradient"/>
    <radialGradient id="radial-gradient-9" cx="0.5" cy="0.5" r="0.373" gradientTransform="translate(-0.989) scale(2.977 1)" xlink:href="#radial-gradient"/>
    <radialGradient id="radial-gradient-10" cx="0.5" cy="0.5" r="0.382" gradientTransform="translate(-0.718) scale(2.436 1)" xlink:href="#radial-gradient"/>
    <radialGradient id="radial-gradient-11" cx="0.5" cy="0.5" r="0.493" gradientTransform="translate(-0.014) scale(1.028 1)" xlink:href="#radial-gradient"/>
    <radialGradient id="radial-gradient-12" cx="0.5" cy="0.5" r="0.384" gradientTransform="translate(-0.686) scale(2.372 1)" xlink:href="#radial-gradient"/>
    <radialGradient id="radial-gradient-13" cx="0.5" cy="0.5" r="1.045" gradientTransform="translate(0.32) scale(0.36 1)" xlink:href="#radial-gradient"/>
    <radialGradient id="radial-gradient-14" cx="0.461" cy="0.452" r="1.031" gradientTransform="matrix(0.327, 0.411, 0.132, -0.818, 250.758, -3216.706)" xlink:href="#radial-gradient"/>
    <radialGradient id="radial-gradient-15" cx="0.505" cy="0.349" r="0.778" gradientTransform="matrix(0.516, 0.059, -0.025, 0.813, -65.256, -73.504)" xlink:href="#radial-gradient"/>
    <radialGradient id="radial-gradient-16" cx="0.461" cy="0.452" r="1.031" gradientTransform="matrix(0.327, 0.411, 0.132, -0.818, 248.699, -3204.171)" xlink:href="#radial-gradient"/>
    <radialGradient id="radial-gradient-17" cx="0.505" cy="0.349" r="0.778" gradientTransform="matrix(0.516, 0.059, -0.025, 0.813, -66.234, -74.286)" xlink:href="#radial-gradient"/>
    <radialGradient id="radial-gradient-18" cx="0.5" cy="0.5" r="0.395" gradientTransform="translate(-0.506) scale(2.012 1)" xlink:href="#radial-gradient"/>
    <clipPath id="clip-Монтажная_область_23">
      <rect width="280.63" height="139.64"/>
    </clipPath>
  </defs>
  <g id="Монтажная_область_23" data-name="Монтажная область – 23" clip-path="url(#clip-Монтажная_область_23)">
    <g id="Сгруппировать_172" data-name="Сгруппировать 172" transform="translate(-2698 -79)">
      <g id="Сгруппировать_6" data-name="Сгруппировать 6">
        <g id="Сгруппировать_2" data-name="Сгруппировать 2">
          <g id="Сгруппировать_1" data-name="Сгруппировать 1">
            <path id="Контур_1" data-name="Контур 1" d="M2859.461,147.775a18.142,18.142,0,0,0-2.943-10.164,10.5,10.5,0,0,0-8.9-4.671,14.3,14.3,0,0,0-3.307.4,20.5,20.5,0,0,0-6.453,2.715,16.485,16.485,0,0,0-4.666,4.666c-.151.228-.291.474-.436.711a7.587,7.587,0,0,0-1.477-3.44,17.53,17.53,0,0,0-2.754-2.862,12.3,12.3,0,0,0-7.9-3.065,11.658,11.658,0,0,0-5.568,1.6,18.464,18.464,0,0,0-5.261,4.5,24.975,24.975,0,0,0-2.676,4.039,15.254,15.254,0,0,0-2.148-4.6,10.5,10.5,0,0,0-8.9-4.671,14.3,14.3,0,0,0-3.307.4,20.5,20.5,0,0,0-6.453,2.715,16.483,16.483,0,0,0-4.666,4.666c-.024.036-.046.076-.069.113a9.109,9.109,0,0,0-.685-2.2,6.291,6.291,0,0,0-5.428-3.535c-.093-.007-.186-.01-.279-.01a13.178,13.178,0,0,0-6.723,1.9c.085-.65.17-1.259.255-1.823.218-1.456.445-2.714.675-3.739.247-1.1.559-2.406.934-3.906.136-.532.261-1.033.373-1.5a5.365,5.365,0,0,0-5.206-6.631,5.4,5.4,0,0,0-1.636.255l-6.109,1.947a8.8,8.8,0,0,0-4.61,3.458l-.032-.033a11.21,11.21,0,0,0-7.824-2.968,15.35,15.35,0,0,0-5.831,1.244,20.951,20.951,0,0,0-5.676,3.894,36.079,36.079,0,0,0-5.588,6.646,41.1,41.1,0,0,0-4.5,9.151,36.92,36.92,0,0,0-2.054,11.144c0,.042,0,.928,0,.928l-.05.742c-.006.087-.009.174-.009.26a33.116,33.116,0,0,0,1.079,8.975,17.626,17.626,0,0,0,3.364,6.653,13.891,13.891,0,0,0,5.356,3.929,17.718,17.718,0,0,0,6.325,1.245h.082a18.09,18.09,0,0,0,6.25-1.081,20.655,20.655,0,0,0,5.079-2.689,21.755,21.755,0,0,0,2.215-1.854,4.646,4.646,0,0,0,4.643,4.183,4.7,4.7,0,0,0,1.792-.355l4.558-1.877a7.616,7.616,0,0,0,1.361-.73,6.18,6.18,0,0,0,8.169,4.058l2.825-1.086a7.406,7.406,0,0,0,4.385-4.565,12.664,12.664,0,0,0,2.023,2.487,11.2,11.2,0,0,0,7.491,3.334,12.515,12.515,0,0,0,5.476-1.437,41.226,41.226,0,0,0,5.886-3.673,19.684,19.684,0,0,0,4.018-3.873,15.6,15.6,0,0,0,3.462,5.371,14.66,14.66,0,0,0,4.671,3.146,18.3,18.3,0,0,0,4.688,1.251,3.529,3.529,0,0,0,.355.027c.045.005.1.013.157.021a3.77,3.77,0,0,0,.551.04h.581a14.259,14.259,0,0,0,8.106-2.557,20.346,20.346,0,0,0,3.256-2.745,8.362,8.362,0,0,0,.957-1.2,12.639,12.639,0,0,0,1.892,2.3,11.2,11.2,0,0,0,7.491,3.334,12.515,12.515,0,0,0,5.476-1.437,41.253,41.253,0,0,0,5.886-3.673,17.489,17.489,0,0,0,6.571-8.667,33.74,33.74,0,0,0,1.473-10.457s0-2.428,0-2.478C2859.481,149.043,2859.462,148.337,2859.461,147.775Zm-112.554,4.643a4.809,4.809,0,0,0-4.361,2.807c-.159.349-.34.718-.546,1.108a23.025,23.025,0,0,1-1.57,2.562q-.062-1.007-.062-2.185c0-1.473.073-3.04.22-4.689.148-1.822.356-3.708.617-5.609a45.8,45.8,0,0,1,1.045-5.309q.14-.532.292-1.019a5.933,5.933,0,0,0,8.646.375l.125-.122c0,.186-.009.365-.013.551-.1,4.728-.157,9.448-.17,14.073l-.12-.2A4.731,4.731,0,0,0,2746.907,152.418Zm77.874,6.267a7.244,7.244,0,0,0-5.771,2.881,14.548,14.548,0,0,1-.507-4.042,15.043,15.043,0,0,1,.1-1.688,31.364,31.364,0,0,1,.546-3.573,20.707,20.707,0,0,1,1.005-3.387q.186-.474.394-.88a6.756,6.756,0,0,0,5.087,2.312,6.686,6.686,0,0,0,3.853-1.217c.032-.022.061-.049.092-.072-.445,1.511-.889,3.194-1.328,5.08a23.747,23.747,0,0,0-.561,5.205A7.186,7.186,0,0,0,2824.781,158.685Z" fill="#040405"/>
            <path id="Контур_2" data-name="Контур 2" d="M2954.266,139.962a17.555,17.555,0,0,0-1.169-4.208,7.994,7.994,0,0,0-7.679-4.85c-.077,0-.154,0-.232.007a13.261,13.261,0,0,0-6.818,2.185l-.061.043a6.875,6.875,0,0,0-6.893-1.257l-.1.037a9.322,9.322,0,0,0-4.836,4.075,16.67,16.67,0,0,0-6.451-3.873c-.04-.014-.08-.028-.12-.04a16.356,16.356,0,0,0-5.03-.828,13.642,13.642,0,0,0-8.739,3.123,17.85,17.85,0,0,0-3.824,4.347c-.06.094-.107.194-.163.29-.1-.049-.189-.109-.291-.156a21.742,21.742,0,0,0,2.284-4.148,12.778,12.778,0,0,0,1.047-4.909,8.548,8.548,0,0,0-4.456-7.286,14.835,14.835,0,0,0-7.676-2.024,6.2,6.2,0,0,0-.8.057h-.185c-.117,0-.235.006-.352.016a35.633,35.633,0,0,0-7.913,1.754c-1.428.477-2.844,1.028-4.208,1.638a10.642,10.642,0,0,0-6.225,8.261l-.349,2.448q-.555,3.881-1.632,11.931t-1.78,13.555l-.131,1.07a13.69,13.69,0,0,0,4.644,12.12c.025.021.11.1.135.115a11.5,11.5,0,0,0,13.575.879c.348-.221.7-.446,1.055-.679,2.135-1.39,4.2-2.85,6.127-4.337q1.493-1.15,2.842-2.285a11.807,11.807,0,0,0,.651,1.583,14.511,14.511,0,0,0,4,4.673,11.6,11.6,0,0,0,7.364,2.71,10.953,10.953,0,0,0,4.816-1.122,5.719,5.719,0,0,0,4.363,2.014,5.785,5.785,0,0,0,1.541-.21l2.009-.559a9.191,9.191,0,0,0,5.218-3.818,7.858,7.858,0,0,0,6.038,2.857,8.026,8.026,0,0,0,2.08-.28l.427-.112a8.627,8.627,0,0,0,6.3-10.113c-.417-2.017-.78-3.954-1.078-5.758a48.558,48.558,0,0,1-.734-7.774,20.563,20.563,0,0,1,.125-2.385,7.075,7.075,0,0,0,8.222,1.279A9.518,9.518,0,0,0,2954.266,139.962Z" fill="#040405"/>
          </g>
        </g>
        <g id="Сгруппировать_5" data-name="Сгруппировать 5">
          <g id="Сгруппировать_4" data-name="Сгруппировать 4" opacity="0.7">
            <g id="Сгруппировать_3" data-name="Сгруппировать 3">
              <path id="Контур_3" data-name="Контур 3" d="M2859.461,147.775a18.142,18.142,0,0,0-2.943-10.164,10.5,10.5,0,0,0-8.9-4.671,14.3,14.3,0,0,0-3.307.4,20.5,20.5,0,0,0-6.453,2.715,16.485,16.485,0,0,0-4.666,4.666c-.151.228-.291.474-.436.711a7.587,7.587,0,0,0-1.477-3.44,17.53,17.53,0,0,0-2.754-2.862,12.3,12.3,0,0,0-7.9-3.065,11.658,11.658,0,0,0-5.568,1.6,18.464,18.464,0,0,0-5.261,4.5,24.975,24.975,0,0,0-2.676,4.039,15.254,15.254,0,0,0-2.148-4.6,10.5,10.5,0,0,0-8.9-4.671,14.3,14.3,0,0,0-3.307.4,20.5,20.5,0,0,0-6.453,2.715,16.483,16.483,0,0,0-4.666,4.666c-.024.036-.046.076-.069.113a9.109,9.109,0,0,0-.685-2.2,6.291,6.291,0,0,0-5.428-3.535c-.093-.007-.186-.01-.279-.01a13.178,13.178,0,0,0-6.723,1.9c.085-.65.17-1.259.255-1.823.218-1.456.445-2.714.675-3.739.247-1.1.559-2.406.934-3.906.136-.532.261-1.033.373-1.5a5.365,5.365,0,0,0-5.206-6.631,5.4,5.4,0,0,0-1.636.255l-6.109,1.947a8.8,8.8,0,0,0-4.61,3.458l-.032-.033a11.21,11.21,0,0,0-7.824-2.968,15.35,15.35,0,0,0-5.831,1.244,20.951,20.951,0,0,0-5.676,3.894,36.079,36.079,0,0,0-5.588,6.646,41.1,41.1,0,0,0-4.5,9.151,36.92,36.92,0,0,0-2.054,11.144c0,.042,0,.928,0,.928l-.05.742c-.006.087-.009.174-.009.26a33.116,33.116,0,0,0,1.079,8.975,17.626,17.626,0,0,0,3.364,6.653,13.891,13.891,0,0,0,5.356,3.929,17.718,17.718,0,0,0,6.325,1.245h.082a18.09,18.09,0,0,0,6.25-1.081,20.655,20.655,0,0,0,5.079-2.689,21.755,21.755,0,0,0,2.215-1.854,4.646,4.646,0,0,0,4.643,4.183,4.7,4.7,0,0,0,1.792-.355l4.558-1.877a7.616,7.616,0,0,0,1.361-.73,6.18,6.18,0,0,0,8.169,4.058l2.825-1.086a7.406,7.406,0,0,0,4.385-4.565,12.664,12.664,0,0,0,2.023,2.487,11.2,11.2,0,0,0,7.491,3.334,12.515,12.515,0,0,0,5.476-1.437,41.226,41.226,0,0,0,5.886-3.673,19.684,19.684,0,0,0,4.018-3.873,15.6,15.6,0,0,0,3.462,5.371,14.66,14.66,0,0,0,4.671,3.146,18.3,18.3,0,0,0,4.688,1.251,3.529,3.529,0,0,0,.355.027c.045.005.1.013.157.021a3.77,3.77,0,0,0,.551.04h.581a14.259,14.259,0,0,0,8.106-2.557,20.346,20.346,0,0,0,3.256-2.745,8.362,8.362,0,0,0,.957-1.2,12.639,12.639,0,0,0,1.892,2.3,11.2,11.2,0,0,0,7.491,3.334,12.515,12.515,0,0,0,5.476-1.437,41.253,41.253,0,0,0,5.886-3.673,17.489,17.489,0,0,0,6.571-8.667,33.74,33.74,0,0,0,1.473-10.457s0-2.428,0-2.478C2859.481,149.043,2859.462,148.337,2859.461,147.775Zm-112.554,4.643a4.809,4.809,0,0,0-4.361,2.807c-.159.349-.34.718-.546,1.108a23.025,23.025,0,0,1-1.57,2.562q-.062-1.007-.062-2.185c0-1.473.073-3.04.22-4.689.148-1.822.356-3.708.617-5.609a45.8,45.8,0,0,1,1.045-5.309q.14-.532.292-1.019a5.933,5.933,0,0,0,8.646.375l.125-.122c0,.186-.009.365-.013.551-.1,4.728-.157,9.448-.17,14.073l-.12-.2A4.731,4.731,0,0,0,2746.907,152.418Zm77.874,6.267a7.244,7.244,0,0,0-5.771,2.881,14.548,14.548,0,0,1-.507-4.042,15.043,15.043,0,0,1,.1-1.688,31.364,31.364,0,0,1,.546-3.573,20.707,20.707,0,0,1,1.005-3.387q.186-.474.394-.88a6.756,6.756,0,0,0,5.087,2.312,6.686,6.686,0,0,0,3.853-1.217c.032-.022.061-.049.092-.072-.445,1.511-.889,3.194-1.328,5.08a23.747,23.747,0,0,0-.561,5.205A7.186,7.186,0,0,0,2824.781,158.685Z" fill="#fff"/>
              <path id="Контур_4" data-name="Контур 4" d="M2954.266,139.962a17.555,17.555,0,0,0-1.169-4.208,7.994,7.994,0,0,0-7.679-4.85c-.077,0-.154,0-.232.007a13.261,13.261,0,0,0-6.818,2.185l-.061.043a6.875,6.875,0,0,0-6.893-1.257l-.1.037a9.322,9.322,0,0,0-4.836,4.075,16.67,16.67,0,0,0-6.451-3.873c-.04-.014-.08-.028-.12-.04a16.356,16.356,0,0,0-5.03-.828,13.642,13.642,0,0,0-8.739,3.123,17.85,17.85,0,0,0-3.824,4.347c-.06.094-.107.194-.163.29-.1-.049-.189-.109-.291-.156a21.742,21.742,0,0,0,2.284-4.148,12.778,12.778,0,0,0,1.047-4.909,8.548,8.548,0,0,0-4.456-7.286,14.835,14.835,0,0,0-7.676-2.024,6.2,6.2,0,0,0-.8.057h-.185c-.117,0-.235.006-.352.016a35.633,35.633,0,0,0-7.913,1.754c-1.428.477-2.844,1.028-4.208,1.638a10.642,10.642,0,0,0-6.225,8.261l-.349,2.448q-.555,3.881-1.632,11.931t-1.78,13.555l-.131,1.07a13.69,13.69,0,0,0,4.644,12.12c.025.021.11.1.135.115a11.5,11.5,0,0,0,13.575.879c.348-.221.7-.446,1.055-.679,2.135-1.39,4.2-2.85,6.127-4.337q1.493-1.15,2.842-2.285a11.807,11.807,0,0,0,.651,1.583,14.511,14.511,0,0,0,4,4.673,11.6,11.6,0,0,0,7.364,2.71,10.953,10.953,0,0,0,4.816-1.122,5.719,5.719,0,0,0,4.363,2.014,5.785,5.785,0,0,0,1.541-.21l2.009-.559a9.191,9.191,0,0,0,5.218-3.818,7.858,7.858,0,0,0,6.038,2.857,8.026,8.026,0,0,0,2.08-.28l.427-.112a8.627,8.627,0,0,0,6.3-10.113c-.417-2.017-.78-3.954-1.078-5.758a48.558,48.558,0,0,1-.734-7.774,20.563,20.563,0,0,1,.125-2.385,7.075,7.075,0,0,0,8.222,1.279A9.518,9.518,0,0,0,2954.266,139.962Z" fill="#fff"/>
            </g>
          </g>
        </g>
      </g>
      <g id="Сгруппировать_10" data-name="Сгруппировать 10">
        <g id="Сгруппировать_7" data-name="Сгруппировать 7" opacity="0.34">
          <path id="Контур_5" data-name="Контур 5" d="M2750.091,138.257a2.057,2.057,0,0,1-3.43-.954q-.163-.654-.353-1.2-.641-1.86-1.745-1.861a3.129,3.129,0,0,0-2.619,1.833,17.486,17.486,0,0,0-1.832,4.625,49.209,49.209,0,0,0-1.134,5.76q-.408,2.967-.64,5.818-.234,2.618-.233,5a26.075,26.075,0,0,0,.582,6.08q.58,2.356,1.861,2.357a3.341,3.341,0,0,0,2.095-1.048,17.034,17.034,0,0,0,2.328-2.647,27.031,27.031,0,0,0,2.064-3.316q.361-.687.643-1.3a.909.909,0,0,1,1.611-.1l2.923,4.937a4.4,4.4,0,0,1-.3,4.934q-.177.229-.365.461a16.884,16.884,0,0,1-7.244,5.091,14.165,14.165,0,0,1-4.916.844,13.788,13.788,0,0,1-4.946-.96,10,10,0,0,1-3.868-2.851,13.768,13.768,0,0,1-2.59-5.207,29.156,29.156,0,0,1-.931-7.913l.059-.872v-.931a32.955,32.955,0,0,1,1.833-9.978,37.084,37.084,0,0,1,4.072-8.291,32.1,32.1,0,0,1,4.974-5.934,17.443,17.443,0,0,1,4.6-3.2,11.359,11.359,0,0,1,4.3-.931,7.42,7.42,0,0,1,5.207,1.949,8.447,8.447,0,0,1,1.106,1.235,4.666,4.666,0,0,1-.553,6.074Z" fill="#fff"/>
          <path id="Контур_6" data-name="Контур 6" d="M2778.365,161.931q-.349,2.967-.786,5.41-.233,1.308-.475,2.465a3.56,3.56,0,0,1-2.216,2.587l-2.826,1.087a2.317,2.317,0,0,1-3.128-2.48q.546-3.949.936-7.848.582-5.817.815-10.239,0-.291.059-1.047v-.815q0-2.385-.874-2.385-.639,0-1.832,1.134a33.2,33.2,0,0,0-3.113,3.637q-.117,2.792-.145,4.6t-.029,3.665q0,.814-.059,2.851v2.286a3.623,3.623,0,0,1-2.243,3.35l-4.56,1.878a.821.821,0,0,1-1.138-.736q-.145-6.327-.146-13.818,0-7.911.175-15.971.13-6,.324-11.18a4.918,4.918,0,0,1,3.428-4.5l6.109-1.947a1.492,1.492,0,0,1,1.9,1.774q-.163.68-.362,1.453-.582,2.328-.96,4.014t-.726,4.015q-.35,2.328-.7,5.527t-.582,7.33a25.52,25.52,0,0,1,5.876-6.515,9.772,9.772,0,0,1,5.7-1.979,2.426,2.426,0,0,1,2.211,1.338,9.089,9.089,0,0,1,.582,3.724q0,1.105-.116,3.956-.059.873-.117,2.327Q2779.121,156.113,2778.365,161.931Z" fill="#fff"/>
          <path id="Контур_7" data-name="Контур 7" d="M2805.71,150.7v2.327a29.773,29.773,0,0,1-1.28,9.251,13.651,13.651,0,0,1-5.178,6.749,37.833,37.833,0,0,1-5.295,3.316,8.88,8.88,0,0,1-3.782,1.047,7.489,7.489,0,0,1-4.887-2.327,10.529,10.529,0,0,1-2.734-4.713,21.627,21.627,0,0,1-.93-6.4,19.738,19.738,0,0,1,.465-4.422,71.7,71.7,0,0,1,1.977-7.1,22.213,22.213,0,0,1,2.416-5,12.58,12.58,0,0,1,3.577-3.578,16.58,16.58,0,0,1,5.237-2.182,10.316,10.316,0,0,1,2.385-.29,6.66,6.66,0,0,1,5.731,3.025,14.325,14.325,0,0,1,2.24,8.029Q2805.652,149.189,2805.71,150.7Zm-8.261,1.367a34.691,34.691,0,0,0,.232-3.811,11.482,11.482,0,0,0-.436-3.52q-.438-1.308-1.368-1.309a1.437,1.437,0,0,0-.523.117q-1.863.7-3.083,3.607a39.955,39.955,0,0,0-2.153,7.854,28.953,28.953,0,0,0-.408,4.887,14.857,14.857,0,0,0,.611,4.626q.612,1.833,1.891,1.832h.233a.524.524,0,0,1,.233-.058,4.009,4.009,0,0,0,2.646-2.909,45.435,45.435,0,0,0,1.6-7.272Q2797.214,154.135,2797.449,152.069Z" fill="#fff"/>
          <path id="Контур_8" data-name="Контур 8" d="M2828.878,146.486a2.871,2.871,0,0,1-4.165-.988c-.06-.11-.121-.217-.182-.323a2.494,2.494,0,0,0-2.183-1.455,3.121,3.121,0,0,0-2.385,1.193,10.516,10.516,0,0,0-1.8,3.112,24.539,24.539,0,0,0-1.192,4.015,34.923,34.923,0,0,0-.611,4.014,18.165,18.165,0,0,0-.117,2.037,17.237,17.237,0,0,0,.989,6.109q.988,2.618,2.734,2.618a4.342,4.342,0,0,0,3.492-2.008c.07-.093.141-.189.211-.287a3.338,3.338,0,0,1,5.646.335h0a4.519,4.519,0,0,1-.719,5.292,16.432,16.432,0,0,1-2.637,2.224,10.409,10.409,0,0,1-5.935,1.891h-.581a4.666,4.666,0,0,0-.582-.058,14.389,14.389,0,0,1-3.695-.989,10.767,10.767,0,0,1-3.432-2.328,11.784,11.784,0,0,1-2.618-4.13,16.668,16.668,0,0,1-1.018-6.167,27.589,27.589,0,0,1,.29-3.9,36.125,36.125,0,0,1,2.328-9.134,24.815,24.815,0,0,1,3.665-6.342,14.609,14.609,0,0,1,4.131-3.578,8.023,8.023,0,0,1,3.724-1.134,8.5,8.5,0,0,1,5.439,2.181,13.557,13.557,0,0,1,2.142,2.228,3.928,3.928,0,0,1-.936,5.571Z" fill="#fff"/>
          <path id="Контур_9" data-name="Контур 9" d="M2857.257,150.7v2.327a29.773,29.773,0,0,1-1.28,9.251,13.647,13.647,0,0,1-5.178,6.749,37.833,37.833,0,0,1-5.3,3.316,8.878,8.878,0,0,1-3.782,1.047,7.489,7.489,0,0,1-4.887-2.327,10.529,10.529,0,0,1-2.734-4.713,21.619,21.619,0,0,1-.93-6.4,19.738,19.738,0,0,1,.465-4.422,71.965,71.965,0,0,1,1.977-7.1,22.192,22.192,0,0,1,2.416-5,12.58,12.58,0,0,1,3.577-3.578,16.582,16.582,0,0,1,5.237-2.182,10.313,10.313,0,0,1,2.385-.29,6.659,6.659,0,0,1,5.731,3.025,14.321,14.321,0,0,1,2.24,8.029Q2857.2,149.189,2857.257,150.7ZM2849,152.069a34.751,34.751,0,0,0,.232-3.811,11.474,11.474,0,0,0-.436-3.52q-.438-1.308-1.368-1.309a1.438,1.438,0,0,0-.523.117q-1.863.7-3.083,3.607a39.921,39.921,0,0,0-2.153,7.854,28.953,28.953,0,0,0-.408,4.887,14.858,14.858,0,0,0,.611,4.626q.612,1.833,1.891,1.832h.233a.525.525,0,0,1,.233-.058,4.009,4.009,0,0,0,2.646-2.909,45.413,45.413,0,0,0,1.6-7.272Q2848.762,154.135,2849,152.069Z" fill="#fff"/>
          <path id="Контур_10" data-name="Контур 10" d="M2905.487,149.771a16.023,16.023,0,0,1-.728,4.625,16.665,16.665,0,0,1-2.24,4.625,21.1,21.1,0,0,1-3.258,3.608q-2.211,2.037-5,4.189t-5.876,4.16q-.515.335-1.02.656a7.62,7.62,0,0,1-9-.574l-.061-.051a9.9,9.9,0,0,1-3.37-8.755c.044-.359.088-.713.131-1.051q.7-5.5,1.775-13.527t1.628-11.9q.189-1.332.349-2.454a6.824,6.824,0,0,1,3.973-5.269q1.881-.841,3.853-1.5a31.568,31.568,0,0,1,7.039-1.571h.466a3.6,3.6,0,0,1,.524-.058,10.974,10.974,0,0,1,5.7,1.483,4.666,4.666,0,0,1,2.56,4.044,8.878,8.878,0,0,1-.756,3.346,17.894,17.894,0,0,1-1.979,3.549,25.348,25.348,0,0,1-2.531,3.054,11.747,11.747,0,0,1-2.414,1.978,20.828,20.828,0,0,1,2.56-.174,8.9,8.9,0,0,1,4.742,1.105,5.8,5.8,0,0,1,2.473,3.2A10.35,10.35,0,0,1,2905.487,149.771Zm-12.189-.553a3.693,3.693,0,0,0-2.879-1.193,7.444,7.444,0,0,0-3.317.873l-1.28,13.9a22.358,22.358,0,0,0,2.531-1.6,20.743,20.743,0,0,0,2.764-2.385,13.9,13.9,0,0,0,2.24-3,7.876,7.876,0,0,0,1.018-3.258A4.819,4.819,0,0,0,2893.3,149.218Zm-.756-16.465a2.922,2.922,0,0,0-2.356-1.192,3.672,3.672,0,0,0-2.037.7l-.872,11.17a17.066,17.066,0,0,0,1.92-1.687,28.173,28.173,0,0,0,2.007-2.24,17.336,17.336,0,0,0,1.6-2.327,4.882,4.882,0,0,0,.7-1.891A3.981,3.981,0,0,0,2892.542,132.753Z" fill="#fff"/>
          <path id="Контур_11" data-name="Контур 11" d="M2921.162,173.517a1.858,1.858,0,0,1-2.348-1.578l0-.031q-.174-1.541-.233-3.4a11.444,11.444,0,0,1-3.287,3.084,7.288,7.288,0,0,1-3.811,1.1,7.789,7.789,0,0,1-4.945-1.862,10.868,10.868,0,0,1-2.967-3.4,8.037,8.037,0,0,1-.873-3.7,20.64,20.64,0,0,1,.931-5.178,9.18,9.18,0,0,1,3.141-5.032,16.578,16.578,0,0,1,5.586-2.531,12.337,12.337,0,0,0,4.858-2.444,5.967,5.967,0,0,0,2.3-3.491,16.429,16.429,0,0,0,.29-2.792q0-2.561-1.28-2.56a2.484,2.484,0,0,0-1.483.7,10.073,10.073,0,0,0-1.659,1.8,13.268,13.268,0,0,0-1.4,2.385l-.012.026a2.8,2.8,0,0,1-3.349,1.576l-1.826-.549a2.869,2.869,0,0,1-1.611-4.272,13.948,13.948,0,0,1,2.988-3.413,9.81,9.81,0,0,1,6.312-2.27,12.472,12.472,0,0,1,3.84.64,12.206,12.206,0,0,1,5.44,3.433,9.137,9.137,0,0,1,1.716,5.934,28.063,28.063,0,0,1-.524,5,45.376,45.376,0,0,0-.582,7.563,59.283,59.283,0,0,0,.437,7.186q.1.825.212,1.6a5.335,5.335,0,0,1-3.851,5.908Zm-4.621-20.634a13.555,13.555,0,0,0-2.56,2.124,10.65,10.65,0,0,0-1.949,2.822,7.232,7.232,0,0,0-.727,3.113,6.2,6.2,0,0,0,.116,1.222,5.3,5.3,0,0,0,1.047,2.414,2.018,2.018,0,0,0,1.513.785,3.931,3.931,0,0,0,2.91-1.862,6.875,6.875,0,0,0,1.133-2.908,42.107,42.107,0,0,0,.5-4.655,40.538,40.538,0,0,1,.466-4.131A7.715,7.715,0,0,0,2916.541,152.883Z" fill="#fff"/>
          <path id="Контур_12" data-name="Контур 12" d="M2949.05,147.137a3.234,3.234,0,0,1-4.7-2.866,7.918,7.918,0,0,0-.054-1.132q-.406-1.8-1.454-1.8-.933,0-1.949,1.425a12.641,12.641,0,0,0-1.717,3.869,18.717,18.717,0,0,0-.582,5.062,52.087,52.087,0,0,0,.786,8.407q.457,2.771,1.106,5.908a4.762,4.762,0,0,1-3.475,5.58l-.454.119-.056.015a3.99,3.99,0,0,1-5.008-3.55q-.3-4.12-.52-8.508-.349-7.1-.349-13.323,0-2.837.074-5.243a5.486,5.486,0,0,1,3.573-4.98l.047-.018.047-.017a3.051,3.051,0,0,1,4.079,2.717c.05.916.092,1.666.092,1.78a14.817,14.817,0,0,1,3.636-3.723,9.423,9.423,0,0,1,4.858-1.513,4.107,4.107,0,0,1,4.132,2.531,13.914,13.914,0,0,1,.894,3.281,5.677,5.677,0,0,1-3,5.983Z" fill="#fff"/>
        </g>
        <g id="Сгруппировать_9" data-name="Сгруппировать 9">
          <g id="Сгруппировать_8" data-name="Сгруппировать 8">
            <path id="Контур_13" data-name="Контур 13" d="M2749.524,137.69a2.056,2.056,0,0,1-3.429-.954q-.165-.652-.354-1.2-.641-1.861-1.745-1.862a3.129,3.129,0,0,0-2.619,1.833,17.494,17.494,0,0,0-1.832,4.625,49.3,49.3,0,0,0-1.134,5.76q-.408,2.967-.64,5.818-.234,2.618-.233,5a26.062,26.062,0,0,0,.582,6.08q.58,2.356,1.861,2.357a3.34,3.34,0,0,0,2.095-1.048,17.036,17.036,0,0,0,2.328-2.647,27.089,27.089,0,0,0,2.064-3.316q.361-.687.643-1.3a.908.908,0,0,1,1.611-.1l2.923,4.937a4.4,4.4,0,0,1-.3,4.934q-.177.229-.365.462a16.876,16.876,0,0,1-7.244,5.09,14.163,14.163,0,0,1-4.916.844,13.785,13.785,0,0,1-4.946-.96,10,10,0,0,1-3.868-2.851,13.742,13.742,0,0,1-2.589-5.207,29.1,29.1,0,0,1-.932-7.913l.059-.872v-.931a32.953,32.953,0,0,1,1.833-9.978,37.063,37.063,0,0,1,4.072-8.291,32.129,32.129,0,0,1,4.974-5.934,17.44,17.44,0,0,1,4.6-3.2,11.359,11.359,0,0,1,4.3-.931,7.419,7.419,0,0,1,5.207,1.949,8.462,8.462,0,0,1,1.106,1.235,4.666,4.666,0,0,1-.553,6.074Z" fill="#210d0b"/>
            <path id="Контур_14" data-name="Контур 14" d="M2777.8,161.364q-.35,2.967-.786,5.41-.233,1.308-.475,2.465a3.558,3.558,0,0,1-2.216,2.587l-2.826,1.087a2.318,2.318,0,0,1-3.128-2.48q.546-3.949.936-7.847.582-5.817.815-10.24,0-.291.059-1.047v-.815q0-2.385-.874-2.385-.639,0-1.832,1.134a33.224,33.224,0,0,0-3.113,3.637q-.117,2.792-.145,4.6t-.029,3.665q0,.816-.059,2.851v2.286a3.623,3.623,0,0,1-2.243,3.35l-4.56,1.878a.821.821,0,0,1-1.138-.736q-.146-6.327-.145-13.818,0-7.911.174-15.971.131-6,.325-11.18a4.917,4.917,0,0,1,3.427-4.5l6.109-1.947a1.493,1.493,0,0,1,1.905,1.774q-.165.679-.362,1.453-.583,2.328-.961,4.014t-.726,4.015q-.349,2.328-.7,5.527t-.582,7.331a25.518,25.518,0,0,1,5.876-6.516,9.772,9.772,0,0,1,5.7-1.979,2.426,2.426,0,0,1,2.211,1.338,9.093,9.093,0,0,1,.582,3.724q0,1.105-.116,3.956-.059.873-.117,2.327Q2778.555,155.546,2777.8,161.364Z" fill="#210d0b"/>
            <path id="Контур_15" data-name="Контур 15" d="M2805.143,150.135v2.327a29.773,29.773,0,0,1-1.28,9.251,13.647,13.647,0,0,1-5.178,6.749,37.833,37.833,0,0,1-5.3,3.316,8.878,8.878,0,0,1-3.781,1.047,7.489,7.489,0,0,1-4.888-2.327,10.529,10.529,0,0,1-2.734-4.713,21.619,21.619,0,0,1-.93-6.4,19.738,19.738,0,0,1,.465-4.422,71.965,71.965,0,0,1,1.977-7.1,22.192,22.192,0,0,1,2.416-5,12.58,12.58,0,0,1,3.577-3.578,16.584,16.584,0,0,1,5.237-2.182,10.313,10.313,0,0,1,2.385-.29,6.659,6.659,0,0,1,5.731,3.025,14.321,14.321,0,0,1,2.24,8.029Q2805.085,148.622,2805.143,150.135Zm-8.261,1.367a34.507,34.507,0,0,0,.232-3.81,11.477,11.477,0,0,0-.436-3.521q-.438-1.308-1.368-1.309a1.436,1.436,0,0,0-.523.117q-1.863.7-3.083,3.607a39.989,39.989,0,0,0-2.153,7.854,28.953,28.953,0,0,0-.408,4.887,14.858,14.858,0,0,0,.611,4.626q.612,1.833,1.891,1.832h.233a.525.525,0,0,1,.233-.058,4.009,4.009,0,0,0,2.646-2.909,45.413,45.413,0,0,0,1.6-7.272Q2796.648,153.568,2796.882,151.5Z" fill="#210d0b"/>
            <path id="Контур_16" data-name="Контур 16" d="M2828.311,145.919a2.871,2.871,0,0,1-4.165-.988c-.06-.109-.121-.217-.182-.323a2.5,2.5,0,0,0-2.183-1.455,3.117,3.117,0,0,0-2.384,1.193,10.484,10.484,0,0,0-1.8,3.113,24.475,24.475,0,0,0-1.192,4.014,34.9,34.9,0,0,0-.611,4.015,18.076,18.076,0,0,0-.117,2.036,17.232,17.232,0,0,0,.989,6.109q.988,2.618,2.735,2.618a4.342,4.342,0,0,0,3.491-2.007c.07-.094.141-.19.211-.288a3.338,3.338,0,0,1,5.646.335h0a4.519,4.519,0,0,1-.719,5.292,16.412,16.412,0,0,1-2.637,2.224,10.407,10.407,0,0,1-5.935,1.891h-.581a4.671,4.671,0,0,0-.582-.058,14.393,14.393,0,0,1-3.7-.989,10.777,10.777,0,0,1-3.432-2.328,11.785,11.785,0,0,1-2.618-4.13,16.688,16.688,0,0,1-1.018-6.167,27.451,27.451,0,0,1,.291-3.9,36.075,36.075,0,0,1,2.327-9.134,24.8,24.8,0,0,1,3.665-6.342,14.605,14.605,0,0,1,4.131-3.578,8.025,8.025,0,0,1,3.724-1.134,8.492,8.492,0,0,1,5.439,2.182,13.512,13.512,0,0,1,2.142,2.227,3.927,3.927,0,0,1-.936,5.571Z" fill="#210d0b"/>
            <path id="Контур_17" data-name="Контур 17" d="M2856.69,150.135v2.327a29.773,29.773,0,0,1-1.28,9.251,13.645,13.645,0,0,1-5.178,6.749,37.888,37.888,0,0,1-5.294,3.316,8.887,8.887,0,0,1-3.782,1.047,7.489,7.489,0,0,1-4.888-2.327,10.529,10.529,0,0,1-2.734-4.713,21.627,21.627,0,0,1-.93-6.4,19.738,19.738,0,0,1,.465-4.422,71.972,71.972,0,0,1,1.977-7.1,22.213,22.213,0,0,1,2.416-5,12.58,12.58,0,0,1,3.577-3.578,16.583,16.583,0,0,1,5.237-2.182,10.316,10.316,0,0,1,2.385-.29,6.66,6.66,0,0,1,5.731,3.025,14.325,14.325,0,0,1,2.24,8.029Q2856.632,148.622,2856.69,150.135Zm-8.261,1.367a34.448,34.448,0,0,0,.232-3.81,11.478,11.478,0,0,0-.436-3.521q-.438-1.308-1.368-1.309a1.437,1.437,0,0,0-.523.117q-1.863.7-3.083,3.607a40.023,40.023,0,0,0-2.153,7.854,28.953,28.953,0,0,0-.408,4.887,14.857,14.857,0,0,0,.611,4.626q.612,1.833,1.891,1.832h.233a.524.524,0,0,1,.233-.058,4.009,4.009,0,0,0,2.646-2.909,45.435,45.435,0,0,0,1.6-7.272Q2848.194,153.568,2848.429,151.5Z" fill="#210d0b"/>
            <path id="Контур_18" data-name="Контур 18" d="M2904.92,149.2a16.06,16.06,0,0,1-.727,4.626,16.735,16.735,0,0,1-2.24,4.625,21.194,21.194,0,0,1-3.259,3.607q-2.211,2.037-5,4.189t-5.876,4.16q-.515.335-1.02.656a7.62,7.62,0,0,1-9-.574l-.061-.051a9.9,9.9,0,0,1-3.37-8.755c.044-.359.088-.713.131-1.051q.7-5.5,1.775-13.526t1.628-11.9q.19-1.332.349-2.454a6.824,6.824,0,0,1,3.973-5.269q1.881-.841,3.853-1.5a31.622,31.622,0,0,1,7.039-1.571h.466a3.6,3.6,0,0,1,.524-.058,10.981,10.981,0,0,1,5.7,1.483,4.667,4.667,0,0,1,2.559,4.044,8.883,8.883,0,0,1-.756,3.346,17.878,17.878,0,0,1-1.979,3.549,25.434,25.434,0,0,1-2.53,3.054,11.75,11.75,0,0,1-2.415,1.978,20.835,20.835,0,0,1,2.56-.174,8.9,8.9,0,0,1,4.742,1.1,5.8,5.8,0,0,1,2.473,3.2A10.358,10.358,0,0,1,2904.92,149.2Zm-12.189-.553a3.693,3.693,0,0,0-2.879-1.192,7.442,7.442,0,0,0-3.317.872l-1.28,13.906a22.527,22.527,0,0,0,2.531-1.6,20.745,20.745,0,0,0,2.764-2.385,13.909,13.909,0,0,0,2.24-3,7.883,7.883,0,0,0,1.018-3.258A4.819,4.819,0,0,0,2892.731,148.651Zm-.756-16.465a2.923,2.923,0,0,0-2.356-1.192,3.672,3.672,0,0,0-2.037.7l-.872,11.17a17.044,17.044,0,0,0,1.92-1.687,27.764,27.764,0,0,0,2.007-2.24,17.253,17.253,0,0,0,1.6-2.327,4.866,4.866,0,0,0,.7-1.891A3.976,3.976,0,0,0,2891.975,132.186Z" fill="#210d0b"/>
            <path id="Контур_19" data-name="Контур 19" d="M2920.595,172.95a1.858,1.858,0,0,1-2.348-1.578l0-.03q-.175-1.542-.233-3.4a11.443,11.443,0,0,1-3.288,3.084,7.287,7.287,0,0,1-3.81,1.1,7.794,7.794,0,0,1-4.946-1.861,10.882,10.882,0,0,1-2.967-3.4,8.033,8.033,0,0,1-.873-3.694,20.641,20.641,0,0,1,.931-5.179,9.175,9.175,0,0,1,3.142-5.032,16.587,16.587,0,0,1,5.585-2.531,12.338,12.338,0,0,0,4.858-2.444,5.967,5.967,0,0,0,2.3-3.49,16.325,16.325,0,0,0,.29-2.793q0-2.561-1.28-2.56a2.483,2.483,0,0,0-1.483.7,10.073,10.073,0,0,0-1.659,1.8,13.267,13.267,0,0,0-1.4,2.385l-.012.026a2.8,2.8,0,0,1-3.349,1.576l-1.826-.549a2.869,2.869,0,0,1-1.611-4.272,13.948,13.948,0,0,1,2.988-3.413,9.815,9.815,0,0,1,6.312-2.27,12.473,12.473,0,0,1,3.84.64,12.206,12.206,0,0,1,5.44,3.433,9.139,9.139,0,0,1,1.716,5.934,28.043,28.043,0,0,1-.524,5,45.407,45.407,0,0,0-.581,7.563,59.282,59.282,0,0,0,.436,7.186q.1.825.212,1.6a5.335,5.335,0,0,1-3.851,5.908Zm-4.621-20.633a13.541,13.541,0,0,0-2.56,2.123,10.645,10.645,0,0,0-1.949,2.822,7.229,7.229,0,0,0-.727,3.113,6.272,6.272,0,0,0,.116,1.222,5.3,5.3,0,0,0,1.047,2.414,2.019,2.019,0,0,0,1.513.785,3.931,3.931,0,0,0,2.91-1.861,6.888,6.888,0,0,0,1.133-2.909,42.175,42.175,0,0,0,.495-4.655,40.472,40.472,0,0,1,.466-4.13A7.666,7.666,0,0,0,2915.974,152.317Z" fill="#210d0b"/>
            <path id="Контур_20" data-name="Контур 20" d="M2948.483,146.57a3.234,3.234,0,0,1-4.7-2.866,7.77,7.77,0,0,0-.054-1.132q-.406-1.8-1.454-1.8-.933,0-1.949,1.425a12.647,12.647,0,0,0-1.717,3.869,18.727,18.727,0,0,0-.582,5.062,52.062,52.062,0,0,0,.786,8.407q.459,2.771,1.106,5.908a4.761,4.761,0,0,1-3.475,5.58c-.15.039-.3.078-.453.119l-.057.015a3.989,3.989,0,0,1-5.008-3.55q-.3-4.12-.52-8.508-.35-7.1-.349-13.323,0-2.837.074-5.243a5.489,5.489,0,0,1,3.573-4.98l.047-.017.047-.018a3.051,3.051,0,0,1,4.079,2.717c.05.916.092,1.666.092,1.781a14.822,14.822,0,0,1,3.636-3.724,9.422,9.422,0,0,1,4.858-1.513,4.107,4.107,0,0,1,4.132,2.531,13.926,13.926,0,0,1,.894,3.281,5.677,5.677,0,0,1-3,5.983Z" fill="#210d0b"/>
          </g>
        </g>
      </g>
      <g id="Сгруппировать_11" data-name="Сгруппировать 11">
        <path id="Контур_21" data-name="Контур 21" d="M2748.482,137.69a2.056,2.056,0,0,1-3.429-.954q-.165-.652-.354-1.2-.641-1.861-1.744-1.862a3.127,3.127,0,0,0-2.619,1.833,17.535,17.535,0,0,0-1.833,4.625,49.5,49.5,0,0,0-1.134,5.76q-.408,2.967-.64,5.818-.234,2.618-.233,5a26.077,26.077,0,0,0,.582,6.08q.581,2.356,1.862,2.357a3.342,3.342,0,0,0,2.095-1.048,17.033,17.033,0,0,0,2.327-2.647,27.1,27.1,0,0,0,2.065-3.316q.36-.687.642-1.3a.908.908,0,0,1,1.611-.1l2.924,4.937a4.406,4.406,0,0,1-.3,4.934c-.119.153-.24.307-.366.462a16.876,16.876,0,0,1-7.244,5.09,14.162,14.162,0,0,1-4.915.844,13.781,13.781,0,0,1-4.946-.96,10,10,0,0,1-3.869-2.851,13.757,13.757,0,0,1-2.589-5.207,29.107,29.107,0,0,1-.931-7.913l.058-.872v-.931a32.953,32.953,0,0,1,1.833-9.978,37.146,37.146,0,0,1,4.072-8.291,32.131,32.131,0,0,1,4.975-5.934,17.422,17.422,0,0,1,4.6-3.2,11.363,11.363,0,0,1,4.306-.931,7.416,7.416,0,0,1,5.206,1.949,8.468,8.468,0,0,1,1.107,1.235,4.668,4.668,0,0,1-.553,6.074Z" fill="#fff"/>
        <path id="Контур_22" data-name="Контур 22" d="M2776.757,161.364q-.35,2.967-.786,5.41-.234,1.308-.475,2.465a3.561,3.561,0,0,1-2.217,2.587l-2.825,1.087a2.318,2.318,0,0,1-3.129-2.48q.547-3.949.937-7.847.58-5.817.814-10.24,0-.291.059-1.047v-.815q0-2.385-.873-2.385-.641,0-1.833,1.134a33.13,33.13,0,0,0-3.112,3.637q-.118,2.792-.145,4.6t-.03,3.665q0,.816-.058,2.851v2.286a3.623,3.623,0,0,1-2.244,3.35l-4.559,1.878a.822.822,0,0,1-1.139-.736q-.144-6.327-.145-13.818,0-7.911.174-15.971.131-6,.325-11.18a4.919,4.919,0,0,1,3.427-4.5l6.11-1.947a1.492,1.492,0,0,1,1.9,1.774q-.165.679-.362,1.453-.583,2.328-.961,4.014t-.726,4.015q-.349,2.328-.7,5.527t-.582,7.331a25.5,25.5,0,0,1,5.877-6.516,9.77,9.77,0,0,1,5.7-1.979,2.426,2.426,0,0,1,2.211,1.338,9.074,9.074,0,0,1,.583,3.724q0,1.105-.117,3.956-.059.873-.116,2.327Q2777.512,155.546,2776.757,161.364Z" fill="#fff"/>
        <path id="Контур_23" data-name="Контур 23" d="M2804.1,150.135v2.327a29.773,29.773,0,0,1-1.28,9.251,13.641,13.641,0,0,1-5.178,6.749,37.9,37.9,0,0,1-5.294,3.316,8.88,8.88,0,0,1-3.782,1.047,7.489,7.489,0,0,1-4.888-2.327,10.537,10.537,0,0,1-2.734-4.713,21.619,21.619,0,0,1-.93-6.4,19.8,19.8,0,0,1,.465-4.422,71.668,71.668,0,0,1,1.978-7.1,22.149,22.149,0,0,1,2.415-5,12.592,12.592,0,0,1,3.577-3.578,16.591,16.591,0,0,1,5.237-2.182,10.326,10.326,0,0,1,2.385-.29,6.657,6.657,0,0,1,5.731,3.025,14.321,14.321,0,0,1,2.24,8.029Q2804.043,148.622,2804.1,150.135Zm-8.261,1.367a34.507,34.507,0,0,0,.232-3.81,11.477,11.477,0,0,0-.436-3.521q-.437-1.308-1.367-1.309a1.44,1.44,0,0,0-.524.117q-1.863.7-3.083,3.607a39.989,39.989,0,0,0-2.153,7.854,28.954,28.954,0,0,0-.407,4.887,14.829,14.829,0,0,0,.611,4.626q.611,1.833,1.89,1.832h.233a.528.528,0,0,1,.233-.058,4.01,4.01,0,0,0,2.647-2.909,45.433,45.433,0,0,0,1.6-7.272Q2795.606,153.568,2795.84,151.5Z" fill="#fff"/>
        <path id="Контур_24" data-name="Контур 24" d="M2827.27,145.919a2.872,2.872,0,0,1-4.166-.988c-.06-.109-.121-.217-.182-.323a2.493,2.493,0,0,0-2.182-1.455,3.117,3.117,0,0,0-2.385,1.193,10.527,10.527,0,0,0-1.8,3.113,24.571,24.571,0,0,0-1.192,4.014,35.118,35.118,0,0,0-.611,4.015,18.3,18.3,0,0,0-.116,2.036,17.255,17.255,0,0,0,.988,6.109q.988,2.618,2.735,2.618a4.34,4.34,0,0,0,3.491-2.007q.107-.141.211-.288a3.339,3.339,0,0,1,5.647.335h0a4.519,4.519,0,0,1-.72,5.292,16.412,16.412,0,0,1-2.637,2.224,10.4,10.4,0,0,1-5.934,1.891h-.582a4.671,4.671,0,0,0-.582-.058,14.373,14.373,0,0,1-3.694-.989,10.77,10.77,0,0,1-3.433-2.328,11.8,11.8,0,0,1-2.618-4.13,16.688,16.688,0,0,1-1.018-6.167,27.451,27.451,0,0,1,.291-3.9,36.116,36.116,0,0,1,2.327-9.134,24.865,24.865,0,0,1,3.665-6.342,14.605,14.605,0,0,1,4.131-3.578,8.025,8.025,0,0,1,3.724-1.134,8.495,8.495,0,0,1,5.44,2.182,13.593,13.593,0,0,1,2.142,2.227,3.929,3.929,0,0,1-.936,5.571Z" fill="#fff"/>
        <path id="Контур_25" data-name="Контур 25" d="M2855.648,150.135v2.327a29.773,29.773,0,0,1-1.28,9.251,13.64,13.64,0,0,1-5.178,6.749,37.888,37.888,0,0,1-5.294,3.316,8.88,8.88,0,0,1-3.782,1.047,7.489,7.489,0,0,1-4.888-2.327,10.538,10.538,0,0,1-2.734-4.713,21.627,21.627,0,0,1-.93-6.4,19.8,19.8,0,0,1,.465-4.422,71.675,71.675,0,0,1,1.978-7.1,22.17,22.17,0,0,1,2.415-5,12.6,12.6,0,0,1,3.577-3.578,16.592,16.592,0,0,1,5.237-2.182,10.329,10.329,0,0,1,2.385-.29,6.657,6.657,0,0,1,5.731,3.025,14.325,14.325,0,0,1,2.24,8.029Q2855.59,148.622,2855.648,150.135Zm-8.261,1.367a34.448,34.448,0,0,0,.232-3.81,11.478,11.478,0,0,0-.436-3.521q-.437-1.308-1.367-1.309a1.441,1.441,0,0,0-.524.117q-1.863.7-3.083,3.607a40.023,40.023,0,0,0-2.153,7.854,28.954,28.954,0,0,0-.407,4.887,14.828,14.828,0,0,0,.611,4.626q.61,1.833,1.89,1.832h.233a.527.527,0,0,1,.233-.058,4.008,4.008,0,0,0,2.647-2.909,45.455,45.455,0,0,0,1.6-7.272Q2847.152,153.568,2847.387,151.5Z" fill="#fff"/>
        <path id="Контур_26" data-name="Контур 26" d="M2903.878,149.2a16.052,16.052,0,0,1-.727,4.626,16.727,16.727,0,0,1-2.24,4.625,21.182,21.182,0,0,1-3.258,3.607q-2.213,2.037-5,4.189t-5.876,4.16q-.516.335-1.021.656a7.62,7.62,0,0,1-9-.574l-.061-.051a9.906,9.906,0,0,1-3.369-8.755c.043-.359.087-.713.13-1.051q.7-5.5,1.775-13.526t1.628-11.9q.19-1.332.349-2.454a6.825,6.825,0,0,1,3.974-5.269q1.879-.841,3.852-1.5a31.622,31.622,0,0,1,7.039-1.571h.466a3.6,3.6,0,0,1,.524-.058,10.978,10.978,0,0,1,5.7,1.483,4.667,4.667,0,0,1,2.559,4.044,8.864,8.864,0,0,1-.756,3.346,17.934,17.934,0,0,1-1.978,3.549,25.531,25.531,0,0,1-2.531,3.054,11.773,11.773,0,0,1-2.414,1.978,20.822,20.822,0,0,1,2.56-.174,8.9,8.9,0,0,1,4.741,1.1,5.8,5.8,0,0,1,2.473,3.2A10.329,10.329,0,0,1,2903.878,149.2Zm-12.189-.553a3.691,3.691,0,0,0-2.879-1.192,7.442,7.442,0,0,0-3.317.872l-1.28,13.906a22.352,22.352,0,0,0,2.531-1.6,20.745,20.745,0,0,0,2.764-2.385,13.909,13.909,0,0,0,2.24-3,7.883,7.883,0,0,0,1.018-3.258A4.819,4.819,0,0,0,2891.689,148.651Zm-.756-16.465a2.923,2.923,0,0,0-2.356-1.192,3.669,3.669,0,0,0-2.036.7l-.873,11.17a16.959,16.959,0,0,0,1.92-1.687,27.764,27.764,0,0,0,2.007-2.24,17.253,17.253,0,0,0,1.6-2.327,4.85,4.85,0,0,0,.7-1.891A3.976,3.976,0,0,0,2890.933,132.186Z" fill="#fff"/>
        <path id="Контур_27" data-name="Контур 27" d="M2919.553,172.95a1.858,1.858,0,0,1-2.348-1.578l0-.03q-.175-1.542-.233-3.4a11.431,11.431,0,0,1-3.288,3.084,7.285,7.285,0,0,1-3.81,1.1,7.791,7.791,0,0,1-4.945-1.861,10.886,10.886,0,0,1-2.968-3.4,8.045,8.045,0,0,1-.873-3.694,20.641,20.641,0,0,1,.931-5.179,9.181,9.181,0,0,1,3.142-5.032,16.587,16.587,0,0,1,5.585-2.531,12.324,12.324,0,0,0,4.858-2.444,5.967,5.967,0,0,0,2.3-3.49,16.337,16.337,0,0,0,.291-2.793q0-2.561-1.281-2.56a2.483,2.483,0,0,0-1.483.7,10.109,10.109,0,0,0-1.659,1.8,13.267,13.267,0,0,0-1.4,2.385l-.011.026a2.8,2.8,0,0,1-3.35,1.576l-1.826-.549a2.869,2.869,0,0,1-1.611-4.272,13.948,13.948,0,0,1,2.988-3.413,9.82,9.82,0,0,1,6.313-2.27,12.467,12.467,0,0,1,3.839.64,12.206,12.206,0,0,1,5.44,3.433,9.139,9.139,0,0,1,1.716,5.934,28.043,28.043,0,0,1-.524,5,45.512,45.512,0,0,0-.581,7.563,59.481,59.481,0,0,0,.436,7.186q.1.825.212,1.6a5.335,5.335,0,0,1-3.851,5.908Zm-4.621-20.633a13.578,13.578,0,0,0-2.56,2.123,10.69,10.69,0,0,0-1.949,2.822,7.227,7.227,0,0,0-.726,3.113,6.273,6.273,0,0,0,.115,1.222,5.293,5.293,0,0,0,1.048,2.414,2.016,2.016,0,0,0,1.512.785,3.928,3.928,0,0,0,2.91-1.861,6.9,6.9,0,0,0,1.134-2.909,42.208,42.208,0,0,0,.494-4.655,40.472,40.472,0,0,1,.466-4.13A7.67,7.67,0,0,0,2914.932,152.317Z" fill="#fff"/>
        <path id="Контур_28" data-name="Контур 28" d="M2947.442,146.57a3.235,3.235,0,0,1-4.7-2.866,7.77,7.77,0,0,0-.054-1.132q-.406-1.8-1.454-1.8-.932,0-1.949,1.425a12.671,12.671,0,0,0-1.716,3.869,18.684,18.684,0,0,0-.583,5.062,52.2,52.2,0,0,0,.786,8.407q.459,2.771,1.106,5.908a4.761,4.761,0,0,1-3.475,5.58l-.453.119-.057.015a3.989,3.989,0,0,1-5.008-3.55q-.3-4.12-.52-8.508-.35-7.1-.349-13.323,0-2.837.075-5.243a5.486,5.486,0,0,1,3.573-4.98l.047-.017.047-.018a3.05,3.05,0,0,1,4.078,2.717c.05.916.092,1.666.092,1.781a14.808,14.808,0,0,1,3.637-3.724,9.42,9.42,0,0,1,4.858-1.513,4.107,4.107,0,0,1,4.131,2.531,13.926,13.926,0,0,1,.894,3.281,5.678,5.678,0,0,1-3,5.983Z" fill="#fff"/>
      </g>
      <path id="Контур_29" data-name="Контур 29" d="M2744.631,127.454s4.073-.4,5.666,2.681a3.672,3.672,0,0,1-.86,4.831A8.84,8.84,0,0,0,2744.631,127.454Z" fill="url(#radial-gradient)"/>
      <path id="Контур_30" data-name="Контур 30" d="M2824.072,139.455a3.468,3.468,0,0,1,3.417,1.8,2.636,2.636,0,0,1-.519,3.249A6.124,6.124,0,0,0,2824.072,139.455Z" fill="url(#radial-gradient-2)"/>
      <path id="Контур_31" data-name="Контур 31" d="M2882.721,129.3a3.231,3.231,0,0,0-3.732,1.854,4.232,4.232,0,0,0-.125,4.329S2879.542,130.966,2882.721,129.3Z" fill="url(#radial-gradient-3)"/>
      <path id="Контур_32" data-name="Контур 32" d="M2923.657,166.536a2.9,2.9,0,0,1-1.021,3.6,3.8,3.8,0,0,1-3.8.822S2922.713,169.617,2923.657,166.536Z" fill="url(#radial-gradient-4)"/>
      <path id="Контур_33" data-name="Контур 33" d="M2937.165,165.55a2.9,2.9,0,0,1-1.022,3.6,3.8,3.8,0,0,1-3.8.822S2936.22,168.63,2937.165,165.55Z" fill="url(#radial-gradient-5)"/>
      <path id="Контур_34" data-name="Контур 34" d="M2906.548,140.926a2.1,2.1,0,0,0,.174,2.7,2.747,2.747,0,0,0,2.56,1.159S2906.747,143.246,2906.548,140.926Z" fill="url(#radial-gradient-6)"/>
      <path id="Контур_35" data-name="Контур 35" d="M2935.044,137.534a2.1,2.1,0,0,0-2.7-.2,2.744,2.744,0,0,0-1.5,2.373S2932.719,137.407,2935.044,137.534Z" fill="url(#radial-gradient-7)"/>
      <path id="Контур_36" data-name="Контур 36" d="M2944.186,142.14a2.1,2.1,0,0,0,.174,2.7,2.746,2.746,0,0,0,2.56,1.16S2944.385,144.46,2944.186,142.14Z" fill="url(#radial-gradient-8)"/>
      <path id="Контур_37" data-name="Контур 37" d="M2748.552,160.773s1.385,2.125.854,3.851a9.046,9.046,0,0,1-2.5,3.965A11.707,11.707,0,0,0,2748.552,160.773Z" fill="url(#radial-gradient-9)"/>
      <path id="Контур_38" data-name="Контур 38" d="M2825.913,164.307s1.384,1.738.853,3.151a7.415,7.415,0,0,1-2.5,3.244A8.221,8.221,0,0,0,2825.913,164.307Z" fill="url(#radial-gradient-10)"/>
      <path id="Контур_39" data-name="Контур 39" d="M2883.689,169.978s-3.929,1.872-5.6-.194a14.037,14.037,0,0,1-2.66-7.525C2876.656,165.106,2878.87,169.468,2883.689,169.978Z" fill="url(#radial-gradient-11)"/>
      <path id="Контур_40" data-name="Контур 40" d="M2771.77,171.636s2.317-1.032,2.809-2.77a9.042,9.042,0,0,0,.052-4.689A11.7,11.7,0,0,1,2771.77,171.636Z" fill="url(#radial-gradient-12)"/>
      <path id="Контур_41" data-name="Контур 41" d="M2777.044,142.061s-.6-1.859-1.84-1.893a6.3,6.3,0,0,0-3.428,1.067C2773.143,140.908,2775.343,140.523,2777.044,142.061Z" fill="url(#radial-gradient-13)"/>
      <path id="Контур_42" data-name="Контур 42" d="M2790.98,170.568s-1.508,1.548-2.9,1.158a7.126,7.126,0,0,1-3.336-2.173A7.589,7.589,0,0,0,2790.98,170.568Z" fill="url(#radial-gradient-14)"/>
      <path id="Контур_43" data-name="Контур 43" d="M2800.877,141.567s-.652-2.319-2.228-2.919a8.332,8.332,0,0,0-4.433-.385A10.234,10.234,0,0,1,2800.877,141.567Z" fill="url(#radial-gradient-15)"/>
      <path id="Контур_44" data-name="Контур 44" d="M2842.3,170.568s-1.508,1.548-2.9,1.158a7.126,7.126,0,0,1-3.336-2.173A7.589,7.589,0,0,0,2842.3,170.568Z" fill="url(#radial-gradient-16)"/>
      <path id="Контур_45" data-name="Контур 45" d="M2852.2,141.567s-.652-2.319-2.228-2.919a8.332,8.332,0,0,0-4.433-.385A10.232,10.232,0,0,1,2852.2,141.567Z" fill="url(#radial-gradient-17)"/>
      <path id="Контур_46" data-name="Контур 46" d="M2760.5,126.811s-2.392.842-3.023,2.535a9.041,9.041,0,0,0-.429,4.669A11.7,11.7,0,0,1,2760.5,126.811Z" fill="url(#radial-gradient-18)"/>
    </g>
  </g>
</svg>
