<svg xmlns="http://www.w3.org/2000/svg" xmlns:xlink="http://www.w3.org/1999/xlink" width="280.63" height="139.64" viewBox="0 0 280.63 139.64">
  <defs>
    <clipPath id="clip-Монтажная_область_4">
      <rect width="280.63" height="139.64"/>
    </clipPath>
  </defs>
  <g id="Монтажная_область_4" data-name="Монтажная область – 4" clip-path="url(#clip-Монтажная_область_4)">
    <g id="Сгруппировать_156" data-name="Сгруппировать 156" transform="translate(-553 -84)">
      <path id="Контур_473" data-name="Контур 473" d="M658.847,171.089l-.069-.062h0a2.624,2.624,0,0,0-1.677-.678h-.022a3.176,3.176,0,0,0-1.7.473,3.4,3.4,0,0,0-1.22,1.394,3.025,3.025,0,0,0-.194,2.094,3.972,3.972,0,0,0,1.079,1.85,5.321,5.321,0,0,0,1.428.992,5.98,5.98,0,0,1-.694.588,4.743,4.743,0,0,1-1.618.732,2.77,2.77,0,0,1-2.949-.92,8.638,8.638,0,0,1-1.905-4.376,23.665,23.665,0,0,1-.027-7.159A34.607,34.607,0,0,1,651.812,157c.391-.995.915-2.285,1.647-4.061a40.032,40.032,0,0,1,2.67-5.194.423.423,0,0,0,.053-.137c2.439-4.273,2.992-7.433,1.687-9.662a4.312,4.312,0,0,0-1.354-1.416,7.34,7.34,0,0,0-1.428-.7,5.009,5.009,0,0,0-1.29-.295,4.888,4.888,0,0,0-.692-.044c-2.2-.086-4.659,1.12-7.3,3.591a46.329,46.329,0,0,0-7.094,8.659q-.254.377-.5.758l.172-.342c.78-1.551,1.6-3.073,2.437-4.525a23.338,23.338,0,0,0,1.834-3.808,13.26,13.26,0,0,0,.718-2.912,6.027,6.027,0,0,0-.089-2.2,5.946,5.946,0,0,0-.6-1.528,3.8,3.8,0,0,0-1.693-1.392,4.731,4.731,0,0,0-2.206-.323c-1.542.138-3.319,1.275-5.432,3.478-.744.78-1.536,1.694-2.42,2.793-.82,1.027-1.668,2.194-2.587,3.565-.779,1.093-1.52,2.2-2.2,3.294q-1,1.617-1.749,2.858c-.471.77-1,1.692-1.627,2.82a.543.543,0,0,0-.03.068c-.018.04-.122.244-.69,1.26-.513.9-1.19,2.028-2.012,3.34-.844,1.343-1.888,2.907-3.1,4.648-1.192,1.705-2.547,3.467-4.027,5.235-1.292,1.521-2.714,3.044-4.225,4.527a38.339,38.339,0,0,1-4.936,4.094,27.809,27.809,0,0,1-5.454,2.977,15.232,15.232,0,0,1-5.706,1.162c-.426-.025-.906-.068-1.423-.127q-.645-.092-1.492-.2a12.325,12.325,0,0,1-1.6-.325,12.119,12.119,0,0,1-4.609-2.421,11.484,11.484,0,0,1-2.827-3.676,12.928,12.928,0,0,1-1.188-4.586,19.549,19.549,0,0,1,.34-5.216,16.754,16.754,0,0,1,.942-3.281,15.268,15.268,0,0,1,1.3-2.539,14.2,14.2,0,0,1,1.4-1.87,14.825,14.825,0,0,1,1.262-1.257,8.2,8.2,0,0,1,1.313-.872c.463-.244.859-.436,1.152-.575l.2-.075c.18-.069.363-.138.549-.2.258-.093.523-.184.8-.278a3.8,3.8,0,0,0,1.673-1.005,2.632,2.632,0,0,0,.615-1.23,2.483,2.483,0,0,0-.258-1.475,2.773,2.773,0,0,0-.852-.9,2.46,2.46,0,0,0-1.117-.342,2.931,2.931,0,0,0-1.534.384c-.475.257-.993.559-1.546.9-.486.323-1.054.731-1.6,1.121a18.152,18.152,0,0,0-1.886,1.6,11.6,11.6,0,0,0-1.043,1.079l-.835.959c-.293.366-.538.689-.743.984a17.124,17.124,0,0,0-1.4,2.261,22.26,22.26,0,0,0-2.313,6.1,19.2,19.2,0,0,0-.454,3.273,15.235,15.235,0,0,0,.153,3.177,13.778,13.778,0,0,0,1.3,4.515,14.191,14.191,0,0,0,2.864,3.933c2.616,2.5,6.233,4.045,10.753,4.584.626.065,1.21.1,1.783.11a10.412,10.412,0,0,0,1.639-.078,13.7,13.7,0,0,0,1.657-.194c.575-.094,1.382-.272,2.469-.545a22.118,22.118,0,0,0,3.673-1.376,40.6,40.6,0,0,0,4.556-2.557,41.7,41.7,0,0,0,5.247-4.037,58.927,58.927,0,0,0,5.655-5.9,71.923,71.923,0,0,0,5.843-8.13l.6-.956q2.766-4.377,4.892-7.74c1.554-2.443,2.945-4.582,4.135-6.358,1.153-1.722,2.166-3.17,3.014-4.305a23.867,23.867,0,0,1,2.12-2.549,6.742,6.742,0,0,1,1.056-.9,2.256,2.256,0,0,1,.82-.348c.094-.016.239-.01.419.205a1.486,1.486,0,0,1,.2.52,2.386,2.386,0,0,1-.06.915,8,8,0,0,1-.6,1.575,16.172,16.172,0,0,1-1.385,2.246c-.929,1.284-1.9,2.742-2.888,4.333s-2.029,3.465-3.061,5.528a52.512,52.512,0,0,0-3.913,9.77,35.97,35.97,0,0,0-1.331,8.1,5.353,5.353,0,0,0,.1.886,1.916,1.916,0,0,0,.69,1.158,1.292,1.292,0,0,0,.371.254,1.924,1.924,0,0,0,.445.21,2.346,2.346,0,0,0,.6.09,1.992,1.992,0,0,0,1.262-.287,3.118,3.118,0,0,0,.846-.768,4.368,4.368,0,0,0,.53-.9,5.949,5.949,0,0,0,.31-.83c.026-.119.052-.233.092-.389a3.316,3.316,0,0,1,.2-.59q.312-.778.539-1.331l.118-.285c.092-.222.161-.385.19-.464.641-1.307,1.44-2.882,2.445-4.817.886-1.713,1.864-3.5,2.912-5.311q.13-.224.281-.484l-.094-.054c.826-1.349,2.066-3.295,3.779-5.833a48.988,48.988,0,0,1,3.9-5.075,20.008,20.008,0,0,1,3.806-3.42,4.782,4.782,0,0,1,3.229-.976,2.368,2.368,0,0,1,.564.2,1.71,1.71,0,0,1,.4.41,1.752,1.752,0,0,1,.254.756,3.914,3.914,0,0,1-.266,1.608,11.66,11.66,0,0,1-1.454,2.679c-.935,1.32-1.878,2.8-2.8,4.4-.966,1.679-1.889,3.49-2.745,5.383a46.073,46.073,0,0,0-2.9,8.544,31.189,31.189,0,0,0-.8,6.927,16.252,16.252,0,0,0,.874,5.4,11.217,11.217,0,0,0,2.2,3.78,8.277,8.277,0,0,0,3.061,2.133,7.314,7.314,0,0,0,2.663.5,8.986,8.986,0,0,0,2.657-.451,9.35,9.35,0,0,0,1.079-.513l.072-.038a6.775,6.775,0,0,0,2.278-2.265c.08-.121.155-.24.214-.347a6.837,6.837,0,0,0,1.049-3.52,4.073,4.073,0,0,0-.241-1.316A3.335,3.335,0,0,0,658.847,171.089Z" fill="#fff" stroke="#fff" stroke-miterlimit="10" stroke-width="1"/>
      <path id="Контур_474" data-name="Контур 474" d="M772,141.25a1.388,1.388,0,0,0-.411.213,3.861,3.861,0,0,0-.962,1.056,4.543,4.543,0,0,0-.522,1.193,4.148,4.148,0,0,0-.17,1.091,1.435,1.435,0,0,0,.267.875.889.889,0,0,0,.763.355,2.24,2.24,0,0,0,1.111-.32,4.255,4.255,0,0,0,1.007-.809,4.343,4.343,0,0,0,.742-1.108,2.77,2.77,0,0,0,.287-1.192,1.423,1.423,0,0,0-.443-1A1.519,1.519,0,0,0,772,141.25Z" fill="#fff" stroke="#fff" stroke-miterlimit="10" stroke-width="1"/>
      <path id="Контур_475" data-name="Контур 475" d="M679.557,151.041A3.972,3.972,0,0,0,678,151.4a5.985,5.985,0,0,0-.982.527,6.209,6.209,0,0,0-1.538-.709,7.985,7.985,0,0,0-2.318-.291,9.787,9.787,0,0,0-4.642,1.2,13.554,13.554,0,0,0-3.842,3.115,15.692,15.692,0,0,0-2.624,4.29,12.478,12.478,0,0,0-.963,4.794,7.022,7.022,0,0,0,.984,4.1,3.031,3.031,0,0,0,2.533,1.418l.1-.011a8.946,8.946,0,0,0,4.3-2.718,29.643,29.643,0,0,0,2.661-3.17q-.039.261-.071.516a11.607,11.607,0,0,0-.061,2.569,4.487,4.487,0,0,0,.567,1.921,1.613,1.613,0,0,0,1.425.853,4.983,4.983,0,0,0,2.685-1.079,12.974,12.974,0,0,0,3.017-3.152l.053-.074.022-.089a.825.825,0,0,0-.341-.928.716.716,0,0,0-.947.064l-.039.044a7.91,7.91,0,0,1-2.216,2.235c-.129.065-.559.267-.659.128a3.367,3.367,0,0,1-.179-2.047,23.665,23.665,0,0,1,.776-3.9,27.822,27.822,0,0,1,1.741-4.573,21.536,21.536,0,0,1,2.7-4.28l.073-.125a.729.729,0,0,0-.037-.71A.691.691,0,0,0,679.557,151.041ZM671.91,153a4.346,4.346,0,0,1,2.125.494,2.177,2.177,0,0,1,1.026,1.042A42.688,42.688,0,0,1,672.9,158.8a40.317,40.317,0,0,1-2.586,3.94,19.393,19.393,0,0,1-2.488,2.792c-.949.85-1.462.978-1.684.979-.12,0-.485,0-.883-.76a5.143,5.143,0,0,1-.485-2.349,13.841,13.841,0,0,1,.592-4.221,11.483,11.483,0,0,1,1.6-3.284,7.716,7.716,0,0,1,2.272-2.134A5.209,5.209,0,0,1,671.91,153Z" fill="#fff" stroke="#fff" stroke-miterlimit="10" stroke-width="1"/>
      <path id="Контур_476" data-name="Контур 476" d="M697.538,151.252a2.948,2.948,0,0,0-1.67-.495,5.308,5.308,0,0,0-4,2.115,15.219,15.219,0,0,0-1.616,2.306,16.188,16.188,0,0,0,.128-1.954c-.01-2.126-1.275-2.437-2.029-2.434A4.357,4.357,0,0,0,685.632,152a17.062,17.062,0,0,0-2.409,2.507l-.051.081a.81.81,0,0,0,.194,1.03.885.885,0,0,0,1.008.09l.1-.05.066-.089a8.734,8.734,0,0,1,1.293-1.408,1.666,1.666,0,0,1,.989-.523c.1,0,.122.029.139.048.061.069.248.382.1,1.519-.133.917-.31,1.922-.543,3.071-.23,1.124-.517,2.272-.853,3.412-.344,1.165-.7,2.335-1.07,3.476s-.758,2.2-1.146,3.127a1.11,1.11,0,0,0-.1,1.073.927.927,0,0,0,.869.4,6.051,6.051,0,0,0,1.488-.232,1.6,1.6,0,0,0,1.279-1.255,49.681,49.681,0,0,1,3.638-10.153c1.206-2.29,2.549-3.455,3.993-3.461,1.143-.005,1.145.465,1.146.718a.733.733,0,0,0,.355.713.753.753,0,0,0,.8-.114l.071-.059a5.17,5.17,0,0,0,.928-1.435,3.946,3.946,0,0,0,.461-1.649A1.829,1.829,0,0,0,697.538,151.252Z" fill="#fff" stroke="#fff" stroke-miterlimit="10" stroke-width="1"/>
      <path id="Контур_477" data-name="Контур 477" d="M727.986,164.137a.64.64,0,0,0-.5.224c-1.58,1.883-2.383,2.166-2.721,2.168-.159,0-.58,0-.586-1.285a9.059,9.059,0,0,1,.49-2.843c.338-1.032.72-2.1,1.136-3.184s.8-2.141,1.151-3.152a9,9,0,0,0,.54-2.936,2.635,2.635,0,0,0-.616-1.786,2.064,2.064,0,0,0-1.623-.717,7.761,7.761,0,0,0-5.117,2.325,18.654,18.654,0,0,0-2.847,3.368,16.309,16.309,0,0,0,.231-2.794,3.138,3.138,0,0,0-.645-2.058,2.156,2.156,0,0,0-1.736-.8,6.862,6.862,0,0,0-4.711,2.338A19.4,19.4,0,0,0,708.2,155.7q.223-.958.464-2.041a3.592,3.592,0,0,0-.06-1.943,1.541,1.541,0,0,0-1.609-1.013,4.328,4.328,0,0,0-2.952,1.374,19.07,19.07,0,0,0-2.407,2.8.73.73,0,0,0,.163,1.014.792.792,0,0,0,.988.06l.068-.047.049-.067a15.3,15.3,0,0,1,1.49-1.781c.507-.512.81-.624.987-.637a1.846,1.846,0,0,1-.1.691c-.226,1.066-.514,2.217-.854,3.421s-.725,2.456-1.137,3.715-.831,2.524-1.247,3.767c-.408,1.221-.8,2.368-1.17,3.394a.811.811,0,0,0,.248,1.057,1.43,1.43,0,0,0,.829.219,2.785,2.785,0,0,0,1.262-.3,1.621,1.621,0,0,0,.864-.942,44.842,44.842,0,0,1,5.226-11.229c2.191-3.1,3.512-3.757,4.234-3.76.2,0,.722,0,.728,1.5a10.585,10.585,0,0,1-.462,2.618c-.318,1.155-.7,2.415-1.135,3.747s-.9,2.649-1.38,3.889c-.488,1.274-.876,2.348-1.152,3.193a.911.911,0,0,0,.088.861,1.2,1.2,0,0,0,1,.388,3.51,3.51,0,0,0,1.336-.287,1.626,1.626,0,0,0,1-.953,63.8,63.8,0,0,1,2.585-6.4,34.935,34.935,0,0,1,2.68-4.766,15.047,15.047,0,0,1,2.535-2.944,3.352,3.352,0,0,1,2.012-.954c.2,0,.58,0,.585,1a7.064,7.064,0,0,1-.455,2.238c-.317.921-.678,1.925-1.071,2.984s-.763,2.194-1.087,3.349a12.956,12.956,0,0,0-.493,3.544c.011,2.6,1.149,3.14,2.1,3.136a3.781,3.781,0,0,0,1.685-.444,7.061,7.061,0,0,0,1.539-1.062c.454-.411.9-.848,1.321-1.3a14.385,14.385,0,0,0,1.083-1.278l.043-.071a.89.89,0,0,0-.1-1.006A.729.729,0,0,0,727.986,164.137Z" fill="#fff" stroke="#fff" stroke-miterlimit="10" stroke-width="1"/>
      <path id="Контур_478" data-name="Контур 478" d="M742.327,150.55a6.116,6.116,0,0,0-3.758,1.381,13.147,13.147,0,0,0-3.01,3.369,19.375,19.375,0,0,0-2.068,4.444,14.9,14.9,0,0,0-.776,4.618,5.331,5.331,0,0,0,1.309,3.84,4.445,4.445,0,0,0,3.33,1.325,7.3,7.3,0,0,0,4.009-1.254,11.813,11.813,0,0,0,3.1-2.909l.042-.07a.93.93,0,0,0-.034-.966.761.761,0,0,0-1.026-.225l-.09.046-.063.077a7.581,7.581,0,0,1-2.074,1.8,4.77,4.77,0,0,1-2.4.652,1.988,1.988,0,0,1-1.785-.973,4.895,4.895,0,0,1-.709-2.695c0-.61.006-1.171.027-1.667.016-.4.04-.8.07-1.2,1.153-.31,2.267-.644,3.318-.994a22.866,22.866,0,0,0,3.114-1.271,7.7,7.7,0,0,0,2.237-1.626,3.135,3.135,0,0,0,.887-2.152,3.654,3.654,0,0,0-3.649-3.552Zm-1.462,2.781a1.127,1.127,0,0,1,.963.446,2.121,2.121,0,0,1,.4,1.327c0,.616-.45,1.2-1.344,1.746a12.262,12.262,0,0,1-4.1,1.293,7.921,7.921,0,0,1,1.562-3.551A3.31,3.31,0,0,1,740.865,153.331Z" fill="#fff" stroke="#fff" stroke-miterlimit="10" stroke-width="1"/>
      <path id="Контур_479" data-name="Контур 479" d="M755.519,147.918a100.744,100.744,0,0,1,4.011-9.927,66.758,66.758,0,0,1,5.016-9,32.594,32.594,0,0,1,5.576-6.509,8.751,8.751,0,0,1,5.651-2.444,3.352,3.352,0,0,1,2,.457.919.919,0,0,1,.423.952l-.019.114.036.108a1.141,1.141,0,0,0,.47.6.713.713,0,0,0,.948-.062l.084-.117a5.1,5.1,0,0,0,.471-3.948,2.7,2.7,0,0,0-2.813-2.007,9.455,9.455,0,0,0-5.241,1.791,26.062,26.062,0,0,0-5.1,4.679,53.207,53.207,0,0,0-4.86,6.765c-1.551,2.529-3.047,5.222-4.444,8.005s-2.7,5.622-3.874,8.456-2.2,5.6-3.033,8.175c-.835,2.6-1.49,4.968-1.947,7.052a24.937,24.937,0,0,0-.691,5.207,3.7,3.7,0,0,0,.669,2.288,2.223,2.223,0,0,0,1.855.917,5.335,5.335,0,0,0,3.171-1.492,15.568,15.568,0,0,0,3.173-3.677l.043-.067.018-.077a.928.928,0,0,0-.236-.9.746.746,0,0,0-.98-.088l-.068.045-.049.066A13.541,13.541,0,0,1,754,165.319a2.038,2.038,0,0,1-1.337.593c-.179,0-.722,0-.729-1.636a33.973,33.973,0,0,1,.94-7.042A85.478,85.478,0,0,1,755.519,147.918Z" fill="#fff" stroke="#fff" stroke-miterlimit="10" stroke-width="1"/>
      <path id="Контур_480" data-name="Контур 480" d="M763.721,169.4a4.858,4.858,0,0,0,2.307-1.093,22.047,22.047,0,0,0,2.85-2.84,1.385,1.385,0,0,0,.41-.806.853.853,0,0,0-.326-.725.7.7,0,0,0-.663-.122.9.9,0,0,0-.327.206,10.879,10.879,0,0,0-.779.824c-.173.2-.347.4-.531.581a2.7,2.7,0,0,1-1.353.838.669.669,0,0,1-.372-.01c-.207-.091-.325-.458-.316-.984a15.924,15.924,0,0,1,.782-4.216,44.964,44.964,0,0,1,3.711-8.855c.518-.94.12-1.4-.075-1.554a1.133,1.133,0,0,0-1.324.054,27.881,27.881,0,0,0-3.5,2.334c-.54.424-1.071.873-1.613,1.366-.505.442-.952.919-.81,1.408a.716.716,0,0,0,.642.5.911.911,0,0,0,.485-.06,1.694,1.694,0,0,0,.464-.3l.969-.832a.926.926,0,0,1,.011.275,3.117,3.117,0,0,1-.341.933,36.4,36.4,0,0,0-2.22,5.914,17.116,17.116,0,0,0-.723,4.2,2.944,2.944,0,0,0,.854,2.512,2.27,2.27,0,0,0,1.453.475A2.668,2.668,0,0,0,763.721,169.4Z" fill="#fff" stroke="#fff" stroke-miterlimit="10" stroke-width="1"/>
      <path id="Контур_481" data-name="Контур 481" d="M791.429,150.831a.952.952,0,0,0-.96-.4c-1.448.143-2.292,1.486-2.926,2.782-2.1,4.281-4.475,9.134-8.494,12.214-.62.476-1.51.884-1.978.471a1.821,1.821,0,0,1-.3-1.424,23.872,23.872,0,0,1,4.272-12.076,1.859,1.859,0,0,0,.4-.911,1.045,1.045,0,0,0-.261-.777.834.834,0,0,0-.609-.282,1.333,1.333,0,0,0-.584.185,32.134,32.134,0,0,0-3.736,2.528c-.561.441-1.134.924-1.751,1.478-.031.028-.067.055-.1.081a.813.813,0,0,0-.35,1.084,1.047,1.047,0,0,0,1.288.374,1.56,1.56,0,0,0,.537-.427c-1.423,3.429-2.806,7.226-2.481,11.165a2.9,2.9,0,0,0,1.075,2.272,2.965,2.965,0,0,0,2.754-.222,20.067,20.067,0,0,0,6.927-5.682,43.146,43.146,0,0,1-9.68,20.081c-1.511,1.756-3.856,4.128-6.761,4.461-1.144.132-2.565-.208-2.984-1.261a2.741,2.741,0,0,1-.08-.313c-.126-.549-.282-1.233-.812-1.381a.822.822,0,0,0-.837.295c-1.135,1.17-.736,2.634-.444,3.7l.045.166a3.994,3.994,0,0,0,1.905,2.823,3.448,3.448,0,0,0,1.455.283,6.078,6.078,0,0,0,1.394-.184,8.776,8.776,0,0,0,2.684-1.182,29.905,29.905,0,0,0,8.18-8.666c6.389-9.579,10.187-21.138,13.239-30.425a1.017,1.017,0,0,0,0-.771Z" fill="#fff" stroke="#fff" stroke-miterlimit="10" stroke-width="1"/>
      <path id="Контур_482" data-name="Контур 482" d="M811.614,150.742a.694.694,0,0,0-.616-.286,3.99,3.99,0,0,0-1.554.361,5.99,5.99,0,0,0-.982.527,6.231,6.231,0,0,0-1.539-.709,7.974,7.974,0,0,0-2.317-.291,9.781,9.781,0,0,0-4.642,1.2,13.54,13.54,0,0,0-3.842,3.115,15.684,15.684,0,0,0-2.624,4.291,12.461,12.461,0,0,0-.964,4.793,7.03,7.03,0,0,0,.984,4.1,3.034,3.034,0,0,0,2.534,1.418l.1-.011a8.943,8.943,0,0,0,4.3-2.718,29.653,29.653,0,0,0,2.661-3.17q-.041.261-.071.516a11.547,11.547,0,0,0-.061,2.569,4.476,4.476,0,0,0,.567,1.921,1.613,1.613,0,0,0,1.425.853,4.988,4.988,0,0,0,2.685-1.079,12.956,12.956,0,0,0,3.017-3.152l.053-.075.022-.088a.824.824,0,0,0-.342-.928.713.713,0,0,0-.946.064l-.039.044a7.911,7.911,0,0,1-2.216,2.235c-.13.065-.559.267-.659.129a3.372,3.372,0,0,1-.179-2.048,23.544,23.544,0,0,1,.775-3.9,27.8,27.8,0,0,1,1.742-4.573,21.523,21.523,0,0,1,2.7-4.28l.073-.125A.726.726,0,0,0,811.614,150.742Zm-8.263,1.677a4.35,4.35,0,0,1,2.126.494,2.171,2.171,0,0,1,1.025,1.042,42.387,42.387,0,0,1-2.163,4.257,40.113,40.113,0,0,1-2.585,3.939,19.57,19.57,0,0,1-2.488,2.793c-.949.849-1.463.978-1.685.978-.12,0-.485,0-.882-.76a5.13,5.13,0,0,1-.485-2.349,13.789,13.789,0,0,1,.591-4.22,11.528,11.528,0,0,1,1.6-3.285,7.732,7.732,0,0,1,2.273-2.134A5.2,5.2,0,0,1,803.351,152.419Z" fill="#fff" stroke="#fff" stroke-miterlimit="10" stroke-width="1"/>
    </g>
  </g>
</svg>
