<svg xmlns="http://www.w3.org/2000/svg" xmlns:xlink="http://www.w3.org/1999/xlink" width="280.63" height="139.64" viewBox="0 0 280.63 139.64">
  <defs>
    <clipPath id="clip-Монтажная_область_2">
      <rect width="280.63" height="139.64"/>
    </clipPath>
  </defs>
  <g id="Монтажная_область_2" data-name="Монтажная область – 2" clip-path="url(#clip-Монтажная_область_2)">
    <g id="Сгруппировать_155" data-name="Сгруппировать 155" transform="translate(-281 -79)">
      <ellipse id="Эллипс_4" data-name="Эллипс 4" cx="77.243" cy="22.485" rx="77.243" ry="22.485" transform="translate(315.676 163.36)" fill="#fff"/>
      <path id="Контур_571" data-name="Контур 571" d="M457.3,180.3a3.993,3.993,0,0,0-5.768.215,3.575,3.575,0,0,0-2.957-1.341h0a3.711,3.711,0,0,0-2.182.762,4.032,4.032,0,0,0-.623.6,3.785,3.785,0,0,0-3.041-1.363h0a3.935,3.935,0,0,0-2.73,1.146,3.549,3.549,0,0,0-.241.3,7.5,7.5,0,0,0-.683-.506,7.249,7.249,0,0,0-3.9-1.129,7.472,7.472,0,0,0-3.017.609,7.049,7.049,0,0,0-1.514.913v-1.8a3.906,3.906,0,0,0-1.072-2.727,3.844,3.844,0,0,0-5.394-.173,3.844,3.844,0,0,0-5.394.173,3.9,3.9,0,0,0-1.061,2.727v.742a3.91,3.91,0,0,0-1.314-.233,3.8,3.8,0,0,0-1.481.3,6.262,6.262,0,0,0-2.712-.519h-.014a6.485,6.485,0,0,0-3.346,1.123,7.262,7.262,0,0,0-1.489,1.355,5.245,5.245,0,0,0-2.11-1.84,6.966,6.966,0,0,0-2.742-.641,6.48,6.48,0,0,0-2.15.336,6.871,6.871,0,0,0-.818.351,6.326,6.326,0,0,0-5.34-.184l-.007,0a4.068,4.068,0,0,0-1.62-.317,3.793,3.793,0,0,0-2.773,1.2c-.1.1-.174.219-.26.329a5.3,5.3,0,0,0-1.6-1.124,6.862,6.862,0,0,0-3.062-.591V178.7a3.953,3.953,0,0,0-1.03-2.707,3.855,3.855,0,0,0-5.626-.026,3.923,3.923,0,0,0-1.072,2.733v.953a6.455,6.455,0,0,0-.948-.356,6.819,6.819,0,0,0-5.259.45c-.081.043-.152.1-.229.143a3.822,3.822,0,0,0-2.378-.908,4.842,4.842,0,0,0-2.146.5,4.166,4.166,0,0,0-1.506-.275,3.857,3.857,0,0,0-2.612,1,3.826,3.826,0,0,0-2.606-1,3.785,3.785,0,0,0-1.48.3,6.266,6.266,0,0,0-2.713-.519h-.014a6.484,6.484,0,0,0-3.345,1.123,7.291,7.291,0,0,0-1.562,1.445l-.338-1.956a4.61,4.61,0,0,0-1.44-2.7,4.352,4.352,0,0,0-3-1.145,4.089,4.089,0,0,0-3.2,1.426,6.959,6.959,0,0,0-.945,1.511,8.419,8.419,0,0,0-.662-1.212,3.994,3.994,0,0,0-3.433-1.725,4.078,4.078,0,0,0-3.324,1.411,4.248,4.248,0,0,0-.835,1.424,10.419,10.419,0,0,0-.355,1.44l-1.536,8.841c-.026.171-.052.351-.079.555l-.091.777a2.372,2.372,0,0,0-.012.526,3.924,3.924,0,0,0,1.2,2.522,3.819,3.819,0,0,0,2.691,1.055,3.862,3.862,0,0,0,3.173-1.623,3.769,3.769,0,0,0,.687.752,4.169,4.169,0,0,0,2.77.868h.007a3.864,3.864,0,0,0,2.623-1.053,4.078,4.078,0,0,0,.449-.522,4.272,4.272,0,0,0,.3.365,3.8,3.8,0,0,0,2.842,1.213,3.945,3.945,0,0,0,2.761-1.073,3.9,3.9,0,0,0,.455-.526,7.076,7.076,0,0,0,.683.571,6.349,6.349,0,0,0,3.828,1.218,5.877,5.877,0,0,0,2.44-.5,4.149,4.149,0,0,0,1.612.307c.071,0,.141,0,.228-.011a3.769,3.769,0,0,0,2.237-1.012,3.994,3.994,0,0,0,2.039.991,2.418,2.418,0,0,0,.388.032,4.134,4.134,0,0,0,2.732-.969,3.56,3.56,0,0,0,.959-1.313,4.65,4.65,0,0,0,1.415,1.385,8.219,8.219,0,0,0,4.319,1.087,6.9,6.9,0,0,0,2.9-.619,5.927,5.927,0,0,0,1.329-.836c.029.032.05.069.08.1a3.9,3.9,0,0,0,5.574-.018,4.072,4.072,0,0,0,.337-.41,3.706,3.706,0,0,0,.319.391,3.745,3.745,0,0,0,2.783,1.2,3.793,3.793,0,0,0,2.67-1.053,3.874,3.874,0,0,0,5.442-.13c.064-.067.124-.136.182-.207.064.078.132.153.2.227a3.9,3.9,0,0,0,5.574-.021c.059-.063.117-.128.171-.194.063.074.128.147.2.218a3.9,3.9,0,0,0,5.57-.024,3.833,3.833,0,0,0,.491-.653,7.246,7.246,0,0,0,.912.809,6.35,6.35,0,0,0,3.829,1.218,5.876,5.876,0,0,0,2.439-.5,4.149,4.149,0,0,0,1.612.307c.073,0,.142,0,.229-.011a3.715,3.715,0,0,0,2.212-.985,3.84,3.84,0,0,0,5.177-.015,3.808,3.808,0,0,0,2.6,1.011,3.765,3.765,0,0,0,2.783-1.174,3.947,3.947,0,0,0,.5-.661,7.08,7.08,0,0,0,1.224.972,7.3,7.3,0,0,0,3.883,1.053,7.225,7.225,0,0,0,3.028-.64,7.022,7.022,0,0,0,2.387-1.779,7.72,7.72,0,0,0,.866-1.222l.136.388a4.855,4.855,0,0,0,1.387,2.13,4.049,4.049,0,0,0,2.721.933,3.931,3.931,0,0,0,2.745-1c.069-.065.136-.132.2-.2.063.068.128.134.2.2a3.918,3.918,0,0,0,2.756,1.007,4.085,4.085,0,0,0,2.712-.918,5.15,5.15,0,0,0,1.437-2.159l2.026-5.773.241-.663a7.472,7.472,0,0,0,.226-.725,4.245,4.245,0,0,0,.137-1.062A3.791,3.791,0,0,0,457.3,180.3Zm-101.366,5.131v1.184h0Zm56.942,1.184a.056.056,0,0,1-.013,0v-1.184Zm-44.327.833v-.054l.019.032Z" fill="#3d0a7a"/>
      <g id="Сгруппировать_152" data-name="Сгруппировать 152">
        <path id="Контур_572" data-name="Контур 572" d="M335.167,180.429a8.121,8.121,0,0,1,.26-1.067,1.842,1.842,0,0,1,.386-.646,1.811,1.811,0,0,1,1.525-.59,1.636,1.636,0,0,1,1.461.678,8.926,8.926,0,0,1,.917,2.006l1.715,5.3h.037l1.845-5.8a5.817,5.817,0,0,1,.888-1.611,1.7,1.7,0,0,1,1.38-.576,1.977,1.977,0,0,1,1.387.518,2.274,2.274,0,0,1,.7,1.345l1.636,9.32c.009.077.031.251.065.522a5.361,5.361,0,0,1,.051.6,1.4,1.4,0,0,1-.451,1.061,1.582,1.582,0,0,1-1.129.425,1.411,1.411,0,0,1-1.09-.443,2.008,2.008,0,0,1-.49-1.155l-1.008-6.469h-.037l-2.1,6.734a2.18,2.18,0,0,1-.532.957,1.581,1.581,0,0,1-1.067.376,1.761,1.761,0,0,1-1.147-.32,2.009,2.009,0,0,1-.586-1.013l-2.128-6.734h-.042l-.874,6.01q-.3,2.057-1.752,2.057a1.456,1.456,0,0,1-1.048-.4,1.545,1.545,0,0,1-.471-1.015c0-.018.013-.111.032-.278s.04-.341.063-.521.047-.349.072-.511Z" fill="#fff"/>
        <path id="Контур_573" data-name="Контур 573" d="M351.668,183.815a4.957,4.957,0,0,1,1.58-1.737,4.123,4.123,0,0,1,2.132-.72,3.773,3.773,0,0,1,1.616.3,3.3,3.3,0,0,1,1.108.858,1.425,1.425,0,0,1,.553-.7,1.524,1.524,0,0,1,1.866.177,1.51,1.51,0,0,1,.434,1.145V190.4a1.606,1.606,0,0,1-.353,1.007,1.345,1.345,0,0,1-.981.516,1.562,1.562,0,0,1-1.018-.316,1.585,1.585,0,0,1-.5-.617,3.047,3.047,0,0,1-2.533,1.123,4,4,0,0,1-2.423-.759,4.985,4.985,0,0,1-1.6-2,6.919,6.919,0,0,1-.62-2.614A6.658,6.658,0,0,1,351.668,183.815Zm4.266.418a1.73,1.73,0,0,0-1.467.724,3.112,3.112,0,0,0-.574,1.784,2.833,2.833,0,0,0,.556,1.765,1.774,1.774,0,0,0,1.485.729,1.889,1.889,0,0,0,1.117-.328,1.985,1.985,0,0,0,.7-.9,3.291,3.291,0,0,0,.235-1.27,2.9,2.9,0,0,0-.539-1.793A1.788,1.788,0,0,0,355.934,184.233Z" fill="#fff"/>
        <path id="Контур_574" data-name="Контур 574" d="M363.2,183.147a1.458,1.458,0,0,1,1.487-1.561,1.75,1.75,0,0,1,.906.239,1.33,1.33,0,0,1,.576.7,2.718,2.718,0,0,1,2.17-1.162,1.343,1.343,0,0,1,1.013.5,1.661,1.661,0,0,1,.4,1.094,1.083,1.083,0,0,1-.447.961,4.962,4.962,0,0,1-1.308.574,4.688,4.688,0,0,0-1.173.485,1.736,1.736,0,0,0-.651,1.556v3.748a1.543,1.543,0,0,1-.467,1.24,1.763,1.763,0,0,1-1.188.4,1.589,1.589,0,0,1-.947-.5,1.568,1.568,0,0,1-.367-1.094Z" fill="#fff"/>
        <path id="Контур_575" data-name="Контур 575" d="M370,190.052a1.571,1.571,0,0,1,.339-1.038,1.057,1.057,0,0,1,.842-.406,2.009,2.009,0,0,1,.672.113,7.566,7.566,0,0,1,.761.335,7.113,7.113,0,0,0,.76.332,2.036,2.036,0,0,0,.679.111q.859-.051.859-.589a.561.561,0,0,0-.213-.472,5.071,5.071,0,0,0-1.011-.476q-.8-.311-1.1-.441a7.8,7.8,0,0,1-1.334-.678,2.212,2.212,0,0,1-.75-.824,2.753,2.753,0,0,1-.258-1.275,3.117,3.117,0,0,1,.474-1.646,3.479,3.479,0,0,1,1.359-1.261,4.167,4.167,0,0,1,2.015-.479,5.456,5.456,0,0,1,1.468.226,3.631,3.631,0,0,1,1.369.7,1.489,1.489,0,0,1,.569,1.184,1.266,1.266,0,0,1-.344.918,1.167,1.167,0,0,1-.874.355,1.581,1.581,0,0,1-.539-.139c-.229-.093-.441-.183-.634-.27a6.029,6.029,0,0,0-.6-.23,2.006,2.006,0,0,0-.6-.1.928.928,0,0,0-.56.161.539.539,0,0,0-.221.466q0,.345.7.665.767.3,1.717.689a4.6,4.6,0,0,1,1.587,1.045,2.429,2.429,0,0,1,.637,1.767,3,3,0,0,1-.523,1.753,3.386,3.386,0,0,1-1.4,1.157,4.52,4.52,0,0,1-1.9.4,5.86,5.86,0,0,1-3.086-.743A1.573,1.573,0,0,1,370,190.052Z" fill="#fff"/>
        <path id="Контур_576" data-name="Контур 576" d="M379.533,190.4V178.7a1.557,1.557,0,0,1,.428-1.105,1.477,1.477,0,0,1,2.131,0,1.586,1.586,0,0,1,.411,1.107v3.4h.041a5.189,5.189,0,0,1,2.529-.743,4.518,4.518,0,0,1,1.889.381,2.952,2.952,0,0,1,1.322,1.17,3.678,3.678,0,0,1,.483,1.951V190.4a1.511,1.511,0,0,1-.418,1.087,1.438,1.438,0,0,1-1.088.436,1.351,1.351,0,0,1-1.038-.439,1.532,1.532,0,0,1-.407-1.084v-4.719a1.856,1.856,0,0,0-.448-1.293,1.571,1.571,0,0,0-1.225-.495,1.529,1.529,0,0,0-1.189.5,1.845,1.845,0,0,0-.451,1.291V190.4a1.527,1.527,0,0,1-.411,1.087,1.519,1.519,0,0,1-2.133,0A1.5,1.5,0,0,1,379.533,190.4Z" fill="#fff"/>
        <path id="Контур_577" data-name="Контур 577" d="M391.085,190.4v-7.287a1.541,1.541,0,0,1,.437-1.1,1.4,1.4,0,0,1,1.05-.46,1.535,1.535,0,0,1,.964.288,1.513,1.513,0,0,1,.519.683,2.409,2.409,0,0,1,1.085-.853,3.714,3.714,0,0,1,1.484-.309,3.239,3.239,0,0,1,2.76,1.24q.3-.213.754-.527a4.239,4.239,0,0,1,1.015-.513,4.073,4.073,0,0,1,1.354-.2,4.49,4.49,0,0,1,1.722.411,2.911,2.911,0,0,1,1.246,1.138,3.674,3.674,0,0,1,.476,1.953V190.4a1.527,1.527,0,0,1-.411,1.087,1.52,1.52,0,0,1-2.134,0,1.5,1.5,0,0,1-.424-1.084v-4.719a2.029,2.029,0,0,0-.4-1.267,1.4,1.4,0,0,0-2.177,0,2.027,2.027,0,0,0-.4,1.265V190.4a1.527,1.527,0,0,1-.411,1.087,1.519,1.519,0,0,1-2.133,0,1.5,1.5,0,0,1-.425-1.084v-4.719a2.019,2.019,0,0,0-.4-1.267,1.294,1.294,0,0,0-1.083-.521,1.315,1.315,0,0,0-1.1.523,1.992,1.992,0,0,0-.407,1.265V190.4a1.528,1.528,0,0,1-.412,1.087,1.517,1.517,0,0,1-2.132,0A1.5,1.5,0,0,1,391.085,190.4Z" fill="#fff"/>
        <path id="Контур_578" data-name="Контур 578" d="M408.6,183.815a4.957,4.957,0,0,1,1.58-1.737,4.126,4.126,0,0,1,2.133-.72,3.768,3.768,0,0,1,1.615.3,3.307,3.307,0,0,1,1.109.858,1.424,1.424,0,0,1,.552-.7,1.526,1.526,0,0,1,1.867.177,1.51,1.51,0,0,1,.433,1.145V190.4a1.6,1.6,0,0,1-.353,1.007,1.341,1.341,0,0,1-.98.516,1.607,1.607,0,0,1-1.519-.933,3.05,3.05,0,0,1-2.533,1.123,4,4,0,0,1-2.424-.759,4.983,4.983,0,0,1-1.6-2,6.9,6.9,0,0,1-.62-2.614A6.672,6.672,0,0,1,408.6,183.815Zm4.266.418a1.728,1.728,0,0,0-1.466.724,3.105,3.105,0,0,0-.574,1.784,2.826,2.826,0,0,0,.556,1.765,1.771,1.771,0,0,0,1.484.729,1.889,1.889,0,0,0,1.117-.328,1.987,1.987,0,0,0,.7-.9,3.31,3.31,0,0,0,.234-1.27,2.9,2.9,0,0,0-.539-1.793A1.787,1.787,0,0,0,412.864,184.233Z" fill="#fff"/>
        <path id="Контур_579" data-name="Контур 579" d="M420.094,190.4V178.7a1.542,1.542,0,0,1,.416-1.1,1.495,1.495,0,0,1,2.131.005,1.537,1.537,0,0,1,.422,1.093v11.7a1.508,1.508,0,0,1-.42,1.084,1.522,1.522,0,0,1-2.136,0A1.52,1.52,0,0,1,420.094,190.4Z" fill="#fff"/>
        <path id="Контур_580" data-name="Контур 580" d="M425.289,190.4V178.7a1.545,1.545,0,0,1,.415-1.1,1.495,1.495,0,0,1,2.131.005,1.534,1.534,0,0,1,.423,1.093v11.7a1.508,1.508,0,0,1-.42,1.084,1.522,1.522,0,0,1-2.136,0A1.52,1.52,0,0,1,425.289,190.4Z" fill="#fff"/>
        <path id="Контур_581" data-name="Контур 581" d="M435.167,192.109a4.93,4.93,0,0,1-2.637-.7,4.653,4.653,0,0,1-1.754-1.93,6.036,6.036,0,0,1-.613-2.737,6.288,6.288,0,0,1,.348-2.106,5.1,5.1,0,0,1,1.006-1.723,4.557,4.557,0,0,1,1.589-1.145,5.07,5.07,0,0,1,2.061-.409,4.846,4.846,0,0,1,2.614.75,4.926,4.926,0,0,1,1.755,1.958,5.869,5.869,0,0,1,.617,2.675,6.23,6.23,0,0,1-.362,2.048,5.354,5.354,0,0,1-1,1.718,4.62,4.62,0,0,1-1.582,1.177A4.842,4.842,0,0,1,435.167,192.109Zm0-2.874a1.816,1.816,0,0,0,1.094-.33,2.016,2.016,0,0,0,.69-.9,3.3,3.3,0,0,0,.233-1.265,2.909,2.909,0,0,0-.52-1.777,1.822,1.822,0,0,0-1.5-.731,1.756,1.756,0,0,0-1.508.722,2.952,2.952,0,0,0-.527,1.786,2.987,2.987,0,0,0,.518,1.774,1.737,1.737,0,0,0,1.438.757.143.143,0,0,1,.049-.03A.1.1,0,0,1,435.167,189.235Z" fill="#fff"/>
        <path id="Контур_582" data-name="Контур 582" d="M443.824,190.433l-2.036-5.8a5.928,5.928,0,0,1-.5-1.634,1.39,1.39,0,0,1,.4-1.015,1.6,1.6,0,0,1,1.125-.434,1.365,1.365,0,0,1,1.408,1.087l1.469,4.792h.037l1.334-4.165a5.74,5.74,0,0,1,.306-.851,1.634,1.634,0,0,1,.481-.6,1.365,1.365,0,0,1,.811-.262,1.143,1.143,0,0,1,1,.436,5.165,5.165,0,0,1,.6,1.278l1.329,4.165h.042l1.445-4.792a1.35,1.35,0,0,1,1.427-1.087,1.45,1.45,0,0,1,1.091.406,1.431,1.431,0,0,1,.4,1.043,1.889,1.889,0,0,1-.063.469q-.063.246-.156.5c-.062.171-.142.392-.242.664l-2.035,5.8a2.76,2.76,0,0,1-.727,1.128,1.771,1.771,0,0,1-1.178.358,1.573,1.573,0,0,1-1.122-.358,2.636,2.636,0,0,1-.625-1.165l-1.181-3.539h-.041l-1.158,3.539a2.736,2.736,0,0,1-.648,1.161,1.587,1.587,0,0,1-1.122.362,1.747,1.747,0,0,1-1.173-.36A2.6,2.6,0,0,1,443.824,190.433Z" fill="#fff"/>
      </g>
      <path id="Контур_583" data-name="Контур 583" d="M503.792,91.229c-7.363,2.014-21.341,9.405-18.919,36.4,3.262,36.364,55.171,35.175,52.062-3.807-1.78-22.317-12.65-38.2-33.143-32.592Zm5.049,23.053c-1.878.514-5.443,2.4-4.825,9.285.832,9.274,14.072,8.971,13.278-.972-.453-5.692-3.226-9.743-8.453-8.313Z" fill="#fff" fill-rule="evenodd"/>
      <path id="Контур_584" data-name="Контур 584" d="M504.552,94.7c-6.537,1.789-18.947,8.35-16.8,32.316,2.9,32.285,48.983,31.23,46.222-3.38-1.58-19.813-11.23-33.915-29.425-28.936Zm4.483,20.468c-1.667.456-4.833,2.13-4.284,8.243.739,8.234,12.493,7.965,11.789-.863-.4-5.053-2.864-8.65-7.5-7.38Z" fill="#3d0a7a" fill-rule="evenodd"/>
      <path id="Контур_585" data-name="Контур 585" d="M505.516,99.263c-5.465,1.5-15.838,6.978-14.042,27,2.419,26.977,40.939,26.092,38.634-2.828-1.32-16.556-9.385-28.338-24.592-24.176Zm3.745,17.1c-1.394.382-4.039,1.78-3.581,6.888.617,6.881,10.441,6.655,9.853-.721-.336-4.223-2.393-7.228-6.272-6.167Z" fill="#fff" fill-rule="evenodd"/>
      <path id="Контур_586" data-name="Контур 586" d="M459.22,154.878c9.852,6.4,47.108,3.2,43.9-16.544-2.373-14.592-12.91-15.187-22.291-11.811,1.839-5.622.73-27.616-13.238-31.052-26.187-6.443-18.021,53.132-8.368,59.407Z" fill="#fff" fill-rule="evenodd"/>
      <path id="Контур_587" data-name="Контур 587" d="M474.806,154.758a45.562,45.562,0,0,1-7.7-.3c-5.239-.676-8.727-4.779-10.122-8.086-2.331-5.523-7.357-32.843-.869-43.079a9.155,9.155,0,0,1,7.421-4.531,9.556,9.556,0,0,1,1.083.016,11.564,11.564,0,0,1,8.482,4.772c5.483,7.161,5.46,20.4,4.158,27.065-.01.053-.02.1-.03.154.044-.016.087-.033.132-.051,3.175-1.227,6.761-2.613,10.281-2.76,3.68-.154,10.122,1.037,11.916,10.746a9.585,9.585,0,0,1-2.058,7.8C493.051,152.076,482.86,154.421,474.806,154.758Z" fill="#3d0a7a" fill-rule="evenodd"/>
      <path id="Контур_588" data-name="Контур 588" d="M474.682,151.794a42.635,42.635,0,0,1-7.2-.276c-3.993-.517-6.681-3.716-7.77-6.3-2.5-5.917-6.582-31.683-1.1-40.338a6.2,6.2,0,0,1,5.04-3.156,6.705,6.705,0,0,1,.747.012,8.564,8.564,0,0,1,6.338,3.616c4.631,6.049,4.894,18.082,3.6,24.694-.239,1.217-.8,4.068-.272,4.678.069.08.3.079.394.075a3.935,3.935,0,0,0,1.046-.23c.908-.309,1.885-.686,2.918-1.086,2.953-1.142,6.3-2.436,9.331-2.562,4.832-.2,7.819,2.6,8.876,8.32a6.575,6.575,0,0,1-1.46,5.408C491.35,149.451,481.745,151.5,474.682,151.794Z" fill="#fff" fill-rule="evenodd"/>
      <path id="Контур_589" data-name="Контур 589" d="M460.852,144.74c.943,2.237,3.327,5.1,6.789,5.552,11.874,1.535,29.27-2.758,27.78-10.824-2.24-12.13-12.657-6.055-19.512-3.727-4.062,1.38-3.492-2.284-2.779-5.93,1.652-8.451.546-26.174-8.814-26.84-11.589-.825-6.436,34.724-3.464,41.769Z" fill="#ec6724" fill-rule="evenodd"/>
      <path id="Контур_590" data-name="Контур 590" d="M393.032,94.049c-23.277-2.43-22.223,8.085-24.939,28.19-2.063,15.268-6.68,30.976,14.761,35.006,13.819,2.6,29.54,2.574,30.952-12.654.7-7.577-3.775-9.313-7.631-10.057,5.956.013,8.166-11.193,1.312-13.422,1.925-.814,7.849,1.516,8.142-10.924.283-12.01-11.511-14.982-22.6-16.139Z" fill="#fff" fill-rule="evenodd"/>
      <path id="Контур_591" data-name="Контур 591" d="M393.475,97.352c-20.733-2.164-19.745,7.384-22.164,25.292-1.837,13.6-6.606,27.6,12.492,31.187,17.494,3.288,25.931-1.42,26.6-8.018,1.122-11.1-6.421-10.111-16.118-10.85-.946.008-.93-.718,0-.687,8.978.235,13.117-1.344,13.581-6.817.417-4.919-4.037-6.793-9.45-7.651-.967-.154-.993-.757-.019-.655,10.473,1.1,14.354-.727,13.9-9.637-.314-6.17-7.073-10.938-18.817-12.164Z" fill="#3d0a7a" fill-rule="evenodd"/>
      <path id="Контур_592" data-name="Контур 592" d="M392.86,101.1c-17.389-1.812-15.63,6.367-17.716,21.909-1.584,11.8-6.589,24.061,9.424,27.115,14.667,2.8,20.9-.663,21.532-6.383.639-5.81-6.629-6.862-14.4-7.477-2.267-.181-1.914-4.229.663-4.193,6.874.1,10.682-.6,11.069-5.127.408-4.769-4.758-5.493-10.288-5.969-2.466-.214-1.663-4,.545-3.958,8.236.151,14.209.962,14.49-5.424.244-5.517-5.47-9.467-15.32-10.493Z" fill="#fff" fill-rule="evenodd"/>
      <path id="Контур_593" data-name="Контур 593" d="M313.409,151.334c12.712,1.976,16.123-3.836,17.713-8.769,2.512-7.792.263-4.1,5.393-3.622,3.716.349,4.425-2.96,4.222,2.954-.168,4.912,2.505,14.432,15.317,13.358,14.233-1.192,12.791-19.886,13.466-32.3.648-11.913,3.41-30.322-14.87-31.612-7.81-.551-11.24,2.316-13.3,7.5-.394.991-1.349,1.8-2.288-.292-1.114-2.481-3.725-10.094-16-9.9-9.573.153-13.094,7.578-14.737,16.063-1.148,5.926-2.859,22.206-3.124,24.806-1.028,10.115-.441,20.474,8.213,21.82Z" fill="#fff" fill-rule="evenodd"/>
      <path id="Контур_594" data-name="Контур 594" d="M315.943,148.292c18.375,2.858,12.791-22.539,16.863-15.253,1.277,2.286,6.055,3.473,8.2,1.053,6-6.775-4.416,19.2,13.856,17.672,12.7-1.065,11.3-19.241,11.742-30.077.421-10.176,2.932-25.664-11.692-27.046-10.477-.99-11.126,4.505-13.909,10.539-.4.869-1.338,1.42-2.16-.464-1.1-2.513-2.61-11.99-14.246-12.654-9.24-.527-11.971,6.461-13.1,13.7-.547,3.5-2.211,16.965-2.721,21.2-1.158,9.594-1.094,20.044,7.171,21.33Z" fill="#3d0a7a" fill-rule="evenodd"/>
      <path id="Контур_595" data-name="Контур 595" d="M319.012,144.916c10.475.934,9.764-20.474,10.053-21.946s1.763-.462,1.763-.462,1.906,8.4,7.044,8.627,6.7-6.771,7.457-7.334,1.987-.756,2.1.673-4.651,22.561,5.535,23.47c6.155.549,7.985-5.7,8.673-12.861.451-4.689,1.432-18.7,1.515-22.04.172-6.9-1.282-14.669-10.139-14.988-7.272-.262-8.358,7.936-11.629,13.1-.447.706-3.024,1.068-3.741-.577-.956-2.195-3.11-14.064-11.073-14.775-7.258-.647-9.773,4.347-10.844,10.047-.689,3.669-2.416,18.005-2.912,22.4-.9,7.985-.556,16.064,6.2,16.667Z" fill="#fff" fill-rule="evenodd"/>
      <path id="Контур_596" data-name="Контур 596" d="M419.809,156.386c9.575,6.81,46.933,5.17,44.55-14.7-1.762-14.677-12.265-15.712-21.779-12.731,2.072-5.541,1.883-27.561-11.929-31.578-25.9-7.531-20.224,52.333-10.842,59.005Z" fill="#fff" fill-rule="evenodd"/>
      <path id="Контур_597" data-name="Контур 597" d="M435.386,156.918a45.561,45.561,0,0,1-7.684-.62c-5.207-.9-8.521-5.14-9.776-8.5-2.1-5.616-5.978-33.121.931-43.077a9.154,9.154,0,0,1,7.6-4.218,9.57,9.57,0,0,1,1.081.062,11.564,11.564,0,0,1,8.276,5.122c5.178,7.384,4.6,20.612,3.024,27.215-.013.052-.025.1-.037.153l.134-.045c3.223-1.094,6.865-2.329,10.387-2.329,3.684,0,10.07,1.459,11.457,11.234a9.588,9.588,0,0,1-2.381,7.7C453.727,155,443.447,156.918,435.386,156.918Z" fill="#3d0a7a" fill-rule="evenodd"/>
      <path id="Контур_598" data-name="Контур 598" d="M435.386,153.951a42.545,42.545,0,0,1-7.181-.577c-3.968-.682-6.52-3.991-7.5-6.616-2.248-6.017-5.253-31.931.589-40.349a6.2,6.2,0,0,1,5.167-2.943,6.609,6.609,0,0,1,.746.044,8.566,8.566,0,0,1,6.182,3.877c4.374,6.237,4.134,18.271,2.567,24.823-.288,1.206-.965,4.031-.466,4.663.065.082.294.091.39.091a3.913,3.913,0,0,0,1.055-.187c.92-.27,1.912-.606,2.961-.962,3-1.018,6.395-2.171,9.43-2.171,4.836,0,7.7,2.922,8.52,8.684a6.582,6.582,0,0,1-1.684,5.343C452.137,152.306,442.455,153.951,435.386,153.951Z" fill="#fff" fill-rule="evenodd"/>
      <path id="Контур_599" data-name="Контур 599" d="M421.863,146.326c.849,2.274,3.111,5.238,6.551,5.83,11.8,2.03,29.36-1.533,28.208-9.654-1.731-12.212-12.393-6.578-19.339-4.539-4.116,1.209-3.394-2.427-2.529-6.041,2-8.374,1.638-26.128-7.686-27.185-11.544-1.308-7.881,34.426-5.2,41.589Z" fill="#ec6724" fill-rule="evenodd"/>
    </g>
  </g>
</svg>
