<svg xmlns="http://www.w3.org/2000/svg" xmlns:xlink="http://www.w3.org/1999/xlink" width="280.63" height="139.64" viewBox="0 0 280.63 139.64">
  <defs>
    <clipPath id="clip-Монтажная_область_15">
      <rect width="280.63" height="139.64"/>
    </clipPath>
  </defs>
  <g id="Монтажная_область_15" data-name="Монтажная область – 15" clip-path="url(#clip-Монтажная_область_15)">
    <g id="Сгруппировать_168" data-name="Сгруппировать 168" transform="translate(-2364 -79)">
      <path id="Контур_169" data-name="Контур 169" d="M2506.228,173.32c-21.387,2.688-42.657,5.727-56.8,8.649-9,1.87-17.648,3.74-26.53,5.96-4.675,1.169-21.971,6.311-25.127,6.311l22.322-10.051a240.567,240.567,0,0,1,23.959-8.414c21.62-6.545,41.956-10.051,62.759-12.5,21.387-2.688,42.54-5.61,56.8-8.532,9-1.87,17.531-3.74,26.53-5.96,4.675-1.169,21.971-6.311,25.127-6.311l-22.322,10.051c-7.246,3.038-16.012,5.96-23.959,8.414a354.429,354.429,0,0,1-62.759,12.388Z" fill="#fff" fill-rule="evenodd"/>
      <path id="Контур_170" data-name="Контур 170" d="M2414.836,173.788a21.817,21.817,0,0,1-10.284-.818,16.847,16.847,0,0,1-8.181-6.077q-3.156-4.383-3.156-11.571c0-6.427,1.87-12.972,5.61-19.751a58.014,58.014,0,0,1,14.492-17.413c5.843-4.792,11.8-7.6,17.764-8.415,4.207-.584,7.48-.117,9.934,1.4,2.337,1.519,3.506,3.973,3.506,7.246a12.3,12.3,0,0,1-1.636,5.726,18.954,18.954,0,0,1-4.558,5.727,13.444,13.444,0,0,1-6.545,3.038,12.358,12.358,0,0,1-5.025-.35,24.605,24.605,0,0,0,5.142-3.857,36.113,36.113,0,0,0,4.207-5.493,10.731,10.731,0,0,0,1.753-5.376c0-3.973-2.1-5.61-6.311-5.025s-8.648,3.038-13.323,7.129a53.181,53.181,0,0,0-11.687,14.959,34.566,34.566,0,0,0-4.674,16.713q0,9.291,5.259,12.622c3.623,2.22,7.83,2.921,12.738,2.22a24.491,24.491,0,0,0,7.363-2.1,22.058,22.058,0,0,0,5.61-3.623,17.488,17.488,0,0,1-7.129,9.116,26.021,26.021,0,0,1-10.869,3.974ZM2468.83,142c-2.688,5.259-5.259,9.7-7.363,13.09-2.22,3.506-4.09,5.259-5.727,5.493a3.931,3.931,0,0,1-3.739-2.338c-1.052-1.753-1.52-4.324-1.52-7.6a26.885,26.885,0,0,1,1.169-8.3,3.8,3.8,0,0,0-.351-2.1c-.233-.584-.7-.818-1.519-.7a6.081,6.081,0,0,0-3.272,2.221,15.263,15.263,0,0,0-2.688,5.142,20.857,20.857,0,0,0-1.169,6.545,5.2,5.2,0,0,0,.935,3.272,2.253,2.253,0,0,0,2.1.935,6.584,6.584,0,0,0,4.441-2.922,11.372,11.372,0,0,1-2.571,4.792,7.951,7.951,0,0,1-5.143,2.922,5.563,5.563,0,0,1-4.674-1.637q-2.1-1.928-2.1-5.96a19.336,19.336,0,0,1,1.987-8.415,21.14,21.14,0,0,1,5.142-6.661,13.414,13.414,0,0,1,6.311-3.156,4.769,4.769,0,0,1,2.571.351,2.839,2.839,0,0,1,1.519,1.753,5.736,5.736,0,0,1,1.52-1.4c.7-.233,1.519-.467,2.688-.818a20.172,20.172,0,0,0,5.493-1.753,46.891,46.891,0,0,0-4.792,9.35,25.592,25.592,0,0,0-1.87,7.713,2.354,2.354,0,0,0,.351,1.286.78.78,0,0,0,.818.467c.818-.116,1.986-.935,3.389-2.571,1.519-1.519,3.506-4.675,6.311-9.232Zm6.9,12.388q0,5.085,2.8,5.961a12.119,12.119,0,0,1-2.454.818,6.969,6.969,0,0,1-5.259-1.4,6.332,6.332,0,0,1-2.221-5.26,21.408,21.408,0,0,1,2.338-8.882,36.864,36.864,0,0,1,5.609-8.3,8.587,8.587,0,0,1-4.558-1.636q-2.1,4.383-3.155,6.311l-1.753-.233c1.169-2.221,2.337-4.558,3.389-7.13a7.029,7.029,0,0,1-1.987-4.791,8.258,8.258,0,0,1,1.52-5.026c1.051-1.4,2.1-2.22,3.155-2.337a1.407,1.407,0,0,1,1.519.7,4.021,4.021,0,0,1,.585,2.338c0,1.87-.818,4.674-2.338,8.3a8.3,8.3,0,0,0,4.909,1.753,41.305,41.305,0,0,0,7.246-.35,41.59,41.59,0,0,0-7.246,10.869,22.069,22.069,0,0,0-2.1,8.3Zm55.63-21.27a120.877,120.877,0,0,1-7.479,13.09c-2.338,3.506-4.558,5.376-6.662,5.726a4.078,4.078,0,0,1-3.857-1.4,6.1,6.1,0,0,1-1.636-4.441,21.557,21.557,0,0,1,.584-4.792c.468-1.519,1.052-3.039,1.754-4.792.116-.35.35-1.051.7-1.986a7.961,7.961,0,0,0,.467-2.455c0-.935-.35-1.285-1.285-1.168-1.169.117-2.338,1.285-3.74,3.623a41.279,41.279,0,0,0-3.506,8.648,47.668,47.668,0,0,0-1.987,10.518c-1.4.117-2.454-.467-3.389-1.987a9.3,9.3,0,0,1-1.4-5.025,25.211,25.211,0,0,1,2.1-8.882c.117-.468.351-1.052.584-1.987a6.783,6.783,0,0,0,.468-2.22q0-1.227-1.052-1.052c-1.286.117-2.688,1.4-4.091,3.623a38.469,38.469,0,0,0-3.973,8.765,40.982,40.982,0,0,0-2.1,10.518c-1.168.234-2.22-.7-3.038-2.688a18.412,18.412,0,0,1-1.286-6.778,28.474,28.474,0,0,1,.818-6.9,15.456,15.456,0,0,1,1.987-5.26,3.776,3.776,0,0,1,1.519-1.519,8.3,8.3,0,0,1,2.571-.818,36.587,36.587,0,0,0,4.909-1.87,30.423,30.423,0,0,0-3.156,5.844,22.24,22.24,0,0,1,4.091-4.558,8.937,8.937,0,0,1,4.207-2.1,3.8,3.8,0,0,1,3.156.818,4.867,4.867,0,0,1,1.168,3.156c2.221-3.39,4.792-5.143,7.6-5.61a4.427,4.427,0,0,1,3.974,1.052,4.944,4.944,0,0,1,1.285,3.623,8.78,8.78,0,0,1-.467,2.8c-.351,1.169-.818,2.221-1.169,3.273a17.385,17.385,0,0,0-1.519,5.142c0,1.169.467,1.636,1.285,1.519,2.454-.35,5.61-4.207,9.7-11.57Zm2.338,16.479a5.81,5.81,0,0,1-5.143-1.636c-1.4-1.4-1.986-3.506-1.986-6.311a18.6,18.6,0,0,1,1.753-7.246,19.865,19.865,0,0,1,5.025-7.012,12.9,12.9,0,0,1,7.48-3.623,4.243,4.243,0,0,1,3.74.818,3.8,3.8,0,0,1,1.168,2.805,9,9,0,0,1-1.636,4.791,17.357,17.357,0,0,1-4.09,4.675,8.125,8.125,0,0,1-4.441,2.1c2.454-2.571,4.324-4.675,5.492-6.194a7.7,7.7,0,0,0,1.754-4.441c0-1.169-.468-1.754-1.637-1.637a7.053,7.053,0,0,0-3.506,2.1,12.339,12.339,0,0,0-2.922,4.675,17.875,17.875,0,0,0-1.051,6.311,5.99,5.99,0,0,0,.818,3.506,2.215,2.215,0,0,0,2.454.935c1.87-.234,4.324-1.87,7.246-4.792a41.735,41.735,0,0,0,6.778-9.466l1.87.233a76.417,76.417,0,0,1-8.648,12.739q-5.083,5.961-10.518,6.662Zm21.5-3.039a3.675,3.675,0,0,1-2.922-.935,8.719,8.719,0,0,1-2.337-3.272,11.487,11.487,0,0,1-.935-4.909,51.828,51.828,0,0,1,2.337-13.79,46.7,46.7,0,0,1,5.727-13.674,6.686,6.686,0,0,1,2.22-2.221,17.166,17.166,0,0,1,2.922-1.4c1.4-.584,2.454-1.052,3.389-1.519a17.716,17.716,0,0,0,2.922-2.1,97.715,97.715,0,0,0-9.817,18.816c-2.1,5.61-3.273,10.518-3.273,14.726a6.69,6.69,0,0,0,.351,2.571c.351.584.7.818,1.286.7.935-.117,2.1-1.052,3.506-2.688a88.952,88.952,0,0,0,5.96-9.116l1.753.234c-2.922,5.61-5.493,10.051-7.48,13.323q-3.155,4.908-5.609,5.259Zm18.933-30.5a4.39,4.39,0,0,1-3.273-.467,2.328,2.328,0,0,1-1.285-2.1,4.047,4.047,0,0,1,1.87-3.272,8.169,8.169,0,0,1,4.09-1.87,5.392,5.392,0,0,1,3.156.35,2.3,2.3,0,0,1,1.285,2.221,4.265,4.265,0,0,1-1.753,3.389,7.979,7.979,0,0,1-4.09,1.753Zm-3.506,19.751a3.458,3.458,0,0,0,.233,1.169c.234.467.468.584.818.467q1.4-.175,3.506-2.454a65.949,65.949,0,0,0,6.2-9.349l1.869.233c-2.8,5.376-5.259,9.7-7.479,13.207-2.1,3.389-4.091,5.259-5.61,5.376a3.759,3.759,0,0,1-3.74-2.338c-1.052-1.753-1.519-4.207-1.519-7.48a32.049,32.049,0,0,1,.584-6.427,14.274,14.274,0,0,1,1.87-5.259,3.913,3.913,0,0,1,1.753-1.637,15.278,15.278,0,0,1,2.688-.818,27.6,27.6,0,0,0,5.493-1.87,47.128,47.128,0,0,0-4.792,9.35,22.991,22.991,0,0,0-1.869,7.83Zm41.021-13.907a146.3,146.3,0,0,1-7.363,13.089c-2.22,3.506-4.09,5.376-5.727,5.493a3.929,3.929,0,0,1-3.739-2.337c-1.052-1.753-1.52-4.208-1.52-7.6a26.124,26.124,0,0,1,1.169-8.181,4.23,4.23,0,0,0-.351-2.22c-.233-.585-.7-.7-1.4-.585a4.96,4.96,0,0,0-3.389,2.221,16.957,16.957,0,0,0-2.688,5.025,20.719,20.719,0,0,0-1.052,6.545,5,5,0,0,0,.818,3.272,2.253,2.253,0,0,0,2.1.935,6.207,6.207,0,0,0,4.441-2.922,11.117,11.117,0,0,1-2.571,4.909,8.335,8.335,0,0,1-5.143,2.805,5.566,5.566,0,0,1-4.675-1.636q-2.1-1.929-2.1-5.961a18.464,18.464,0,0,1,1.987-8.3,21.658,21.658,0,0,1,5.142-6.779,13.4,13.4,0,0,1,6.311-3.155,4.779,4.779,0,0,1,2.571.35,1.54,1.54,0,1,0,3.039.468,10.484,10.484,0,0,1,2.688-.818,25.325,25.325,0,0,0,5.492-1.87,50.323,50.323,0,0,0-4.791,9.349,25.606,25.606,0,0,0-1.87,7.714,2.358,2.358,0,0,0,.35,1.285.665.665,0,0,0,.819.468c.818-.117,1.986-.935,3.389-2.571,1.519-1.52,3.506-4.675,6.311-9.233Z" fill="#fff"/>
    </g>
  </g>
</svg>
