<svg xmlns="http://www.w3.org/2000/svg" xmlns:xlink="http://www.w3.org/1999/xlink" width="280.63" height="139.64" viewBox="0 0 280.63 139.64">
  <defs>
    <clipPath id="clip-Монтажная_область_5">
      <rect width="280.63" height="139.64"/>
    </clipPath>
  </defs>
  <g id="Монтажная_область_5" data-name="Монтажная область – 5" clip-path="url(#clip-Монтажная_область_5)">
    <g id="Сгруппировать_157" data-name="Сгруппировать 157" transform="translate(-2 -377)">
      <ellipse id="Эллипс_2" data-name="Эллипс 2" cx="74.569" cy="22.554" rx="74.569" ry="22.554" transform="translate(25.752 462.449)" fill="#fff"/>
      <g id="Сгруппировать_134" data-name="Сгруппировать 134">
        <path id="Контур_513" data-name="Контур 513" d="M161.565,481.614a3.909,3.909,0,0,0-5.646.21,3.5,3.5,0,0,0-2.9-1.313h0a3.627,3.627,0,0,0-2.135.747,3.9,3.9,0,0,0-.61.587,3.709,3.709,0,0,0-2.977-1.334h0a3.858,3.858,0,0,0-2.673,1.122,3.431,3.431,0,0,0-.235.291,6.837,6.837,0,0,0-4.488-1.6,7.322,7.322,0,0,0-2.953.6,6.924,6.924,0,0,0-1.482.894v-1.766a3.822,3.822,0,0,0-1.049-2.669,3.763,3.763,0,0,0-5.281-.169,3.761,3.761,0,0,0-5.279.169,3.818,3.818,0,0,0-1.039,2.669v.726a3.842,3.842,0,0,0-1.286-.227,3.715,3.715,0,0,0-1.45.288,6.119,6.119,0,0,0-2.654-.508h-.014a6.34,6.34,0,0,0-3.275,1.1,7.12,7.12,0,0,0-1.458,1.326,5.135,5.135,0,0,0-2.065-1.8,6.851,6.851,0,0,0-2.684-.627,6.345,6.345,0,0,0-2.1.329,6.75,6.75,0,0,0-.8.344,6.187,6.187,0,0,0-5.227-.18l-.007,0a3.988,3.988,0,0,0-1.586-.309,3.71,3.71,0,0,0-2.714,1.173,4.076,4.076,0,0,0-.254.322,5.232,5.232,0,0,0-1.561-1.1,6.729,6.729,0,0,0-3-.578v-.279a3.875,3.875,0,0,0-1.008-2.65,3.773,3.773,0,0,0-5.507-.025,3.841,3.841,0,0,0-1.049,2.675v.933a6.224,6.224,0,0,0-.928-.348,6.675,6.675,0,0,0-5.148.44c-.079.043-.148.094-.224.14a3.739,3.739,0,0,0-2.328-.889,4.739,4.739,0,0,0-2.1.492,4.089,4.089,0,0,0-1.475-.269,3.777,3.777,0,0,0-2.556.982,3.747,3.747,0,0,0-2.551-.982,3.7,3.7,0,0,0-1.449.288,6.124,6.124,0,0,0-2.655-.508h-.014a6.336,6.336,0,0,0-3.274,1.1,7.081,7.081,0,0,0-1.529,1.414l-.331-1.914a4.508,4.508,0,0,0-1.41-2.645,4.254,4.254,0,0,0-2.933-1.122,4.006,4.006,0,0,0-3.136,1.4,6.863,6.863,0,0,0-.924,1.479,8.218,8.218,0,0,0-.649-1.186,3.907,3.907,0,0,0-3.36-1.689,4,4,0,0,0-3.254,1.382,4.156,4.156,0,0,0-.817,1.394,10.32,10.32,0,0,0-.348,1.409L38.219,490c-.025.167-.051.344-.077.544l-.09.76a2.4,2.4,0,0,0-.011.515,3.846,3.846,0,0,0,1.173,2.468,3.736,3.736,0,0,0,2.634,1.033,3.782,3.782,0,0,0,3.106-1.588,3.686,3.686,0,0,0,.672.735,4.08,4.08,0,0,0,2.711.85h.008a3.778,3.778,0,0,0,2.567-1.031,4.046,4.046,0,0,0,.44-.51,4.074,4.074,0,0,0,.291.356,3.72,3.72,0,0,0,2.782,1.188,3.859,3.859,0,0,0,2.7-1.05,3.745,3.745,0,0,0,.446-.515,6.924,6.924,0,0,0,.669.559,6.212,6.212,0,0,0,3.747,1.192,5.769,5.769,0,0,0,2.388-.486,4.056,4.056,0,0,0,1.578.3c.069,0,.138,0,.223-.01a3.688,3.688,0,0,0,2.189-.991,3.915,3.915,0,0,0,2,.97,2.316,2.316,0,0,0,.38.031,4.048,4.048,0,0,0,2.674-.948,3.5,3.5,0,0,0,.939-1.285,4.58,4.58,0,0,0,1.385,1.356,8.053,8.053,0,0,0,4.228,1.063,6.744,6.744,0,0,0,2.837-.606,5.806,5.806,0,0,0,1.3-.818c.029.031.049.067.079.1a3.812,3.812,0,0,0,5.455-.018,3.9,3.9,0,0,0,.33-.4,3.782,3.782,0,0,0,.312.383,3.67,3.67,0,0,0,2.725,1.176,3.708,3.708,0,0,0,2.613-1.031,3.792,3.792,0,0,0,5.327-.127c.062-.066.121-.133.178-.2.063.076.13.15.2.221a3.813,3.813,0,0,0,5.456-.02c.058-.062.114-.125.168-.19q.092.109.192.213a3.813,3.813,0,0,0,5.453-.023,3.772,3.772,0,0,0,.48-.639,7.09,7.09,0,0,0,.893.792,6.212,6.212,0,0,0,3.747,1.192,5.766,5.766,0,0,0,2.388-.486,4.056,4.056,0,0,0,1.578.3c.071,0,.139,0,.224-.01a3.651,3.651,0,0,0,2.166-.964,3.761,3.761,0,0,0,5.067-.015,3.726,3.726,0,0,0,2.549.989,3.688,3.688,0,0,0,2.724-1.149,3.8,3.8,0,0,0,.491-.648,6.828,6.828,0,0,0,1.2.953,7.158,7.158,0,0,0,3.8,1.03,7.072,7.072,0,0,0,2.964-.627,6.855,6.855,0,0,0,2.337-1.741,7.52,7.52,0,0,0,.847-1.2l.133.379a4.757,4.757,0,0,0,1.357,2.086,3.966,3.966,0,0,0,2.664.913,3.843,3.843,0,0,0,2.687-.981c.068-.063.134-.129.2-.2.062.068.125.132.191.194a3.838,3.838,0,0,0,2.7.985,4,4,0,0,0,2.655-.9,5.021,5.021,0,0,0,1.406-2.113l1.983-5.65.237-.649a7.247,7.247,0,0,0,.221-.71,4.156,4.156,0,0,0,.134-1.04A3.708,3.708,0,0,0,161.565,481.614Zm-99.222,5.022v1.158h0Zm55.738,1.158c-.005,0-.008,0-.013,0v-1.158Zm-43.389.816v-.053l.018.032Z" fill="#3d0a7a"/>
        <g id="Сгруппировать_133" data-name="Сгруппировать 133">
          <path id="Контур_514" data-name="Контур 514" d="M42.016,481.743a7.936,7.936,0,0,1,.255-1.045,1.791,1.791,0,0,1,.377-.632,1.773,1.773,0,0,1,1.493-.578,1.6,1.6,0,0,1,1.43.664,8.738,8.738,0,0,1,.9,1.964l1.679,5.191h.036l1.806-5.678a5.7,5.7,0,0,1,.869-1.577,1.665,1.665,0,0,1,1.351-.564,1.935,1.935,0,0,1,1.358.507,2.234,2.234,0,0,1,.689,1.316l1.6,9.124c.009.075.03.246.064.511a5.3,5.3,0,0,1,.05.589,1.368,1.368,0,0,1-.442,1.038,1.544,1.544,0,0,1-1.1.416,1.377,1.377,0,0,1-1.067-.434,1.957,1.957,0,0,1-.479-1.13l-.988-6.332h-.036L49.8,491.685a2.119,2.119,0,0,1-.521.936,1.544,1.544,0,0,1-1.044.368,1.723,1.723,0,0,1-1.123-.313,1.959,1.959,0,0,1-.574-.991l-2.083-6.592h-.041l-.855,5.883q-.3,2.013-1.715,2.013a1.427,1.427,0,0,1-1.026-.388,1.51,1.51,0,0,1-.461-.993c0-.019.013-.11.031-.273s.039-.333.062-.51.046-.342.071-.5Z" fill="#fff"/>
          <path id="Контур_515" data-name="Контур 515" d="M58.168,485.057a4.841,4.841,0,0,1,1.547-1.7,4.027,4.027,0,0,1,2.087-.7,3.685,3.685,0,0,1,1.581.3,3.235,3.235,0,0,1,1.085.839,1.39,1.39,0,0,1,.541-.68,1.493,1.493,0,0,1,1.827.173,1.479,1.479,0,0,1,.424,1.121V491.5a1.574,1.574,0,0,1-.345.987,1.317,1.317,0,0,1-.96.5,1.524,1.524,0,0,1-1-.309,1.548,1.548,0,0,1-.491-.6,2.985,2.985,0,0,1-2.479,1.1,3.911,3.911,0,0,1-2.373-.744,4.871,4.871,0,0,1-1.569-1.952,6.753,6.753,0,0,1-.607-2.559A6.523,6.523,0,0,1,58.168,485.057Zm4.175.409a1.693,1.693,0,0,0-1.435.709,3.046,3.046,0,0,0-.562,1.746,2.769,2.769,0,0,0,.544,1.727,1.734,1.734,0,0,0,1.453.714,1.854,1.854,0,0,0,1.094-.321,1.942,1.942,0,0,0,.688-.877,3.231,3.231,0,0,0,.229-1.243,2.833,2.833,0,0,0-.528-1.755A1.749,1.749,0,0,0,62.343,485.466Z" fill="#fff"/>
          <path id="Контур_516" data-name="Контур 516" d="M69.457,484.4a1.427,1.427,0,0,1,1.455-1.528,1.709,1.709,0,0,1,.887.234,1.3,1.3,0,0,1,.565.68,2.657,2.657,0,0,1,2.123-1.137,1.317,1.317,0,0,1,.992.493,1.63,1.63,0,0,1,.387,1.071,1.062,1.062,0,0,1-.437.941,4.856,4.856,0,0,1-1.28.561,4.628,4.628,0,0,0-1.149.475,1.7,1.7,0,0,0-.636,1.523v3.669a1.509,1.509,0,0,1-.458,1.213,1.723,1.723,0,0,1-1.162.391,1.472,1.472,0,0,1-1.287-1.564Z" fill="#fff"/>
          <path id="Контур_517" data-name="Контур 517" d="M76.11,491.162a1.534,1.534,0,0,1,.332-1.016,1.035,1.035,0,0,1,.824-.4,1.928,1.928,0,0,1,.658.112,7.028,7.028,0,0,1,.745.327,6.846,6.846,0,0,0,.744.325,2,2,0,0,0,.664.109q.841-.049.841-.577a.55.55,0,0,0-.208-.462,5.06,5.06,0,0,0-.99-.466c-.52-.2-.878-.346-1.076-.432a7.645,7.645,0,0,1-1.305-.663,2.172,2.172,0,0,1-.735-.807,2.7,2.7,0,0,1-.252-1.248,3.061,3.061,0,0,1,.463-1.611,3.416,3.416,0,0,1,1.331-1.235,4.084,4.084,0,0,1,1.972-.468,5.327,5.327,0,0,1,1.437.221,3.53,3.53,0,0,1,1.34.689,1.456,1.456,0,0,1,.557,1.159,1.233,1.233,0,0,1-.337.9,1.137,1.137,0,0,1-.855.348,1.528,1.528,0,0,1-.528-.136q-.336-.136-.62-.264a5.565,5.565,0,0,0-.592-.225,1.937,1.937,0,0,0-.589-.1.913.913,0,0,0-.548.157.533.533,0,0,0-.216.457q0,.336.687.65.75.3,1.681.675a4.483,4.483,0,0,1,1.553,1.023,2.377,2.377,0,0,1,.624,1.729,2.943,2.943,0,0,1-.512,1.717,3.323,3.323,0,0,1-1.367,1.132,4.412,4.412,0,0,1-1.865.393,5.75,5.75,0,0,1-3.02-.727A1.542,1.542,0,0,1,76.11,491.162Z" fill="#fff"/>
          <path id="Контур_518" data-name="Контур 518" d="M85.444,491.5V480.047a1.52,1.52,0,0,1,.418-1.081,1.446,1.446,0,0,1,2.086,0,1.557,1.557,0,0,1,.4,1.084v3.332h.04a5.081,5.081,0,0,1,2.475-.727,4.432,4.432,0,0,1,1.849.373,2.893,2.893,0,0,1,1.294,1.146,3.6,3.6,0,0,1,.473,1.909V491.5a1.476,1.476,0,0,1-.409,1.064,1.408,1.408,0,0,1-1.065.427,1.323,1.323,0,0,1-1.016-.429,1.5,1.5,0,0,1-.4-1.062V486.88a1.812,1.812,0,0,0-.44-1.266,1.534,1.534,0,0,0-1.2-.484,1.5,1.5,0,0,0-1.164.486,1.8,1.8,0,0,0-.441,1.264V491.5a1.493,1.493,0,0,1-.4,1.064,1.376,1.376,0,0,1-1.049.427,1.389,1.389,0,0,1-1.039-.429A1.467,1.467,0,0,1,85.444,491.5Z" fill="#fff"/>
          <path id="Контур_519" data-name="Контур 519" d="M96.751,491.5v-7.132a1.505,1.505,0,0,1,.428-1.077,1.366,1.366,0,0,1,1.027-.45,1.469,1.469,0,0,1,1.452.95,2.354,2.354,0,0,1,1.062-.834,3.633,3.633,0,0,1,1.453-.3,3.172,3.172,0,0,1,2.7,1.214q.3-.209.737-.516a4.119,4.119,0,0,1,.994-.5,3.967,3.967,0,0,1,1.325-.2,4.409,4.409,0,0,1,1.686.4,2.847,2.847,0,0,1,1.219,1.113,3.589,3.589,0,0,1,.466,1.912V491.5a1.492,1.492,0,0,1-.4,1.064,1.377,1.377,0,0,1-1.049.427,1.392,1.392,0,0,1-1.04-.429,1.47,1.47,0,0,1-.415-1.062V486.88a1.99,1.99,0,0,0-.387-1.241,1.368,1.368,0,0,0-2.131,0,1.983,1.983,0,0,0-.389,1.239V491.5a1.489,1.489,0,0,1-.4,1.064,1.373,1.373,0,0,1-1.048.427,1.39,1.39,0,0,1-1.04-.429,1.471,1.471,0,0,1-.416-1.062V486.88a1.974,1.974,0,0,0-.391-1.241,1.267,1.267,0,0,0-1.06-.509,1.29,1.29,0,0,0-1.075.511,1.953,1.953,0,0,0-.4,1.239V491.5a1.493,1.493,0,0,1-.4,1.064,1.376,1.376,0,0,1-1.049.427,1.389,1.389,0,0,1-1.039-.429A1.467,1.467,0,0,1,96.751,491.5Z" fill="#fff"/>
          <path id="Контур_520" data-name="Контур 520" d="M113.894,485.057a4.838,4.838,0,0,1,1.546-1.7,4.034,4.034,0,0,1,2.088-.7,3.689,3.689,0,0,1,1.581.3,3.255,3.255,0,0,1,1.085.839,1.394,1.394,0,0,1,.54-.68,1.493,1.493,0,0,1,1.827.173,1.479,1.479,0,0,1,.425,1.121V491.5a1.569,1.569,0,0,1-.346.987,1.313,1.313,0,0,1-.96.5,1.528,1.528,0,0,1-1-.309,1.544,1.544,0,0,1-.49-.6,2.985,2.985,0,0,1-2.479,1.1,3.909,3.909,0,0,1-2.373-.744,4.871,4.871,0,0,1-1.569-1.952,6.734,6.734,0,0,1-.607-2.559A6.51,6.51,0,0,1,113.894,485.057Zm4.175.409a1.691,1.691,0,0,0-1.435.709,3.039,3.039,0,0,0-.562,1.746,2.763,2.763,0,0,0,.544,1.727,1.733,1.733,0,0,0,1.453.714,1.854,1.854,0,0,0,1.094-.321,1.94,1.94,0,0,0,.687-.877,3.231,3.231,0,0,0,.23-1.243,2.84,2.84,0,0,0-.528-1.755A1.749,1.749,0,0,0,118.069,485.466Z" fill="#fff"/>
          <path id="Контур_521" data-name="Контур 521" d="M125.146,491.5V480.047a1.506,1.506,0,0,1,.407-1.074,1.463,1.463,0,0,1,2.086,0,1.505,1.505,0,0,1,.413,1.07V491.5a1.479,1.479,0,0,1-.411,1.062,1.49,1.49,0,0,1-2.09,0A1.486,1.486,0,0,1,125.146,491.5Z" fill="#fff"/>
          <path id="Контур_522" data-name="Контур 522" d="M130.231,491.5V480.047a1.506,1.506,0,0,1,.407-1.074,1.462,1.462,0,0,1,2.085,0,1.5,1.5,0,0,1,.414,1.07V491.5a1.479,1.479,0,0,1-.411,1.062,1.491,1.491,0,0,1-2.091,0A1.485,1.485,0,0,1,130.231,491.5Z" fill="#fff"/>
          <path id="Контур_523" data-name="Контур 523" d="M139.9,493.176a4.825,4.825,0,0,1-2.581-.687A4.552,4.552,0,0,1,135.6,490.6a5.907,5.907,0,0,1-.6-2.68,6.136,6.136,0,0,1,.341-2.062,4.987,4.987,0,0,1,.984-1.686,4.47,4.47,0,0,1,1.556-1.121,4.975,4.975,0,0,1,2.017-.4,4.748,4.748,0,0,1,2.559.734,4.823,4.823,0,0,1,1.717,1.916,5.742,5.742,0,0,1,.605,2.619,6.11,6.11,0,0,1-.355,2.005,5.264,5.264,0,0,1-.982,1.682,4.557,4.557,0,0,1-1.549,1.152A4.739,4.739,0,0,1,139.9,493.176Zm0-2.814a1.782,1.782,0,0,0,1.071-.323,1.966,1.966,0,0,0,.675-.879,3.228,3.228,0,0,0,.229-1.239,2.844,2.844,0,0,0-.51-1.739,1.78,1.78,0,0,0-1.465-.716,1.719,1.719,0,0,0-1.476.707,2.885,2.885,0,0,0-.516,1.748,2.917,2.917,0,0,0,.507,1.736,1.7,1.7,0,0,0,1.408.741.149.149,0,0,1,.047-.029A.1.1,0,0,1,139.9,490.362Z" fill="#fff"/>
          <path id="Контур_524" data-name="Контур 524" d="M148.374,491.535l-1.993-5.678a5.766,5.766,0,0,1-.486-1.6,1.361,1.361,0,0,1,.39-.993,1.564,1.564,0,0,1,1.1-.425,1.335,1.335,0,0,1,1.378,1.064l1.438,4.69h.036l1.306-4.077a5.559,5.559,0,0,1,.3-.832,1.6,1.6,0,0,1,.471-.589,1.338,1.338,0,0,1,.793-.256,1.118,1.118,0,0,1,.981.427,5.007,5.007,0,0,1,.584,1.25l1.3,4.077h.041l1.415-4.69a1.321,1.321,0,0,1,1.4-1.064,1.422,1.422,0,0,1,1.069.4,1.405,1.405,0,0,1,.387,1.021,1.854,1.854,0,0,1-.061.459,5.092,5.092,0,0,1-.153.491c-.061.167-.139.384-.237.65l-1.992,5.678a2.7,2.7,0,0,1-.712,1.1,1.732,1.732,0,0,1-1.153.35,1.541,1.541,0,0,1-1.1-.35,2.582,2.582,0,0,1-.612-1.141l-1.156-3.463h-.04l-1.133,3.463a2.676,2.676,0,0,1-.634,1.137,1.555,1.555,0,0,1-1.1.354,1.709,1.709,0,0,1-1.148-.352A2.538,2.538,0,0,1,148.374,491.535Z" fill="#fff"/>
        </g>
      </g>
      <g id="Сгруппировать_140" data-name="Сгруппировать 140">
        <g id="Сгруппировать_135" data-name="Сгруппировать 135">
          <path id="Контур_525" data-name="Контур 525" d="M225.427,387.884c-7.207,1.973-20.889,9.207-18.519,35.629,3.194,35.6,54,34.431,50.961-3.726-1.742-21.845-12.382-37.392-32.442-31.9Zm4.943,22.566c-1.839.5-5.329,2.349-4.724,9.088.815,9.079,13.774,8.782,13-.951-.444-5.571-3.158-9.536-8.274-8.137Z" fill="#fff" fill-rule="evenodd"/>
          <path id="Контур_526" data-name="Контур 526" d="M226.171,391.282c-6.4,1.751-18.546,8.174-16.441,31.633,2.835,31.6,47.946,30.568,45.244-3.309-1.547-19.394-10.993-33.2-28.8-28.324Zm4.389,20.035c-1.633.447-4.731,2.085-4.194,8.069.723,8.06,12.229,7.8,11.54-.845-.4-4.946-2.8-8.467-7.346-7.224Z" fill="#3d0a7a" fill-rule="evenodd"/>
          <path id="Контур_527" data-name="Контур 527" d="M227.114,395.748c-5.348,1.464-15.5,6.832-13.744,26.433,2.368,26.406,40.072,25.54,37.816-2.768-1.292-16.2-9.186-27.738-24.072-23.665Zm3.667,16.741c-1.365.373-3.954,1.742-3.506,6.742.6,6.735,10.221,6.514,9.645-.706-.329-4.134-2.343-7.075-6.139-6.036Z" fill="#fff" fill-rule="evenodd"/>
        </g>
        <g id="Сгруппировать_136" data-name="Сгруппировать 136">
          <path id="Контур_528" data-name="Контур 528" d="M181.8,450.187c9.644,6.268,46.112,3.137,42.969-16.194-2.323-14.283-12.637-14.866-21.82-11.561,1.8-5.5.715-27.031-12.957-30.4-25.634-6.306-17.64,52.007-8.192,58.15Z" fill="#fff" fill-rule="evenodd"/>
          <path id="Контур_529" data-name="Контур 529" d="M197.054,450.069a44.492,44.492,0,0,1-7.54-.292c-5.129-.662-8.543-4.678-9.908-7.916-2.282-5.406-7.2-32.147-.851-42.167a8.962,8.962,0,0,1,7.264-4.435,9.379,9.379,0,0,1,1.06.016,11.318,11.318,0,0,1,8.3,4.671c5.366,7.009,5.344,19.97,4.07,26.493q-.015.076-.03.15l.129-.049c3.108-1.2,6.619-2.558,10.064-2.7,3.6-.151,9.908,1.015,11.664,10.518a9.388,9.388,0,0,1-2.014,7.631C214.913,447.444,204.938,449.74,197.054,450.069Z" fill="#3d0a7a" fill-rule="evenodd"/>
          <path id="Контур_530" data-name="Контур 530" d="M196.933,447.168a41.578,41.578,0,0,1-7.046-.271c-3.909-.505-6.54-3.636-7.606-6.164-2.444-5.792-6.443-31.012-1.073-39.484a6.06,6.06,0,0,1,4.932-3.089,6.433,6.433,0,0,1,.732.011,8.388,8.388,0,0,1,6.2,3.54c4.533,5.921,4.791,17.7,3.526,24.171-.233,1.192-.779,3.982-.266,4.58.068.077.292.077.385.073a3.835,3.835,0,0,0,1.025-.226c.889-.3,1.845-.671,2.856-1.062,2.89-1.118,6.165-2.384,9.134-2.509,4.73-.2,7.653,2.543,8.688,8.145a6.441,6.441,0,0,1-1.429,5.293C213.248,444.875,203.846,446.879,196.933,447.168Z" fill="#fff" fill-rule="evenodd"/>
          <path id="Контур_531" data-name="Контур 531" d="M183.4,440.263c.923,2.19,3.257,5,6.646,5.435,11.622,1.5,28.65-2.7,27.192-10.6-2.193-11.873-12.39-5.927-19.1-3.648-3.977,1.35-3.419-2.236-2.721-5.8,1.617-8.272.534-25.62-8.628-26.272-11.343-.808-6.3,33.989-3.39,40.885Z" fill="#dc0917" fill-rule="evenodd"/>
        </g>
        <g id="Сгруппировать_137" data-name="Сгруппировать 137">
          <path id="Контур_532" data-name="Контур 532" d="M117.012,390.645c-22.785-2.379-21.754,7.914-24.412,27.594-2.019,14.944-6.539,30.32,14.448,34.265,13.527,2.542,28.916,2.519,30.3-12.386.687-7.417-3.694-9.117-7.469-9.845,5.83.013,7.993-10.955,1.284-13.138,1.885-.8,7.683,1.484,7.97-10.693.277-11.756-11.267-14.664-22.118-15.8Z" fill="#fff" fill-rule="evenodd"/>
          <path id="Контур_533" data-name="Контур 533" d="M117.445,393.878c-20.294-2.118-19.327,7.228-21.695,24.757-1.8,13.31-6.467,27.013,12.227,30.527,17.124,3.219,25.383-1.39,26.035-7.848,1.1-10.861-6.284-9.9-15.776-10.621-.926.008-.911-.7,0-.672,8.788.229,12.841-1.316,13.294-6.673.409-4.815-3.951-6.649-9.25-7.489-.947-.151-.972-.741-.019-.642,10.252,1.076,14.051-.711,13.606-9.432-.308-6.039-6.924-10.707-18.419-11.907Z" fill="#3d0a7a" fill-rule="evenodd"/>
          <path id="Контур_534" data-name="Контур 534" d="M116.843,397.544c-17.021-1.774-15.3,6.232-17.341,21.445-1.55,11.553-6.449,23.552,9.225,26.542,14.356,2.739,20.46-.649,21.075-6.248.626-5.688-6.488-6.717-14.094-7.319-2.219-.177-1.873-4.14.65-4.1,6.728.094,10.455-.588,10.834-5.018.4-4.668-4.657-5.377-10.071-5.842-2.413-.21-1.628-3.917.534-3.875,8.062.148,13.908.942,14.184-5.309.238-5.4-5.355-9.266-15-10.271Z" fill="#fff" fill-rule="evenodd"/>
        </g>
        <g id="Сгруппировать_138" data-name="Сгруппировать 138">
          <path id="Контур_535" data-name="Контур 535" d="M39.073,446.718c12.443,1.934,15.782-3.755,17.339-8.584,2.458-7.627.257-4.017,5.278-3.545,3.637.342,4.331-2.9,4.133,2.891-.164,4.808,2.452,14.127,14.992,13.076C94.747,449.389,93.336,431.09,94,418.936c.634-11.66,3.337-29.68-14.556-30.942-7.644-.539-11,2.266-13.02,7.337-.385.969-1.321,1.759-2.239-.286-1.091-2.429-3.647-9.881-15.665-9.689-9.371.149-12.817,7.417-14.425,15.723-1.124,5.8-2.8,21.736-3.058,24.28-1.007,9.9-.432,20.042,8.039,21.359Z" fill="#fff" fill-rule="evenodd"/>
          <path id="Контур_536" data-name="Контур 536" d="M41.554,443.74c17.986,2.8,12.519-22.062,16.5-14.93,1.251,2.237,5.928,3.4,8.027,1.03,5.875-6.631-4.322,18.8,13.563,17.3C92.078,446.1,90.706,428.3,91.143,417.7c.411-9.96,2.869-25.121-11.445-26.473-10.256-.97-10.891,4.409-13.615,10.315-.392.851-1.309,1.391-2.114-.454C62.9,398.627,61.414,389.35,50.025,388.7c-9.046-.516-11.719,6.324-12.827,13.411-.536,3.428-2.164,16.607-2.664,20.75-1.133,9.391-1.071,19.621,7.02,20.879Z" fill="#3d0a7a" fill-rule="evenodd"/>
          <path id="Контур_537" data-name="Контур 537" d="M44.557,440.435c10.253.915,9.558-20.04,9.841-21.481s1.725-.452,1.725-.452,1.866,8.225,6.9,8.445,6.556-6.628,7.3-7.179,1.945-.741,2.052.658S67.817,442.51,77.787,443.4c6.024.538,7.816-5.582,8.49-12.589.441-4.589,1.4-18.3,1.483-21.573.168-6.752-1.255-14.358-9.925-14.671-7.118-.256-8.181,7.769-11.383,12.825-.437.691-2.96,1.046-3.661-.565-.936-2.148-3.044-13.766-10.839-14.462-7.1-.633-9.567,4.255-10.615,9.834-.675,3.591-2.365,17.624-2.85,21.923-.883,7.816-.544,15.724,6.07,16.314Z" fill="#fff" fill-rule="evenodd"/>
        </g>
        <g id="Сгруппировать_139" data-name="Сгруппировать 139">
          <path id="Контур_538" data-name="Контур 538" d="M143.221,451.663c9.373,6.666,45.94,5.061,43.607-14.385-1.724-14.367-12.005-15.38-21.317-12.462,2.028-5.423,1.843-26.978-11.677-30.909-25.348-7.372-19.8,51.225-10.613,57.756Z" fill="#fff" fill-rule="evenodd"/>
          <path id="Контур_539" data-name="Контур 539" d="M158.469,452.183a44.531,44.531,0,0,1-7.522-.607c-5.1-.876-8.34-5.03-9.569-8.322-2.054-5.5-5.852-32.42.911-42.166a8.964,8.964,0,0,1,7.444-4.128,9.412,9.412,0,0,1,1.058.06,11.316,11.316,0,0,1,8.1,5.014c5.069,7.227,4.506,20.176,2.96,26.639q-.018.076-.036.15l.131-.045c3.156-1.07,6.72-2.279,10.168-2.279,3.606,0,9.857,1.428,11.215,11A9.386,9.386,0,0,1,181,445.036C176.422,450.306,166.359,452.183,158.469,452.183Z" fill="#3d0a7a" fill-rule="evenodd"/>
          <path id="Контур_540" data-name="Контур 540" d="M158.469,449.28a41.636,41.636,0,0,1-7.029-.565c-3.884-.668-6.382-3.907-7.342-6.477-2.2-5.889-5.141-31.254.577-39.495a6.065,6.065,0,0,1,5.057-2.88,6.562,6.562,0,0,1,.731.042,8.386,8.386,0,0,1,6.051,3.8c4.281,6.105,4.047,17.884,2.513,24.3-.283,1.181-.944,3.946-.457,4.565.064.08.289.089.382.089a3.8,3.8,0,0,0,1.033-.183c.9-.264,1.871-.594,2.9-.942,2.934-1,6.26-2.124,9.231-2.124,4.734,0,7.539,2.86,8.34,8.5a6.442,6.442,0,0,1-1.649,5.229C174.865,447.67,165.388,449.28,158.469,449.28Z" fill="#fff" fill-rule="evenodd"/>
          <path id="Контур_541" data-name="Контур 541" d="M145.232,441.815c.831,2.227,3.045,5.128,6.413,5.707,11.549,1.988,28.738-1.5,27.61-9.449-1.694-11.954-12.131-6.439-18.929-4.443-4.03,1.184-3.322-2.376-2.476-5.913,1.961-8.2,1.6-25.575-7.523-26.61-11.3-1.28-7.714,33.7-5.1,40.708Z" fill="#dc0917" fill-rule="evenodd"/>
        </g>
      </g>
    </g>
  </g>
</svg>
