<svg xmlns="http://www.w3.org/2000/svg" xmlns:xlink="http://www.w3.org/1999/xlink" width="280.63" height="139.64" viewBox="0 0 280.63 139.64">
  <defs>
    <clipPath id="clip-Монтажная_область_22">
      <rect width="280.63" height="139.64"/>
    </clipPath>
  </defs>
  <g id="Монтажная_область_22" data-name="Монтажная область – 22" clip-path="url(#clip-Монтажная_область_22)">
    <g id="Сгруппировать_176" data-name="Сгруппировать 176" transform="translate(-2976 -372)">
      <g id="Сгруппировать_22" data-name="Сгруппировать 22">
        <g id="STRIKE_curves_SD" data-name="STRIKE curves SD" style="isolation: isolate">
          <path id="Контур_85" data-name="Контур 85" d="M3019.837,432.47a16.992,16.992,0,0,0,.232-3.177,16.742,16.742,0,0,0-.155-2.285,7.722,7.722,0,0,0-.542-2.015,3.114,3.114,0,0,0-1.162-1.4,3.649,3.649,0,0,0-2.015-.5,5.351,5.351,0,0,0-2.557.62,7.692,7.692,0,0,0-2.053,1.588,7.3,7.3,0,0,0-1.9,4.92,4.279,4.279,0,0,0,1.046,3.1,7.89,7.89,0,0,0,2.75,1.782,22.947,22.947,0,0,0,3.874,1.163q2.169.465,4.494,1.085a29.046,29.046,0,0,1,3.874,1.394,12.009,12.009,0,0,1,3.448,2.286,10.483,10.483,0,0,1,2.441,3.719,15.191,15.191,0,0,1,.93,5.7,16.117,16.117,0,0,1-1.937,8.213,15.355,15.355,0,0,1-5.347,5.424,24.459,24.459,0,0,1-8.1,3.022,52.4,52.4,0,0,1-10.189.93,45.926,45.926,0,0,1-9.1-.737,30.892,30.892,0,0,1-5.54-1.588,9.666,9.666,0,0,1-3.564-2.324l2.635-10.616h13.637q-.079.7-.155,1.9t-.078,1.9a8.6,8.6,0,0,0,.233,1.937,6.435,6.435,0,0,0,.736,1.86,3.9,3.9,0,0,0,1.433,1.395,4.56,4.56,0,0,0,2.325.542,5.387,5.387,0,0,0,2.75-.7,6.955,6.955,0,0,0,2.015-1.744,7.746,7.746,0,0,0,1.239-2.324,7.937,7.937,0,0,0,.427-2.519,4.877,4.877,0,0,0-.814-2.866,6.841,6.841,0,0,0-2.208-1.976,16.094,16.094,0,0,0-3.216-1.395q-1.821-.58-3.758-1.2-1.859-.542-3.913-1.317a13.281,13.281,0,0,1-3.757-2.17,11.26,11.26,0,0,1-2.829-3.525,11.669,11.669,0,0,1-1.123-5.463,13.524,13.524,0,0,1,2.518-8.329,19.41,19.41,0,0,1,6.354-5.462,29.014,29.014,0,0,1,8.407-2.983,45.4,45.4,0,0,1,8.678-.891,30.22,30.22,0,0,1,9.336,1.278,17.789,17.789,0,0,1,5.928,2.983l-2.867,10.77Z" fill="#020000"/>
          <path id="Контур_86" data-name="Контур 86" d="M3081.977,424.1H3069.5l-9.22,43.313h-16.736l9.22-43.313h-12.32l1.4-5.889h41.453Z" fill="#020000"/>
          <path id="Контур_87" data-name="Контур 87" d="M3126.064,429.913a15.031,15.031,0,0,1-2.557,8.446q-2.558,3.874-8.446,5.888l8.988,23.168h-17.278l-6.819-21.463h-.852l-4.572,21.463h-16.736l10.46-49.2h20.378a50.755,50.755,0,0,1,6.741.427,16.045,16.045,0,0,1,5.54,1.7,9.78,9.78,0,0,1,3.758,3.564A11.419,11.419,0,0,1,3126.064,429.913Zm-22.315,11.08a4.839,4.839,0,0,0,3.448-1.356,10.52,10.52,0,0,0,2.324-3.293,16.85,16.85,0,0,0,1.279-4.145,22.633,22.633,0,0,0,.387-3.835,7.817,7.817,0,0,0-.7-3.448q-.7-1.434-3.022-1.434h-3.487l-3.874,17.511Z" fill="#020000"/>
          <path id="Контур_88" data-name="Контур 88" d="M3143.574,467.415h-16.736l10.46-49.2h16.814Z" fill="#020000"/>
          <path id="Контур_89" data-name="Контур 89" d="M3174.8,439.6l19.138-21.463h8.756l-17.356,18.828,11.777,30.451h-16.891L3173.4,445.8l-4.571,21.618H3152.1l10.46-49.2h16.814Z" fill="#020000"/>
          <path id="Контур_90" data-name="Контур 90" d="M3209.665,418.213h32.62l-1.239,5.889h-15.807l-8.058,37.347h15.806l-1.162,5.966h-32.62Z" fill="#020000"/>
        </g>
        <g id="STRIKE_curves" data-name="STRIKE curves" style="isolation: isolate">
          <path id="Контур_91" data-name="Контур 91" d="M3021.945,430.764a17,17,0,0,0,.232-3.177,16.757,16.757,0,0,0-.155-2.286,7.723,7.723,0,0,0-.542-2.015,3.107,3.107,0,0,0-1.162-1.394,3.641,3.641,0,0,0-2.015-.5,5.35,5.35,0,0,0-2.557.62,7.685,7.685,0,0,0-2.053,1.588,7.3,7.3,0,0,0-1.9,4.921,4.283,4.283,0,0,0,1.046,3.1,7.9,7.9,0,0,0,2.75,1.782,22.949,22.949,0,0,0,3.874,1.162q2.169.465,4.494,1.085a29.248,29.248,0,0,1,3.875,1.4,12.014,12.014,0,0,1,3.447,2.285,10.486,10.486,0,0,1,2.441,3.719,15.19,15.19,0,0,1,.93,5.7,16.111,16.111,0,0,1-1.937,8.214,15.356,15.356,0,0,1-5.346,5.423,24.472,24.472,0,0,1-8.1,3.022,52.4,52.4,0,0,1-10.189.93,46,46,0,0,1-9.1-.736,30.836,30.836,0,0,1-5.54-1.589,9.65,9.65,0,0,1-3.565-2.324l2.635-10.615h13.637q-.078.7-.155,1.9t-.078,1.9a8.611,8.611,0,0,0,.233,1.937,6.457,6.457,0,0,0,.736,1.859,3.9,3.9,0,0,0,1.433,1.395,4.551,4.551,0,0,0,2.325.542,5.376,5.376,0,0,0,2.75-.7,6.936,6.936,0,0,0,2.015-1.743,7.789,7.789,0,0,0,1.24-2.325,7.959,7.959,0,0,0,.426-2.518,4.873,4.873,0,0,0-.814-2.867,6.854,6.854,0,0,0-2.208-1.976,16.1,16.1,0,0,0-3.216-1.394q-1.821-.582-3.758-1.2-1.859-.541-3.912-1.318a13.247,13.247,0,0,1-3.758-2.169,11.25,11.25,0,0,1-2.828-3.526,11.654,11.654,0,0,1-1.124-5.462,13.524,13.524,0,0,1,2.518-8.329,19.427,19.427,0,0,1,6.354-5.463,29.019,29.019,0,0,1,8.407-2.983,45.486,45.486,0,0,1,8.678-.891,30.223,30.223,0,0,1,9.336,1.278,17.829,17.829,0,0,1,5.928,2.983l-2.867,10.771Z" fill="#fff"/>
          <path id="Контур_92" data-name="Контур 92" d="M3084.085,422.395H3071.61l-9.22,43.313h-16.736l9.22-43.313h-12.32l1.4-5.888H3085.4Z" fill="#fff"/>
          <path id="Контур_93" data-name="Контур 93" d="M3128.172,428.207a15.019,15.019,0,0,1-2.557,8.445q-2.558,3.876-8.446,5.889l8.988,23.167h-17.278l-6.819-21.463h-.852l-4.571,21.463H3079.9l10.461-49.2h20.377a50.926,50.926,0,0,1,6.741.426,16.046,16.046,0,0,1,5.54,1.7,9.793,9.793,0,0,1,3.758,3.565A11.417,11.417,0,0,1,3128.172,428.207Zm-22.315,11.08a4.839,4.839,0,0,0,3.448-1.356,10.543,10.543,0,0,0,2.324-3.293,16.858,16.858,0,0,0,1.279-4.146,22.624,22.624,0,0,0,.387-3.835,7.817,7.817,0,0,0-.7-3.448q-.7-1.433-3.022-1.433h-3.487l-3.874,17.511Z" fill="#fff"/>
          <path id="Контур_94" data-name="Контур 94" d="M3145.683,465.708h-16.737l10.461-49.2h16.813Z" fill="#fff"/>
          <path id="Контур_95" data-name="Контур 95" d="M3176.907,437.892l19.138-21.463h8.756l-17.356,18.828,11.777,30.451h-16.891l-6.819-21.618-4.571,21.618h-16.736l10.46-49.2h16.814Z" fill="#fff"/>
          <path id="Контур_96" data-name="Контур 96" d="M3211.773,416.507h32.62l-1.239,5.888h-15.807l-8.058,37.347h15.806l-1.162,5.966h-32.62Z" fill="#fff"/>
        </g>
      </g>
      <g id="pulya-curves">
        <path id="Контур_97" data-name="Контур 97" d="M3053.963,453.107h-6.834c-.025.237-.058.472-.106.705,1.55,0,3.1,0,4.65,0,.6,0,1.2-.008,1.8,0C3053.937,453.815,3054.128,453.623,3053.963,453.107Z"/>
        <path id="Контур_98" data-name="Контур 98" d="M3001.265,433.945h-3.027c-.84,0-1.68.007-2.519,0l0,.1c.018.219.028.439.034.66.654,0,1.308,0,1.962,0,1.025,0,2.051-.007,3.076,0C3001.266,434.7,3001.446,434.5,3001.265,433.945Z"/>
        <path id="Контур_99" data-name="Контур 99" d="M3210.149,442.781a1.527,1.527,0,0,1,.437-.138c3.31-.008,6.62-.006,10,.185a1.54,1.54,0,0,1-.386.334,1.47,1.47,0,0,1-.525.03q-4.407-.021-8.813-.049a4.638,4.638,0,0,1-.7-.107Z"/>
        <path id="Контур_100" data-name="Контур 100" d="M3217.28,439.536h8.729c-.27.236-.39.43-.525.442-.491.044-.988.031-1.483.032-1.908,0-3.817.008-5.726-.008C3217.962,440,3217.558,440.162,3217.28,439.536Z"/>
        <path id="Контур_101" data-name="Контур 101" d="M3218.987,437.476a5.216,5.216,0,0,1-.767.118c-3.615.031-7.229.038-10.953-.062.268-.613.668-.459.973-.461,2.722-.021,5.444-.024,8.167-.032.636,0,1.273-.01,1.909.01a3.879,3.879,0,0,1,.67.139Z"/>
        <path id="Контур_102" data-name="Контур 102" d="M3007.012,424.136h-7.489l.6-.739s4.441.055,6.344.054C3006.863,423.451,3007.2,423.505,3007.012,424.136Z"/>
        <path id="Контур_103" data-name="Контур 103" d="M3173.221,441.8c.217-.356.285-.575.434-.68.122-.086.34-.046.515-.047,1.935,0,3.87,0,5.806.005a3.828,3.828,0,0,1,.589.09c.082.384-.023.6-.39.621s-.7.01-1.056.011h-5.9Z"/>
        <path id="Контур_104" data-name="Контур 104" d="M3133.036,443.237h5.691c-.192-.627-.191-.653-.466-.662-.6-.021-1.2-.015-1.8-.016q-1.655,0-3.31,0C3133.119,442.787,3133.085,443.016,3133.036,443.237Z"/>
        <path id="Контур_105" data-name="Контур 105" d="M3119.843,450.037h-6.44c-.093-.325-.141-.58.262-.655a2.9,2.9,0,0,1,.528-.027q2.382,0,4.765,0C3119.377,449.357,3119.856,449.294,3119.843,450.037Z"/>
        <path id="Контур_106" data-name="Контур 106" d="M3163.035,445.112c-.142-.589.2-.638.593-.639q1.539,0,3.078,0c.708,0,1.416,0,2.124.01.342,0,.541.145.45.527A28.14,28.14,0,0,1,3163.035,445.112Z"/>
        <path id="Контур_107" data-name="Контур 107" d="M3081.527,453h5.44c-.192-.63-.191-.654-.464-.663-.564-.02-1.128-.013-1.692-.014l-3.085,0C3081.671,452.556,3081.6,452.78,3081.527,453Z"/>
        <path id="Контур_108" data-name="Контур 108" d="M2995.325,459.339q-2.266,0-4.533,0c-.092.224-.184.447-.279.669h5.234C2995.913,459.514,2995.739,459.339,2995.325,459.339Z"/>
        <path id="Контур_109" data-name="Контур 109" d="M3215.492,441.207h5.684c-.2.24-.29.458-.387.459-1.7.021-3.39.018-5.085,0-.092,0-.183-.156-.275-.239Z"/>
        <path id="Контур_110" data-name="Контур 110" d="M3127.1,432.965c.065-.216.131-.433.192-.651h-3.92c-.132.472.023.681.44.682q1.534,0,3.067,0A.828.828,0,0,0,3127.1,432.965Z"/>
        <path id="Контур_111" data-name="Контур 111" d="M3031.337,445.628c1.034,0,2.05,0,3.066,0,.442,0,.535.246.367.738-1.011,0-2.056.007-3.1,0C3031.276,446.36,3031.219,446.1,3031.337,445.628Z"/>
        <path id="Контур_112" data-name="Контур 112" d="M3051.12,432.287l-.006.019v.011c-.005.227-.009.453-.018.68h2.871l.037-.71Z"/>
        <path id="Контур_113" data-name="Контур 113" d="M3163.184,431.965q-1.233-.024-2.467-.008a5.87,5.87,0,0,1-.164.651h2.927C3163.648,432.214,3163.555,431.972,3163.184,431.965Z"/>
        <path id="Контур_114" data-name="Контур 114" d="M3089.426,426.649c-.763-.008-1.526-.022-2.288,0-.039.214-.085.425-.134.636h2.8C3089.925,426.858,3089.791,426.653,3089.426,426.649Z"/>
        <path id="Контур_115" data-name="Контур 115" d="M3148.246,453.4c.121.476.02.7-.355.7-.731.01-1.463,0-2.14,0-.219-.44-.122-.682.244-.7C3146.757,453.382,3147.522,453.4,3148.246,453.4Z"/>
        <path id="Контур_116" data-name="Контур 116" d="M3157.232,453.42a7.592,7.592,0,0,1-1.127-.058c-.077.23-.154.462-.238.689h1.671C3157.7,453.65,3157.585,453.368,3157.232,453.42Z"/>
        <path id="Контур_117" data-name="Контур 117" d="M3134.811,449.66c-.72.83-1.677.257-2.5.4-.2-.5-.046-.691.366-.7.694-.008,1.389,0,2.083,0Z"/>
        <path id="Контур_118" data-name="Контур 118" d="M3069.989,426.709c-1.2-.229-1.577-.106-1.749.545a5.263,5.263,0,0,0,1.668.1C3069.928,427.139,3069.95,426.922,3069.989,426.709Z"/>
        <path id="Контур_119" data-name="Контур 119" d="M3240.9,439.545a19.5,19.5,0,0,0-6.409-1.764c-2.321-.157-4.66-.043-6.991-.061-.633-.005-.862.362-.963.906-.233,1.25-.479,2.5-.712,3.748-.1.513-.3,1.781-.3,1.781s.446.024.576.023c2.226-.032,4.469.084,6.675-.152a29.385,29.385,0,0,0,8.119-2.344c.506-.211,1.2-.391,1.191-1.056C3242.075,439.99,3241.408,439.766,3240.9,439.545Zm-8.367,3.33c-1.823.145-3.656.166-5.684.248.193-1.059.349-1.914.515-2.821,1.518-.038,2.962-.07,4.4-.114a3.277,3.277,0,0,0,.938-.112.59.59,0,0,0,.319-.464c-.006-.127-.191-.311-.345-.37l-5.189.024s.08-.476.08-.51h4.8a10.088,10.088,0,0,1,1.846.628,5.837,5.837,0,0,1,1.662,1.191.242.242,0,0,1,0,.334A5.376,5.376,0,0,1,3232.532,442.875Z" fill="#fff"/>
      </g>
    </g>
  </g>
</svg>
