<svg xmlns="http://www.w3.org/2000/svg" xmlns:xlink="http://www.w3.org/1999/xlink" width="280.63" height="139.64" viewBox="0 0 280.63 139.64">
  <defs>
    <clipPath id="clip-Монтажная_область_6">
      <rect width="280.63" height="139.64"/>
    </clipPath>
  </defs>
  <g id="Монтажная_область_6" data-name="Монтажная область – 6" clip-path="url(#clip-Монтажная_область_6)">
    <g id="Сгруппировать_158" data-name="Сгруппировать 158" transform="translate(-282 -381)">
      <ellipse id="Эллипс_1" data-name="Эллипс 1" cx="80.179" cy="24.251" rx="80.179" ry="24.251" transform="translate(310.75 463.336)" fill="#fff"/>
      <g id="Сгруппировать_129" data-name="Сгруппировать 129">
        <path id="Контур_483" data-name="Контур 483" d="M458.508,481.054a4.087,4.087,0,0,0-5.9.22,3.658,3.658,0,0,0-3.027-1.373h0a3.8,3.8,0,0,0-2.234.781,4.073,4.073,0,0,0-.637.614,3.881,3.881,0,0,0-3.114-1.395h0a4.029,4.029,0,0,0-2.795,1.173,3.912,3.912,0,0,0-.247.3,7.518,7.518,0,0,0-.7-.517,7.422,7.422,0,0,0-3.995-1.157,7.638,7.638,0,0,0-3.088.624,7.212,7.212,0,0,0-1.55.934v-1.846a4,4,0,0,0-1.1-2.793,3.938,3.938,0,0,0-5.522-.176,3.936,3.936,0,0,0-5.522.177,4,4,0,0,0-1.086,2.792v.759a4.015,4.015,0,0,0-1.346-.238,3.885,3.885,0,0,0-1.516.3,6.4,6.4,0,0,0-2.776-.531h-.014a6.627,6.627,0,0,0-3.425,1.149,7.45,7.45,0,0,0-1.526,1.387,5.368,5.368,0,0,0-2.159-1.884,7.169,7.169,0,0,0-2.807-.656,6.636,6.636,0,0,0-2.2.345,6.971,6.971,0,0,0-.838.359,6.468,6.468,0,0,0-5.467-.188l-.007,0a4.177,4.177,0,0,0-1.658-.324,3.88,3.88,0,0,0-2.839,1.228,4.062,4.062,0,0,0-.266.337,5.43,5.43,0,0,0-1.633-1.152,7.023,7.023,0,0,0-3.135-.6v-.292a4.049,4.049,0,0,0-1.055-2.772,3.946,3.946,0,0,0-5.759-.026,4.018,4.018,0,0,0-1.1,2.8v.976a6.5,6.5,0,0,0-.971-.365,6.983,6.983,0,0,0-5.384.46c-.083.045-.155.1-.235.147a3.91,3.91,0,0,0-2.434-.93,4.954,4.954,0,0,0-2.2.514,4.271,4.271,0,0,0-1.542-.281,3.951,3.951,0,0,0-2.674,1.028,3.914,3.914,0,0,0-2.668-1.028,3.873,3.873,0,0,0-1.515.3,6.4,6.4,0,0,0-2.777-.531h-.014a6.627,6.627,0,0,0-3.425,1.149,7.488,7.488,0,0,0-1.6,1.479l-.346-2a4.719,4.719,0,0,0-1.474-2.766,4.455,4.455,0,0,0-3.069-1.173,4.191,4.191,0,0,0-3.279,1.46,7.115,7.115,0,0,0-.966,1.547,8.645,8.645,0,0,0-.679-1.24,4.087,4.087,0,0,0-3.514-1.767,4.175,4.175,0,0,0-3.4,1.445,4.346,4.346,0,0,0-.855,1.458,10.681,10.681,0,0,0-.364,1.474l-1.572,9.051c-.026.175-.054.36-.08.569l-.094.8a2.419,2.419,0,0,0-.012.538,4.018,4.018,0,0,0,1.226,2.582,3.908,3.908,0,0,0,2.755,1.08,3.957,3.957,0,0,0,3.249-1.661,3.853,3.853,0,0,0,.7.769,4.264,4.264,0,0,0,2.835.889h.008a3.958,3.958,0,0,0,2.685-1.078,4.2,4.2,0,0,0,.46-.534,4.312,4.312,0,0,0,.3.373,3.889,3.889,0,0,0,2.909,1.242,3.941,3.941,0,0,0,3.293-1.636,7.277,7.277,0,0,0,.7.584,6.5,6.5,0,0,0,3.919,1.247,6.014,6.014,0,0,0,2.5-.509,4.244,4.244,0,0,0,1.65.314c.073,0,.145,0,.234-.011a3.856,3.856,0,0,0,2.289-1.036,4.092,4.092,0,0,0,2.088,1.015,2.53,2.53,0,0,0,.4.032,4.231,4.231,0,0,0,2.8-.992,3.638,3.638,0,0,0,.982-1.344,4.768,4.768,0,0,0,1.449,1.418,8.412,8.412,0,0,0,4.421,1.113,7.064,7.064,0,0,0,2.968-.634,6.094,6.094,0,0,0,1.361-.856c.03.033.051.071.082.1a3.988,3.988,0,0,0,5.706-.019,4.111,4.111,0,0,0,.344-.419,4.141,4.141,0,0,0,.327.4,3.836,3.836,0,0,0,2.85,1.23,3.882,3.882,0,0,0,2.733-1.078,3.967,3.967,0,0,0,5.572-.133c.064-.069.126-.139.185-.212.066.08.136.157.208.232a3.988,3.988,0,0,0,5.706-.021c.061-.065.12-.131.176-.2.064.077.131.151.2.224a3.989,3.989,0,0,0,5.7-.025,4.017,4.017,0,0,0,.5-.668,7.429,7.429,0,0,0,.933.828,6.5,6.5,0,0,0,3.92,1.247,6.009,6.009,0,0,0,2.5-.509,4.245,4.245,0,0,0,1.651.314c.074,0,.145,0,.234-.011a3.809,3.809,0,0,0,2.265-1.008,3.933,3.933,0,0,0,5.3-.015,3.9,3.9,0,0,0,2.666,1.034,3.854,3.854,0,0,0,2.849-1.2,3.948,3.948,0,0,0,.514-.677,7.2,7.2,0,0,0,1.253,1,7.481,7.481,0,0,0,3.975,1.078,7.4,7.4,0,0,0,3.1-.656,7.168,7.168,0,0,0,2.444-1.821,7.819,7.819,0,0,0,.886-1.251l.14.4a4.975,4.975,0,0,0,1.419,2.181,4.145,4.145,0,0,0,2.786.955,4.019,4.019,0,0,0,2.81-1.026c.071-.066.14-.135.206-.206.065.07.131.137.2.2a4.013,4.013,0,0,0,2.821,1.03,4.18,4.18,0,0,0,2.777-.94,5.266,5.266,0,0,0,1.471-2.21l2.074-5.91.247-.678a7.737,7.737,0,0,0,.231-.743,4.354,4.354,0,0,0,.141-1.087A3.884,3.884,0,0,0,458.508,481.054Zm-103.774,5.253v1.211h0Zm58.295,1.211a.029.029,0,0,1-.013,0v-1.211Zm-45.38.853v-.055c.007.011.012.023.019.033Z" fill="#3d0a7a"/>
        <g id="Сгруппировать_128" data-name="Сгруппировать 128">
          <path id="Контур_484" data-name="Контур 484" d="M333.474,481.189a8.3,8.3,0,0,1,.267-1.093,1.885,1.885,0,0,1,.394-.661,1.854,1.854,0,0,1,1.561-.6,1.676,1.676,0,0,1,1.5.694,9.146,9.146,0,0,1,.939,2.054l1.756,5.43h.038l1.889-5.939a5.937,5.937,0,0,1,.909-1.649,1.74,1.74,0,0,1,1.412-.59,2.026,2.026,0,0,1,1.421.53,2.337,2.337,0,0,1,.72,1.377l1.675,9.542c.01.079.032.257.067.534a5.693,5.693,0,0,1,.052.616,1.431,1.431,0,0,1-.462,1.087,1.618,1.618,0,0,1-1.155.435,1.444,1.444,0,0,1-1.116-.454,2.049,2.049,0,0,1-.5-1.182l-1.032-6.623h-.038l-2.146,6.894a2.218,2.218,0,0,1-.545.979,1.614,1.614,0,0,1-1.091.386,1.808,1.808,0,0,1-1.176-.328,2.061,2.061,0,0,1-.6-1.037l-2.179-6.894h-.043l-.894,6.153q-.311,2.1-1.794,2.106a1.493,1.493,0,0,1-1.073-.407,1.583,1.583,0,0,1-.482-1.039q0-.029.033-.285c.019-.171.04-.348.064-.533s.049-.357.074-.523Z" fill="#fff"/>
          <path id="Контур_485" data-name="Контур 485" d="M350.367,484.655a5.072,5.072,0,0,1,1.618-1.778,4.2,4.2,0,0,1,2.183-.737,3.846,3.846,0,0,1,1.654.312,3.383,3.383,0,0,1,1.134.877,1.46,1.46,0,0,1,.566-.711,1.56,1.56,0,0,1,1.911.181,1.549,1.549,0,0,1,.444,1.172v7.421a1.646,1.646,0,0,1-.362,1.032,1.38,1.38,0,0,1-1,.528,1.6,1.6,0,0,1-1.042-.324,1.616,1.616,0,0,1-.513-.632,3.119,3.119,0,0,1-2.593,1.151,4.087,4.087,0,0,1-2.481-.778,5.093,5.093,0,0,1-1.641-2.042,7.048,7.048,0,0,1-.635-2.676A6.82,6.82,0,0,1,350.367,484.655Zm4.367.428a1.769,1.769,0,0,0-1.5.742,3.183,3.183,0,0,0-.588,1.826,2.893,2.893,0,0,0,.569,1.806,1.813,1.813,0,0,0,1.52.747,1.939,1.939,0,0,0,1.144-.336,2.036,2.036,0,0,0,.719-.917,3.383,3.383,0,0,0,.24-1.3,2.965,2.965,0,0,0-.552-1.836A1.83,1.83,0,0,0,354.734,485.083Z" fill="#fff"/>
          <path id="Контур_486" data-name="Контур 486" d="M362.174,483.971a1.492,1.492,0,0,1,1.522-1.6,1.79,1.79,0,0,1,.928.245,1.361,1.361,0,0,1,.59.711,2.783,2.783,0,0,1,2.221-1.189,1.375,1.375,0,0,1,1.038.516,1.706,1.706,0,0,1,.4,1.12,1.109,1.109,0,0,1-.457.984,5.078,5.078,0,0,1-1.339.587,4.781,4.781,0,0,0-1.2.5,1.777,1.777,0,0,0-.666,1.592v3.837a1.578,1.578,0,0,1-.479,1.27,1.8,1.8,0,0,1-1.215.409,1.631,1.631,0,0,1-.97-.516,1.608,1.608,0,0,1-.376-1.12Z" fill="#fff"/>
          <path id="Контур_487" data-name="Контур 487" d="M369.133,491.04a1.6,1.6,0,0,1,.347-1.062,1.081,1.081,0,0,1,.861-.416,2.045,2.045,0,0,1,.688.116,7.634,7.634,0,0,1,.78.342,7.259,7.259,0,0,0,.778.341,2.1,2.1,0,0,0,.694.114q.881-.053.88-.6a.574.574,0,0,0-.218-.483,5.185,5.185,0,0,0-1.035-.487q-.816-.318-1.125-.452a8.025,8.025,0,0,1-1.366-.694,2.277,2.277,0,0,1-.768-.844,2.815,2.815,0,0,1-.263-1.305,3.207,3.207,0,0,1,.484-1.685,3.559,3.559,0,0,1,1.392-1.291,4.271,4.271,0,0,1,2.062-.49,5.561,5.561,0,0,1,1.5.231,3.7,3.7,0,0,1,1.4.72,1.526,1.526,0,0,1,.583,1.212,1.292,1.292,0,0,1-.353.939,1.189,1.189,0,0,1-.894.364,1.6,1.6,0,0,1-.552-.142c-.235-.1-.451-.187-.649-.276a6.006,6.006,0,0,0-.619-.236,2.031,2.031,0,0,0-.616-.1.954.954,0,0,0-.573.164.556.556,0,0,0-.226.478q0,.352.718.68.785.309,1.758.706a4.706,4.706,0,0,1,1.625,1.07,2.49,2.49,0,0,1,.652,1.809,3.081,3.081,0,0,1-.535,1.8,3.466,3.466,0,0,1-1.43,1.183,4.619,4.619,0,0,1-1.95.412,6.009,6.009,0,0,1-3.16-.761A1.611,1.611,0,0,1,369.133,491.04Z" fill="#fff"/>
          <path id="Контур_488" data-name="Контур 488" d="M378.894,491.392V479.416a1.589,1.589,0,0,1,.438-1.131,1.425,1.425,0,0,1,1.085-.466,1.41,1.41,0,0,1,1.1.463,1.624,1.624,0,0,1,.422,1.134V482.9h.042a5.307,5.307,0,0,1,2.588-.761,4.624,4.624,0,0,1,1.934.39,3.03,3.03,0,0,1,1.354,1.2,3.769,3.769,0,0,1,.495,2v5.667a1.544,1.544,0,0,1-.429,1.113,1.47,1.47,0,0,1-1.113.447,1.382,1.382,0,0,1-1.063-.45,1.568,1.568,0,0,1-.416-1.11v-4.83a1.9,1.9,0,0,0-.46-1.324,1.606,1.606,0,0,0-1.253-.507,1.566,1.566,0,0,0-1.218.509,1.89,1.89,0,0,0-.461,1.322v4.83a1.56,1.56,0,0,1-.422,1.113,1.436,1.436,0,0,1-1.1.447,1.451,1.451,0,0,1-1.087-.45A1.529,1.529,0,0,1,378.894,491.392Z" fill="#fff"/>
          <path id="Контур_489" data-name="Контур 489" d="M390.72,491.392v-7.459a1.58,1.58,0,0,1,.448-1.127,1.429,1.429,0,0,1,1.075-.471,1.538,1.538,0,0,1,1.518.994,2.46,2.46,0,0,1,1.111-.872,3.782,3.782,0,0,1,1.519-.317,3.314,3.314,0,0,1,2.826,1.27q.309-.219.771-.54a4.346,4.346,0,0,1,1.039-.525,4.155,4.155,0,0,1,1.387-.2,4.593,4.593,0,0,1,1.762.421,2.982,2.982,0,0,1,1.276,1.165,3.754,3.754,0,0,1,.487,2v5.667a1.559,1.559,0,0,1-.421,1.113,1.436,1.436,0,0,1-1.1.447,1.453,1.453,0,0,1-1.088-.45,1.532,1.532,0,0,1-.435-1.11v-4.83a2.081,2.081,0,0,0-.4-1.3,1.43,1.43,0,0,0-2.229,0,2.081,2.081,0,0,0-.407,1.3v4.83a1.559,1.559,0,0,1-.421,1.113,1.552,1.552,0,0,1-2.183,0,1.532,1.532,0,0,1-.435-1.11v-4.83a2.067,2.067,0,0,0-.41-1.3,1.323,1.323,0,0,0-1.108-.533,1.348,1.348,0,0,0-1.125.535,2.045,2.045,0,0,0-.416,1.3v4.83a1.56,1.56,0,0,1-.422,1.113,1.436,1.436,0,0,1-1.1.447,1.451,1.451,0,0,1-1.087-.45A1.529,1.529,0,0,1,390.72,491.392Z" fill="#fff"/>
          <path id="Контур_490" data-name="Контур 490" d="M408.65,484.655a5.069,5.069,0,0,1,1.617-1.778,4.208,4.208,0,0,1,2.183-.737,3.84,3.84,0,0,1,1.654.312,3.386,3.386,0,0,1,1.135.877,1.463,1.463,0,0,1,.565-.711,1.561,1.561,0,0,1,1.911.181,1.545,1.545,0,0,1,.444,1.172v7.421a1.645,1.645,0,0,1-.361,1.032,1.379,1.379,0,0,1-1,.528,1.593,1.593,0,0,1-1.042-.324,1.615,1.615,0,0,1-.513-.632,3.122,3.122,0,0,1-2.593,1.151,4.088,4.088,0,0,1-2.482-.778,5.109,5.109,0,0,1-1.641-2.042,7.065,7.065,0,0,1-.634-2.676A6.806,6.806,0,0,1,408.65,484.655Zm4.367.428a1.768,1.768,0,0,0-1.5.742,3.175,3.175,0,0,0-.588,1.826,2.893,2.893,0,0,0,.569,1.806,1.813,1.813,0,0,0,1.52.747,1.939,1.939,0,0,0,1.144-.336,2.036,2.036,0,0,0,.719-.917,3.383,3.383,0,0,0,.24-1.3,2.971,2.971,0,0,0-.552-1.836A1.831,1.831,0,0,0,413.017,485.083Z" fill="#fff"/>
          <path id="Контур_491" data-name="Контур 491" d="M420.418,491.392V479.416a1.578,1.578,0,0,1,.426-1.124,1.53,1.53,0,0,1,2.181,0,1.57,1.57,0,0,1,.433,1.12v11.976a1.54,1.54,0,0,1-.43,1.11,1.556,1.556,0,0,1-2.186,0A1.553,1.553,0,0,1,420.418,491.392Z" fill="#fff"/>
          <path id="Контур_492" data-name="Контур 492" d="M425.736,491.392V479.416a1.578,1.578,0,0,1,.426-1.124,1.53,1.53,0,0,1,2.181,0,1.57,1.57,0,0,1,.433,1.12v11.976a1.545,1.545,0,0,1-.43,1.11,1.557,1.557,0,0,1-2.187,0A1.556,1.556,0,0,1,425.736,491.392Z" fill="#fff"/>
          <path id="Контур_493" data-name="Контур 493" d="M435.849,493.147a5.054,5.054,0,0,1-2.7-.718,4.762,4.762,0,0,1-1.8-1.976,6.177,6.177,0,0,1-.628-2.8,6.431,6.431,0,0,1,.357-2.157,5.226,5.226,0,0,1,1.03-1.763,4.65,4.65,0,0,1,1.627-1.172,5.191,5.191,0,0,1,2.109-.419,4.962,4.962,0,0,1,2.677.768,5.034,5.034,0,0,1,1.8,2,6.006,6.006,0,0,1,.632,2.739,6.356,6.356,0,0,1-.371,2.1,5.49,5.49,0,0,1-1.027,1.759,4.738,4.738,0,0,1-1.62,1.2A4.952,4.952,0,0,1,435.849,493.147Zm0-2.943a1.866,1.866,0,0,0,1.121-.338,2.065,2.065,0,0,0,.706-.92,3.387,3.387,0,0,0,.239-1.3,2.979,2.979,0,0,0-.533-1.819,1.865,1.865,0,0,0-1.533-.749,1.8,1.8,0,0,0-1.543.739,3.019,3.019,0,0,0-.54,1.829,3.059,3.059,0,0,0,.53,1.816,1.78,1.78,0,0,0,1.473.775.182.182,0,0,1,.049-.031A.118.118,0,0,1,435.849,490.2Z" fill="#fff"/>
          <path id="Контур_494" data-name="Контур 494" d="M444.712,491.43l-2.084-5.938a6.051,6.051,0,0,1-.509-1.673,1.424,1.424,0,0,1,.409-1.039,1.636,1.636,0,0,1,1.151-.445,1.4,1.4,0,0,1,1.442,1.113l1.5,4.906h.038l1.366-4.264a5.881,5.881,0,0,1,.313-.871,1.656,1.656,0,0,1,.493-.615,1.4,1.4,0,0,1,.83-.269,1.171,1.171,0,0,1,1.026.447,5.34,5.34,0,0,1,.611,1.308l1.36,4.264h.043l1.479-4.906a1.383,1.383,0,0,1,1.461-1.113,1.488,1.488,0,0,1,1.118.416,1.468,1.468,0,0,1,.4,1.068,1.938,1.938,0,0,1-.065.48q-.064.252-.159.513l-.248.68-2.083,5.938a2.823,2.823,0,0,1-.745,1.155,1.812,1.812,0,0,1-1.206.367,1.613,1.613,0,0,1-1.149-.367,2.706,2.706,0,0,1-.639-1.193l-1.209-3.623h-.042l-1.185,3.623a2.8,2.8,0,0,1-.664,1.189,1.623,1.623,0,0,1-1.149.371,1.788,1.788,0,0,1-1.2-.369A2.664,2.664,0,0,1,444.712,491.43Z" fill="#fff"/>
        </g>
      </g>
      <path id="Контур_495" data-name="Контур 495" d="M505.514,392.06c-7.363,2.015-21.341,9.406-18.92,36.4,3.263,36.364,55.172,35.175,52.063-3.807-1.78-22.317-12.65-38.2-33.143-32.592Zm5.049,23.054c-1.878.514-5.443,2.4-4.825,9.284.832,9.275,14.071,8.972,13.278-.971-.454-5.692-3.226-9.743-8.453-8.313Z" fill="#fff" fill-rule="evenodd"/>
      <path id="Контур_496" data-name="Контур 496" d="M506.274,395.531c-6.537,1.789-18.947,8.351-16.8,32.317,2.9,32.285,48.983,31.229,46.222-3.38-1.58-19.814-11.231-33.916-29.425-28.937ZM510.757,416c-1.668.457-4.833,2.13-4.284,8.243.738,8.235,12.493,7.965,11.789-.862-.4-5.054-2.864-8.65-7.505-7.381Z" fill="#3d0a7a" fill-rule="evenodd"/>
      <path id="Контур_497" data-name="Контур 497" d="M507.237,400.094c-5.464,1.495-15.837,6.979-14.041,27.005,2.419,26.976,40.938,26.091,38.633-2.828-1.319-16.556-9.384-28.339-24.592-24.177Zm3.746,17.1c-1.394.381-4.04,1.78-3.582,6.887.617,6.881,10.442,6.655,9.854-.721-.336-4.223-2.393-7.228-6.272-6.166Z" fill="#fff" fill-rule="evenodd"/>
      <g id="Сгруппировать_130" data-name="Сгруппировать 130">
        <path id="Контур_498" data-name="Контур 498" d="M460.942,455.709c9.852,6.4,47.108,3.2,43.9-16.544-2.373-14.591-12.91-15.187-22.291-11.811,1.839-5.622.73-27.615-13.238-31.052-26.188-6.442-18.021,53.132-8.368,59.407Z" fill="#fff" fill-rule="evenodd"/>
        <path id="Контур_499" data-name="Контур 499" d="M476.527,455.589a45.557,45.557,0,0,1-7.7-.3c-5.24-.677-8.728-4.779-10.122-8.087-2.331-5.523-7.357-32.842-.87-43.079a9.159,9.159,0,0,1,7.422-4.531,9.567,9.567,0,0,1,1.083.016,11.565,11.565,0,0,1,8.482,4.773c5.482,7.16,5.46,20.4,4.158,27.065-.011.052-.02.1-.03.154l.131-.051c3.175-1.227,6.762-2.613,10.281-2.76,3.681-.154,10.123,1.037,11.917,10.745a9.588,9.588,0,0,1-2.058,7.8C494.773,452.907,484.582,455.253,476.527,455.589Z" fill="#3d0a7a" fill-rule="evenodd"/>
        <path id="Контур_500" data-name="Контур 500" d="M476.4,452.625a42.523,42.523,0,0,1-7.2-.276c-3.993-.516-6.681-3.715-7.77-6.3-2.5-5.917-6.582-31.682-1.1-40.338a6.194,6.194,0,0,1,5.04-3.155,6.461,6.461,0,0,1,.747.011,8.567,8.567,0,0,1,6.338,3.617c4.631,6.048,4.894,18.081,3.6,24.693-.238,1.218-.8,4.068-.271,4.679.069.079.3.078.393.074a3.894,3.894,0,0,0,1.047-.23c.908-.309,1.885-.686,2.918-1.086,2.953-1.141,6.3-2.435,9.331-2.562,4.832-.2,7.818,2.6,8.876,8.321a6.58,6.58,0,0,1-1.46,5.407C493.071,450.282,483.466,452.33,476.4,452.625Z" fill="#fff" fill-rule="evenodd"/>
        <path id="Контур_501" data-name="Контур 501" d="M462.574,445.571c.943,2.237,3.327,5.1,6.789,5.552,11.874,1.536,29.27-2.758,27.78-10.824-2.24-12.129-12.657-6.055-19.512-3.727-4.062,1.38-3.492-2.284-2.779-5.93,1.652-8.45.545-26.174-8.814-26.84-11.589-.825-6.437,34.724-3.464,41.769Z" fill="#f167a7" fill-rule="evenodd"/>
      </g>
      <path id="Контур_502" data-name="Контур 502" d="M394.754,394.88c-23.277-2.43-22.224,8.085-24.94,28.191-2.062,15.267-6.679,30.975,14.762,35.006,13.818,2.6,29.54,2.573,30.951-12.654.7-7.577-3.774-9.314-7.631-10.058,5.957.014,8.166-11.192,1.313-13.422,1.925-.813,7.848,1.516,8.141-10.924.283-12.01-11.51-14.982-22.6-16.139Z" fill="#fff" fill-rule="evenodd"/>
      <path id="Контур_503" data-name="Контур 503" d="M395.2,398.183c-20.733-2.164-19.745,7.385-22.164,25.292-1.837,13.6-6.607,27.6,12.492,31.187,17.494,3.289,25.931-1.419,26.6-8.017,1.122-11.1-6.42-10.112-16.117-10.851-.946.008-.931-.717,0-.686,8.978.234,13.117-1.345,13.581-6.818.417-4.919-4.037-6.792-9.45-7.651-.968-.153-.993-.757-.019-.655,10.473,1.1,14.354-.727,13.9-9.637-.315-6.169-7.073-10.938-18.817-12.164Z" fill="#3d0a7a" fill-rule="evenodd"/>
      <path id="Контур_504" data-name="Контур 504" d="M394.582,401.928c-17.389-1.812-15.63,6.367-17.716,21.909-1.584,11.8-6.589,24.061,9.424,27.116,14.667,2.8,20.9-.663,21.532-6.384.639-5.81-6.629-6.862-14.4-7.477-2.267-.18-1.914-4.229.663-4.193,6.874.1,10.682-.6,11.069-5.126.408-4.77-4.758-5.494-10.289-5.969-2.466-.215-1.663-4,.545-3.958,8.237.151,14.209.961,14.491-5.425.244-5.517-5.471-9.466-15.32-10.493Z" fill="#fff" fill-rule="evenodd"/>
      <path id="Контур_505" data-name="Контур 505" d="M396.647,402.728c-17.388-1.812-15.629,6.367-17.715,21.909-1.584,11.8-6.589,24.061,9.424,27.115,14.667,2.8,20.9-.663,21.531-6.383.64-5.81-6.629-6.862-14.4-7.477-2.267-.18-1.913-4.229.664-4.193,6.873.1,10.682-.6,11.068-5.127.408-4.769-4.758-5.493-10.288-5.968-2.466-.215-1.663-4,.545-3.959,8.237.152,14.209.962,14.491-5.424.243-5.517-5.471-9.467-15.321-10.493Z" fill="#fff" fill-rule="evenodd"/>
      <path id="Контур_506" data-name="Контур 506" d="M315.131,452.165c12.711,1.977,16.123-3.836,17.713-8.769,2.512-7.792.263-4.1,5.392-3.622,3.717.349,4.425-2.959,4.223,2.954-.168,4.912,2.5,14.432,15.316,13.359,14.234-1.193,12.791-19.887,13.467-32.3.648-11.912,3.409-30.322-14.871-31.611-7.809-.551-11.24,2.315-13.3,7.5-.394.99-1.349,1.8-2.288-.293-1.114-2.481-3.725-10.094-16-9.9-9.574.152-13.094,7.577-14.737,16.063-1.148,5.925-2.859,22.206-3.124,24.8-1.029,10.116-.441,20.475,8.213,21.82Z" fill="#fff" fill-rule="evenodd"/>
      <path id="Контур_507" data-name="Контур 507" d="M317.665,449.124c18.375,2.858,12.79-22.54,16.862-15.254,1.278,2.286,6.056,3.473,8.2,1.053,6-6.775-4.416,19.2,13.856,17.672,12.7-1.065,11.3-19.24,11.742-30.076.421-10.176,2.931-25.664-11.692-27.046-10.477-.991-11.126,4.5-13.909,10.538-.4.869-1.338,1.421-2.16-.464-1.1-2.512-2.61-11.99-14.246-12.654-9.241-.527-11.972,6.461-13.1,13.7-.548,3.5-2.211,16.965-2.722,21.2-1.157,9.594-1.094,20.045,7.172,21.331Z" fill="#3d0a7a" fill-rule="evenodd"/>
      <path id="Контур_508" data-name="Контур 508" d="M320.734,445.747c10.474.934,9.764-20.473,10.053-21.946s1.763-.462,1.763-.462,1.906,8.4,7.044,8.628,6.7-6.771,7.456-7.334,1.988-.757,2.1.672-4.65,22.561,5.536,23.47c6.154.549,7.985-5.7,8.673-12.861.451-4.689,1.431-18.7,1.515-22.04.172-6.9-1.282-14.668-10.139-14.987-7.273-.262-8.358,7.936-11.63,13.1-.446.706-3.023,1.069-3.74-.577-.956-2.194-3.11-14.064-11.073-14.774-7.258-.648-9.773,4.347-10.844,10.046-.69,3.669-2.417,18-2.912,22.4-.9,7.985-.556,16.064,6.2,16.667Z" fill="#fff" fill-rule="evenodd"/>
      <g id="Сгруппировать_131" data-name="Сгруппировать 131">
        <path id="Контур_509" data-name="Контур 509" d="M421.531,457.218c9.575,6.81,46.933,5.17,44.549-14.7-1.761-14.678-12.264-15.713-21.778-12.732,2.072-5.54,1.883-27.561-11.929-31.577-25.9-7.532-20.225,52.332-10.842,59Z" fill="#fff" fill-rule="evenodd"/>
        <path id="Контур_510" data-name="Контур 510" d="M437.108,457.749a45.571,45.571,0,0,1-7.685-.62c-5.206-.895-8.52-5.139-9.775-8.5-2.1-5.615-5.979-33.121.931-43.077a9.156,9.156,0,0,1,7.6-4.217,9.563,9.563,0,0,1,1.081.061,11.565,11.565,0,0,1,8.275,5.123c5.179,7.383,4.6,20.611,3.024,27.215-.012.052-.024.1-.036.152l.133-.045c3.224-1.093,6.865-2.328,10.388-2.328,3.684,0,10.07,1.459,11.457,11.233a9.589,9.589,0,0,1-2.382,7.7C455.449,455.831,445.169,457.749,437.108,457.749Z" fill="#3d0a7a" fill-rule="evenodd"/>
        <path id="Контур_511" data-name="Контур 511" d="M437.107,454.783a42.644,42.644,0,0,1-7.18-.577c-3.968-.683-6.52-3.991-7.5-6.617-2.247-6.016-5.252-31.93.59-40.349a6.2,6.2,0,0,1,5.166-2.942,6.609,6.609,0,0,1,.747.043,8.564,8.564,0,0,1,6.181,3.878c4.374,6.237,4.135,18.27,2.568,24.822-.289,1.207-.965,4.031-.467,4.663.066.082.3.091.39.091a3.907,3.907,0,0,0,1.056-.186c.92-.27,1.911-.607,2.961-.963,3-1.017,6.394-2.17,9.43-2.17,4.836,0,7.7,2.922,8.52,8.684a6.577,6.577,0,0,1-1.685,5.342C453.859,453.138,444.177,454.783,437.107,454.783Z" fill="#fff" fill-rule="evenodd"/>
        <path id="Контур_512" data-name="Контур 512" d="M423.584,447.157c.85,2.275,3.112,5.238,6.552,5.83,11.8,2.031,29.359-1.532,28.208-9.654-1.732-12.212-12.394-6.578-19.339-4.538-4.117,1.209-3.394-2.428-2.53-6.041,2-8.374,1.639-26.129-7.685-27.185-11.544-1.308-7.881,34.425-5.206,41.588Z" fill="#f167a7" fill-rule="evenodd"/>
      </g>
    </g>
  </g>
</svg>
