<svg xmlns="http://www.w3.org/2000/svg" xmlns:xlink="http://www.w3.org/1999/xlink" width="280.63" height="139.64" viewBox="0 0 280.63 139.64">
  <defs>
    <clipPath id="clip-Монтажная_область_3">
      <rect width="280.63" height="139.64"/>
    </clipPath>
  </defs>
  <g id="Монтажная_область_3" data-name="Монтажная область – 3" clip-path="url(#clip-Монтажная_область_3)">
    <g id="Сгруппировать_161" data-name="Сгруппировать 161" transform="translate(-1187 -79)">
      <g id="Сгруппировать_70" data-name="Сгруппировать 70">
        <g id="Сгруппировать_69" data-name="Сгруппировать 69">
          <path id="Контур_259" data-name="Контур 259" d="M1338.449,155.5a1.392,1.392,0,0,0-.473.009,2.534,2.534,0,0,0-1.236.824,7.443,7.443,0,0,0-.76.9l-.325.429c-.591.81-1.265,1.85-1.912,2.572-.675.75-2.771,3.383-3.169,3.1-.069-.049-.025-.173-.01-.206,0,0,.63-1.891.951-2.727.383-1,.959-3.342.983-3.441a2.056,2.056,0,0,0-.258-1.611,2.147,2.147,0,0,0-1.439-.938c-.5-.1-1.358.407-2.222,1.505-1.237,1.572-2.569,3.207-3.522,4.267-.46.512-.906,1.073-1.387,1.6-.545.6-1.172,1.234-1.863,1.888-.276.262-1.682,1.653.086-2.235.416-.914.883-1.815,1.38-2.738a19.531,19.531,0,0,1,2.334-3.607,16.411,16.411,0,0,1,1.906-1.749,3.158,3.158,0,0,1,1.671-.691,1.486,1.486,0,0,1,1.193.336,6.966,6.966,0,0,1,1.428,1.552,2.162,2.162,0,0,0,3.045.738,2.14,2.14,0,0,0,1.027-1.467,2.028,2.028,0,0,0-.306-1.489,4.368,4.368,0,0,0-.707-1.042c-.226-.246-.443-.467-.588-.613a7.739,7.739,0,0,0-2.055-1.583,7.444,7.444,0,0,0-2.583-.8,7.725,7.725,0,0,0-3.452.466,11.825,11.825,0,0,0-2.878,1.583,17.735,17.735,0,0,0-2.374,2.136,25.326,25.326,0,0,0-1.885,2.295,18.73,18.73,0,0,0-2.591,5.716,17.548,17.548,0,0,0-.509,3.188,4.985,4.985,0,0,0,1.432,4.069,3.883,3.883,0,0,0,2.092,1.134,4.03,4.03,0,0,0,2.077-.191,7.284,7.284,0,0,0,1.471-.725,9.53,9.53,0,0,0,1.207-.892c.329-.273.648-.561.96-.856a4.863,4.863,0,0,0,1.046,2.273,3.149,3.149,0,0,0,3.863.581,9.248,9.248,0,0,0,2.941-2.036c.725-.736,1.418-1.463,2.02-2.117.175-.176.424-.443.681-.724a16.564,16.564,0,0,0,2.649-3.756C1339.639,157.941,1339.931,155.735,1338.449,155.5Z" fill="#e1001e"/>
          <path id="Контур_260" data-name="Контур 260" d="M1423.759,119.471c-.015-.073-.039-.155-.063-.236a.631.631,0,0,0-.04-.131v-.016a.825.825,0,0,0-.04-.131,6.2,6.2,0,0,0-.369-.826,4.471,4.471,0,0,0-1.082-1.327,6.836,6.836,0,0,0-2.646-1.421,9.493,9.493,0,0,0-3.649-.23,16.6,16.6,0,0,0-6.405,2.342,55.468,55.468,0,0,0-5.151,3.573,45.041,45.041,0,0,0-4.691,4.228,59.939,59.939,0,0,0-4.116,4.712,61.435,61.435,0,0,0-5.167,8.071c-.463.86-1.174,2.281-1.918,3.816q-2.264.266-4.582.35a1.93,1.93,0,0,0-1.888,1.926,1.957,1.957,0,0,0,2.007,1.954c.831-.027,1.663-.078,2.486-.145-.53,1.153-.968,2.119-1.176,2.648a37.59,37.59,0,0,0-1.943,6.244,25.769,25.769,0,0,0-.554,6.71,10.838,10.838,0,0,0,1.485,5.486,6.8,6.8,0,0,0,4.534,2.917,9.616,9.616,0,0,0,1.181.107c.089.008.187.009.277.01a10.938,10.938,0,0,0,2.111-.2,13.875,13.875,0,0,0,3.4-1.125,20.219,20.219,0,0,0,2.684-1.561,21.157,21.157,0,0,0,2.484-2.109q.517-.486.985-.995a11.308,11.308,0,0,0,3.151-5.364,3.724,3.724,0,0,0-.029-1.63,2.178,2.178,0,0,0-2.041-1.693,2.308,2.308,0,0,0-1.79.8,2.153,2.153,0,0,0-.283,1.978,11.614,11.614,0,0,1-3.054,4.215,13.41,13.41,0,0,1-4.6,2.934,7.112,7.112,0,0,1-3.638.479,2.688,2.688,0,0,1-1.663-1.015,4.284,4.284,0,0,1-.742-2.246,15.18,15.18,0,0,1,.119-2.916,24.774,24.774,0,0,1,1.185-4.986,49.172,49.172,0,0,1,3.138-7.01c.446-.852.892-1.7,1.355-2.565a53.157,53.157,0,0,0,13.453-4.5c9.927-4.9,14.031-11.381,14.6-12.322C1423.355,124.667,1424.329,121.79,1423.759,119.471ZM1417.8,126.2l-.181.284c-1.361,2.263-5.6,7.049-12.861,10.631a48.592,48.592,0,0,1-9.257,3.437c.363-.649.735-1.323,1.123-2.02,1.007-1.77,2.095-3.506,3.231-5.135,1.169-1.638,2.4-3.2,3.667-4.651a40.079,40.079,0,0,1,4.071-4.078,37.669,37.669,0,0,1,4.465-3.39,11.841,11.841,0,0,1,4.717-2.093,4.652,4.652,0,0,1,2.215.162c.016.009.025.009.041.017a2.165,2.165,0,0,1,.487.281,1.483,1.483,0,0,1,.233.482.063.063,0,0,1,.016.033c.008.008.008.008.008.016C1420.048,121.091,1419.905,122.874,1417.8,126.2Z" fill="#e1001e"/>
          <path id="Контур_261" data-name="Контур 261" d="M1288.476,150.575c-4.027-6.786-15.1,4.762-16.05,12.718a5.044,5.044,0,0,0,4.086,5.577c6.07.972,11.933-7.947,12.7-14.48A6.077,6.077,0,0,0,1288.476,150.575Zm-3.287,4.047c-.465,3.256-3.87,9.377-6.958,10.24a1.536,1.536,0,0,1-2.049-1.591c.792-4.091,4.2-9.96,7.83-10.321C1285.287,152.823,1285.4,153.825,1285.189,154.622Z" fill="#e1001e"/>
          <path id="Контур_262" data-name="Контур 262" d="M1319.247,181.945v0c-1.576-1.6-4.472-.311-3.61,2.122-1.665,3.98-5.779,6.713-10.169,7.3-7.743-.5-.665-13.166.887-16.7,1.526-3.479,7.334-13.31,10.133-20.854,2.548-6.869-5.115-7.851-8.591-3.113-1.095-4.214-6.307-2.344-8.514-.141-4.263-4-7.546,5.951-9.116,8.945-.8,2.367-2.562,5.365-2.314,7.84.471,2.172,2.809,2.163,3.835.568,2.764-5.134,5.458-10.705,10.261-14.277a.214.214,0,0,1,.318.258c-1.222,4.02-4.045,8.141-5.562,11.855a2.578,2.578,0,0,0,.64,2.655c2.67,2.813,6.682-6.024,7.811-7.86a36.1,36.1,0,0,1,5.318-6.787.346.346,0,0,1,.568.353c-3.52,11.949-19.505,29.45-10.313,39.69C1304.65,198.048,1322.129,189.644,1319.247,181.945Z" fill="#e1001e"/>
          <path id="Контур_263" data-name="Контур 263" d="M1376.085,136.942a1.97,1.97,0,0,0-2.569-.817c-.768.353-1.544.673-2.337.961a33.568,33.568,0,0,1-5.633,1.475,22.694,22.694,0,0,0-.891-11.006,14.066,14.066,0,0,0-.625-1.447c-2.032-4.13-6.305-7.086-10.623-8.347a19.055,19.055,0,0,0-5.861-.767,13.427,13.427,0,0,0-6.718,1.622,7.5,7.5,0,0,0-.7.5,12.57,12.57,0,0,0-3.269,3.684c-.009.008-.009.008-.009.017a4.778,4.778,0,0,0-.2.512.064.064,0,0,0-.017.065,6.418,6.418,0,0,0-.283.926c-1.5,6.411,5.442,12.653,5.515,12.711,4.8,4.1,11.113,5.808,17.371,5.893-.469,1.749-.995,3.473-1.52,5.164l-.1.309c-.159.479-.971,2.388-1.642,3.883a1.1,1.1,0,0,0-.056-.147,5.143,5.143,0,0,0-2.124-2.59,6.48,6.48,0,0,0-2.9-.885,7.62,7.62,0,0,0-3.525.651,11.372,11.372,0,0,0-2.7,1.7,15.539,15.539,0,0,0-3.749,4.642c-.073-.008-2.348,4.718-1.238,9.085a8.55,8.55,0,0,0,.825,2,6.405,6.405,0,0,0,2.671,2.5,5.341,5.341,0,0,0,2.375.571,6.041,6.041,0,0,0,1.427-.161,10.51,10.51,0,0,0,3.359-1.369,15.217,15.217,0,0,0,2.729-2.181,20.513,20.513,0,0,0,2.178-2.632q.9-1.278,1.738-2.522a54,54,0,0,0,7.27-16.212c.193-.708.369-1.424.537-2.148a37.771,37.771,0,0,0,7.7-1.851c.9-.328,1.79-.688,2.665-1.1a1.967,1.967,0,0,0,1.153-1.768A1.9,1.9,0,0,0,1376.085,136.942Zm-23.834,22.751-.668,1.111a18.9,18.9,0,0,1-1.62,2.042,12.052,12.052,0,0,1-1.845,1.633,8.29,8.29,0,0,1-2.035.914,1.1,1.1,0,0,1-1.091-.1,1.013,1.013,0,0,1-.444-.607,4.9,4.9,0,0,1-.243-1.444,5.987,5.987,0,0,1,.44-2.156c.348-.869.729-1.73,1.143-2.6a18.594,18.594,0,0,1,1.189-2.175,14.284,14.284,0,0,1,1.62-2.107,4.349,4.349,0,0,1,1.6-1.089,1.55,1.55,0,0,1,.514-.086,2.443,2.443,0,0,1,.9.219c.138.058.284.116.379.524.182.816.315,1.55.392,2.162a13.956,13.956,0,0,1,.067,2.062A5.893,5.893,0,0,1,1352.251,159.693Zm-7.859-25.61c-.866-.764-4.825-5.47-4-8.976a4.379,4.379,0,0,1,1.311-2.2,8.944,8.944,0,0,1,1.432-.894c2.682-1.219,7.553-1.046,11.385.913a11.123,11.123,0,0,1,6.139,9.822,28.915,28.915,0,0,1-.542,6.319C1354.436,139.142,1348.669,137.731,1344.392,134.083Z" fill="#e1001e"/>
          <path id="Контур_264" data-name="Контур 264" d="M1279.126,131.437l0,0c-7.371-20.208-46.706-10.561-43.392,10.451.531,1.694,1.472,1.707,1.83,1.649a1.83,1.83,0,0,0,1.268-2.013c-.46-10.681,10.32-15.994,18.914-16.8,25.76-2.109,17.729,26.182-.26,31.521.733-4.365,6.961-27.326,3.048-26-3.421,1.157-4.856,10.974-5.653,14.145-1.9,7.576-4.011,14.682-6.515,22.24-1.9,4.855-6.629,20.46-13.13,15.23-3.211-2.291-4.587.777-3.932,1.739,12.417,13.7,21.693-13.41,24.74-22.617C1269.157,158.789,1282.891,145.569,1279.126,131.437Z" fill="#e1001e"/>
          <path id="Контур_265" data-name="Контур 265" d="M1379.414,158.922c-.707.113-2.8,3.191-5.848,4.98a13.62,13.62,0,0,1-4.958,1.911,2.727,2.727,0,0,1-1.981-.18,2.357,2.357,0,0,1-1.083-.865,1.555,1.555,0,0,1-.179-.638,3.524,3.524,0,0,1,.048-.955,8.748,8.748,0,0,1,.322-1.185c.031-.091.062-.179.093-.265a3.656,3.656,0,0,0,2.657,1.618,5.313,5.313,0,0,0,3.6-.861,11.227,11.227,0,0,0,2.489-2.166,14.873,14.873,0,0,0,1.8-2.624,17.16,17.16,0,0,0,1.046-2.838,5.171,5.171,0,0,0-.444-3.976,4.385,4.385,0,0,0-2.727-2.241,5.939,5.939,0,0,0-3.009-.031,10.427,10.427,0,0,0-2.627,1.038,11.4,11.4,0,0,0-2.028,1.376,18.6,18.6,0,0,0-4.056,4.512,14.127,14.127,0,0,0-2.174,5.819,9.786,9.786,0,0,0,.131,3.579,6.018,6.018,0,0,0,2.214,3.508,6.893,6.893,0,0,0,3.375,1.361,11.217,11.217,0,0,0,1.3.089,9.479,9.479,0,0,0,1.958-.179,14.829,14.829,0,0,0,6.236-2.653,31.337,31.337,0,0,0,4.688-4.153l.078-.089a3.185,3.185,0,0,0,.826-2.538A1.417,1.417,0,0,0,1379.414,158.922Zm-11.715-.438a6.47,6.47,0,0,1,2.21-3.823q.46-.382.963-.761a4.935,4.935,0,0,1,2.23-.979c.342-.035.819-.139,1,.15a.7.7,0,0,1,.072.218,2.309,2.309,0,0,1-.332,1.854,15.653,15.653,0,0,1-1.87,2.649,7.627,7.627,0,0,1-.931.9,10.343,10.343,0,0,1-1.187.865,4.275,4.275,0,0,1-1.028.471c-.217.063-.636.14-.822-.013a1.583,1.583,0,0,1-.309-1.518Z" fill="#e1001e"/>
        </g>
      </g>
      <g id="Сгруппировать_71" data-name="Сгруппировать 71">
        <path id="Контур_266" data-name="Контур 266" d="M1374.164,128.831l10.6-10.891-.035-.081a8.18,8.18,0,0,0-.624-1.183l-.09-.142-11.278,11.586.144.087a8.185,8.185,0,0,0,1.2.591Z" fill="#ff8479"/>
        <path id="Контур_267" data-name="Контур 267" d="M1368.945,119.84l6.691-6.874-.447.107a8.272,8.272,0,0,0-6.149,6.317Z" fill="#ff8479"/>
        <path id="Контур_268" data-name="Контур 268" d="M1371.833,127.461l.095.079,11.486-11.8-.082-.093a8.384,8.384,0,0,0-.911-.886l-.094-.079-11.486,11.8.081.092c.14.158.287.313.439.461S1371.671,127.326,1371.833,127.461Z" fill="#ff8479"/>
        <path id="Контур_269" data-name="Контур 269" d="M1377.13,112.844l-8.267,8.493,0,.056a8.336,8.336,0,0,0,.213,1.605l.055.237,9.9-10.173-.238-.049a8.363,8.363,0,0,0-1.61-.169Z" fill="#ff8479"/>
        <path id="Контур_270" data-name="Контур 270" d="M1370.239,125.687l11.277-11.586-.144-.086a8.187,8.187,0,0,0-1.2-.592l-.082-.033-10.6,10.891.034.082a8.233,8.233,0,0,0,.624,1.182Z" fill="#ff8479"/>
        <path id="Контур_271" data-name="Контур 271" d="M1385.309,122.382l-6.69,6.874.446-.108a8.272,8.272,0,0,0,6.149-6.317Z" fill="#ff8479"/>
        <path id="Контур_272" data-name="Контур 272" d="M1377.124,129.378l8.267-8.493,0-.057a8.344,8.344,0,0,0-.212-1.605l-.055-.237-9.9,10.174.238.048a8.21,8.21,0,0,0,1.611.169Z" fill="#ff8479"/>
      </g>
      <g id="Сгруппировать_77" data-name="Сгруппировать 77">
        <g id="Сгруппировать_72" data-name="Сгруппировать 72">
          <path id="Контур_273" data-name="Контур 273" d="M1298.544,126.6l22.458-.3.049-.12a11.877,11.877,0,0,0,.584-1.867l.054-.239-23.892.322.061.238a11.872,11.872,0,0,0,.634,1.85Z" fill="#f13d3d"/>
          <path id="Контур_274" data-name="Контур 274" d="M1302.489,111.916l14.174-.191-.579-.35a12.343,12.343,0,0,0-13.026.175Z" fill="#f13d3d"/>
          <path id="Контур_275" data-name="Контур 275" d="M1297.541,122.774l.016.179,24.333-.328.012-.18a12.233,12.233,0,0,0-.025-1.857l-.017-.179-24.333.328-.011.179c-.02.308-.027.62-.023.93S1297.513,122.467,1297.541,122.774Z" fill="#f13d3d"/>
          <path id="Контур_276" data-name="Контур 276" d="M1318.352,113.142l-17.514.237-.057.06a12.146,12.146,0,0,0-1.455,1.878l-.19.3,20.978-.283-.2-.3a12.185,12.185,0,0,0-1.505-1.838Z" fill="#f13d3d"/>
          <path id="Контур_277" data-name="Контур 277" d="M1297.728,119.294l23.892-.322-.06-.238a11.988,11.988,0,0,0-.634-1.85l-.052-.119-22.459.3-.048.12a12,12,0,0,0-.585,1.867Z" fill="#f13d3d"/>
          <path id="Контур_278" data-name="Контур 278" d="M1316.929,131.445l-14.174.191.578.351a12.347,12.347,0,0,0,13.027-.176Z" fill="#f13d3d"/>
          <path id="Контур_279" data-name="Контур 279" d="M1301.066,130.219l17.513-.236.057-.06a12.209,12.209,0,0,0,1.456-1.878l.189-.3-20.978.283.2.3a12.158,12.158,0,0,0,1.506,1.838Z" fill="#f13d3d"/>
        </g>
        <g id="Сгруппировать_73" data-name="Сгруппировать 73">
          <path id="Контур_280" data-name="Контур 280" d="M1271.331,178.771l15.837,13.247.107-.056a11.186,11.186,0,0,0,1.538-.966l.183-.136-16.849-14.093-.1.2a11.266,11.266,0,0,0-.679,1.685Z" fill="#ff8479"/>
          <path id="Контур_281" data-name="Контур 281" d="M1282.977,170.782l10,8.361-.191-.6a11.24,11.24,0,0,0-9.186-7.683Z" fill="#ff8479"/>
          <path id="Контур_282" data-name="Контур 282" d="M1272.948,175.474l-.1.136,17.16,14.353.116-.12a11.413,11.413,0,0,0,1.109-1.325l.1-.136-17.16-14.353-.117.12c-.2.205-.394.421-.579.642S1273.115,175.241,1272.948,175.474Z" fill="#ff8479"/>
          <path id="Контур_283" data-name="Контур 283" d="M1293.291,181.155l-12.35-10.331-.077.009a11.278,11.278,0,0,0-2.153.452l-.314.1,14.793,12.373.042-.327a11.225,11.225,0,0,0,.064-2.2Z" fill="#ff8479"/>
          <path id="Контур_284" data-name="Контур 284" d="M1275.188,173.132l16.848,14.093.1-.2a11.151,11.151,0,0,0,.679-1.685l.036-.115-15.837-13.247-.107.056a10.99,10.99,0,0,0-1.538.966Z" fill="#ff8479"/>
          <path id="Контур_285" data-name="Контур 285" d="M1281.207,193.21l-10-8.361.191.594a11.236,11.236,0,0,0,9.186,7.684Z" fill="#ff8479"/>
          <path id="Контур_286" data-name="Контур 286" d="M1270.893,182.837l12.35,10.331.077-.009a11.251,11.251,0,0,0,2.152-.452l.315-.1-14.794-12.373-.041.327a11.3,11.3,0,0,0-.065,2.2Z" fill="#ff8479"/>
        </g>
        <g id="Сгруппировать_74" data-name="Сгруппировать 74">
          <path id="Контур_287" data-name="Контур 287" d="M1345.589,103.987l4.99-5.126-.017-.038a3.9,3.9,0,0,0-.293-.557l-.043-.067-5.308,5.454.067.04a3.85,3.85,0,0,0,.565.279Z" fill="#f13d3d"/>
          <path id="Контур_288" data-name="Контур 288" d="M1343.132,99.755l3.149-3.235-.21.05a3.894,3.894,0,0,0-2.894,2.973Z" fill="#f13d3d"/>
          <path id="Контур_289" data-name="Контур 289" d="M1344.492,103.342l.044.038,5.407-5.555-.039-.043a3.853,3.853,0,0,0-.429-.418l-.044-.037-5.407,5.554.039.044c.065.074.135.147.206.217S1344.415,103.279,1344.492,103.342Z" fill="#f13d3d"/>
          <path id="Контур_290" data-name="Контур 290" d="M1346.985,96.462l-3.891,4v.026a4,4,0,0,0,.1.756l.026.111,4.662-4.788-.112-.023a3.941,3.941,0,0,0-.758-.08Z" fill="#f13d3d"/>
          <path id="Контур_291" data-name="Контур 291" d="M1343.741,102.508l5.308-5.454-.067-.041a3.946,3.946,0,0,0-.565-.278l-.039-.016-4.99,5.127.017.038a3.9,3.9,0,0,0,.293.557Z" fill="#f13d3d"/>
          <path id="Контур_292" data-name="Контур 292" d="M1350.835,100.952l-3.15,3.235.211-.05a3.893,3.893,0,0,0,2.894-2.974Z" fill="#f13d3d"/>
          <path id="Контур_293" data-name="Контур 293" d="M1346.982,104.245l3.891-4v-.027a3.835,3.835,0,0,0-.1-.755l-.025-.112-4.662,4.789.112.023a3.942,3.942,0,0,0,.758.08Z" fill="#f13d3d"/>
        </g>
        <g id="Сгруппировать_75" data-name="Сгруппировать 75">
          <path id="Контур_294" data-name="Контур 294" d="M1252.8,194.93l6.018-6.182-.02-.046a4.57,4.57,0,0,0-.354-.671l-.051-.081-6.4,6.577.082.049a4.672,4.672,0,0,0,.681.336Z" fill="#f13d3d"/>
          <path id="Контур_295" data-name="Контур 295" d="M1249.842,189.826l3.8-3.9-.254.06a4.7,4.7,0,0,0-3.49,3.586Z" fill="#f13d3d"/>
          <path id="Контур_296" data-name="Контур 296" d="M1251.482,194.152l.053.045,6.52-6.7-.046-.052a4.916,4.916,0,0,0-.517-.5l-.054-.045-6.52,6.7.046.053c.08.09.163.178.249.261S1251.39,194.076,1251.482,194.152Z" fill="#f13d3d"/>
          <path id="Контур_297" data-name="Контур 297" d="M1254.488,185.855l-4.692,4.821v.032a4.731,4.731,0,0,0,.12.911l.032.135,5.621-5.775-.136-.028a4.821,4.821,0,0,0-.914-.1Z" fill="#f13d3d"/>
          <path id="Контур_298" data-name="Контур 298" d="M1250.576,193.146l6.4-6.577-.082-.049a4.681,4.681,0,0,0-.681-.336l-.046-.018-6.018,6.181.02.047a4.621,4.621,0,0,0,.354.671Z" fill="#f13d3d"/>
          <path id="Контур_299" data-name="Контур 299" d="M1259.131,191.269l-3.8,3.9.254-.061a4.7,4.7,0,0,0,3.49-3.586Z" fill="#f13d3d"/>
          <path id="Контур_300" data-name="Контур 300" d="M1254.485,195.24l4.692-4.82v-.033a4.741,4.741,0,0,0-.12-.911l-.032-.134-5.62,5.775.135.027a4.666,4.666,0,0,0,.914.1Z" fill="#f13d3d"/>
        </g>
        <g id="Сгруппировать_76" data-name="Сгруппировать 76">
          <path id="Контур_301" data-name="Контур 301" d="M1274.65,111.637l9.911,1.957.033-.049a5.45,5.45,0,0,0,.433-.777l.046-.1-10.544-2.082,0,.112a5.572,5.572,0,0,0,.1.883Z" fill="#ff8479"/>
          <path id="Контур_302" data-name="Контур 302" d="M1277.767,105.47l6.255,1.234-.222-.21a5.5,5.5,0,0,0-5.748-1.134Z" fill="#ff8479"/>
          <path id="Контур_303" data-name="Контур 303" d="M1274.568,109.842l-.009.081,10.738,2.12.022-.079a5.577,5.577,0,0,0,.164-.829l.01-.081-10.739-2.12-.022.079c-.037.135-.07.273-.1.411S1274.585,109.7,1274.568,109.842Z" fill="#ff8479"/>
          <path id="Контур_304" data-name="Контур 304" d="M1284.632,107.493l-7.729-1.526-.031.021a5.576,5.576,0,0,0-.817.7l-.112.116,9.258,1.828-.059-.15a5.521,5.521,0,0,0-.49-.959Z" fill="#ff8479"/>
          <path id="Контур_305" data-name="Контур 305" d="M1274.978,108.311l10.544,2.081,0-.112a5.448,5.448,0,0,0-.1-.882l-.012-.058-9.911-1.956-.033.049a5.44,5.44,0,0,0-.433.776Z" fill="#ff8479"/>
          <path id="Контур_306" data-name="Контур 306" d="M1282.284,115.508l-6.255-1.235.222.21a5.5,5.5,0,0,0,5.748,1.135Z" fill="#ff8479"/>
          <path id="Контур_307" data-name="Контур 307" d="M1275.419,113.485l7.729,1.525.031-.021a5.511,5.511,0,0,0,.817-.7l.112-.116-9.258-1.828.059.151a5.5,5.5,0,0,0,.49.958Z" fill="#ff8479"/>
        </g>
      </g>
      <g id="Сгруппировать_78" data-name="Сгруппировать 78">
        <path id="Контур_308" data-name="Контур 308" d="M1327.831,181.086l-.574.681a1.077,1.077,0,0,0-.781-.3c-.935,0-1.181,1.123-1.181,1.9,0,.648.287.868.73.868a1.571,1.571,0,0,0,.9-.311l.434.763a2.5,2.5,0,0,1-1.468.483,1.68,1.68,0,0,1-1.8-1.853,2.536,2.536,0,0,1,2.38-2.758A1.9,1.9,0,0,1,1327.831,181.086Z" fill="#e1001e"/>
        <path id="Контур_309" data-name="Контур 309" d="M1327.785,183.327a2.489,2.489,0,0,1,2.387-2.775,1.657,1.657,0,0,1,1.781,1.838,2.485,2.485,0,0,1-2.38,2.773A1.66,1.66,0,0,1,1327.785,183.327Zm2.986-1.018c0-.615-.229-.887-.673-.887-.919,0-1.124,1.28-1.124,1.986,0,.615.23.878.673.878C1330.566,184.286,1330.763,183.015,1330.771,182.309Z" fill="#e1001e"/>
        <path id="Контур_310" data-name="Контур 310" d="M1338.385,181.6a1.181,1.181,0,0,1-.862,1.1,1.014,1.014,0,0,1,.829.968c0,1.018-.96,1.493-1.92,1.493a1.8,1.8,0,0,1-2.01-1.911,2.563,2.563,0,0,1,2.5-2.7C1337.745,180.552,1338.385,180.921,1338.385,181.6Zm-2.8,1.535v.133c0,.623.239,1.073.838,1.073a.692.692,0,0,0,.771-.73.772.772,0,0,0-.451-.664A5.972,5.972,0,0,1,1335.586,183.137Zm.075-.623c1.05-.082,1.641-.329,1.641-.8,0-.245-.164-.385-.468-.385C1336.219,181.332,1335.816,181.857,1335.661,182.514Z" fill="#e1001e"/>
        <path id="Контур_311" data-name="Контур 311" d="M1343.072,181.4c-.443.147-.582.345-.886.788l-.419.625.894,2.223h-1.2l-.7-1.878h-.427l-.262,1.878h-1.149l.607-4.349h1.148l-.237,1.723h.4l.6-.9a1.861,1.861,0,0,1,1.313-.96Z" fill="#e1001e"/>
        <path id="Контур_312" data-name="Контур 312" d="M1345.666,185.058a2.833,2.833,0,0,1-2.6,1.781l-.033-.838a1.747,1.747,0,0,0,1.551-.968h-.41l-.731-4.349h1.206l.361,3.569,1.4-3.569h1.206Z" fill="#e1001e"/>
        <path id="Контур_313" data-name="Контур 313" d="M1351.224,181.086l-.574.681a1.076,1.076,0,0,0-.78-.3c-.936,0-1.182,1.123-1.182,1.9,0,.648.287.868.73.868a1.568,1.568,0,0,0,.9-.311l.434.763a2.5,2.5,0,0,1-1.468.483,1.68,1.68,0,0,1-1.8-1.853,2.536,2.536,0,0,1,2.38-2.758A1.9,1.9,0,0,1,1351.224,181.086Z" fill="#e1001e"/>
        <path id="Контур_314" data-name="Контур 314" d="M1351.179,183.327a2.489,2.489,0,0,1,2.387-2.775,1.656,1.656,0,0,1,1.781,1.838,2.485,2.485,0,0,1-2.38,2.773A1.66,1.66,0,0,1,1351.179,183.327Zm2.986-1.018c0-.615-.229-.887-.673-.887-.919,0-1.124,1.28-1.124,1.986,0,.615.23.878.673.878C1353.96,184.286,1354.157,183.015,1354.165,182.309Z" fill="#e1001e"/>
        <path id="Контур_315" data-name="Контур 315" d="M1360.452,185.033h-1.083l.124-1.691a10.429,10.429,0,0,1,.245-1.7l-1.181,2.939h-.985l-.328-2.931a13.6,13.6,0,0,1-.213,1.723l-.329,1.658h-1.092l.977-4.349h1.347l.279,2.881,1.074-2.881h1.4Z" fill="#e1001e"/>
        <path id="Контур_316" data-name="Контур 316" d="M1367.392,181.4c-.443.147-.582.345-.886.788l-.419.625.9,2.223h-1.2l-.7-1.878h-.427l-.262,1.878h-1.15l.608-4.349h1.148l-.237,1.723h.4l.6-.9a1.857,1.857,0,0,1,1.313-.96Z" fill="#e1001e"/>
        <path id="Контур_317" data-name="Контур 317" d="M1371.225,185.033h-1.149l.492-3.479h-.935l-.189.878c-.419,1.9-.591,2.494-1.871,2.716l-.156-.878c.534-.172.608-.328.928-1.863l.36-1.723h3.128Z" fill="#e1001e"/>
        <path id="Контур_318" data-name="Контур 318" d="M1374.6,185.058a2.835,2.835,0,0,1-2.6,1.781l-.032-.838a1.747,1.747,0,0,0,1.551-.968h-.411l-.73-4.349h1.206l.361,3.569,1.4-3.569h1.2Z" fill="#e1001e"/>
        <path id="Контур_319" data-name="Контур 319" d="M1380.624,182.58a2.374,2.374,0,0,1-2.273,2.583c-1.058,0-1.8-.72-1.8-2.116,0-1.353.3-3.2,2.2-3.651a3.864,3.864,0,0,0,1.42-.55l.386.722a3.725,3.725,0,0,1-1.469.6c-.689.173-1.157.478-1.346,1.576a1.832,1.832,0,0,1,1.493-.813C1380.041,180.929,1380.624,181.537,1380.624,182.58Zm-1.2-.033c0-.567-.221-.78-.574-.78a1.532,1.532,0,0,0-1.182.845c-.016.2-.016.4-.016.615,0,.681.27,1.059.722,1.059C1379.212,184.286,1379.426,183.26,1379.426,182.547Z" fill="#e1001e"/>
        <path id="Контур_320" data-name="Контур 320" d="M1383.9,183.26h-1.329l-.247,1.773h-1.149l.608-4.349h1.148l-.238,1.7h1.33l.23-1.7h1.149l-.608,4.349h-1.149Z" fill="#e1001e"/>
        <path id="Контур_321" data-name="Контур 321" d="M1386.042,183.785l.444-3.1h1.149l-.411,2.938c-.065.476.057.616.32.616.37,0,.69-.37.953-.763l.394-2.791h1.148l-.607,4.349h-1l.041-.68a1.776,1.776,0,0,1-1.4.81C1386.288,185.163,1385.928,184.623,1386.042,183.785Z" fill="#e1001e"/>
        <path id="Контур_322" data-name="Контур 322" d="M1394.71,181.4c-.444.147-.583.345-.886.788l-.419.625.894,2.223h-1.2l-.706-1.878h-.426l-.263,1.878h-1.149l.608-4.349h1.148l-.238,1.723h.4l.6-.9a1.857,1.857,0,0,1,1.313-.96Z" fill="#e1001e"/>
        <path id="Контур_323" data-name="Контур 323" d="M1395.112,183.785l.443-3.1h1.15l-.412,2.938c-.065.476.058.616.32.616.37,0,.691-.37.953-.763l.394-2.791h1.148l-.606,4.349h-1l.041-.68a1.775,1.775,0,0,1-1.4.81C1395.358,185.163,1395,184.623,1395.112,183.785Z" fill="#e1001e"/>
      </g>
      <g id="Сгруппировать_79" data-name="Сгруппировать 79">
        <path id="Контур_324" data-name="Контур 324" d="M1317.53,197.2l7.542,1.489.024-.037a4.063,4.063,0,0,0,.33-.591l.035-.077-8.023-1.584,0,.085a4.336,4.336,0,0,0,.08.672Z" fill="#f13d3d"/>
        <path id="Контур_325" data-name="Контур 325" d="M1319.9,192.509l4.759.939-.168-.16a4.184,4.184,0,0,0-4.375-.863Z" fill="#f13d3d"/>
        <path id="Контур_326" data-name="Контур 326" d="M1317.468,195.836l-.007.061,8.17,1.613.017-.06a4.347,4.347,0,0,0,.125-.631l.007-.061-8.171-1.613-.017.06c-.028.1-.053.208-.074.313S1317.481,195.73,1317.468,195.836Z" fill="#f13d3d"/>
        <path id="Контур_327" data-name="Контур 327" d="M1325.125,194.048l-5.881-1.161-.023.016a4.216,4.216,0,0,0-.622.533l-.085.089,7.044,1.39-.045-.114a4.172,4.172,0,0,0-.372-.729Z" fill="#f13d3d"/>
        <path id="Контур_328" data-name="Контур 328" d="M1317.78,194.67l8.023,1.584,0-.085a4.1,4.1,0,0,0-.08-.672l-.009-.043-7.541-1.489-.025.037a4.163,4.163,0,0,0-.329.591Z" fill="#f13d3d"/>
        <path id="Контур_329" data-name="Контур 329" d="M1323.339,200.146l-4.76-.939.169.16a4.182,4.182,0,0,0,4.374.863Z" fill="#f13d3d"/>
        <path id="Контур_330" data-name="Контур 330" d="M1318.115,198.607l5.881,1.161.024-.016a4.158,4.158,0,0,0,.621-.533l.085-.089-7.044-1.39.045.114a4.177,4.177,0,0,0,.373.729Z" fill="#f13d3d"/>
      </g>
    </g>
  </g>
</svg>
