<svg xmlns="http://www.w3.org/2000/svg" xmlns:xlink="http://www.w3.org/1999/xlink" width="280.63" height="139.64" viewBox="0 0 280.63 139.64">
  <defs>
    <clipPath id="clip-Монтажная_область_12">
      <rect width="280.63" height="139.64"/>
    </clipPath>
  </defs>
  <g id="Монтажная_область_12" data-name="Монтажная область – 12" clip-path="url(#clip-Монтажная_область_12)">
    <g id="Сгруппировать_163" data-name="Сгруппировать 163" transform="translate(-892 -376)">
      <g id="Сгруппировать_81" data-name="Сгруппировать 81">
        <path id="Контур_331" data-name="Контур 331" d="M1001.194,424.267l22.458-.3.049-.12a12.015,12.015,0,0,0,.584-1.866l.054-.24-23.892.322.06.238a11.877,11.877,0,0,0,.635,1.85Z" fill="#ff7434"/>
        <path id="Контур_332" data-name="Контур 332" d="M1005.138,409.587l14.175-.191-.579-.351a12.345,12.345,0,0,0-13.026.176Z" fill="#ff7434"/>
        <path id="Контур_333" data-name="Контур 333" d="M1000.191,420.444l.016.179,24.333-.328.011-.179a12.134,12.134,0,0,0-.025-1.858l-.016-.179-24.333.328-.012.18c-.019.307-.027.62-.023.929S1000.163,420.137,1000.191,420.444Z" fill="#ff7434"/>
        <path id="Контур_334" data-name="Контур 334" d="M1021,410.813l-17.514.236-.057.06a12.221,12.221,0,0,0-1.456,1.878l-.189.3,20.978-.283-.2-.3a12.147,12.147,0,0,0-1.505-1.838Z" fill="#ff7434"/>
        <path id="Контур_335" data-name="Контур 335" d="M1000.378,416.964l23.892-.322-.06-.238a11.912,11.912,0,0,0-.635-1.85l-.052-.119-22.458.3-.049.12a11.987,11.987,0,0,0-.584,1.867Z" fill="#ff7434"/>
        <path id="Контур_336" data-name="Контур 336" d="M1019.579,429.116l-14.175.191.579.35a12.343,12.343,0,0,0,13.026-.175Z" fill="#ff7434"/>
        <path id="Контур_337" data-name="Контур 337" d="M1003.715,427.89l17.514-.237.057-.06a12.224,12.224,0,0,0,1.456-1.878l.189-.3-20.978.283.2.3a12.2,12.2,0,0,0,1.505,1.838Z" fill="#ff7434"/>
      </g>
      <g id="Сгруппировать_82" data-name="Сгруппировать 82">
        <path id="Контур_338" data-name="Контур 338" d="M973.98,476.441l15.838,13.247.106-.055a11.2,11.2,0,0,0,1.539-.966l.183-.137L974.8,474.438l-.1.2a11.073,11.073,0,0,0-.679,1.685Z" fill="#ffa676"/>
        <path id="Контур_339" data-name="Контур 339" d="M985.627,468.452l9.995,8.361-.191-.594a11.24,11.24,0,0,0-9.186-7.684Z" fill="#ffa676"/>
        <path id="Контур_340" data-name="Контур 340" d="M975.6,473.144l-.1.136,17.16,14.353.117-.12a11.4,11.4,0,0,0,1.108-1.325l.1-.136L976.823,471.7l-.117.12c-.2.2-.4.421-.579.642S975.764,472.911,975.6,473.144Z" fill="#ffa676"/>
        <path id="Контур_341" data-name="Контур 341" d="M995.941,478.825l-12.351-10.33-.076.008a11.279,11.279,0,0,0-2.153.452l-.315.1,14.794,12.374.042-.328a11.293,11.293,0,0,0,.064-2.2Z" fill="#ffa676"/>
        <path id="Контур_342" data-name="Контур 342" d="M977.837,470.8l16.849,14.092.1-.2a11.217,11.217,0,0,0,.679-1.685l.036-.115-15.838-13.247-.106.056a11.191,11.191,0,0,0-1.539.966Z" fill="#ffa676"/>
        <path id="Контур_343" data-name="Контур 343" d="M983.856,490.88l-9.995-8.36.191.594a11.237,11.237,0,0,0,9.186,7.683Z" fill="#ffa676"/>
        <path id="Контур_344" data-name="Контур 344" d="M973.542,480.508l12.351,10.33.076-.008a11.435,11.435,0,0,0,2.153-.452l.315-.1L973.643,477.9l-.042.327a11.376,11.376,0,0,0-.064,2.2Z" fill="#ffa676"/>
      </g>
      <g id="Сгруппировать_83" data-name="Сгруппировать 83">
        <path id="Контур_345" data-name="Контур 345" d="M1080.014,426.148l10.6-10.891-.034-.081a8.3,8.3,0,0,0-.624-1.183l-.09-.141-11.278,11.586.144.086a8.235,8.235,0,0,0,1.2.592Z" fill="#ffa676"/>
        <path id="Контур_346" data-name="Контур 346" d="M1074.8,417.157l6.691-6.874-.447.107a8.276,8.276,0,0,0-6.149,6.317Z" fill="#ffa676"/>
        <path id="Контур_347" data-name="Контур 347" d="M1077.684,424.778l.094.079,11.487-11.8-.082-.092a8.47,8.47,0,0,0-.911-.887l-.095-.079-11.486,11.8.082.092c.139.158.287.313.439.461S1077.522,424.643,1077.684,424.778Z" fill="#ffa676"/>
        <path id="Контур_348" data-name="Контур 348" d="M1082.981,410.161l-8.267,8.493,0,.057a8.344,8.344,0,0,0,.212,1.605l.055.236,9.9-10.173-.238-.049a8.363,8.363,0,0,0-1.61-.169Z" fill="#ffa676"/>
        <path id="Контур_349" data-name="Контур 349" d="M1076.089,423.005l11.278-11.587-.144-.086a8.247,8.247,0,0,0-1.2-.592l-.083-.032-10.6,10.891.035.081a8.3,8.3,0,0,0,.624,1.183Z" fill="#ffa676"/>
        <path id="Контур_350" data-name="Контур 350" d="M1091.16,419.7l-6.691,6.874.447-.107a8.276,8.276,0,0,0,6.149-6.317Z" fill="#ffa676"/>
        <path id="Контур_351" data-name="Контур 351" d="M1082.975,426.7l8.267-8.493,0-.057a8.325,8.325,0,0,0-.212-1.6l-.056-.236-9.9,10.173.238.049a8.365,8.365,0,0,0,1.61.169Z" fill="#ffa676"/>
      </g>
      <g id="Сгруппировать_84" data-name="Сгруппировать 84">
        <path id="Контур_352" data-name="Контур 352" d="M1048.238,401.658l4.99-5.127-.016-.038a3.892,3.892,0,0,0-.294-.557l-.042-.067-5.309,5.454.068.041a3.883,3.883,0,0,0,.564.278Z" fill="#ff7434"/>
        <path id="Контур_353" data-name="Контур 353" d="M1045.782,397.425l3.149-3.235-.21.05a3.893,3.893,0,0,0-2.894,2.974Z" fill="#ff7434"/>
        <path id="Контур_354" data-name="Контур 354" d="M1047.141,401.013l.045.037,5.406-5.554-.038-.044a3.928,3.928,0,0,0-.429-.417l-.044-.038-5.407,5.555.038.043c.066.075.136.148.207.217S1047.065,400.949,1047.141,401.013Z" fill="#ff7434"/>
        <path id="Контур_355" data-name="Контур 355" d="M1049.635,394.132l-3.892,4v.027a3.919,3.919,0,0,0,.1.755l.026.112,4.661-4.789-.112-.023a3.925,3.925,0,0,0-.758-.08Z" fill="#ff7434"/>
        <path id="Контур_356" data-name="Контур 356" d="M1046.391,400.178l5.308-5.454-.068-.04a3.79,3.79,0,0,0-.564-.279l-.039-.015-4.99,5.126.016.038a3.993,3.993,0,0,0,.294.557Z" fill="#ff7434"/>
        <path id="Контур_357" data-name="Контур 357" d="M1053.485,398.622l-3.15,3.235.21-.05a3.893,3.893,0,0,0,2.895-2.973Z" fill="#ff7434"/>
        <path id="Контур_358" data-name="Контур 358" d="M1049.632,401.915l3.891-4v-.026a3.919,3.919,0,0,0-.1-.756l-.026-.111-4.661,4.788.112.023a3.941,3.941,0,0,0,.758.08Z" fill="#ff7434"/>
      </g>
      <g id="Сгруппировать_85" data-name="Сгруппировать 85">
        <path id="Контур_359" data-name="Контур 359" d="M955.454,492.6l6.018-6.182-.02-.046a4.836,4.836,0,0,0-.354-.671l-.052-.081-6.4,6.577.082.049a4.618,4.618,0,0,0,.68.336Z" fill="#ff7434"/>
        <path id="Контур_360" data-name="Контур 360" d="M952.492,487.5l3.8-3.9-.254.061a4.7,4.7,0,0,0-3.49,3.585Z" fill="#ff7434"/>
        <path id="Контур_361" data-name="Контур 361" d="M954.131,491.823l.054.045,6.52-6.7-.047-.052a4.721,4.721,0,0,0-.517-.5l-.053-.045-6.52,6.7.046.052c.079.09.163.178.249.262S954.039,491.746,954.131,491.823Z" fill="#ff7434"/>
        <path id="Контур_362" data-name="Контур 362" d="M957.138,483.525l-4.693,4.821v.033a4.738,4.738,0,0,0,.121.911l.031.134,5.621-5.775-.135-.027a4.672,4.672,0,0,0-.914-.1Z" fill="#ff7434"/>
        <path id="Контур_363" data-name="Контур 363" d="M953.226,490.816l6.4-6.577-.082-.049a4.681,4.681,0,0,0-.681-.336l-.047-.018-6.017,6.182.02.046a4.621,4.621,0,0,0,.354.671Z" fill="#ff7434"/>
        <path id="Контур_364" data-name="Контур 364" d="M961.781,488.94l-3.8,3.9.253-.061a4.7,4.7,0,0,0,3.491-3.585Z" fill="#ff7434"/>
        <path id="Контур_365" data-name="Контур 365" d="M957.135,492.911l4.692-4.821v-.032a4.652,4.652,0,0,0-.121-.911l-.031-.135-5.621,5.775.135.028a4.841,4.841,0,0,0,.914.1Z" fill="#ff7434"/>
      </g>
      <g id="Сгруппировать_86" data-name="Сгруппировать 86">
        <path id="Контур_366" data-name="Контур 366" d="M977.3,409.308l9.911,1.956.033-.049a5.5,5.5,0,0,0,.432-.776l.047-.1-10.544-2.081,0,.111a5.454,5.454,0,0,0,.105.883Z" fill="#ffa676"/>
        <path id="Контур_367" data-name="Контур 367" d="M980.416,403.14l6.256,1.235-.222-.21a5.5,5.5,0,0,0-5.749-1.135Z" fill="#ffa676"/>
        <path id="Контур_368" data-name="Контур 368" d="M977.218,407.512l-.01.082,10.739,2.12.022-.079a5.562,5.562,0,0,0,.163-.83l.01-.081L977.4,406.6l-.022.079c-.038.135-.071.274-.1.412S977.235,407.373,977.218,407.512Z" fill="#ffa676"/>
        <path id="Контур_369" data-name="Контур 369" d="M987.282,405.163l-7.729-1.526-.031.022a5.512,5.512,0,0,0-.817.7l-.112.117,9.258,1.827-.059-.15a5.476,5.476,0,0,0-.49-.958Z" fill="#ffa676"/>
        <path id="Контур_370" data-name="Контур 370" d="M977.628,405.981l10.544,2.081,0-.111a5.469,5.469,0,0,0-.106-.883l-.011-.058-9.911-1.956-.033.049a5.506,5.506,0,0,0-.433.776Z" fill="#ffa676"/>
        <path id="Контур_371" data-name="Контур 371" d="M984.934,413.178l-6.255-1.235.221.21a5.5,5.5,0,0,0,5.749,1.135Z" fill="#ffa676"/>
        <path id="Контур_372" data-name="Контур 372" d="M978.069,411.155l7.729,1.526.031-.022a5.57,5.57,0,0,0,.817-.7l.112-.117-9.258-1.827.059.15a5.575,5.575,0,0,0,.489.958Z" fill="#ffa676"/>
      </g>
      <g id="Сгруппировать_87" data-name="Сгруппировать 87">
        <path id="Контур_373" data-name="Контур 373" d="M1024.043,494.244l7.541,1.489.025-.038a4.153,4.153,0,0,0,.329-.59l.035-.078-8.022-1.583,0,.085a4.079,4.079,0,0,0,.08.671Z" fill="#ff7434"/>
        <path id="Контур_374" data-name="Контур 374" d="M1026.414,489.551l4.76.94-.169-.16a4.183,4.183,0,0,0-4.374-.863Z" fill="#ff7434"/>
        <path id="Контур_375" data-name="Контур 375" d="M1023.98,492.878l-.007.062,8.171,1.613.017-.06a4.218,4.218,0,0,0,.124-.631l.008-.062-8.171-1.613-.017.06c-.029.1-.054.208-.074.313S1023.993,492.772,1023.98,492.878Z" fill="#ff7434"/>
        <path id="Контур_376" data-name="Контур 376" d="M1031.638,491.09l-5.881-1.16-.024.016a4.158,4.158,0,0,0-.621.533l-.085.089,7.044,1.39-.045-.114a4.169,4.169,0,0,0-.373-.729Z" fill="#ff7434"/>
        <path id="Контур_377" data-name="Контур 377" d="M1024.292,491.713l8.023,1.584,0-.085a4.234,4.234,0,0,0-.08-.672l-.009-.044-7.541-1.488-.025.037a4.168,4.168,0,0,0-.33.591Z" fill="#ff7434"/>
        <path id="Контур_378" data-name="Контур 378" d="M1029.851,497.189l-4.759-.939.169.159a4.185,4.185,0,0,0,4.374.864Z" fill="#ff7434"/>
        <path id="Контур_379" data-name="Контур 379" d="M1024.628,495.65l5.881,1.161.023-.017a4.223,4.223,0,0,0,.622-.533l.085-.088-7.044-1.391.045.115a4.2,4.2,0,0,0,.372.729Z" fill="#ff7434"/>
      </g>
      <g id="Сгруппировать_88" data-name="Сгруппировать 88">
        <path id="Контур_380" data-name="Контур 380" d="M1035.188,476.3l-.575.681a1.074,1.074,0,0,0-.78-.3c-.935,0-1.181,1.123-1.181,1.9,0,.647.287.868.73.868a1.577,1.577,0,0,0,.9-.311l.434.763a2.5,2.5,0,0,1-1.468.483,1.679,1.679,0,0,1-1.8-1.853,2.537,2.537,0,0,1,2.38-2.759A1.9,1.9,0,0,1,1035.188,476.3Z" fill="#ff5200"/>
        <path id="Контур_381" data-name="Контур 381" d="M1035.142,478.544a2.49,2.49,0,0,1,2.387-2.776,1.658,1.658,0,0,1,1.781,1.839,2.485,2.485,0,0,1-2.38,2.773A1.659,1.659,0,0,1,1035.142,478.544Zm2.986-1.018c0-.615-.229-.887-.673-.887-.919,0-1.124,1.28-1.124,1.986,0,.615.23.877.673.877C1037.923,479.5,1038.12,478.232,1038.128,477.526Z" fill="#ff5200"/>
        <path id="Контур_382" data-name="Контур 382" d="M1045.742,476.819a1.182,1.182,0,0,1-.862,1.1,1.014,1.014,0,0,1,.829.968c0,1.018-.96,1.493-1.921,1.493a1.8,1.8,0,0,1-2.009-1.911,2.564,2.564,0,0,1,2.5-2.7C1045.1,475.768,1045.742,476.138,1045.742,476.819Zm-2.8,1.535v.133c0,.622.239,1.073.838,1.073a.692.692,0,0,0,.771-.73.772.772,0,0,0-.451-.664A6.048,6.048,0,0,1,1042.943,478.354Zm.075-.623c1.05-.082,1.641-.329,1.641-.8,0-.245-.164-.385-.468-.385C1043.576,476.549,1043.173,477.074,1043.018,477.731Z" fill="#ff5200"/>
        <path id="Контур_383" data-name="Контур 383" d="M1050.429,476.614c-.444.147-.582.345-.886.788l-.419.624.894,2.224h-1.2l-.7-1.879h-.427l-.262,1.879h-1.15l.608-4.349h1.148l-.237,1.723h.4l.6-.895a1.861,1.861,0,0,1,1.313-.961Z" fill="#ff5200"/>
        <path id="Контур_384" data-name="Контур 384" d="M1053.023,480.275a2.834,2.834,0,0,1-2.6,1.781l-.033-.838a1.746,1.746,0,0,0,1.551-.968h-.41l-.731-4.349h1.206l.361,3.569,1.4-3.569h1.205Z" fill="#ff5200"/>
        <path id="Контур_385" data-name="Контур 385" d="M1058.581,476.3l-.575.681a1.074,1.074,0,0,0-.78-.3c-.935,0-1.181,1.123-1.181,1.9,0,.647.287.868.73.868a1.578,1.578,0,0,0,.9-.311l.434.763a2.5,2.5,0,0,1-1.468.483,1.679,1.679,0,0,1-1.8-1.853,2.537,2.537,0,0,1,2.38-2.759A1.9,1.9,0,0,1,1058.581,476.3Z" fill="#ff5200"/>
        <path id="Контур_386" data-name="Контур 386" d="M1058.536,478.544a2.489,2.489,0,0,1,2.387-2.776,1.658,1.658,0,0,1,1.781,1.839,2.485,2.485,0,0,1-2.38,2.773A1.659,1.659,0,0,1,1058.536,478.544Zm2.986-1.018c0-.615-.229-.887-.673-.887-.919,0-1.124,1.28-1.124,1.986,0,.615.23.877.673.877C1061.317,479.5,1061.514,478.232,1061.522,477.526Z" fill="#ff5200"/>
        <path id="Контур_387" data-name="Контур 387" d="M1067.809,480.25h-1.083l.124-1.691a10.442,10.442,0,0,1,.245-1.7l-1.182,2.939h-.984l-.329-2.931a13.589,13.589,0,0,1-.212,1.723l-.329,1.658h-1.092l.977-4.349h1.346l.279,2.881,1.075-2.881h1.395Z" fill="#ff5200"/>
        <path id="Контур_388" data-name="Контур 388" d="M1074.765,476.2l-.41,2.856c-.041.3-.025.442.222.542l-.329.763a.96.96,0,0,1-.952-.723,1.578,1.578,0,0,1-1.3.738c-.91,0-1.411-.68-1.411-1.713,0-1.241.656-2.9,2.462-2.9A3.592,3.592,0,0,1,1074.765,476.2Zm-2.978,2.463c0,.63.229.845.557.845.353,0,.632-.255.9-.65l.312-2.149a1.257,1.257,0,0,0-.533-.1C1072.114,476.614,1071.787,477.789,1071.787,478.667Z" fill="#ff5200"/>
        <path id="Контур_389" data-name="Контур 389" d="M1078.2,476.779h-1.289l-.484,3.471h-1.149l.608-4.349h3.594l-.608,4.349h-1.148Z" fill="#ff5200"/>
        <path id="Контур_390" data-name="Контур 390" d="M1081.16,478.657c.033.625.354.845.813.845a1.944,1.944,0,0,0,1.124-.4l.426.705a2.844,2.844,0,0,1-1.689.573,1.666,1.666,0,0,1-1.839-1.821,2.523,2.523,0,0,1,2.413-2.791c1.025,0,1.551.535,1.551,1.175C1083.959,478.166,1082.555,478.519,1081.16,478.657Zm1.633-1.666a.409.409,0,0,0-.468-.417c-.68,0-.993.69-1.108,1.345C1082.342,477.829,1082.793,477.476,1082.793,476.991Z" fill="#ff5200"/>
        <path id="Контур_391" data-name="Контур 391" d="M1087.742,480.25h-1.149l.493-3.479h-.936l-.188.878c-.419,1.9-.592,2.494-1.871,2.716l-.156-.878c.533-.172.607-.328.927-1.863l.361-1.723h3.127Z" fill="#ff5200"/>
        <path id="Контур_392" data-name="Контур 392" d="M1092.569,478.6a1.828,1.828,0,0,1-2.077,1.78,5.155,5.155,0,0,1-1.608-.26l.591-4.219h1.148l-.188,1.363h.345C1092.044,477.264,1092.569,477.772,1092.569,478.6Zm-1.158.017c0-.353-.189-.583-.73-.583h-.353l-.2,1.511a2.038,2.038,0,0,0,.386.049A.883.883,0,0,0,1091.411,478.617Z" fill="#ff5200"/>
        <path id="Контур_393" data-name="Контур 393" d="M1096.813,476.3l-.574.681a1.077,1.077,0,0,0-.78-.3c-.936,0-1.182,1.123-1.182,1.9,0,.647.287.868.73.868a1.575,1.575,0,0,0,.9-.311l.434.763a2.5,2.5,0,0,1-1.468.483,1.68,1.68,0,0,1-1.8-1.853,2.537,2.537,0,0,1,2.38-2.759A1.9,1.9,0,0,1,1096.813,476.3Z" fill="#ff5200"/>
        <path id="Контур_394" data-name="Контур 394" d="M1096.963,479l.444-3.1h1.149l-.411,2.938c-.065.476.058.616.32.616.37,0,.69-.37.953-.763l.394-2.791h1.148l-.607,4.349h-1l.041-.68a1.776,1.776,0,0,1-1.4.81C1097.21,480.38,1096.849,479.84,1096.963,479Z" fill="#ff5200"/>
        <path id="Контур_395" data-name="Контур 395" d="M1104.2,478.477h-1.329l-.246,1.773h-1.15l.608-4.349h1.148l-.237,1.7h1.329l.23-1.7h1.149l-.608,4.349h-1.149Z" fill="#ff5200"/>
        <path id="Контур_396" data-name="Контур 396" d="M1110.392,476.2l-.411,2.856c-.041.3-.024.442.222.542l-.329.763a.961.961,0,0,1-.952-.723,1.577,1.577,0,0,1-1.3.738c-.911,0-1.412-.68-1.412-1.713,0-1.241.656-2.9,2.462-2.9A3.6,3.6,0,0,1,1110.392,476.2Zm-2.979,2.463c0,.63.229.845.558.845.352,0,.631-.255.9-.65l.311-2.149a1.258,1.258,0,0,0-.533-.1C1107.741,476.614,1107.413,477.789,1107.413,478.667Z" fill="#ff5200"/>
      </g>
      <g id="Сгруппировать_90" data-name="Сгруппировать 90">
        <g id="Сгруппировать_89" data-name="Сгруппировать 89">
          <path id="Контур_397" data-name="Контур 397" d="M1043.234,450.007a1.367,1.367,0,0,0-.473.009,2.52,2.52,0,0,0-1.236.824,7.346,7.346,0,0,0-.76.9s-.271.356-.326.43c-.591.81-1.264,1.85-1.912,2.572-.674.75-2.77,3.383-3.168,3.1-.069-.049-.025-.172-.01-.2,0,0,.63-1.891.951-2.727.383-1,.959-3.342.983-3.442a2.059,2.059,0,0,0-.258-1.61,2.146,2.146,0,0,0-1.439-.938c-.5-.1-1.359.407-2.222,1.505-1.237,1.572-2.57,3.207-3.523,4.267-.459.511-.9,1.073-1.387,1.6-.544.6-1.172,1.233-1.862,1.888-.277.262-1.682,1.653.086-2.235.415-.914.883-1.815,1.379-2.739a19.648,19.648,0,0,1,2.334-3.607,16.419,16.419,0,0,1,1.907-1.748,3.142,3.142,0,0,1,1.671-.691,1.487,1.487,0,0,1,1.193.335,6.969,6.969,0,0,1,1.428,1.553,2.162,2.162,0,0,0,3.045.738,2.142,2.142,0,0,0,1.027-1.468,2.034,2.034,0,0,0-.306-1.489,4.36,4.36,0,0,0-.707-1.041c-.227-.247-.443-.468-.588-.613a7.744,7.744,0,0,0-2.055-1.584,7.464,7.464,0,0,0-2.583-.8,7.735,7.735,0,0,0-3.452.465,11.862,11.862,0,0,0-2.878,1.584,17.727,17.727,0,0,0-2.374,2.136,25.291,25.291,0,0,0-1.886,2.294,18.735,18.735,0,0,0-2.59,5.717,17.533,17.533,0,0,0-.51,3.187,4.994,4.994,0,0,0,1.432,4.07,3.9,3.9,0,0,0,2.093,1.134,4.035,4.035,0,0,0,2.076-.191,7.31,7.31,0,0,0,1.471-.725,9.555,9.555,0,0,0,1.208-.893c.329-.272.648-.56.959-.855a4.887,4.887,0,0,0,1.046,2.273,3.15,3.15,0,0,0,3.864.58,9.2,9.2,0,0,0,2.94-2.036c.726-.735,1.419-1.462,2.021-2.116.174-.177.424-.444.681-.724a16.573,16.573,0,0,0,2.649-3.757C1044.424,452.45,1044.716,450.244,1043.234,450.007Z" fill="#ff5200"/>
          <path id="Контур_398" data-name="Контур 398" d="M1128.544,413.981c-.016-.074-.04-.155-.064-.237a.548.548,0,0,0-.039-.13V413.6a.837.837,0,0,0-.04-.13,6.156,6.156,0,0,0-.369-.826,4.49,4.49,0,0,0-1.082-1.328,6.841,6.841,0,0,0-2.646-1.42,9.474,9.474,0,0,0-3.649-.23A16.615,16.615,0,0,0,1114.25,412a55.846,55.846,0,0,0-5.151,3.573,45.278,45.278,0,0,0-4.692,4.228,60.154,60.154,0,0,0-4.116,4.713,61.638,61.638,0,0,0-5.167,8.071c-.462.86-1.173,2.281-1.917,3.816-1.509.176-3.034.3-4.582.35a1.929,1.929,0,0,0-1.888,1.926,1.956,1.956,0,0,0,2.006,1.953c.832-.026,1.663-.077,2.487-.145-.53,1.153-.969,2.12-1.176,2.648a37.589,37.589,0,0,0-1.944,6.244,25.809,25.809,0,0,0-.553,6.71,10.851,10.851,0,0,0,1.484,5.487,6.807,6.807,0,0,0,4.535,2.917,9.58,9.58,0,0,0,1.18.106c.09.009.188.01.277.01a10.947,10.947,0,0,0,2.112-.2,13.874,13.874,0,0,0,3.4-1.125,20.405,20.405,0,0,0,2.684-1.562,21.057,21.057,0,0,0,2.484-2.108q.516-.486.985-1a11.319,11.319,0,0,0,3.151-5.363,3.74,3.74,0,0,0-.029-1.63,2.179,2.179,0,0,0-2.041-1.693,2.307,2.307,0,0,0-1.791.8,2.155,2.155,0,0,0-.283,1.978,11.619,11.619,0,0,1-3.053,4.215,13.393,13.393,0,0,1-4.6,2.933,7.092,7.092,0,0,1-3.638.479,2.691,2.691,0,0,1-1.663-1.014,4.285,4.285,0,0,1-.742-2.246,15.191,15.191,0,0,1,.119-2.916,24.832,24.832,0,0,1,1.184-4.987,49.193,49.193,0,0,1,3.139-7.009c.446-.853.892-1.7,1.355-2.566a53.093,53.093,0,0,0,13.452-4.5c9.928-4.9,14.032-11.38,14.6-12.322C1128.14,419.177,1129.114,416.3,1128.544,413.981Zm-5.964,6.729-.181.283c-1.361,2.264-5.6,7.049-12.861,10.632a48.751,48.751,0,0,1-9.257,3.437c.363-.649.734-1.323,1.122-2.021,1.007-1.769,2.1-3.5,3.232-5.135,1.168-1.637,2.4-3.2,3.667-4.651a40.17,40.17,0,0,1,4.071-4.077,37.565,37.565,0,0,1,4.465-3.391,11.849,11.849,0,0,1,4.717-2.093,4.666,4.666,0,0,1,2.215.163c.016.008.024.008.041.017a2.173,2.173,0,0,1,.487.28,1.47,1.47,0,0,1,.232.483.061.061,0,0,1,.016.032c.008.009.008.009.008.017C1124.833,415.6,1124.69,417.384,1122.58,420.71Z" fill="#ff5200"/>
          <path id="Контур_399" data-name="Контур 399" d="M993.261,445.085c-4.028-6.787-15.1,4.761-16.05,12.718a5.042,5.042,0,0,0,4.086,5.576c6.07.973,11.932-7.946,12.7-14.48A6.074,6.074,0,0,0,993.261,445.085Zm-3.288,4.046c-.464,3.256-3.869,9.377-6.958,10.241a1.537,1.537,0,0,1-2.049-1.592c.792-4.09,4.2-9.96,7.831-10.321C990.072,447.332,990.182,448.334,989.973,449.131Z" fill="#ff5200"/>
          <path id="Контур_400" data-name="Контур 400" d="M1024.032,476.454v0c-1.576-1.6-4.472-.312-3.611,2.122-1.664,3.979-5.778,6.712-10.168,7.3-7.743-.5-.665-13.165.887-16.7,1.526-3.478,7.334-13.31,10.132-20.853,2.549-6.869-5.114-7.852-8.591-3.113-1.094-4.215-6.307-2.344-8.513-.141-4.264-4-7.546,5.95-9.116,8.945-.8,2.366-2.562,5.365-2.314,7.839.471,2.172,2.809,2.164,3.834.569,2.765-5.135,5.458-10.705,10.261-14.278a.214.214,0,0,1,.319.259c-1.222,4.02-4.045,8.141-5.562,11.855a2.576,2.576,0,0,0,.64,2.654c2.669,2.814,6.682-6.024,7.811-7.859a36.132,36.132,0,0,1,5.318-6.788.347.347,0,0,1,.568.353c-3.52,11.949-19.505,29.45-10.313,39.691C1009.435,492.558,1026.914,484.154,1024.032,476.454Z" fill="#ff5200"/>
          <path id="Контур_401" data-name="Контур 401" d="M1080.87,431.452a1.968,1.968,0,0,0-2.569-.817c-.768.353-1.545.673-2.337.961a33.6,33.6,0,0,1-5.633,1.475,22.7,22.7,0,0,0-.891-11.007,14.455,14.455,0,0,0-.625-1.447c-2.032-4.129-6.3-7.085-10.623-8.346a19.061,19.061,0,0,0-5.861-.768,13.429,13.429,0,0,0-6.718,1.623,7.188,7.188,0,0,0-.7.5,12.574,12.574,0,0,0-3.27,3.684c-.008.008-.008.008-.008.016a4.863,4.863,0,0,0-.2.512.062.062,0,0,0-.017.065,6.583,6.583,0,0,0-.284.927c-1.5,6.41,5.442,12.653,5.515,12.71,4.8,4.1,11.114,5.808,17.371,5.894-.469,1.749-.994,3.472-1.52,5.163l-.1.309c-.158.48-.97,2.389-1.641,3.883a1.1,1.1,0,0,0-.056-.147,5.148,5.148,0,0,0-2.124-2.59,6.492,6.492,0,0,0-2.9-.884,7.619,7.619,0,0,0-3.525.651,11.356,11.356,0,0,0-2.7,1.7,15.528,15.528,0,0,0-3.749,4.642c-.073-.009-2.348,4.717-1.238,9.085a8.592,8.592,0,0,0,.824,2,6.406,6.406,0,0,0,2.672,2.5,5.325,5.325,0,0,0,2.375.571,6.045,6.045,0,0,0,1.427-.16,10.522,10.522,0,0,0,3.359-1.37,15.212,15.212,0,0,0,2.729-2.18,20.477,20.477,0,0,0,2.178-2.633c.6-.851,1.177-1.694,1.737-2.522a53.981,53.981,0,0,0,7.271-16.212c.192-.707.369-1.423.537-2.147a37.836,37.836,0,0,0,7.7-1.851c.9-.328,1.79-.688,2.664-1.1a1.966,1.966,0,0,0,1.154-1.768A1.9,1.9,0,0,0,1080.87,431.452Zm-23.834,22.75-.668,1.112a19.1,19.1,0,0,1-1.62,2.042,11.989,11.989,0,0,1-1.845,1.632,8.241,8.241,0,0,1-2.036.915,1.1,1.1,0,0,1-1.091-.1,1.015,1.015,0,0,1-.444-.606,4.906,4.906,0,0,1-.242-1.444,5.983,5.983,0,0,1,.439-2.156c.349-.869.73-1.73,1.144-2.6a18.6,18.6,0,0,1,1.188-2.176,14.463,14.463,0,0,1,1.621-2.107,4.349,4.349,0,0,1,1.6-1.088,1.554,1.554,0,0,1,.515-.086,2.439,2.439,0,0,1,.9.218c.139.058.285.116.38.524.181.816.315,1.551.392,2.163a13.953,13.953,0,0,1,.066,2.062A5.847,5.847,0,0,1,1057.036,454.2Zm-7.859-25.61c-.866-.764-4.825-5.469-4-8.975a4.387,4.387,0,0,1,1.312-2.2,8.719,8.719,0,0,1,1.432-.894c2.682-1.22,7.553-1.046,11.385.913a11.122,11.122,0,0,1,6.139,9.822,28.984,28.984,0,0,1-.543,6.319C1059.22,433.651,1053.453,432.241,1049.177,428.592Z" fill="#ff5200"/>
          <path id="Контур_402" data-name="Контур 402" d="M983.91,425.947l0,0c-7.371-20.207-46.707-10.56-43.392,10.451.53,1.694,1.471,1.707,1.83,1.65a1.832,1.832,0,0,0,1.268-2.014c-.46-10.681,10.32-15.994,18.914-16.8,25.76-2.109,17.729,26.183-.261,31.522.734-4.366,6.962-27.326,3.049-26-3.421,1.156-4.856,10.974-5.653,14.145-1.9,7.576-4.011,14.681-6.515,22.239-1.9,4.855-6.63,20.461-13.13,15.23-3.211-2.291-4.587.777-3.932,1.739,12.417,13.7,21.693-13.409,24.74-22.617C973.942,453.3,987.676,440.078,983.91,425.947Z" fill="#ff5200"/>
          <path id="Контур_403" data-name="Контур 403" d="M1084.2,453.432c-.707.113-2.8,3.19-5.848,4.979a13.583,13.583,0,0,1-4.958,1.911,2.72,2.72,0,0,1-1.981-.179,2.357,2.357,0,0,1-1.083-.865,1.575,1.575,0,0,1-.18-.638,3.556,3.556,0,0,1,.048-.955,8.767,8.767,0,0,1,.323-1.186c.031-.09.062-.179.093-.264a3.658,3.658,0,0,0,2.656,1.618,5.316,5.316,0,0,0,3.6-.861,11.158,11.158,0,0,0,2.489-2.167,14.842,14.842,0,0,0,1.8-2.624,17.147,17.147,0,0,0,1.046-2.837,5.174,5.174,0,0,0-.444-3.977,4.384,4.384,0,0,0-2.727-2.24,5.954,5.954,0,0,0-3.01-.032,10.513,10.513,0,0,0-2.626,1.038,11.356,11.356,0,0,0-2.028,1.377,18.623,18.623,0,0,0-4.057,4.512,14.152,14.152,0,0,0-2.174,5.818,9.831,9.831,0,0,0,.131,3.58,6.025,6.025,0,0,0,2.214,3.508,6.9,6.9,0,0,0,3.376,1.361,11.439,11.439,0,0,0,1.3.089,9.415,9.415,0,0,0,1.958-.18,14.807,14.807,0,0,0,6.235-2.652,31.3,31.3,0,0,0,4.688-4.153l.079-.09a3.188,3.188,0,0,0,.826-2.537A1.417,1.417,0,0,0,1084.2,453.432Zm-11.716-.438a6.471,6.471,0,0,1,2.211-3.823q.461-.384.962-.761a4.922,4.922,0,0,1,2.23-.979c.342-.035.82-.14,1,.15a.727.727,0,0,1,.071.218,2.305,2.305,0,0,1-.331,1.853,15.718,15.718,0,0,1-1.87,2.65,7.711,7.711,0,0,1-.931.9,10.369,10.369,0,0,1-1.188.865,4.283,4.283,0,0,1-1.027.47c-.217.063-.636.141-.822-.012a1.584,1.584,0,0,1-.31-1.518Z" fill="#ff5200"/>
        </g>
      </g>
    </g>
  </g>
</svg>
