<svg xmlns="http://www.w3.org/2000/svg" xmlns:xlink="http://www.w3.org/1999/xlink" width="280.63" height="139.64" viewBox="0 0 280.63 139.64">
  <defs>
    <clipPath id="clip-Монтажная_область_13">
      <rect width="280.63" height="139.64"/>
    </clipPath>
  </defs>
  <g id="Монтажная_область_13" data-name="Монтажная область – 13" clip-path="url(#clip-Монтажная_область_13)">
    <g id="Сгруппировать_171" data-name="Сгруппировать 171" transform="translate(-2364 -376)">
      <path id="Контур_171" data-name="Контур 171" d="M2604.043,436.224a6.006,6.006,0,0,0-2.224-1.4,9.461,9.461,0,0,0-2.977-.43,6.274,6.274,0,0,0-4.053,1.219,3.962,3.962,0,0,0-1.578,3.264c0,1.9,1.721,3.694,5.093,5.38l.861.431c3.013,1.542,5.021,2.941,5.99,4.16a7.007,7.007,0,0,1,1.506,4.591,8.468,8.468,0,0,1-3.228,6.887,13.016,13.016,0,0,1-8.5,2.618,13.158,13.158,0,0,1-7.639-2.044,6.027,6.027,0,0,1-2.977-5.165,3.938,3.938,0,0,1,.9-2.69,2.733,2.733,0,0,1,2.224-1.076,2.6,2.6,0,0,1,1.9.753,2.408,2.408,0,0,1,.789,1.829,5.074,5.074,0,0,1-.61,2.224,5.5,5.5,0,0,0-.573,1.4c0,.645.573,1.291,1.721,1.865a9,9,0,0,0,4.053.9,6.78,6.78,0,0,0,4.376-1.327,4.545,4.545,0,0,0,1.578-3.659c0-1.937-1.65-3.73-4.949-5.344-.4-.215-.718-.359-.969-.5a17.407,17.407,0,0,1-5.595-3.946,7.033,7.033,0,0,1-1.543-4.519,8.4,8.4,0,0,1,3.013-6.707,11.945,11.945,0,0,1,8.035-2.583,12.949,12.949,0,0,1,7.245,1.865,5.359,5.359,0,0,1,2.905,4.591,3.192,3.192,0,0,1-.789,2.3,2.494,2.494,0,0,1-2.044.9,2.762,2.762,0,0,1-2.009-.825,2.458,2.458,0,0,1-.861-1.937,3.751,3.751,0,0,1,.251-1.327,9.785,9.785,0,0,1,.682-1.686Z" fill="#341415"/>
      <path id="Контур_172" data-name="Контур 172" d="M2438.443,420.514l2.08.072c-.431,2.188-.825,4.411-1.22,6.671-.394,2.3-.789,4.663-1.147,7.066h-2.188c.036-.753.107-1.4.143-2.009.036-.574.072-1.04.072-1.363a10.223,10.223,0,0,0-2.87-7.568,10.491,10.491,0,0,0-7.639-2.8,14.551,14.551,0,0,0-12.482,6.6q-4.735,6.618-4.735,17.54c0,4.77,1.148,8.464,3.372,11.118,2.224,2.619,5.38,3.91,9.433,3.91a14.108,14.108,0,0,0,8.07-2.3,17.855,17.855,0,0,0,5.847-7.03l2.008.9a20,20,0,0,1-7.173,8.644,19.06,19.06,0,0,1-10.617,2.977c-6.133,0-10.94-1.721-14.455-5.129s-5.272-8.106-5.272-14.06q0-11.3,6.958-18.615a23.347,23.347,0,0,1,17.683-7.317,18.713,18.713,0,0,1,7.137,1.327,16.739,16.739,0,0,1,5.847,3.838Z" fill="#341415"/>
      <path id="Контур_173" data-name="Контур 173" d="M2488.37,448.813l2.26-9.218a6.431,6.431,0,0,0-1.4-3.8,3.945,3.945,0,0,0-3.085-1.363,5.919,5.919,0,0,0-3.873,1.614,14.546,14.546,0,0,0-3.48,4.591,35.774,35.774,0,0,0-2.761,7.03,24.2,24.2,0,0,0-1.04,6.384,7.207,7.207,0,0,0,.9,3.946,2.931,2.931,0,0,0,2.654,1.327,4.393,4.393,0,0,0,2.26-.789,14.961,14.961,0,0,0,2.869-2.475,26.884,26.884,0,0,0,3.049-3.946,13.821,13.821,0,0,0,1.65-3.3Zm4.412-16.463h6.528l-5.488,21.521c-.179.789-.359,1.506-.466,2.116a9.425,9.425,0,0,0-.18,1.363,1.923,1.923,0,0,0,.538,1.435,2.04,2.04,0,0,0,1.435.538,3.771,3.771,0,0,0,2.583-1.327,14.2,14.2,0,0,0,2.546-3.874l1.758.717a15.031,15.031,0,0,1-4.412,5.99,9,9,0,0,1-5.7,2.116,5.4,5.4,0,0,1-3.874-1.219,4.768,4.768,0,0,1-1.255-3.623,14.477,14.477,0,0,1,.108-1.614c.071-.61.143-1.327.286-2.116a22.363,22.363,0,0,1-5.738,6.384,11.062,11.062,0,0,1-6.385,2.188,6.686,6.686,0,0,1-5.416-2.259,9.464,9.464,0,0,1-1.937-6.349,23,23,0,0,1,1.4-7.747,27.1,27.1,0,0,1,4.017-7.246,20.326,20.326,0,0,1,5.739-5.165,12.158,12.158,0,0,1,6.241-1.829,8.111,8.111,0,0,1,4.017.933,6.056,6.056,0,0,1,2.547,2.726Z" fill="#341415"/>
      <path id="Контур_174" data-name="Контур 174" d="M2526.533,434.574l-.43,2.26h-7.389l-2.116,12.41c-.933,5.631-1.829,10.294-2.654,13.952-.861,3.695-1.758,6.994-2.726,9.9l-7.1,2.367q2.529-7.91,5.667-26.757l.108-.718,1.936-11.154h-6.2l.359-2.26h6.133c.754-5.631,2.439-10.007,5.022-13.127a11.933,11.933,0,0,1,9.648-4.663,9.923,9.923,0,0,1,6.026,1.686,5.15,5.15,0,0,1,2.295,4.375,3.745,3.745,0,0,1-.86,2.583,2.881,2.881,0,0,1-2.26.968,3,3,0,0,1-2.188-.825,3.271,3.271,0,0,1-.825-2.3,6.64,6.64,0,0,1,.287-1.722,6.692,6.692,0,0,0,.323-1.219c0-.359-.251-.682-.717-.969a3.454,3.454,0,0,0-1.758-.43,5.158,5.158,0,0,0-4.7,2.869c-1.076,1.9-2.223,6.134-3.371,12.769Z" fill="#341415"/>
      <path id="Контур_175" data-name="Контур 175" d="M2549.811,453.189l1.614,1.005a16.928,16.928,0,0,1-5.774,6.527,14.238,14.238,0,0,1-7.963,2.224c-3.336,0-5.918-.932-7.783-2.869-1.9-1.9-2.834-4.519-2.834-7.891a19.2,19.2,0,0,1,1.9-8.178,21.491,21.491,0,0,1,5.2-6.994,18.664,18.664,0,0,1,5.7-3.443,17.813,17.813,0,0,1,6.6-1.22c2.619,0,4.627.5,5.99,1.543a5.077,5.077,0,0,1,2.116,4.375c0,2.87-1.721,5.165-5.093,6.851-3.407,1.65-8.07,2.511-13.988,2.511-.287,1.255-.5,2.475-.646,3.551a24.442,24.442,0,0,0-.215,3.084,6.569,6.569,0,0,0,1.291,4.484,5.055,5.055,0,0,0,3.982,1.434,9.238,9.238,0,0,0,5.344-1.829,16.541,16.541,0,0,0,4.555-5.165Zm-13.916-7.6c4.2-.036,7.352-.717,9.433-2.008a6.215,6.215,0,0,0,3.192-5.631,3.238,3.238,0,0,0-.969-2.475,3.685,3.685,0,0,0-2.618-.9,6.837,6.837,0,0,0-5.38,2.8,21.7,21.7,0,0,0-3.658,8.213Z" fill="#341415"/>
      <path id="Контур_176" data-name="Контур 176" d="M2557.558,436.762l1.363,1.219a10.132,10.132,0,0,1,1.292-1.219,4.915,4.915,0,0,1,3.156-1.291,1.38,1.38,0,0,1,1.148.645,2.758,2.758,0,0,1,.466,1.686,7,7,0,0,1-.143,1.291q-.108.807-.323,1.83l-5.058,21.484h6.959l2.869-12.231a33.762,33.762,0,0,1,4.053-10.294q2.691-4.411,4.52-4.411c.215,0,.358.143.466.394a1.95,1.95,0,0,1,.215.9,5.779,5.779,0,0,1-.036.753,4.68,4.68,0,0,0-.036.61,2.551,2.551,0,0,0,.861,2.008,3.16,3.16,0,0,0,2.26.79,3.241,3.241,0,0,0,2.51-1.041,3.954,3.954,0,0,0,.933-2.761,4.615,4.615,0,0,0-1.219-3.336,4.4,4.4,0,0,0-3.264-1.255,7.773,7.773,0,0,0-5.345,2.367,23.512,23.512,0,0,0-4.878,6.994c.287-1.148.5-2.152.646-2.977a12.029,12.029,0,0,0,.179-2.116,3.887,3.887,0,0,0-1.255-3.157,5.647,5.647,0,0,0-3.73-1.111,10.072,10.072,0,0,0-5.918,1.865,13.534,13.534,0,0,0-2.691,2.367Z" fill="#341415" fill-rule="evenodd"/>
      <path id="Контур_177" data-name="Контур 177" d="M2558.921,437.981a10.132,10.132,0,0,1,1.292-1.219,4.915,4.915,0,0,1,3.156-1.291,1.38,1.38,0,0,1,1.148.645,2.758,2.758,0,0,1,.466,1.686,7,7,0,0,1-.143,1.291q-.108.807-.323,1.83l-5.058,21.484h6.959l2.869-12.231a33.762,33.762,0,0,1,4.053-10.294q2.691-4.411,4.52-4.411c.215,0,.358.143.466.394a1.95,1.95,0,0,1,.215.9,5.779,5.779,0,0,1-.036.753,4.68,4.68,0,0,0-.036.61,2.551,2.551,0,0,0,.861,2.008,3.16,3.16,0,0,0,2.26.79,3.241,3.241,0,0,0,2.51-1.041,3.954,3.954,0,0,0,.933-2.761,4.615,4.615,0,0,0-1.219-3.336,4.4,4.4,0,0,0-3.264-1.255,7.773,7.773,0,0,0-5.345,2.367,23.512,23.512,0,0,0-4.878,6.994c.287-1.148.5-2.152.646-2.977a12.029,12.029,0,0,0,.179-2.116,3.887,3.887,0,0,0-1.255-3.157,5.647,5.647,0,0,0-3.73-1.111,10.072,10.072,0,0,0-5.918,1.865,13.534,13.534,0,0,0-2.691,2.367" fill="none" stroke="#341615" stroke-miterlimit="10" stroke-width="0.028"/>
      <path id="Контур_178" data-name="Контур 178" d="M2441.168,436.762l1.363,1.219a13.136,13.136,0,0,1,1.256-1.219,5,5,0,0,1,3.192-1.291,1.38,1.38,0,0,1,1.148.645,3.021,3.021,0,0,1,.466,1.686,12.807,12.807,0,0,1-.143,1.291,14.962,14.962,0,0,1-.359,1.83l-5.057,21.484h6.994l2.869-12.231a33.762,33.762,0,0,1,4.053-10.294q2.691-4.411,4.519-4.411a.56.56,0,0,1,.467.394,1.92,1.92,0,0,1,.179.9v.753a4.68,4.68,0,0,0-.036.61,2.551,2.551,0,0,0,.861,2.008,3.015,3.015,0,0,0,2.224.79,3.319,3.319,0,0,0,2.546-1.041,3.953,3.953,0,0,0,.933-2.761,4.764,4.764,0,0,0-1.22-3.336,4.486,4.486,0,0,0-3.3-1.255,7.906,7.906,0,0,0-5.345,2.367,23.487,23.487,0,0,0-4.842,6.994c.287-1.148.467-2.152.61-2.977a12.369,12.369,0,0,0,.215-2.116,4,4,0,0,0-1.255-3.157,5.714,5.714,0,0,0-3.73-1.111,10.262,10.262,0,0,0-5.954,1.865,13.39,13.39,0,0,0-2.655,2.367Z" fill="#341415" fill-rule="evenodd"/>
      <path id="Контур_179" data-name="Контур 179" d="M2442.531,437.981a13.136,13.136,0,0,1,1.256-1.219,5,5,0,0,1,3.192-1.291,1.38,1.38,0,0,1,1.148.645,3.021,3.021,0,0,1,.466,1.686,12.807,12.807,0,0,1-.143,1.291,14.962,14.962,0,0,1-.359,1.83l-5.057,21.484h6.994l2.869-12.231a33.762,33.762,0,0,1,4.053-10.294q2.691-4.411,4.519-4.411a.56.56,0,0,1,.467.394,1.92,1.92,0,0,1,.179.9v.753a4.68,4.68,0,0,0-.036.61,2.551,2.551,0,0,0,.861,2.008,3.015,3.015,0,0,0,2.224.79,3.319,3.319,0,0,0,2.546-1.041,3.953,3.953,0,0,0,.933-2.761,4.764,4.764,0,0,0-1.22-3.336,4.486,4.486,0,0,0-3.3-1.255,7.906,7.906,0,0,0-5.345,2.367,23.487,23.487,0,0,0-4.842,6.994c.287-1.148.467-2.152.61-2.977a12.369,12.369,0,0,0,.215-2.116,4,4,0,0,0-1.255-3.157,5.714,5.714,0,0,0-3.73-1.111,10.262,10.262,0,0,0-5.954,1.865,13.39,13.39,0,0,0-2.655,2.367" fill="none" stroke="#341615" stroke-miterlimit="10" stroke-width="0.028"/>
    </g>
  </g>
</svg>
