<svg xmlns="http://www.w3.org/2000/svg" xmlns:xlink="http://www.w3.org/1999/xlink" width="280.63" height="139.64" viewBox="0 0 280.63 139.64">
  <defs>
    <clipPath id="clip-Монтажная_область_11">
      <rect width="280.63" height="139.64"/>
    </clipPath>
  </defs>
  <g id="Монтажная_область_11" data-name="Монтажная область – 11" clip-path="url(#clip-Монтажная_область_11)">
    <g id="Сгруппировать_160" data-name="Сгруппировать 160" transform="translate(-898 -79)">
      <g id="Сгруппировать_57" data-name="Сгруппировать 57">
        <path id="Контур_184" data-name="Контур 184" d="M1037.859,182.106l-.587.7a1.117,1.117,0,0,0-.8-.32c-.955,0-1.208,1.158-1.208,1.947,0,.662.286.888.748.888a1.616,1.616,0,0,0,.914-.318l.443.78a2.551,2.551,0,0,1-1.5.494,1.718,1.718,0,0,1-1.837-1.895,2.594,2.594,0,0,1,2.433-2.818A1.942,1.942,0,0,1,1037.859,182.106Z" fill="#00a4e8"/>
        <path id="Контур_185" data-name="Контур 185" d="M1042.156,183.438c0,1.191-.6,2.835-2.432,2.835a1.691,1.691,0,0,1-1.819-1.878c0-1.208.594-2.835,2.43-2.835A1.693,1.693,0,0,1,1042.156,183.438Zm-3.044,1.041c0,.629.226.9.686.9.94,0,1.15-1.307,1.15-2.028,0-.631-.235-.907-.688-.907C1039.313,182.449,1039.112,183.758,1039.112,184.479Z" fill="#00a4e8"/>
        <path id="Контур_186" data-name="Контур 186" d="M1048.729,182.633c0,.5-.286.865-.89,1.133a1.019,1.019,0,0,1,.855.981c0,1.039-.981,1.526-1.961,1.526a1.837,1.837,0,0,1-2.047-1.953,2.614,2.614,0,0,1,2.55-2.76C1048.075,181.56,1048.729,181.937,1048.729,182.633Zm-2.86,1.568v.134c0,.639.243,1.1.855,1.1a.707.707,0,0,0,.788-.746.776.776,0,0,0-.46-.679A6.065,6.065,0,0,1,1045.869,184.2Zm.075-.636c1.031-.085,1.677-.328,1.677-.815,0-.251-.167-.4-.477-.4C1046.515,182.348,1046.1,182.894,1045.944,183.565Z" fill="#00a4e8"/>
        <path id="Контур_187" data-name="Контур 187" d="M1053.519,182.424a1.531,1.531,0,0,0-.905.805l-.437.637.922,2.273h-1.223l-.722-1.928h-.435l-.269,1.928h-1.175l.621-4.445h1.175l-.243,1.769h.41l.621-.929a1.851,1.851,0,0,1,1.332-.974Z" fill="#00a4e8"/>
        <path id="Контур_188" data-name="Контур 188" d="M1056.162,186.164a2.877,2.877,0,0,1-2.649,1.819l-.034-.855a1.8,1.8,0,0,0,1.593-1.006l-.435.017-.738-4.445h1.224l.368,3.648,1.434-3.648h1.225Z" fill="#00a4e8"/>
        <path id="Контур_189" data-name="Контур 189" d="M1061.784,182.106l-.588.7a1.116,1.116,0,0,0-.8-.32c-.957,0-1.208,1.158-1.208,1.947,0,.662.286.888.746.888a1.617,1.617,0,0,0,.914-.318l.445.78a2.56,2.56,0,0,1-1.5.494,1.718,1.718,0,0,1-1.837-1.895,2.592,2.592,0,0,1,2.431-2.818A1.941,1.941,0,0,1,1061.784,182.106Z" fill="#00a4e8"/>
        <path id="Контур_190" data-name="Контур 190" d="M1066.08,183.438c0,1.191-.594,2.835-2.432,2.835a1.692,1.692,0,0,1-1.819-1.878c0-1.208.6-2.835,2.432-2.835A1.691,1.691,0,0,1,1066.08,183.438Zm-3.044,1.041c0,.629.226.9.688.9.94,0,1.148-1.307,1.148-2.028,0-.631-.233-.907-.688-.907C1063.237,182.449,1063.036,183.758,1063.036,184.479Z" fill="#00a4e8"/>
        <path id="Контур_191" data-name="Контур 191" d="M1071.215,186.139h-1.108l.117-1.727a13.346,13.346,0,0,1,.261-1.737l-1.208,3h-1.006l-.335-2.992a13.806,13.806,0,0,1-.219,1.752l-.335,1.7h-1.116l1-4.445h1.391l.269,2.944,1.108-2.944h1.416Z" fill="#00a4e8"/>
        <path id="Контур_192" data-name="Контур 192" d="M1078.308,182.424a1.531,1.531,0,0,0-.907.805l-.435.637.922,2.273h-1.225l-.721-1.928h-.437l-.268,1.928h-1.173l.621-4.445h1.173l-.244,1.769h.413l.619-.929a1.854,1.854,0,0,1,1.334-.974Z" fill="#00a4e8"/>
        <path id="Контур_193" data-name="Контур 193" d="M1083,183.3c0,1.275-.6,2.977-2.365,2.977a2.235,2.235,0,0,1-.8-.134l-.251,1.719-1.173.135.879-6.3h1.032l-.008.512a1.749,1.749,0,0,1,1.324-.646C1082.519,181.56,1083,182.188,1083,183.3Zm-2.726-.31-.318,2.3a1.785,1.785,0,0,0,.621.109c.89,0,1.216-1.217,1.216-2.1,0-.653-.259-.854-.6-.854A1.267,1.267,0,0,0,1080.27,182.986Z" fill="#00a4e8"/>
        <path id="Контур_194" data-name="Контур 194" d="M1084.767,184.512c.025.646.361.864.83.864a2,2,0,0,0,1.148-.41l.438.721a2.921,2.921,0,0,1-1.728.586,1.7,1.7,0,0,1-1.878-1.861,2.577,2.577,0,0,1,2.465-2.852c1.049,0,1.585.546,1.585,1.2C1087.627,184,1086.2,184.37,1084.767,184.512Zm1.67-1.693a.432.432,0,0,0-.5-.445c-.686,0-1.006.713-1.113,1.392C1085.975,183.664,1086.437,183.287,1086.437,182.819Z" fill="#00a4e8"/>
        <path id="Контур_195" data-name="Контур 195" d="M1092.611,186.139H1091.5l.117-1.727a13.181,13.181,0,0,1,.261-1.737l-1.208,3h-1.006l-.336-2.992a13.817,13.817,0,0,1-.218,1.752l-.336,1.7h-1.115l1-4.445h1.392l.268,2.944,1.108-2.944h1.417Z" fill="#00a4e8"/>
        <path id="Контур_196" data-name="Контур 196" d="M1093.727,183.045h2.566l-.134.94h-2.567Z" fill="#00a4e8"/>
        <path id="Контур_197" data-name="Контур 197" d="M1100.874,182.633c0,.5-.285.865-.889,1.133a1.019,1.019,0,0,1,.855.981c0,1.039-.981,1.526-1.961,1.526a1.837,1.837,0,0,1-2.047-1.953,2.613,2.613,0,0,1,2.549-2.76C1100.221,181.56,1100.874,181.937,1100.874,182.633Zm-2.859,1.568v.134c0,.639.243,1.1.854,1.1a.707.707,0,0,0,.788-.746.775.775,0,0,0-.46-.679A6.04,6.04,0,0,1,1098.015,184.2Zm.074-.636c1.032-.085,1.678-.328,1.678-.815,0-.251-.167-.4-.478-.4C1098.661,182.348,1098.248,182.894,1098.089,183.565Z" fill="#00a4e8"/>
        <path id="Контур_198" data-name="Контур 198" d="M1105.69,182l-.436,2.92a1.644,1.644,0,0,0-.017.192.335.335,0,0,0,.251.36l-.343.78a.974.974,0,0,1-.964-.738,1.6,1.6,0,0,1-1.317.755c-.956,0-1.443-.7-1.443-1.752,0-1.259.663-2.961,2.507-2.961A3.714,3.714,0,0,1,1105.69,182Zm-3.052,2.517c0,.644.234.863.579.863s.636-.259.912-.661l.336-2.207a1.521,1.521,0,0,0-.562-.092C1102.973,182.424,1102.638,183.624,1102.638,184.521Z" fill="#00a4e8"/>
        <path id="Контур_199" data-name="Контур 199" d="M1108.987,184.328h-1.358l-.253,1.811H1106.2l.621-4.445H1108l-.243,1.737h1.359l.234-1.737h1.175l-.621,4.445h-1.173Z" fill="#00a4e8"/>
        <path id="Контур_200" data-name="Контур 200" d="M1114.641,186.139h-1.016l.035-.7a1.794,1.794,0,0,1-1.417.83c-.832,0-1.175-.544-1.058-1.409l.445-3.17h1.175l-.42,3c-.067.485.06.628.328.628.376,0,.7-.377.979-.8l.4-2.835h1.175Z" fill="#00a4e8"/>
        <path id="Контур_201" data-name="Контур 201" d="M1119.355,186.139h-1.166l.495-3.556h-.957l-.191.9c-.428,1.938-.6,2.55-1.913,2.776l-.159-.9c.546-.176.628-.336.948-1.9l.368-1.762h3.2Z" fill="#00a4e8"/>
        <path id="Контур_202" data-name="Контур 202" d="M1124.095,186.139h-1.014l.033-.7a1.791,1.791,0,0,1-1.417.83c-.83,0-1.173-.544-1.056-1.409l.445-3.17h1.173l-.42,3c-.067.485.059.628.328.628.377,0,.7-.377.981-.8l.4-2.835h1.173Z" fill="#00a4e8"/>
      </g>
      <g id="Сгруппировать_67" data-name="Сгруппировать 67">
        <g id="Сгруппировать_59" data-name="Сгруппировать 59">
          <g id="Сгруппировать_58" data-name="Сгруппировать 58">
            <path id="Контур_203" data-name="Контур 203" d="M1049.047,153.6a1.392,1.392,0,0,0-.473.009,2.534,2.534,0,0,0-1.236.824,7.356,7.356,0,0,0-.76.9l-.326.429c-.591.81-1.264,1.85-1.912,2.572-.674.75-2.77,3.383-3.168,3.1-.069-.049-.025-.173-.01-.206,0,0,.63-1.891.951-2.727.383-1,.959-3.342.983-3.441a2.06,2.06,0,0,0-.258-1.611,2.149,2.149,0,0,0-1.439-.938c-.5-.1-1.359.407-2.222,1.505-1.237,1.572-2.57,3.207-3.523,4.267-.459.512-.905,1.073-1.387,1.6-.544.6-1.172,1.234-1.862,1.888-.277.262-1.682,1.653.086-2.235.415-.914.883-1.815,1.379-2.738a19.588,19.588,0,0,1,2.334-3.607,16.515,16.515,0,0,1,1.907-1.749,3.158,3.158,0,0,1,1.671-.691,1.487,1.487,0,0,1,1.193.336,6.966,6.966,0,0,1,1.428,1.552,2.162,2.162,0,0,0,3.045.738,2.143,2.143,0,0,0,1.027-1.467,2.033,2.033,0,0,0-.306-1.489,4.364,4.364,0,0,0-.707-1.042c-.227-.246-.443-.467-.588-.613a7.74,7.74,0,0,0-2.055-1.583,7.444,7.444,0,0,0-2.583-.8,7.721,7.721,0,0,0-3.452.466,11.823,11.823,0,0,0-2.878,1.583,17.728,17.728,0,0,0-2.374,2.136,25.3,25.3,0,0,0-1.886,2.295,18.728,18.728,0,0,0-2.59,5.716,17.533,17.533,0,0,0-.51,3.188,4.991,4.991,0,0,0,1.432,4.069,3.889,3.889,0,0,0,2.093,1.134,4.024,4.024,0,0,0,2.076-.191,7.256,7.256,0,0,0,1.471-.725,9.55,9.55,0,0,0,1.208-.892c.329-.273.648-.561.959-.856a4.883,4.883,0,0,0,1.046,2.273,3.15,3.15,0,0,0,3.864.581,9.233,9.233,0,0,0,2.94-2.036c.726-.736,1.419-1.463,2.021-2.117.174-.176.424-.443.681-.724a16.564,16.564,0,0,0,2.649-3.756C1050.237,156.044,1050.529,153.838,1049.047,153.6Z" fill="#00a4e8"/>
            <path id="Контур_204" data-name="Контур 204" d="M1134.357,117.574c-.016-.073-.04-.155-.064-.236a.571.571,0,0,0-.039-.131v-.016a.825.825,0,0,0-.04-.131,6.2,6.2,0,0,0-.369-.826,4.473,4.473,0,0,0-1.082-1.327,6.842,6.842,0,0,0-2.646-1.421,9.494,9.494,0,0,0-3.649-.23,16.6,16.6,0,0,0-6.405,2.342,55.453,55.453,0,0,0-5.151,3.573,45.052,45.052,0,0,0-4.692,4.228,60.165,60.165,0,0,0-4.116,4.712,61.637,61.637,0,0,0-5.167,8.071c-.462.86-1.173,2.281-1.917,3.816q-2.264.266-4.582.35a1.93,1.93,0,0,0-1.888,1.926,1.956,1.956,0,0,0,2.006,1.954c.832-.027,1.663-.078,2.487-.145-.53,1.153-.969,2.119-1.176,2.648a37.531,37.531,0,0,0-1.944,6.244,25.809,25.809,0,0,0-.553,6.71,10.849,10.849,0,0,0,1.484,5.486,6.8,6.8,0,0,0,4.535,2.917,9.581,9.581,0,0,0,1.18.107c.09.008.188.009.277.01a10.947,10.947,0,0,0,2.112-.2,13.874,13.874,0,0,0,3.4-1.125,20.284,20.284,0,0,0,2.684-1.561,21.158,21.158,0,0,0,2.484-2.109q.516-.486.985-.995a11.317,11.317,0,0,0,3.151-5.364,3.739,3.739,0,0,0-.029-1.63,2.18,2.18,0,0,0-2.041-1.693,2.311,2.311,0,0,0-1.791.8,2.156,2.156,0,0,0-.283,1.978,11.61,11.61,0,0,1-3.053,4.215,13.41,13.41,0,0,1-4.6,2.934,7.114,7.114,0,0,1-3.638.479,2.688,2.688,0,0,1-1.663-1.015,4.285,4.285,0,0,1-.742-2.246,15.191,15.191,0,0,1,.119-2.916,24.821,24.821,0,0,1,1.184-4.986,49.17,49.17,0,0,1,3.139-7.01c.446-.852.892-1.7,1.355-2.565a53.134,53.134,0,0,0,13.452-4.5c9.928-4.9,14.032-11.381,14.6-12.322C1133.953,122.77,1134.927,119.893,1134.357,117.574Zm-5.964,6.729-.181.284c-1.361,2.263-5.6,7.049-12.861,10.631a48.612,48.612,0,0,1-9.257,3.437c.363-.649.734-1.323,1.122-2.021,1.007-1.769,2.1-3.505,3.232-5.134,1.168-1.638,2.4-3.2,3.667-4.651a40.079,40.079,0,0,1,4.071-4.078,37.668,37.668,0,0,1,4.465-3.39,11.834,11.834,0,0,1,4.717-2.093,4.653,4.653,0,0,1,2.215.162c.016.009.024.009.041.017a2.168,2.168,0,0,1,.487.281,1.464,1.464,0,0,1,.232.482.064.064,0,0,1,.016.033c.008.008.008.008.008.016C1130.646,119.194,1130.5,120.977,1128.393,124.3Z" fill="#00a4e8"/>
            <path id="Контур_205" data-name="Контур 205" d="M999.074,148.678c-4.028-6.786-15.1,4.762-16.05,12.718a5.044,5.044,0,0,0,4.086,5.577c6.07.972,11.932-7.947,12.7-14.48A6.077,6.077,0,0,0,999.074,148.678Zm-3.288,4.047c-.464,3.256-3.869,9.377-6.958,10.24a1.536,1.536,0,0,1-2.049-1.591c.792-4.091,4.2-9.96,7.831-10.321C995.885,150.926,995.995,151.928,995.786,152.725Z" fill="#00a4e8"/>
            <path id="Контур_206" data-name="Контур 206" d="M1029.845,180.048v0c-1.576-1.6-4.472-.311-3.611,2.122-1.664,3.98-5.778,6.713-10.168,7.3-7.743-.5-.665-13.166.887-16.7,1.526-3.479,7.334-13.31,10.132-20.854,2.549-6.869-5.114-7.851-8.591-3.113-1.094-4.214-6.307-2.344-8.513-.141-4.264-4-7.546,5.951-9.116,8.945-.8,2.367-2.562,5.365-2.314,7.84.471,2.172,2.809,2.163,3.834.568,2.765-5.134,5.458-10.705,10.261-14.277a.214.214,0,0,1,.319.258c-1.222,4.02-4.045,8.141-5.562,11.855a2.577,2.577,0,0,0,.64,2.655c2.669,2.813,6.682-6.024,7.811-7.86a36.093,36.093,0,0,1,5.318-6.787.346.346,0,0,1,.568.353c-3.52,11.949-19.505,29.45-10.313,39.69C1015.248,196.151,1032.727,187.747,1029.845,180.048Z" fill="#00a4e8"/>
            <path id="Контур_207" data-name="Контур 207" d="M1086.683,135.045a1.97,1.97,0,0,0-2.569-.817c-.768.353-1.545.673-2.337.961a33.593,33.593,0,0,1-5.633,1.475,22.7,22.7,0,0,0-.891-11.006,14.311,14.311,0,0,0-.625-1.447c-2.032-4.13-6.305-7.086-10.623-8.347a19.059,19.059,0,0,0-5.861-.767,13.427,13.427,0,0,0-6.718,1.622,7.369,7.369,0,0,0-.7.5,12.587,12.587,0,0,0-3.27,3.684c-.008.008-.008.008-.008.017a4.778,4.778,0,0,0-.2.512.062.062,0,0,0-.017.065,6.528,6.528,0,0,0-.284.926c-1.5,6.411,5.442,12.653,5.515,12.711,4.8,4.1,11.114,5.808,17.371,5.893-.469,1.749-.994,3.473-1.52,5.164l-.1.309c-.158.479-.97,2.388-1.641,3.883a1.1,1.1,0,0,0-.056-.147,5.144,5.144,0,0,0-2.124-2.59,6.48,6.48,0,0,0-2.9-.885,7.62,7.62,0,0,0-3.525.651,11.356,11.356,0,0,0-2.7,1.7,15.541,15.541,0,0,0-3.749,4.642c-.073-.008-2.348,4.718-1.238,9.085a8.593,8.593,0,0,0,.824,2,6.414,6.414,0,0,0,2.672,2.5,5.338,5.338,0,0,0,2.375.571,6.047,6.047,0,0,0,1.427-.161,10.521,10.521,0,0,0,3.359-1.369,15.217,15.217,0,0,0,2.729-2.181,20.614,20.614,0,0,0,2.178-2.632c.6-.852,1.177-1.7,1.737-2.522a54,54,0,0,0,7.271-16.212c.192-.708.369-1.424.537-2.148a37.771,37.771,0,0,0,7.7-1.851c.9-.328,1.79-.688,2.664-1.1a1.966,1.966,0,0,0,1.154-1.768A1.9,1.9,0,0,0,1086.683,135.045ZM1062.849,157.8l-.668,1.111a18.9,18.9,0,0,1-1.62,2.042,12.048,12.048,0,0,1-1.845,1.633,8.278,8.278,0,0,1-2.036.914,1.1,1.1,0,0,1-1.091-.1,1.017,1.017,0,0,1-.444-.607,4.9,4.9,0,0,1-.242-1.444,5.986,5.986,0,0,1,.439-2.156c.349-.869.73-1.73,1.144-2.6a18.589,18.589,0,0,1,1.188-2.175,14.356,14.356,0,0,1,1.621-2.107,4.353,4.353,0,0,1,1.6-1.089,1.555,1.555,0,0,1,.515-.086,2.442,2.442,0,0,1,.9.219c.139.058.285.116.38.524.181.816.314,1.55.392,2.162a13.962,13.962,0,0,1,.066,2.062A5.859,5.859,0,0,1,1062.849,157.8Zm-7.859-25.61c-.866-.764-4.825-5.47-4-8.976a4.387,4.387,0,0,1,1.312-2.2,8.854,8.854,0,0,1,1.432-.894c2.682-1.219,7.553-1.046,11.385.913a11.123,11.123,0,0,1,6.139,9.822,28.984,28.984,0,0,1-.543,6.319C1065.033,137.245,1059.266,135.834,1054.99,132.186Z" fill="#00a4e8"/>
            <path id="Контур_208" data-name="Контур 208" d="M989.723,129.54l0,0c-7.371-20.208-46.707-10.561-43.392,10.451.53,1.694,1.471,1.707,1.83,1.649a1.83,1.83,0,0,0,1.268-2.013c-.46-10.681,10.32-15.994,18.914-16.8,25.76-2.109,17.729,26.182-.261,31.521.734-4.365,6.962-27.326,3.049-26-3.421,1.157-4.856,10.974-5.653,14.145-1.9,7.576-4.011,14.682-6.515,22.24-1.9,4.855-6.63,20.46-13.13,15.23-3.211-2.291-4.587.777-3.932,1.739,12.417,13.7,21.693-13.41,24.74-22.617C979.755,156.892,993.489,143.672,989.723,129.54Z" fill="#00a4e8"/>
            <path id="Контур_209" data-name="Контур 209" d="M1090.012,157.025c-.707.113-2.8,3.191-5.848,4.98a13.618,13.618,0,0,1-4.958,1.911,2.726,2.726,0,0,1-1.981-.18,2.35,2.35,0,0,1-1.083-.865,1.57,1.57,0,0,1-.18-.638,3.563,3.563,0,0,1,.048-.955,8.753,8.753,0,0,1,.323-1.185c.031-.091.062-.179.093-.265a3.655,3.655,0,0,0,2.656,1.618,5.311,5.311,0,0,0,3.6-.861,11.18,11.18,0,0,0,2.489-2.166,14.873,14.873,0,0,0,1.8-2.624,17.149,17.149,0,0,0,1.046-2.838,5.171,5.171,0,0,0-.444-3.976,4.385,4.385,0,0,0-2.727-2.241,5.942,5.942,0,0,0-3.01-.031,10.436,10.436,0,0,0-2.626,1.038,11.36,11.36,0,0,0-2.028,1.376,18.623,18.623,0,0,0-4.057,4.512,14.156,14.156,0,0,0-2.174,5.819,9.827,9.827,0,0,0,.131,3.579,6.022,6.022,0,0,0,2.214,3.508,6.9,6.9,0,0,0,3.376,1.361,11.214,11.214,0,0,0,1.3.089,9.484,9.484,0,0,0,1.958-.179,14.821,14.821,0,0,0,6.235-2.653,31.24,31.24,0,0,0,4.688-4.153l.079-.089a3.192,3.192,0,0,0,.826-2.538A1.417,1.417,0,0,0,1090.012,157.025Zm-11.716-.438a6.476,6.476,0,0,1,2.211-3.823q.461-.383.962-.761a4.943,4.943,0,0,1,2.23-.979c.342-.035.82-.139,1,.15a.762.762,0,0,1,.071.218,2.308,2.308,0,0,1-.331,1.854,15.708,15.708,0,0,1-1.87,2.649,7.636,7.636,0,0,1-.931.9,10.367,10.367,0,0,1-1.188.865,4.286,4.286,0,0,1-1.027.471c-.217.063-.636.14-.822-.013a1.583,1.583,0,0,1-.31-1.518Z" fill="#00a4e8"/>
          </g>
        </g>
        <g id="Сгруппировать_60" data-name="Сгруппировать 60">
          <path id="Контур_210" data-name="Контур 210" d="M1001.716,126.5l22.458-.3.049-.12a12.015,12.015,0,0,0,.584-1.866l.054-.24-23.892.322.06.238a11.955,11.955,0,0,0,.635,1.85Z" fill="#40bbf0"/>
          <path id="Контур_211" data-name="Контур 211" d="M1005.661,111.823l14.174-.191-.579-.351a12.345,12.345,0,0,0-13.026.176Z" fill="#40bbf0"/>
          <path id="Контур_212" data-name="Контур 212" d="M1000.713,122.68l.016.18,24.333-.329.012-.179a12.246,12.246,0,0,0-.026-1.858l-.016-.179-24.333.328-.011.18c-.02.307-.027.62-.023.929S1000.685,122.374,1000.713,122.68Z" fill="#40bbf0"/>
          <path id="Контур_213" data-name="Контур 213" d="M1021.524,113.049l-17.514.236-.057.061a12.15,12.15,0,0,0-1.455,1.877l-.19.3,20.978-.283-.2-.3a12.148,12.148,0,0,0-1.505-1.838Z" fill="#40bbf0"/>
          <path id="Контур_214" data-name="Контур 214" d="M1000.9,119.2l23.892-.323-.06-.238a11.925,11.925,0,0,0-.635-1.85l-.052-.118-22.458.3-.048.12a11.945,11.945,0,0,0-.585,1.866Z" fill="#40bbf0"/>
          <path id="Контур_215" data-name="Контур 215" d="M1020.1,131.352l-14.175.191.579.351a12.347,12.347,0,0,0,13.027-.176Z" fill="#40bbf0"/>
          <path id="Контур_216" data-name="Контур 216" d="M1004.237,130.126l17.514-.236.057-.061a12.156,12.156,0,0,0,1.456-1.878l.189-.3-20.978.283.2.3a12.145,12.145,0,0,0,1.506,1.838Z" fill="#40bbf0"/>
        </g>
        <g id="Сгруппировать_61" data-name="Сгруппировать 61">
          <path id="Контур_217" data-name="Контур 217" d="M974.5,178.678l15.838,13.246.107-.055a11.248,11.248,0,0,0,1.538-.966l.183-.137-16.849-14.092-.1.2a11.216,11.216,0,0,0-.679,1.685Z" fill="#8cd2f7"/>
          <path id="Контур_218" data-name="Контур 218" d="M986.149,170.689l10,8.36-.191-.594a11.24,11.24,0,0,0-9.186-7.683Z" fill="#8cd2f7"/>
          <path id="Контур_219" data-name="Контур 219" d="M976.12,175.38l-.1.137,17.159,14.352.117-.12a11.3,11.3,0,0,0,1.108-1.325l.1-.136-17.16-14.352-.117.119c-.2.206-.394.421-.579.642S976.287,175.148,976.12,175.38Z" fill="#8cd2f7"/>
          <path id="Контур_220" data-name="Контур 220" d="M996.463,181.061l-12.351-10.33-.076.008a11.278,11.278,0,0,0-2.153.452l-.315.1,14.794,12.374.042-.328a11.289,11.289,0,0,0,.064-2.2Z" fill="#8cd2f7"/>
          <path id="Контур_221" data-name="Контур 221" d="M978.36,173.039l16.848,14.092.1-.2a11.073,11.073,0,0,0,.679-1.685l.036-.115-15.837-13.246-.107.055a11.254,11.254,0,0,0-1.539.966Z" fill="#8cd2f7"/>
          <path id="Контур_222" data-name="Контур 222" d="M984.379,193.116l-10-8.36.191.594a11.237,11.237,0,0,0,9.186,7.683Z" fill="#8cd2f7"/>
          <path id="Контур_223" data-name="Контур 223" d="M974.064,182.744l12.351,10.33.077-.008a11.268,11.268,0,0,0,2.152-.452l.315-.1-14.794-12.374-.041.328a11.284,11.284,0,0,0-.065,2.2Z" fill="#8cd2f7"/>
        </g>
        <g id="Сгруппировать_62" data-name="Сгруппировать 62">
          <path id="Контур_224" data-name="Контур 224" d="M1080.537,128.384l10.6-10.89-.035-.082a8.3,8.3,0,0,0-.624-1.183l-.09-.141-11.278,11.586.144.086a8.241,8.241,0,0,0,1.2.592Z" fill="#8cd2f7"/>
          <path id="Контур_225" data-name="Контур 225" d="M1075.318,119.393l6.691-6.874-.447.108a8.272,8.272,0,0,0-6.149,6.317Z" fill="#8cd2f7"/>
          <path id="Контур_226" data-name="Контур 226" d="M1078.206,127.014l.095.079,11.486-11.8-.082-.092a8.472,8.472,0,0,0-.911-.887l-.095-.079-11.486,11.8.082.092c.139.159.287.314.439.461S1078.044,126.879,1078.206,127.014Z" fill="#8cd2f7"/>
          <path id="Контур_227" data-name="Контур 227" d="M1083.5,112.4l-8.267,8.493,0,.057a8.334,8.334,0,0,0,.212,1.605l.056.236,9.9-10.173-.238-.048a8.288,8.288,0,0,0-1.61-.17Z" fill="#8cd2f7"/>
          <path id="Контур_228" data-name="Контур 228" d="M1076.611,125.241l11.278-11.586-.144-.087a8.135,8.135,0,0,0-1.2-.591l-.082-.033-10.6,10.891.034.081a8.3,8.3,0,0,0,.624,1.183Z" fill="#8cd2f7"/>
          <path id="Контур_229" data-name="Контур 229" d="M1091.682,121.935l-6.691,6.874.447-.107a8.276,8.276,0,0,0,6.149-6.317Z" fill="#8cd2f7"/>
          <path id="Контур_230" data-name="Контур 230" d="M1083.5,128.931l8.267-8.493,0-.056a8.314,8.314,0,0,0-.212-1.605l-.055-.237-9.9,10.173.238.049a8.365,8.365,0,0,0,1.61.169Z" fill="#8cd2f7"/>
        </g>
        <g id="Сгруппировать_63" data-name="Сгруппировать 63">
          <path id="Контур_231" data-name="Контур 231" d="M1048.76,103.894l4.99-5.127-.016-.038a3.8,3.8,0,0,0-.294-.557l-.042-.066-5.309,5.453.068.041a3.844,3.844,0,0,0,.565.278Z" fill="#40bbf0"/>
          <path id="Контур_232" data-name="Контур 232" d="M1046.3,99.661l3.149-3.235-.21.05a3.9,3.9,0,0,0-2.894,2.974Z" fill="#40bbf0"/>
          <path id="Контур_233" data-name="Контур 233" d="M1047.663,103.249l.045.037,5.407-5.554-.039-.044a3.941,3.941,0,0,0-.429-.417l-.044-.037-5.407,5.554.039.043c.065.075.135.148.206.217S1047.587,103.185,1047.663,103.249Z" fill="#40bbf0"/>
          <path id="Контур_234" data-name="Контур 234" d="M1050.157,96.368l-3.892,4v.027a4,4,0,0,0,.1.755l.026.112,4.661-4.789-.112-.023a3.848,3.848,0,0,0-.758-.079Z" fill="#40bbf0"/>
          <path id="Контур_235" data-name="Контур 235" d="M1046.913,102.414l5.308-5.454-.068-.04a3.785,3.785,0,0,0-.564-.279l-.039-.015-4.99,5.126.017.039a3.888,3.888,0,0,0,.293.556Z" fill="#40bbf0"/>
          <path id="Контур_236" data-name="Контур 236" d="M1054.007,100.858l-3.15,3.236.211-.051a3.894,3.894,0,0,0,2.894-2.973Z" fill="#40bbf0"/>
          <path id="Контур_237" data-name="Контур 237" d="M1050.154,104.151l3.891-4v-.026a3.845,3.845,0,0,0-.1-.756l-.026-.111-4.661,4.788.112.023a3.941,3.941,0,0,0,.758.08Z" fill="#40bbf0"/>
        </g>
        <g id="Сгруппировать_64" data-name="Сгруппировать 64">
          <path id="Контур_238" data-name="Контур 238" d="M955.976,194.837l6.018-6.182-.02-.047a4.622,4.622,0,0,0-.354-.671l-.051-.08-6.4,6.576.082.049a4.677,4.677,0,0,0,.681.336Z" fill="#40bbf0"/>
          <path id="Контур_239" data-name="Контур 239" d="M953.014,189.733l3.8-3.9-.254.061a4.7,4.7,0,0,0-3.49,3.586Z" fill="#40bbf0"/>
          <path id="Контур_240" data-name="Контур 240" d="M954.653,194.059l.054.045,6.52-6.7-.046-.053a4.834,4.834,0,0,0-.518-.5l-.053-.045-6.52,6.7.046.052c.079.09.163.178.249.262S954.562,193.982,954.653,194.059Z" fill="#40bbf0"/>
          <path id="Контур_241" data-name="Контур 241" d="M957.66,185.762l-4.692,4.821v.032a4.741,4.741,0,0,0,.12.911l.032.134,5.62-5.774-.135-.028a4.666,4.666,0,0,0-.914-.1Z" fill="#40bbf0"/>
          <path id="Контур_242" data-name="Контур 242" d="M953.748,193.052l6.4-6.577-.082-.049a4.778,4.778,0,0,0-.681-.335l-.046-.019-6.018,6.182.02.046a4.627,4.627,0,0,0,.354.672Z" fill="#40bbf0"/>
          <path id="Контур_243" data-name="Контур 243" d="M962.3,191.176l-3.8,3.9.254-.061a4.7,4.7,0,0,0,3.49-3.586Z" fill="#40bbf0"/>
          <path id="Контур_244" data-name="Контур 244" d="M957.657,195.147l4.692-4.821v-.032a4.731,4.731,0,0,0-.12-.911l-.032-.134-5.621,5.774.136.028a4.741,4.741,0,0,0,.914.1Z" fill="#40bbf0"/>
        </g>
        <g id="Сгруппировать_65" data-name="Сгруппировать 65">
          <path id="Контур_245" data-name="Контур 245" d="M977.822,111.544l9.911,1.956.033-.049a5.5,5.5,0,0,0,.433-.776l.046-.1L977.7,110.492l0,.111a5.454,5.454,0,0,0,.1.883Z" fill="#8cd2f7"/>
          <path id="Контур_246" data-name="Контур 246" d="M980.939,105.376l6.255,1.235-.222-.21a5.5,5.5,0,0,0-5.748-1.135Z" fill="#8cd2f7"/>
          <path id="Контур_247" data-name="Контур 247" d="M977.74,109.749l-.01.081,10.739,2.12.022-.079a5.721,5.721,0,0,0,.164-.829l.009-.082-10.738-2.119-.022.078c-.038.135-.07.274-.1.412S977.757,109.609,977.74,109.749Z" fill="#8cd2f7"/>
          <path id="Контур_248" data-name="Контур 248" d="M987.8,107.4l-7.729-1.526-.031.022a5.57,5.57,0,0,0-.817.7l-.112.117,9.258,1.827-.059-.15a5.512,5.512,0,0,0-.49-.958Z" fill="#8cd2f7"/>
          <path id="Контур_249" data-name="Контур 249" d="M978.15,108.217l10.544,2.081,0-.111a5.572,5.572,0,0,0-.1-.883l-.012-.058-9.911-1.956-.033.049a5.5,5.5,0,0,0-.433.776Z" fill="#8cd2f7"/>
          <path id="Контур_250" data-name="Контур 250" d="M985.456,115.414l-6.255-1.235.222.21a5.5,5.5,0,0,0,5.748,1.135Z" fill="#8cd2f7"/>
          <path id="Контур_251" data-name="Контур 251" d="M978.591,113.391l7.729,1.526.031-.022a5.513,5.513,0,0,0,.817-.7l.112-.117-9.258-1.827.059.15a5.476,5.476,0,0,0,.49.958Z" fill="#8cd2f7"/>
        </g>
        <g id="Сгруппировать_66" data-name="Сгруппировать 66">
          <path id="Контур_252" data-name="Контур 252" d="M1025.826,197.295l7.541,1.489.025-.038a4.2,4.2,0,0,0,.329-.59l.035-.078-8.023-1.583,0,.085a4.086,4.086,0,0,0,.08.671Z" fill="#40bbf0"/>
          <path id="Контур_253" data-name="Контур 253" d="M1028.2,192.6l4.76.94-.169-.16a4.185,4.185,0,0,0-4.374-.864Z" fill="#40bbf0"/>
          <path id="Контур_254" data-name="Контур 254" d="M1025.763,195.929l-.007.062,8.171,1.613.017-.06a4.243,4.243,0,0,0,.124-.631l.007-.062-8.17-1.613-.017.06c-.029.1-.054.208-.074.313S1025.776,195.823,1025.763,195.929Z" fill="#40bbf0"/>
          <path id="Контур_255" data-name="Контур 255" d="M1033.421,194.141l-5.881-1.161-.024.017a4.159,4.159,0,0,0-.621.533l-.085.088,7.044,1.391-.045-.114a4.222,4.222,0,0,0-.373-.73Z" fill="#40bbf0"/>
          <path id="Контур_256" data-name="Контур 256" d="M1026.075,194.764l8.023,1.583,0-.084a4.336,4.336,0,0,0-.08-.672l-.009-.044-7.541-1.489-.025.038a4.158,4.158,0,0,0-.33.59Z" fill="#40bbf0"/>
          <path id="Контур_257" data-name="Контур 257" d="M1031.634,200.24l-4.759-.94.169.16a4.185,4.185,0,0,0,4.374.864Z" fill="#40bbf0"/>
          <path id="Контур_258" data-name="Контур 258" d="M1026.411,198.7l5.881,1.161.023-.017a4.216,4.216,0,0,0,.622-.533l.085-.088-7.044-1.391.045.114a4.218,4.218,0,0,0,.372.73Z" fill="#40bbf0"/>
        </g>
      </g>
    </g>
  </g>
</svg>
