<svg xmlns="http://www.w3.org/2000/svg" xmlns:xlink="http://www.w3.org/1999/xlink" width="280.63" height="139.64" viewBox="0 0 280.63 139.64">
  <defs>
    <clipPath id="clip-Монтажная_область_10">
      <rect width="280.63" height="139.64"/>
    </clipPath>
  </defs>
  <g id="Монтажная_область_10" data-name="Монтажная область – 10" clip-path="url(#clip-Монтажная_область_10)">
    <g id="Сгруппировать_164" data-name="Сгруппировать 164" transform="translate(-1172 -376)">
      <g id="Сгруппировать_98" data-name="Сгруппировать 98">
        <rect id="Прямоугольник_33" data-name="Прямоугольник 33" width="191.142" height="128.616" transform="translate(1217.053 380.063)" fill="#e1001e"/>
        <g id="Сгруппировать_97" data-name="Сгруппировать 97">
          <g id="Сгруппировать_94" data-name="Сгруппировать 94">
            <g id="Сгруппировать_92" data-name="Сгруппировать 92">
              <path id="Контур_404" data-name="Контур 404" d="M1227.668,508.675l-5.356,3.5-5.356-3.5,5.356-3.5Z" fill="#e1001e"/>
              <path id="Контур_405" data-name="Контур 405" d="M1238.289,508.676l-5.356,3.5-5.356-3.5,5.356-3.5Z" fill="#e1001e"/>
              <path id="Контур_406" data-name="Контур 406" d="M1248.91,508.676l-5.356,3.5-5.356-3.5,5.356-3.5Z" fill="#e1001e"/>
              <path id="Контур_407" data-name="Контур 407" d="M1259.53,508.676l-5.356,3.5-5.356-3.5,5.356-3.5Z" fill="#e1001e"/>
              <path id="Контур_408" data-name="Контур 408" d="M1270.151,508.677l-5.356,3.5-5.356-3.5,5.356-3.5Z" fill="#e1001e"/>
              <path id="Контур_409" data-name="Контур 409" d="M1280.771,508.677l-5.356,3.5-5.356-3.5,5.356-3.5Z" fill="#e1001e"/>
              <path id="Контур_410" data-name="Контур 410" d="M1291.392,508.677l-5.356,3.5-5.356-3.5,5.356-3.5Z" fill="#e1001e"/>
              <path id="Контур_411" data-name="Контур 411" d="M1302.013,508.678l-5.356,3.5-5.356-3.5,5.356-3.5Z" fill="#e1001e"/>
            </g>
            <g id="Сгруппировать_93" data-name="Сгруппировать 93">
              <path id="Контур_412" data-name="Контур 412" d="M1301.809,508.678l-5.356,3.5-5.356-3.5,5.356-3.5Z" fill="#e1001e"/>
              <path id="Контур_413" data-name="Контур 413" d="M1312.43,508.678l-5.356,3.5-5.356-3.5,5.356-3.5Z" fill="#e1001e"/>
              <path id="Контур_414" data-name="Контур 414" d="M1323.05,508.678l-5.356,3.5-5.356-3.5,5.356-3.5Z" fill="#e1001e"/>
              <path id="Контур_415" data-name="Контур 415" d="M1333.671,508.679l-5.356,3.5-5.356-3.5,5.356-3.5Z" fill="#e1001e"/>
              <path id="Контур_416" data-name="Контур 416" d="M1344.291,508.679l-5.356,3.5-5.356-3.5,5.356-3.5Z" fill="#e1001e"/>
              <path id="Контур_417" data-name="Контур 417" d="M1354.912,508.68l-5.356,3.5-5.356-3.5,5.356-3.5Z" fill="#e1001e"/>
              <path id="Контур_418" data-name="Контур 418" d="M1365.533,508.68l-5.356,3.5-5.356-3.5,5.356-3.5Z" fill="#e1001e"/>
              <path id="Контур_419" data-name="Контур 419" d="M1376.153,508.68l-5.356,3.5-5.356-3.5,5.356-3.5Z" fill="#e1001e"/>
            </g>
          </g>
          <g id="Сгруппировать_96" data-name="Сгруппировать 96">
            <g id="Сгруппировать_95" data-name="Сгруппировать 95">
              <path id="Контур_420" data-name="Контур 420" d="M1376.141,508.68l-5.356,3.5-5.356-3.5,5.356-3.5Z" fill="#e1001e"/>
              <path id="Контур_421" data-name="Контур 421" d="M1386.762,508.681l-5.356,3.5-5.356-3.5,5.356-3.5Z" fill="#e1001e"/>
              <path id="Контур_422" data-name="Контур 422" d="M1397.382,508.681l-5.356,3.5-5.356-3.5,5.356-3.5Z" fill="#e1001e"/>
              <path id="Контур_423" data-name="Контур 423" d="M1408.095,508.681l-5.356,3.5-5.356-3.5,5.356-3.5Z" fill="#e1001e"/>
            </g>
          </g>
        </g>
      </g>
      <g id="Сгруппировать_99" data-name="Сгруппировать 99">
        <path id="Контур_424" data-name="Контур 424" d="M1239.309,441.112c0-1.089.142-1.183,1.515-1.515,1.28-.237,1.563-.9,1.563-3.931V415.347a8.423,8.423,0,0,0-.19-2.653,1.408,1.408,0,0,0-1.278-1.23c-.331-.1-.521-.1-.616-.19a1.357,1.357,0,0,1-.9-1.326c0-.947.617-1.422,1.943-1.422l11.556.048c12.125.048,21.929,8.715,21.929,19.372a13.56,13.56,0,0,1-6.015,11.7c-2.984,2.084-6.537,2.937-11.652,2.937H1241.25C1239.924,442.581,1239.309,442.059,1239.309,441.112Zm13.072-26.144v19.988c0,2.036.142,2.7.9,3.173a3.5,3.5,0,0,0,2.084.52c5.636,0,9.188-4.357,9.188-11.177,0-8.147-4.594-14.825-10.231-14.825C1252.854,412.647,1252.381,413.263,1252.381,414.968Z" fill="#fff"/>
        <path id="Контур_425" data-name="Контур 425" d="M1286.109,425.063c0,.127.042.212.084.212.085,0,.254-.212.551-.72a6.034,6.034,0,0,1,5.2-3.3c1.481,0,2.708.507,2.708,1.1a4.649,4.649,0,0,1-.423,1.228,15.08,15.08,0,0,0-.761,2.115c-.466,1.4-.72,2.158-.762,2.369-.169.932-.381,1.186-1.058,1.186-.55,0-.677-.085-.888-.847a2.057,2.057,0,0,0-2.032-1.734c-1.607,0-2.623,1.438-2.623,3.6v6.855a5.668,5.668,0,0,0,.211,2.115,2.284,2.284,0,0,0,1.736,1.058c.8.212,1.142.551,1.142,1.184a1.118,1.118,0,0,1-1.269,1.1h-11.636a1.083,1.083,0,0,1-1.228-1.1c0-.633.254-.93,1.1-1.141a2.386,2.386,0,0,0,1.607-1.1,4.708,4.708,0,0,0,.212-2.115v-8.251a1.968,1.968,0,0,0-1.312-2.116,2.673,2.673,0,0,0-.465-.127,1.12,1.12,0,0,1-.635-1.058.935.935,0,0,1,.635-.973l8.886-3.215a.627.627,0,0,1,.381-.085c.38,0,.507.169.634.634Z" fill="#fff"/>
        <path id="Контур_426" data-name="Контур 426" d="M1303.03,434.5a2.409,2.409,0,0,0,.424,1.1,6.512,6.512,0,0,0,5.881,3.724,8.467,8.467,0,0,0,5.755-2.454,1.506,1.506,0,0,1,1.015-.551,1,1,0,0,1,1.016,1.016,2.129,2.129,0,0,1-.424,1.058c-2.03,3.088-5.924,4.824-10.578,4.824-7.15,0-12.143-4.359-12.143-10.663a11.34,11.34,0,0,1,11.678-11.34,10.437,10.437,0,0,1,8.8,4.231,15.974,15.974,0,0,1,1.4,2.369,4.45,4.45,0,0,1,.507,1.44.538.538,0,0,1-.423.508l-12.4,4.315C1303.157,434.2,1303.03,434.288,1303.03,434.5Zm-.211-3.216,5.5-1.9c.339-.17.466-.3.466-.424a4.8,4.8,0,0,0-.423-1.4,7.177,7.177,0,0,0-.93-1.777,4.053,4.053,0,0,0-2.835-1.565c-1.778,0-3.047,1.649-3.047,4.061a7.3,7.3,0,0,0,.466,2.666c.084.338.254.423.38.423A3.467,3.467,0,0,0,1302.819,431.283Z" fill="#fff"/>
        <path id="Контур_427" data-name="Контур 427" d="M1330.191,428.11c-.55-2.243-1.735-3.258-3.6-3.258a5.075,5.075,0,0,0-3.639,1.439l-.635.677a1.762,1.762,0,0,1-1.1.507,1.05,1.05,0,0,1-1.1-1.015,4.131,4.131,0,0,1,1.9-2.623,11.013,11.013,0,0,1,7.49-2.539c4.528,0,7.363,1.946,8.421,5.839l2.369,8.589c.592,2.243,1.4,3.427,2.285,3.427a1.124,1.124,0,0,0,.931-.465.659.659,0,0,0,.126-.254.319.319,0,0,1,.212-.042c.381,0,.55.253.55.888,0,2.243-2.327,3.851-5.543,3.851a6.023,6.023,0,0,1-4.4-1.566l-.423-.423a.3.3,0,0,0-.254-.127.7.7,0,0,0-.212.085c-.085.042-.254.211-.593.423a11.976,11.976,0,0,1-6.177,1.651c-5.119,0-8.8-2.835-8.8-6.771,0-4.019,3.682-6.642,9.435-6.642a8.584,8.584,0,0,1,3.3.549Zm1.312,4.908a4.2,4.2,0,0,0-2.327-.676,3.436,3.436,0,0,0-3.47,3.6,3.806,3.806,0,0,0,3.851,3.936c1.734,0,3-.931,3-2.2a3.507,3.507,0,0,0-.127-.931Z" fill="#fff"/>
        <path id="Контур_428" data-name="Контур 428" d="M1354.754,425.7c0,.127.127.3.211.3s.17-.127.254-.211l1.057-1.311a7.326,7.326,0,0,1,5.924-2.878c2.2,0,4.317,1.1,4.824,2.539q.444,1.2.508,1.4a.228.228,0,0,0,.169.127c.085,0,.169-.085.254-.212l1.016-1.4a5.737,5.737,0,0,1,5.077-2.5c3.3,0,5.67,1.946,6.473,5.416l2.329,10.155a13.946,13.946,0,0,0,.676,2.115,2.541,2.541,0,0,0,1.566,1.058c.93.254,1.1.508,1.1,1.184a1.081,1.081,0,0,1-1.226,1.1h-11a1.107,1.107,0,0,1-.593-2.115l.466-.17a1.217,1.217,0,0,0,.973-1.227,8.621,8.621,0,0,0-.3-1.946l-1.482-7.193c-.381-1.693-1.226-2.582-2.538-2.582-1.438,0-2.454,1.227-2.454,3.173v6.6c0,.635.042,1.1.042,1.4a2.339,2.339,0,0,0,.127.72,1.888,1.888,0,0,0,1.438,1.058c.847.254,1.1.508,1.1,1.184a1.118,1.118,0,0,1-1.269,1.1h-10.071c-.8,0-1.269-.423-1.269-1.1a1.1,1.1,0,0,1,.718-1.014l.381-.127a1.717,1.717,0,0,0,1.059-1.1,10.788,10.788,0,0,0,.084-2.115v-7.109c0-1.65-.931-2.792-2.369-2.792-1.651,0-3.216,1.819-3.216,3.765v6.136a8.275,8.275,0,0,0,.169,2.115,1.78,1.78,0,0,0,1.1,1.1l.423.127a1.1,1.1,0,0,1,.72,1.014,1.119,1.119,0,0,1-1.27,1.1H1345.4c-.8,0-1.226-.423-1.226-1.1,0-.718.084-.8,1.141-1.141a2,2,0,0,0,1.228-1.1,7.75,7.75,0,0,0,.127-2.158v-8.208a1.94,1.94,0,0,0-1.27-2.116,4.545,4.545,0,0,0-.465-.127,1.158,1.158,0,0,1-.677-1.058.985.985,0,0,1,.635-.973l8.885-3.215a.627.627,0,0,1,.381-.085c.381,0,.508.169.593.634Z" fill="#fff"/>
        <path id="Контур_429" data-name="Контур 429" d="M1256.417,467.346a6.094,6.094,0,0,0,.508-1.947,1.267,1.267,0,0,0-.889-1.226l-.423-.17a1,1,0,0,1-.718-.973,1.161,1.161,0,0,1,1.311-1.142l9.14.084c.761,0,1.226.38,1.226,1.058a1.045,1.045,0,0,1-.635.973l-.464.17a1.027,1.027,0,0,0-.762,1.014c0,.381.084.551.719,2.159l2.539,6.558a.4.4,0,0,0,.339.254.464.464,0,0,0,.422-.254l2.624-6.516.549-1.4a1.434,1.434,0,0,0,.212-.8,1.067,1.067,0,0,0-.8-1.014l-.423-.127a1.079,1.079,0,0,1-.678-1.016c0-.678.466-1.058,1.269-1.058h7.575c.845,0,1.269.38,1.269,1.058s-.212.889-1.142,1.143c-1.355.423-1.82.93-2.877,3.215l-6.686,14.6c-.212.508-.3.55-.762.55h-4.908c-.593,0-.762-.127-.973-.635l-3.6-8.251c-.084-.169-.211-.3-.3-.3s-.212.127-.3.3l-3.343,8.209c-.212.592-.3.677-.761.677l-5.162-.042c-.55,0-.635-.043-.889-.508l-6.3-14.6a9.367,9.367,0,0,0-1.057-2.116,2.933,2.933,0,0,0-1.439-1.1c-1.058-.3-1.143-.381-1.143-1.186,0-.635.466-1.015,1.27-1.015l10.832-.084a1.148,1.148,0,0,1,1.27,1.142.967.967,0,0,1-.678.973l-.465.17a.993.993,0,0,0-.593.93,6.532,6.532,0,0,0,.677,2.243l2.624,6.6a.321.321,0,0,0,.338.254.4.4,0,0,0,.381-.254l1.311-4.273Z" fill="#fff"/>
        <path id="Контур_430" data-name="Контур 430" d="M1290.9,468.065c-.55-2.243-1.735-3.258-3.6-3.258a5.075,5.075,0,0,0-3.639,1.439l-.635.677a1.757,1.757,0,0,1-1.1.507,1.05,1.05,0,0,1-1.1-1.015,4.131,4.131,0,0,1,1.9-2.623,11.013,11.013,0,0,1,7.49-2.539c4.528,0,7.363,1.946,8.421,5.839l2.369,8.589c.593,2.243,1.4,3.427,2.285,3.427a1.124,1.124,0,0,0,.931-.465.651.651,0,0,0,.127-.254.317.317,0,0,1,.211-.042c.381,0,.55.253.55.888,0,2.243-2.327,3.851-5.543,3.851a6.024,6.024,0,0,1-4.4-1.566l-.423-.423a.3.3,0,0,0-.254-.126.715.715,0,0,0-.212.084c-.085.042-.254.211-.593.423a11.976,11.976,0,0,1-6.177,1.651c-5.119,0-8.8-2.835-8.8-6.771,0-4.019,3.682-6.642,9.436-6.642a8.582,8.582,0,0,1,3.3.549Zm1.312,4.908a4.2,4.2,0,0,0-2.327-.676,3.436,3.436,0,0,0-3.47,3.6,3.806,3.806,0,0,0,3.851,3.936c1.734,0,3-.931,3-2.2a3.512,3.512,0,0,0-.127-.931Z" fill="#fff"/>
        <path id="Контур_431" data-name="Контур 431" d="M1307.52,466.2c0-.592-.085-.719-.593-.719H1305.4c-.591,0-.676,0-.761-.508l-.508-2.37v-.211c0-.339.17-.423.551-.423h2.115c.339,0,.508-.169.508-.38,0-.17-.127-.381-.466-.635a5.654,5.654,0,0,1-2.327-4.274c0-3.173,3.342-5.163,8.8-5.163,5.373,0,8.589,1.609,8.589,4.317a2.958,2.958,0,0,1-3.089,3,4.371,4.371,0,0,1-1.269-.169c-.508-.254-.889-.55-.889-.847a.371.371,0,0,1,.127-.254l.3-.211a.882.882,0,0,0,.381-.8c0-1.227-1.312-2.158-3.005-2.158a2.342,2.342,0,0,0-2.623,2.242,2.463,2.463,0,0,0,.381,1.4,9.64,9.64,0,0,0,2.2,2.115c1.1.8,1.185.889,1.185,1.736h3.469c.423,0,.55.126.55.3a.83.83,0,0,1-.042.3l-.677,2.455c-.127.253-.169.423-.212.465a1.211,1.211,0,0,1-.507.085h-1.9c-.55,0-.634.127-.634.762v10.832a5.555,5.555,0,0,0,.21,2.115,2.49,2.49,0,0,0,1.736,1.1c.846.169,1.1.508,1.1,1.184,0,.635-.464,1.058-1.226,1.058h-11.552c-.8,0-1.311-.423-1.311-1.1,0-.633.3-.93,1.142-1.141a2.2,2.2,0,0,0,1.566-1.1,5.1,5.1,0,0,0,.212-2.115V466.2Z" fill="#fff"/>
        <path id="Контур_432" data-name="Контур 432" d="M1329.011,474.454a2.414,2.414,0,0,0,.424,1.1,6.51,6.51,0,0,0,5.88,3.723,8.466,8.466,0,0,0,5.755-2.454,1.506,1.506,0,0,1,1.016-.551,1,1,0,0,1,1.016,1.016,2.129,2.129,0,0,1-.424,1.058c-2.031,3.088-5.924,4.824-10.578,4.824-7.151,0-12.144-4.359-12.144-10.663a11.34,11.34,0,0,1,11.679-11.34,10.44,10.44,0,0,1,8.8,4.231,16.057,16.057,0,0,1,1.4,2.369,4.433,4.433,0,0,1,.508,1.44.537.537,0,0,1-.424.508l-12.4,4.315C1329.138,474.158,1329.011,474.243,1329.011,474.454Zm-.211-3.216,5.5-1.9c.339-.17.466-.3.466-.424a4.794,4.794,0,0,0-.423-1.4,7.147,7.147,0,0,0-.931-1.777,4.05,4.05,0,0,0-2.835-1.565c-1.777,0-3.047,1.649-3.047,4.061A7.3,7.3,0,0,0,1328,470.9c.084.338.254.423.381.423A3.465,3.465,0,0,0,1328.8,471.238Z" fill="#fff"/>
        <path id="Контур_433" data-name="Контур 433" d="M1354.226,465.018c0,.127.042.212.084.212.085,0,.253-.212.55-.719a6.033,6.033,0,0,1,5.2-3.3c1.481,0,2.708.508,2.708,1.1a4.665,4.665,0,0,1-.422,1.228,14.968,14.968,0,0,0-.762,2.115c-.466,1.4-.72,2.158-.762,2.369-.169.932-.381,1.186-1.057,1.186-.551,0-.678-.085-.889-.847a2.058,2.058,0,0,0-2.031-1.734c-1.608,0-2.623,1.438-2.623,3.6v6.855a5.664,5.664,0,0,0,.211,2.115,2.28,2.28,0,0,0,1.735,1.058c.8.212,1.142.551,1.142,1.184a1.118,1.118,0,0,1-1.269,1.1h-11.636a1.082,1.082,0,0,1-1.227-1.1c0-.633.254-.93,1.1-1.141a2.391,2.391,0,0,0,1.608-1.1,4.709,4.709,0,0,0,.212-2.115v-8.251a1.968,1.968,0,0,0-1.313-2.116,2.7,2.7,0,0,0-.465-.127,1.12,1.12,0,0,1-.635-1.058.933.933,0,0,1,.635-.972l8.886-3.216a.627.627,0,0,1,.381-.085c.381,0,.508.169.635.635Z" fill="#fff"/>
        <path id="Контур_434" data-name="Контур 434" d="M1379.1,469.208a20.542,20.542,0,0,1,4.569,2.073,5.657,5.657,0,0,1,2.793,4.95c0,3.936-3.724,6.855-8.759,6.855a31.542,31.542,0,0,1-6.474-.889,5.908,5.908,0,0,0-1.058-.169c-.465,0-.8.3-1.142.931-.381.635-.508.762-1.015.762-.593,0-.72-.084-1.228-.846l-3.724-6.136a2.161,2.161,0,0,1-.337-1.1.958.958,0,0,1,.93-1.015c.465,0,.846.254,1.524,1.057a15.7,15.7,0,0,0,1.734,1.524,15.859,15.859,0,0,0,2.073,1.4,12.116,12.116,0,0,0,5.882,1.736c1.819,0,3-.847,3-2.158,0-1.27-.931-1.989-3.977-3.089l-2.962-1.058a25.405,25.405,0,0,1-4.57-2.073c-2.116-1.185-3.216-2.835-3.216-4.739,0-3.427,3.512-5.881,8.42-5.881a20.837,20.837,0,0,1,5.332.8,3.227,3.227,0,0,0,.719.127c.55,0,.889-.254,1.185-1.015.3-.72.55-.931,1.1-.931s.846.211,1.312.973l3.174,5.332a2.332,2.332,0,0,1,.422.93.833.833,0,0,1-.888.846,1.87,1.87,0,0,1-1.27-.677,14.31,14.31,0,0,0-8.632-3.6c-1.523,0-2.581.719-2.581,1.692,0,.889.508,1.27,2.624,1.9l2.665.8Z" fill="#fff"/>
      </g>
    </g>
  </g>
</svg>
