<svg xmlns="http://www.w3.org/2000/svg" xmlns:xlink="http://www.w3.org/1999/xlink" width="140.63" height="246.64" viewBox="0 0 140.63 246.64">
  <defs>
    <clipPath id="clip-Монтажная_область_9">
      <rect width="140.63" height="246.64"/>
    </clipPath>
  </defs>
  <g id="Монтажная_область_9" data-name="Монтажная область – 9" clip-path="url(#clip-Монтажная_область_9)">
    <g id="Сгруппировать_162" data-name="Сгруппировать 162" transform="translate(-1529 -40)">
      <path id="Контур_180" data-name="Контур 180" d="M1605.9,63.143v73.5l.382,3.551q6.388,13.035,17.035,13.047h15.351a22.851,22.851,0,0,0,3.082-.277c9.789-3.4,14.715-9.4,14.715-18.009v-9.169h.191v-.2l-.191-.353V102.562h.191v-.957h-.191V64.856a17.426,17.426,0,0,0-1.4-7.254c-4.545-7.355-10.011-11.058-16.4-11.058h-17.417Q1605.9,51.947,1605.9,63.143Zm7.437-7.657v-.831a.486.486,0,0,1,.477-.5v1.335Zm-3.241,4.483v-.226h.445v.226Zm1.589,0V58.936c.6,0,.921-.151.921-.428v-.226l-.476-.806v-.227a1.9,1.9,0,0,1,.762.227l.445-.227h.191v.5h-.445l.254,1.183v.3c-.6.982-1.017,1.486-1.207,1.486h-.191l.191-.454v-.3ZM1624.045,61h-.636a.482.482,0,0,1,.445-.5h.191Zm.953-.5h.731l-.286.5C1625.189,61,1625.03,60.826,1625,60.5Zm-5.784.227.191.5a1.613,1.613,0,0,0-.668.3h-.286l.477-.806V60.5l-.191-1.259h.954A3.012,3.012,0,0,1,1619.214,60.725Zm-4.291-1.26v-.529h.477Q1615.4,59.466,1614.923,59.465Zm9.407.5c0-.478-.158-.73-.476-.73v-.3h.191l.476.3v.73Zm-7.245-.73h-.287c-.254,0-.412-.176-.476-.529h.286Q1617.085,58.71,1617.085,59.239Zm.731-.731v.428h-.572C1617.244,58.685,1617.434,58.558,1617.816,58.508Zm2.8.428h-.477c-.8,0-1.271-.226-1.4-.654v-.529h1.113a.671.671,0,0,0,.763.755Zm2.32-.428h.476c0,.277-.159.428-.476.428Zm-5.848,0h-.287v-.529h.287Zm-7.469,1.763h.477q0,.455-.477.454Zm.667.958v-.5h.255v.5Zm4.164-.5V60.5h.762v.227l-.286.5C1614.669,61.229,1614.51,61.052,1614.447,60.725Zm-.922,1.536v-.226H1614v.755Q1613.621,62.79,1613.525,62.261Zm2.32.806-.158-1.309v-.227a1.781,1.781,0,0,0,1.111-.3c0,.352.159.529.446.529V61a.482.482,0,0,0-.446-.5h-1.111v-.529a1.8,1.8,0,0,0,.921-.226,2.414,2.414,0,0,1,1.208,2.015,1.312,1.312,0,0,0-.731.277c-.572.831-.986,1.259-1.24,1.259h-.158C1615.687,63.143,1615.718,63.067,1615.845,63.067Zm-3.432,1.713-.477.2h-.254c.159-.983.413-1.461.731-1.461h.19a2.512,2.512,0,0,1-.19.73c0,.5.54.731,1.589.731l-.191,1.335c0,.5.318.73.922.73v.3l-1.208.226h-.191l.191-1.259v-.505C1612.8,65.812,1612.413,65.46,1612.413,64.78Zm.667-1.259h.445v.73h-.445Zm1.843.73c.254,0,.573.529.922,1.561a2.24,2.24,0,0,0-.636.2,2.159,2.159,0,0,0-.476-1.033v-.2Zm-2.8,9.067q0,.756.476.756l-.476.806c-.414-.3-.636-.554-.636-.806v-.528a1.529,1.529,0,0,0,.445-.958h.477A1.371,1.371,0,0,1,1612.127,73.318Zm5.4-.2c.318,0,.478.151.478.429h-.478Zm-4-.756h.763q0,.529-.477.529h-.286Zm-2.51,0v-.5h.667c0,.352-.159.5-.477.5Zm-.287,2.746v-.529h.477v.529Zm4.672-3.023.445-.226h.286a2.69,2.69,0,0,0,.191,1.032c-.127,0-.19.076-.19.227C1615.877,73.117,1615.654,72.765,1615.4,72.084Zm-2.511.277h-.286v-.73c0-.529.159-.805.477-.805Zm-.953-1.032h-.921v-.2h.921Zm1.4-1.763v-.3h.477v.3Zm-2.129-.5v-.529h.477v.529Zm1.208-.529h-.477a1.888,1.888,0,0,0,.191-.655h.286Zm.19-1.99v-.528h.477v.528Zm-.476,8.564h.476v.278h-.476Zm-.636.731c0-.252.159-.4.445-.453v.453Zm1.4,0v-.453h.444v.453Zm-3.56,2.065-.445-.227a.482.482,0,0,1,.445-.5h.286a1.938,1.938,0,0,0,.191.731Zm1.875.227c.445-1.184.731-1.763.922-1.763-.127,1.183-.35,1.763-.636,1.763Zm2.606.226a1.718,1.718,0,0,0-.921-.453v-.5a1.961,1.961,0,0,1,.921.277l1.113-.5c0-.2-.064-.3-.191-.3l.191-.5V76.14c0-.352-.477-.705-1.4-1.033a.494.494,0,0,1,.477-.529l-.477-.73v-.53c1.43.756,2.162,1.336,2.162,1.789-.318,0-.478.4-.478,1.26l.192.5c-.192.983-.414,1.486-.668,1.486Zm4.482-3.979h.444v.2h-.444Zm1.112,1.99-.191-1.487h.477c0,.63.286.958.922.958v.3c-.318,0-.8.328-1.4,1.032A2.362,2.362,0,0,1,1619.405,76.367Zm-1.4,1.309h-.478V76.87h.478Zm-1.209-1.838a1.827,1.827,0,0,0-.953-.227.486.486,0,0,1,.477-.5c.318,0,.476.177.476.5Zm4.005,2.8v-.278h.445v.278Zm-10.075.529v-.3h.477v.3Zm6.8-.3a5.414,5.414,0,0,1-.285,1.789h-.159a2.044,2.044,0,0,0-.287-1.033c-.254,0-.412.151-.476.5-.6-.4-.921-.706-.921-.957v-.3c.19,0,.286.1.286.3C1615.782,79.163,1616.417,79.062,1617.529,78.86Zm3.084.529a6.584,6.584,0,0,0-.287,1.763h-.19a2.108,2.108,0,0,0-.286-1.032C1620.1,79.616,1620.359,79.389,1620.613,79.389Zm-8.01-.226a1.746,1.746,0,0,0,.287.73h-.477v-.73Zm-2.987.226h.667l-.19.5C1609.775,79.893,1609.616,79.716,1609.616,79.389Zm2.066,1.537a2.7,2.7,0,0,0-.667-1.537h.476c.286.1.6.5.922,1.26v.277Zm5.4.226a9.618,9.618,0,0,0-.477,2.519h-.286c-.19,0-.413-.328-.636-.957a5.646,5.646,0,0,0,.922-1.788Zm-3.751,4.786h-.254V84.175a.448.448,0,0,1,.445-.5h.286A7.415,7.415,0,0,0,1613.334,85.938Zm1.59-2.065V84.4l-.191.5c-.318,0-.445-.152-.445-.5v-.227A1.554,1.554,0,0,0,1614.924,83.873Zm-3.432,2.065v.3h-.287a1.764,1.764,0,0,0-.477-1.033v-.3C1610.983,84.906,1611.237,85.258,1611.492,85.938Zm-.477,0v.831h-.287v-.831Zm4.671.3.446-1.033v-.3l-.446.3v-.5h.636a2.1,2.1,0,0,0,.922.5v.227c-.413,0-.636.277-.636.806Zm3.242-2.065c-.317,0-.477.352-.477,1.032-.222,0-.381-.176-.444-.5v-.3a1.642,1.642,0,0,0,.444-.958h.477c0,.63.254.958.763.958l.445-.958c-.445-.352-.731-.528-.922-.528v-.429l.477.227c.413,0,.635-.428.635-1.26h.477a2.249,2.249,0,0,0,.445,1.033v.227c-.6,0-.922.554-.922,1.688.191,0,.287.1.287.3-.636.226-.922.478-.922.73C1619.182,85.434,1618.928,85.006,1618.928,84.175Zm-4.481-1.688H1614v-.3h.445Zm-2.32-1.335h.476v.3c0,.328-.159.5-.476.5Zm1.207.806v-.277h.477v.277Zm-4.64.756v-.529h.636c0,.352-.159.529-.445.529Zm2.988,0,.445.2h.763v-.429h.635c.509.252.763.454.763.655v.3c-.191,0-.286-.1-.286-.3l-2.066.3v1.462l-.445-.2c0-.2.064-.3.191-.3l-.191-1.26Zm-1.144,1.99h-.731v-.3a1.68,1.68,0,0,0,.731-.227Zm-1.653,1.234a3.309,3.309,0,0,0,.445-1.536h.286c0,.528.159.805.477.805V86.24Zm1.653,1.562c0-.353-.128-.5-.445-.5v-.227h.19c.477.227.732.479.732.731Zm6.547.226-.287-.453c0-.529.159-.806.446-.806h.285c0,1.234-.254,1.889-.731,1.99A1.452,1.452,0,0,1,1617.085,87.726Zm2.129,3.753h.191c.286,0,.445.176.445.53h-.159Q1619.214,92.009,1619.214,91.479Zm-8.009,1.26v-.453h.731v.453Zm2.8.226v-.226c0-.5.159-.73.445-.73l-.159.956Zm6.8,1.31V94h.445v.277Zm-10.71,1.486v-.5h.19v.5Zm3.909.3v-.3h.445v.3Zm6.134,0v-.529h.19v.529Zm-11,.73v-.5h.19v.5Zm2.352,0h-.287v-.5h.287Zm2.033-.227H1614V97.1h-.477Zm-2.987.227v.731h-.255a2.715,2.715,0,0,0-.19-.731Zm3.75.3h.636v.429h-.191C1614.415,97.525,1614.288,97.4,1614.288,97.1Zm-5.594.655c.127,0,.191-.076.191-.226a1.958,1.958,0,0,0,1.208.756v.5C1609.267,98.784,1608.821,98.457,1608.694,97.751Zm2.8,0h.444v.3c0,.352-.159.5-.444.5Zm8.358.806h.286q.285,0,.667.982l-.667.5-.286-1.259Zm-10.965,2.519v-1.033a.516.516,0,0,1,.445-.5h.286l-.286.5v.806l.286.53c-.19,0-.286.075-.286.226C1609.108,101.605,1608.949,101.429,1608.885,101.076Zm2.607-.73h.444v.73h-.444Zm-.954,1.259v-.529c.317,0,.477.177.477.529Zm2.065-.529h.287v.529h-.287Zm-.921.806v-.277h.445v.277Zm3.528.227v-.5a.494.494,0,0,1,.476-.529v1.033Zm-2.607.957v-.731h.287v.731Zm6.8.226v-.453h.286v.453Zm-8.867,1.033V104.1h.667v.227Zm10.075-.227v-.5a1.614,1.614,0,0,0,.635.2,2.652,2.652,0,0,0-.191.831C1620.771,104.627,1620.613,104.451,1620.613,104.1Zm-10.806.731h.476c0,.352-.158.529-.476.529Zm9.407.529h.191v.529h-.668A.493.493,0,0,1,1619.214,105.358Zm-1.207,2.519a1.627,1.627,0,0,0-.922-.529V105.66c.286,0,.444.177.444.5l.478-.277v.277l-.478.731q0,.453.764.453v.529Zm2.319.5v-.5h.287v.5Zm-5.879,3.324a1.684,1.684,0,0,0-.445-1.032v-.227c.254,0,.477.328.731.957v.3Zm-3.432,1.688h.477v.529C1611.173,113.922,1611.015,113.746,1611.015,113.393Zm3.909,1.033v-.2h.762v.2Zm-5.308,1.259c0-.3.159-.453.477-.5v.5Zm3.909,0q.477,0,.477.529v.5l-.477.73q.383.756.763.756a1.738,1.738,0,0,0-.286.73,1.8,1.8,0,0,0-.922-.226c0-1.462.223-2.217.731-2.217l-.286-.5Zm2.161,0h.446c0,.353-.159.529-.446.529Zm-6.356,1.259v-.73c.318,0,.477.151.477.5v.226Zm1.875.227v-.227c0-.251.16-.4.477-.453h.254v.227a.4.4,0,0,1-.444.453Zm.287,1.537a2.441,2.441,0,0,0,.635-1.26l.476.227c0,.831-.222,1.36-.667,1.561C1611.65,119.236,1611.492,119.06,1611.492,118.708Zm3.432,1.562v-.3h.477v.3Zm-3.909,1.259v-.756a1.8,1.8,0,0,0,.921.227v.3a1.806,1.806,0,0,0-.731.227Zm3.718,0,.191-.529a1.567,1.567,0,0,0,.762.3c0,.277-.159.429-.477.429Zm-5.593,3.526v-.806a3.228,3.228,0,0,1,1.588,1.335h.287c0-.554.158-.806.477-.806h.635v.277c-.064.4-.572.806-1.589,1.259C1609.616,125.685,1609.14,125.256,1609.14,125.055Zm2.8,1.033c.191-.529.413-.806.667-.806,0-.152-.063-.227-.19-.227l.19-.5v-.528l-.476-.807v-.227a2.874,2.874,0,0,1,2.161,1.034h.159l.477-.3-.191,1.864a1.343,1.343,0,0,1-.922-1.033l-.731.5c-.127,1.133-.508,1.712-1.144,1.712Zm1.875-3.4h.636v.3h-.636Zm.922,3.854c0,.3-.159.429-.445.429h-.477v-.429a1.541,1.541,0,0,0,.922-.453Zm.476-.453h.636v.679h-.444A1.963,1.963,0,0,0,1615.209,126.088Zm-4.481,1.41v-.226h.477v.226Zm.954-.226a5.381,5.381,0,0,0,1.652-.3v.3c-.222,0-.54.251-.921.73C1611.9,127.775,1611.682,127.523,1611.682,127.272Zm-.667,1.032.667.529V128.3h.445v.529h-.445v.2l.254.529h-.731l-.477-.227Zm1.875.226h.19c0,.529.286.807.922.807v.529l-1.112-.3h-.763v-.227C1612.381,128.808,1612.635,128.53,1612.89,128.53Zm-4.2,1.764c0-.252.159-.377.446-.428v.428Zm1.844.529v-1.259h.19v1.259Zm.19.73V131.1h.477v.453Zm4.005,3.325h.476v.5h-.476Zm-1.208.5v.227h-.635v-.227Zm-4.385.227h.476c0,.352-.159.529-.476.529Zm5.593.3c.127,0,.191.076.191.227.253,0,.667-.781,1.208-2.292v-.227c-1.431-.353-2.13-.68-2.13-1.033v-1.259h-.668l.191-.5.477.277h.286c0-.68.286-1.032.921-1.032a1.536,1.536,0,0,0-.285-.731q0-.3.477-.3v-.505a1.91,1.91,0,0,1-.668-.226,1.8,1.8,0,0,0-.731.226l-.191-.528v-.5c.128,0,.191.1.191.3l.922-.3a2.505,2.505,0,0,1,1.684.806l-.286.529v.2a2.292,2.292,0,0,0,.763-.2c.1,0,.159.152.159.5h.572v-.3h.921l-.286.529c.255.478.509.73.763.73l-.763,1.033c0,.3.16.453.477.453v1.033h-1.112a.493.493,0,0,1,.477-.529l-.286-.957h-.922V131.1l.159-.5-.922-.73h-.477l-.921.73a3.624,3.624,0,0,0,.762,1.99l1.113-.3h.286c.286,0,.444.176.444.529v.5c-.476,0-.889.352-1.207,1.032v.529c0,.353.159.5.477.5v.756l.286.427c-.191,0-.286.1-.286.3a2.206,2.206,0,0,1-1.113-.529h-.285l-.954,1.788a3.066,3.066,0,0,0-.159-1.259C1614.574,136.868,1614.733,136.541,1614.733,135.911Zm3.083-2.292h.921v.957h-.921l.191-.5Zm-.572,3.98h.763v.755Q1617.244,137.977,1617.244,137.6Zm-7.914-.227v-.5h.286v.5Zm4.2,0V137.1H1614v.277Zm.286.755v.505h-.286v-.505Zm-3.718.731v-.226h.445v.226Zm4.354,0v-.5h.477v.5Zm1.4,0v-.5h.287v.5Zm5.4-.5v-.227h.477v.731C1621.471,138.858,1621.311,138.682,1621.248,138.354Zm20.4.278v-.278c.381,0,.54.152.54.5v.3C1641.906,139.16,1641.715,138.984,1641.652,138.632Zm-19.927,1.259v-.227h.922v.529Zm-.668,1.687-.254,1.335.445.756h-.636q0-1.058-.762-1.058a1.136,1.136,0,0,1,.953-1.234C1620.8,141.528,1620.9,141.578,1621.057,141.578Zm-1.207-.655a13.687,13.687,0,0,0-1.4-.226.487.487,0,0,1,.477-.5l1.208.227Zm-3.718-.226.19-.5c.318,0,.477.177.477.5Zm-4.927,1.914v-.2h.477v.2Zm5.88-1.234a1.646,1.646,0,0,0,.444-.957h.287c.127,1.309.349,1.989.635,1.989h.286l.477-.3c0,1.285-.254,1.965-.763,2.066A8.939,8.939,0,0,0,1617.085,141.377Zm6.324,2.292h-.476l-1.208.277v-.806a1.7,1.7,0,0,1,1.684-1.033,3.61,3.61,0,0,0,.922,1.839c-.191,0-.286.075-.286.227Zm-1.4,2.494v-.429h.19v.429Zm1.843.226v-.454c.318,0,.477.152.477.454Zm-7.246,2.57-.476-.2a.493.493,0,0,1,.476-.529l.477.227C1617.085,148.807,1616.926,148.959,1616.608,148.959Zm21.866-1.537c.381,0,.572.176.572.5l-.286.53a.549.549,0,0,1-.572-.53v-.5Zm-1.018-.227v-.5h.287v.5Zm1.59-1.461v.429l-.572.73c-.286,0-.446-.151-.446-.5v-.655Zm-13.6-.226v.427h-.19a.393.393,0,0,1-.445-.427l.19-.529C1625.285,144.979,1625.443,145.155,1625.443,145.508Zm15.923-1.839c0,.328-.159.5-.445.5v-.5Zm3.719-1.058v-.2h.476v.2Zm3.177-.5v.3h-.571v-.3Zm-2.7-1.184h-.476l.285-1.536h.477v.277Zm2.7-3.551a3.972,3.972,0,0,0-.825,1.788h-.478a1.8,1.8,0,0,0-.286-1.033.9.9,0,0,0,1.018-1.032Zm-7.182.982-.445-.227.286-.528.445.226Zm5.879-1.259v.5h-.286v-.5Zm2.32-2.217-.54.731c0,.352.35.529,1.113.529a1.369,1.369,0,0,0-.287.73l-1.589-.957v-1.033Zm-2.32.731h-.826v-.5h.826Zm-1.874-1.99v.227h-.541v-.227Zm5.5-1.335q.573,0,.573.529h-1.3v-.529Zm-.54-.731v.227l-.476-.227a1.854,1.854,0,0,1-1.113.5v.529l.286.529-.477.2-.571-.2q0-1.058.762-1.058v-.73h-.477v-.5C1649.279,130.823,1649.979,131.05,1650.042,131.553Zm-.763-.957h-.285c-.287,0-.477-.176-.541-.528v-.731h.826a1.758,1.758,0,0,1-.285.731Zm1.018-1.561h.572v.529h-.572Zm1.588,0c0,.353-.159.529-.444.529v-.227a.448.448,0,0,1,.444-.5Zm-4.735-3.753h.287v1.032h-.287Zm-2.606.806h-.286v-.5h.286Zm2.606,1.713a2.138,2.138,0,0,0,.541-1.034c.381,0,.571.152.571.505v.226c0,.352-.19.5-.571.5Zm1.589-.831v-.429c.35,0,.54.151.54.429Zm6.325,1.032h-.572v-.5C1654.873,127.5,1655.064,127.675,1655.064,128Zm.285-1.032v.3h-.571v-.3Zm-3.178-.656v.656q-.571,0-.571.528h-.445a1.744,1.744,0,0,1,.286-.731,1.579,1.579,0,0,1-.286-.982v-.5C1651.822,125.735,1652.171,126.062,1652.171,126.314Zm2.893-.529h-.763l.191-.5C1654.873,125.282,1655.064,125.458,1655.064,125.785Zm-5.5-.2h-.572c-.477-.3-.732-.579-.732-.806l1.3.277Zm-5.785-.3a.537.537,0,0,1-.54-.5v-.227h1.3v.5A1.9,1.9,0,0,0,1643.781,125.282Zm8.963-1.033v.529h-.286v-.529Zm-.859-.529h-.444v-.2h.444Zm-7.627.3v-.807l.286-.529.541.3.476-.3v.529C1645.243,123.216,1644.83,123.493,1644.258,124.023Zm-2.606.226a.549.549,0,0,1-.572-.529h.858Zm9.948-1.763h-.445v-.529C1651.441,121.957,1651.6,122.134,1651.6,122.486Zm-.159-1.486v.3c-1.081-.2-1.589-.479-1.589-.806v-.226C1650.709,120.27,1651.25,120.521,1651.441,121Zm-2.447-.73a8.988,8.988,0,0,0-.732,1.687h-.571a3.151,3.151,0,0,0,.762-1.687Zm-4.736,1.687h-1.3v-.226l1.3-.2Zm-.477-4.509a12,12,0,0,0-.254,1.486,5.579,5.579,0,0,0-1.335,2.066h-.826v-.227c1.239-2.216,1.97-3.325,2.161-3.325Zm4.958,1.486v.53h-.286v-.53Zm-2.351.3c0,.328-.191.5-.541.5l.286.53v.226h-.286q-.477,0-.477-.529v-.227c.445-.68.763-1.032,1.018-1.032Zm-1.018-1.032c-.254,1.032-.508,1.536-.826,1.536v-1.032c0-.278.191-.454.541-.5Zm4.482-1.486v.453h-.573v-.453Zm-6.611-.227-.286.957c-.254,0-.508-.3-.763-.957l.477-.277Zm2.892-1.536v.73h-.572v-.227C1645.561,115.181,1645.752,115,1646.133,114.955Zm-3.655.5h-.54c0-.277.19-.453.54-.5Zm3.369-1.032v.226a1.571,1.571,0,0,0-.762.3v-.529Zm4.195-1.537v.806h-.19a1.763,1.763,0,0,0-.286-.806Zm.54-.957v.226h-.73v-.226Zm-3.623-.529q0,.529-.571.529V111.4Zm3.623-.73v.226h-.54v-.226Zm.287-.529h-.572v-.5C1650.678,109.64,1650.869,109.816,1650.869,110.144Zm-.827-2.066v.529q-.476,0-.476-.529Zm-1.3-.957v.957c-.763-.176-1.208-.5-1.3-.957v-.226Zm-.286-1.234v.5h-.191v-.5Zm-2.065,0v.806c-.731-.882-1.176-1.335-1.3-1.335a2.653,2.653,0,0,1-.541,1.99v1.763a.477.477,0,0,0,.541.529h.476c.381,0,.572-.428.572-1.259h.255a1.732,1.732,0,0,0,.285.73c.191,0,.286-.076.286-.2l.478.2a1.926,1.926,0,0,1-.287.831c.541.328.826.58.826.731v.5a2.449,2.449,0,0,1-1.843-1.234c-.509.227-.762.479-.762.731v.73c.253.5.508.755.762.755,0,.227-.349.479-1.048.731,0,.327.158.5.476.5h.286c.35,0,.541-.177.541-.5a3.3,3.3,0,0,0,1.588.5v.529h-.285c-.286,0-.478-.176-.541-.529-.317,0-.477.176-.477.529l-2.7-.227h-.191a2.725,2.725,0,0,0-.826-1.537v-.226h.286l1.3.957h.541v-.528c0-.227-.191-.379-.541-.429a1.941,1.941,0,0,1,.286-.756,1.544,1.544,0,0,0-.286-.73,2.945,2.945,0,0,0-1.3.453l-.286-.453c.858-.151,1.3-.428,1.3-.806v-.227l-.477-.806a2.01,2.01,0,0,0-.826.3c-.508,0-.827-.454-1.017-1.335v-.227a2.925,2.925,0,0,0,1.589.529c.286,0,.445-.176.445-.529v-.453l-.191-.5c.127,0,.191-.077.191-.227v-.277l-.445-.756c1.049,0,1.558-.176,1.558-.5C1645.974,105.207,1646.388,105.635,1646.388,105.887Zm-2.607,8.539h-.54v-.5h.54Zm-1.589-.5v-.227a.493.493,0,0,1,.477-.529v.227Q1642.669,113.923,1642.192,113.922Zm.286-7.229v-.806h.477v.277C1642.955,106.517,1642.8,106.693,1642.478,106.693Zm1.494-2.6c0,.252-.35.5-1.017.731V104.1l-.286-.5c.19,0,.286-.177.286-.529Zm.572-1.259h-1.017a.461.461,0,0,1,.445-.5h.572Zm3.718-2.494-.286.5-1.3-.277c-.858.429-1.3.781-1.3,1.033l.19.5c-.128,0-.19.075-.19.226a2.08,2.08,0,0,0-1.113-.453,8.313,8.313,0,0,1,2.415-2.569C1647.436,99.993,1647.945,100.345,1648.262,100.345Zm-5.593-.3h.286c.381,0,.572.177.572.529v1.033h-.858Zm-1.3.806h-.286v-.806h.286Zm3.718-2.568a10.21,10.21,0,0,1-1.557-1.714V96.29a1.827,1.827,0,0,1,.731.277l.826-.5c.191,0,.636.553,1.3,1.687h-.827v.3c0,.352.381.5,1.112.5,0,.353-.7.68-2.129.982v-.755h.54Zm-2.892,1.032v.5h-.54v-.5Zm9.408-1.788.285-.958h.286v.227C1652.171,97.3,1651.981,97.525,1651.6,97.525Zm-1.3-1.461v.226c-.159,1.814-.509,2.72-1.018,2.72h-.285l-.255-.956c-1.367-.353-2.066-.756-2.066-1.26a9.182,9.182,0,0,1,2.321.529c.7,0,1.048-.428,1.048-1.259Zm.285-2.292V94.8c0,.252-.7.655-2.129,1.26h-.191l.191-.529v-.278q0-.453-.762-.453v-.3l.285-1.234h-.285l-1.3.2-.54-.73v-.227l.54.227h.572l1.3-.227a2.638,2.638,0,0,0,.191.756,2.459,2.459,0,0,0-.191,1.007q0,.529.477.529h.54c.509,0,.763-.353.763-1.032Zm-6.8,1.763v.529h-.826v-.529Zm2.606-.278h.572v.278h-.572Zm-5.466-4c.286,0,.445.176.445.529v.227h-.445a1.952,1.952,0,0,0-.286-.756Zm1.017-1.033h.254q.477,0,.477.529v.5a1.894,1.894,0,0,0-1.017.529v-.3Zm3.146,1.033c0-.479-.6-.731-1.843-.731v-.5a1.892,1.892,0,0,0,1.017-.3q0,.3.286.3a1.938,1.938,0,0,0-.286-.832,1.744,1.744,0,0,0,.572-1.234h.254c.509.227.763.478.763.731l-.763,1.032v.3l2.066,1.99h-.191l-.826-.53h-.286c-.318,0-.476.5-.476,1.486h-.287a1.762,1.762,0,0,0-.254-.679Zm-2.415-2.267h-.191v-.529h.191Zm.286-.831v-.429c0-.251.191-.4.572-.453h.445V87.5C1643.972,87.7,1643.622,87.928,1642.955,88.155Zm.826,5.113v-.529h.191q.571,0,.572.529Zm-.826,1.007h-.286a2.689,2.689,0,0,0-.191-.806v-.2h.477Zm-1.875-1.536c.572.151.858.654.858,1.536V94.8c-.254,0-.794-.68-1.59-2.065Zm1.4,1.763h.477v.3c0,.3-.158.453-.477.453Zm9.122-1.763a2.17,2.17,0,0,0-.159.73h-.287v-.73Zm-1.3-.227v.453h-.255v-.453Zm-1.018-.5c0,.327-.19.5-.54.5-.318,0-.477-.176-.477-.5v-.756Zm5.213-1.789v.831a1.5,1.5,0,0,0-.731-.3V90.22Zm-7.056.3a1.509,1.509,0,0,1-1.049-1.033c.191,0,.446-.352.763-1.032l.541.227c0,.2-.1.3-.255.3,0,.327.255.5.826.5v.53C1647.691,90.019,1647.436,90.17,1647.436,90.522Zm2.13-1.033h-.827a1.843,1.843,0,0,0-.286-.805l.286-.529C1649.025,88.155,1649.311,88.608,1649.566,89.489ZM1646.387,87l.286-.529a1.366,1.366,0,0,0-.286-.73l-2.415.2h-.191v-.2c0-.4.891-.68,2.606-.831l.763,1.334v1.713C1646.9,87.953,1646.641,87.626,1646.387,87Zm-5.752-1.789h-.572v-.3h.572Zm8.644.731v.529h-.826v-.529l.286-.5C1649.089,85.434,1649.279,85.611,1649.279,85.938Zm1.875-2.065-.285.529v.5h.572v.528a6.758,6.758,0,0,1-1.875-.73v-.3l.476-.731Zm-5.783-1.688a3.509,3.509,0,0,0,1.779.731l.541-.2h.285c0,1.108-.795,1.688-2.415,1.688a3.313,3.313,0,0,0-2.034-.958,2.464,2.464,0,0,0,.254-.73,2.626,2.626,0,0,1,1.3.2A1.374,1.374,0,0,0,1645.371,82.185Zm3.368,1.486c0,.328-.159.5-.477.5h-.286v-.5Zm5.562-.957v.73c-.54-.3-.827-.554-.827-.73Zm-4.449-.227v.227c0,.277-.191.428-.573.428v-.655Zm2.319-.529v.227h-.571v-.227Zm-3.909,0-.286.529a2.16,2.16,0,0,0-1.3-.806v-.226c.254-.555.508-.806.763-.806C1647.468,81.53,1647.754,81.958,1648.262,81.958Zm-3.718-.806v-.226h1.017v.226c-.254.554-.508.806-.731.806A1.864,1.864,0,0,0,1644.544,81.152Zm-3.178.806h-.286v-.806h.286Zm5.021-1.309a2.312,2.312,0,0,0-.826-.227l1.112-1.033v-.226h-.826v-.3c0-.277.191-.453.54-.5h.286a2.128,2.128,0,0,0,1.018.5v.3C1647.214,79.163,1646.769,79.641,1646.387,80.649Zm-1.557-1.26h.731l-.19.5A.5.5,0,0,1,1644.83,79.389Zm8.931-1.033v.5a.545.545,0,0,1-.572-.5Zm-2.32-.226a2.058,2.058,0,0,0,.159.73v.3h-.446V78.13Zm-7.914-.227.445.227c-.445.68-.763,1.033-1.017,1.033l.286-1.26Zm10.774-1.536-.827,1.032-.571-.227c.317-.554.6-.805.858-.805Zm-7.628.5h.477a.478.478,0,0,1,.541.529h-1.018Zm-3.718.3h-.286v-.528h.286Zm5.021-.3h.286V77.4h-.286Zm2.321-.5h-.445a.559.559,0,0,1,.445-.529Zm.285-.756h.572v.529A.549.549,0,0,1,1650.582,75.611Zm-5.752-1.033h-.858l-.445-1.688a2.813,2.813,0,0,0,.731-1.259c.572.252.826.5.826.73v.227a2.073,2.073,0,0,0-1.112.3c0,.3.381.429,1.112.429A2.4,2.4,0,0,0,1644.83,74.578Zm1.3-1.032h.54v.528C1646.356,74.074,1646.2,73.9,1646.133,73.546Zm2.606,1.839V74.88h.255v.505Zm4-.807v.529h-.857V74.88A2.1,2.1,0,0,0,1652.743,74.578Zm-5.307.529a1.769,1.769,0,0,0-.763.278h-.286V74.377C1647.086,74.6,1647.436,74.856,1647.436,75.107Zm1.843,0h.287v.731h-.287Zm5.022-.227c0,.252-.349.505-1.112.731v-.5l.572-.73C1654.142,74.377,1654.3,74.528,1654.3,74.88Zm-6.865-.5c-.318,0-.477-.177-.477-.529h.191a.477.477,0,0,1,.541.529Zm4.164-1.058v.529a2.392,2.392,0,0,0-1.018.226v-.957A2.355,2.355,0,0,0,1651.6,73.319Zm-2.034-.2v-.529q.476,0,.476.529Zm4.195-.756q0,.529-.572.529h-.287q0-.453.572-.529Zm-7.628.227h-.572c.318-.478.572-.73.826-.73l-.254-1.259h.254c.509.251.763.5.763.73C1646.7,72.185,1646.356,72.588,1646.133,72.588Zm.54-2.493a.493.493,0,0,1,.477-.529,1.75,1.75,0,0,0,.286.73c-.19,0-.286.1-.286.3C1646.832,70.6,1646.673,70.422,1646.673,70.1Zm4.2-.529c-.381,1.184-.7,1.763-1.016,1.763a2.04,2.04,0,0,1,.19-.73,2.517,2.517,0,0,0-.19-.806l.445-.227Zm-2.606-.5v.5h-.286v-.5Zm-2.892-.756-.286-.428a.493.493,0,0,1,.477-.528q.571,0,.572.528v.227A1.805,1.805,0,0,0,1645.37,68.306Zm3.083-.2-.477-.227.286-.528-.286-.5h.763l.255,1.259Zm-2.066-2.821h.763v1.259a2.226,2.226,0,0,0-.763.3Zm-1.843,1.033h-.286v-.505h.826A.471.471,0,0,1,1644.544,66.317Zm.826-1.537.191-1.259h.572c-.191,1.183-.286,1.839-.286,1.99h-.286A2.354,2.354,0,0,0,1645.37,64.78Zm-.826.2a.529.529,0,0,1-.572-.505v-.453h.572Zm.286,1.864v.5h-.286v-.5Zm5.752-.529v.529h-.285v-.529Zm3.91-1.033v.528h-.191c-.286,0-.476-.176-.54-.528Zm-3.91-.807.286,1.538c-.381,0-.7-.5-1.016-1.538Zm-3.146,0c0-.151-.255-.226-.763-.226v-.5q.381-.681.763-.681h.255a2.107,2.107,0,0,0,1.048.454v.956a1.921,1.921,0,0,1-.763-.226Zm3.719-1.687v.731a.525.525,0,0,1-.573-.454V62.79Zm-4.768.5a2.178,2.178,0,0,0-1.017-.227v-.805a1.9,1.9,0,0,0,1.017.528Zm-2.129-.5h-.731v-.226h.731Zm8.2-1.259v.227h-.572v-.227Zm-5.022,0c0,.151.159.227.54.227v.277a1.921,1.921,0,0,0-1.017.227c0-.353-.54-.5-1.589-.5v-.529a5.91,5.91,0,0,0,1.78.529C1647.15,61.607,1647.245,61.531,1647.436,61.531Zm-13.888-.756q3.242,0,4.1,3.476v71.282q0,2.721-4.1,3.476h-5.118c-2.733,0-4.1-1.738-4.1-5.239V66.015c0-3.477,1.367-5.24,4.1-5.24Zm12.3-.5q0,.455-.477.454h-.54v-.454a1.891,1.891,0,0,0,1.017-.3Zm2.892-1.032v.5h-.286c-.254,0-.413-.152-.477-.5Zm-2.352-.3v.807c-.54-.277-.826-.555-.826-.807Zm-2.606.3h.477v.5h-.477Zm-1.843.5h-.286v-.5h.286Zm-.858-.5c0,.352-.159.5-.445.5h-.572v-.807c-.191,0-.286.1-.286.3h-.445v-.3h.445c0-.251-.159-.378-.445-.428l-.572.2v-.428l1.589-.3C1640.349,58.811,1640.6,59.239,1641.08,59.239Zm5.053-.957c0,.3-.191.428-.572.428h-.191v-.2l.191-.529Zm-3.178-.529v.529h-1.017v-.3a1.8,1.8,0,0,0,.731-.226Zm-4.767-.277a4.416,4.416,0,0,0-.731,1.989v.806h-1.017l.477-.806v-.226l-.286-.529c.54,0,.826-.4.826-1.234Zm-11.537,0-.286,1.234h-.159l-.477-.2-.286.428-1.113-.654a.493.493,0,0,1,.478-.529h.445q.475,0,.476.529c.318,0,.477-.278.477-.806ZM1614,57.753a3.4,3.4,0,0,0-.191-1.31c1.239-.983,1.876-1.663,1.876-2.015h.444v1.058c0,.479-.318.731-.922.731C1614.7,57.249,1614.32,57.753,1614,57.753Zm12.363-1.764.286.454a3.3,3.3,0,0,0-1.843.806l.445-1.763h.19c0,.479.16.731.477.731Zm9.789.227c.317,0,.477.177.477.5v.227h-.477Zm-12.3.731a1.867,1.867,0,0,0-.445-.958,1.54,1.54,0,0,0,.636-.3l.285.53v.226C1624.33,56.77,1624.172,56.947,1623.854,56.947Zm-1.208-.958h-.19c-.477-.3-.731-.554-.731-.806v-.226C1622.36,55.36,1622.646,55.687,1622.646,55.989Zm16.686,1.26-.572-.806v-.756c.794.252,1.239.6,1.3,1.033C1640.063,56.871,1639.808,57.047,1639.332,57.249Zm4.449-1.562-.54.756-.572-.227c0-.3.191-.479.572-.529Zm-2.7-.5v.806l-.159.454a.524.524,0,0,1-.572-.454v-.3c0-.277.191-.453.572-.5Zm-15.351-.528v.528q-.381,0-.476-.528Zm-.921,0q0,.528-.478.528v-.528Zm-1.4,0q0,.528-.476.528v-.528Zm-6.324-1.184.445.226c0,.151-.1.227-.286.227l.572.731v.3a1.686,1.686,0,0,0-.731.226,15.519,15.519,0,0,0-.477-1.712Zm3.241-2.57v-.528h.287V50.9Zm.922,0,.286-.528a1.7,1.7,0,0,0,1.112.528v.5A2.485,2.485,0,0,1,1621.248,50.9Zm-2.32,1.336c.318,0,.477.126.477.428v.3l-1.4.226C1618.388,52.539,1618.674,52.237,1618.928,52.237Z" fill="#003097"/>
      <path id="Контур_181" data-name="Контур 181" d="M1596.49,137.02V88.457c0-.353-.254-.529-.763-.58h-25.489c-.445,0-.7.176-.762.58V99.666q0,.6.762.6h8.01v32.392q0,5.818-5.149,5.818h-6.865c-2.733,0-4.449-1.637-5.149-4.937V65.812c.7-3.3,2.415-4.961,5.148-4.961h6.865c3.432,0,5.149,1.964,5.149,5.843v6.574c0,.379.222.58.73.58h16.749c.509,0,.763-.2.763-.58V62.337A9.039,9.039,0,0,0,1595,57.476c-4.671-7.154-10.36-10.705-17.13-10.705h-16.4l-3.718.277c-10.171,4.005-15.256,9.571-15.256,16.775.223,0,.35.05.35.2-.039.166-.051.3-.083.453h.846V64.7l-.859.076v-.232c-.09.459-.159.885-.195,1.265h.291v.73h-.339c0,.046-.011.107-.011.151V67.5c0-.3.254-.479.827-.5l1.939.73c0-.3.285-.478.858-.528l.444,1.787c-.794,0-1.208.152-1.208.5l-2.86-.6v4.423h.731v.756a3.369,3.369,0,0,0-.731.183v1.656h.35l.095.454h-.445v5.314h.254v.277h-.254v50.7l.35,2.871c-.254,0-.35.1-.35.3.223.2.477,1.638.731,4.358,4.832,8.262,10.933,12.393,18.243,12.393h16.4a20.785,20.785,0,0,0,6.229-1.184Q1596.49,145.054,1596.49,137.02Zm-4.767-2.444v.73h-.445v-.73Zm-2.13-4.131h-.826v-.806A.729.729,0,0,1,1589.593,130.445Zm3.433-6.271v.3h-.827v-.3Zm1.684-8.564.1,1.259c-.444,0-.667-.277-.73-.807l-.1-.452Zm-3.527,1.334v-.73l.826-.152A.809.809,0,0,1,1591.183,116.944Zm-2.8-.73c0,.479-.287.73-.827.73l-.381.152v-.806l.381-.907A.737.737,0,0,1,1588.386,116.214Zm.731-1.939v.377h-1.208a2.3,2.3,0,0,0,.381-1.108C1588.863,113.544,1589.117,113.8,1589.117,114.275Zm4.862-13.577c0,.555-.254.831-.762.831h-.445c0-.453.254-.73.826-.831Zm-5.593,1.335h-.827v-.73h.827Zm2.32-1.612v.428h-.826v-.428Zm1.493-5.39a.747.747,0,0,1-.825-.756h1.207v.756Zm-2.415,1.536-.1-.73h.476v.73Zm-5.593,1.335v-.73h.477v.73Zm2.8-.453h.826v.756C1587.4,98.205,1587.115,97.953,1586.988,97.449Zm-1.971,1.184h.381v1.108l-.381.151Zm-4.64,4v-.377c-.064-1.285.286-2.065,1.017-2.368h.476c-.317,1.813-.73,2.745-1.207,2.745Zm8.835.2v.756h-.349l-.1-.756Zm-6.9,1.259v-1.183h.381l.095,1.183Zm3.273,1.033v-1.108h.381c.541,0,.827.252.827.756v.352Zm-5.117,1.764v-.807l1.113-.075a.8.8,0,0,1-.731.882Zm2.034,2.594a2.831,2.831,0,0,1,.382-1.184l-.382-.806h2.066l-1.207,2.368Zm6.07-.227h1.113l.1,1.108c-.254.1-.635.252-1.112.454Zm2.035,1.839v-.731a.771.771,0,0,1,.858.731v.831Q1590.705,111.932,1590.611,111.1Zm-7.533,1.788v-.3l.731-.151v.453Zm1.939-.73.763-.152v.807l-.763.075Zm-.731,1.083.095,1.939h-.826l.349-1.939Zm-2.7,4.66a12.276,12.276,0,0,1,.667-3.476h.445a2.725,2.725,0,0,0,.381,1.184.335.335,0,0,0-.381.377l.095,1.915,1.208-.076a2.681,2.681,0,0,0-.445-1.108v-.428h1.557l.858.352-.381,1.486q-.477.151-.477-.3a4.362,4.362,0,0,0-2.32.882C1582.792,118.179,1582.379,117.9,1581.585,117.9Zm9.216.881v-1.108h.382l.826.378a.653.653,0,0,1-.731.73Zm-2.32.881v-.729h.382v.729Zm1.684,5.693-.667-.3c-.063-.428.159-.73.667-.881a2.324,2.324,0,0,0,.446,1.183Zm-5.148,3.98h.858l.095.731q0,.755-.858.755Zm.953,1.839v.755h-.381l-.095-.755Zm-4.385,1.637a2.819,2.819,0,0,0-.477-1.109h.858a2.258,2.258,0,0,0,.445,1.109Zm4.83.353v-.806h.763l.1.806Zm3.655.68v.3a.836.836,0,0,1-.762.882h-.382a3.3,3.3,0,0,0,.382-1.184Zm-8.867,1.687v-.73h1.208c.063.478-.159.73-.731.73Zm6.9.227v-.454h.827v.454Zm1.3.805.667-1.259a3.366,3.366,0,0,0,1.3.378c0,.454-.668.831-1.971,1.184ZM1586.257,67.5V67h.826v.5Zm-5.149,2.444v-.3q0-.453.858-.528c0-.277-.318-.706-.953-1.235.317,0,.477-.1.477-.3a2.372,2.372,0,0,0,1.207.227v.806l.477.5c-.445.554-.858.831-1.208.831Zm6.451-1.713h.35l.095.529h-.445Zm-.762,1.033c0,.352-.286.554-.827.6v-.806Zm7.182-1.109a1.667,1.667,0,0,0-.381.756h-.381v-.756Zm-1.207-.73q0,.528-.858.529v-.529Zm-4.1-.655c.063.277-.191.429-.763.429V66.77Zm-30.256,61.307v.529a5.824,5.824,0,0,0-1.144-.227v-.3Zm1.112-1.536c.064.327-.19.5-.763.5l-.095-.806Zm-1.589,1.033h-.763v-.529h.763Zm.477-9.094h-.858c0-.276.254-.452.762-.5Zm-6.452-.881v.529c0,.328-.254.5-.826.5h-.381V117.6Zm6.706-.881a.7.7,0,0,1-.826-.428l.826-.076Zm-.1-2.066-.826.076v-.3c0-.278.285-.453.826-.5Zm1.3-8.261c-.8,0-1.208.176-1.208.5-.477,0-.763-.152-.826-.5,0-.3.667-.554,1.97-.806Zm-3.242-1.26v.227l-.826.075v-.3Zm.191-5.541c.476,0,.731.176.731.529a4.741,4.741,0,0,0-1.939.3l-.476-.529v-.3Zm1.493-1.31-.381,1.033c-.381,0-.794-.353-1.208-1.033Zm-.571-2.519c0,.353-.223.529-.636.529l-.1-1.033C1557.494,95.257,1557.749,95.409,1557.749,95.761Zm-6.9-1.612h1.3a1.7,1.7,0,0,1-1.208.806Zm-2.7.277-.094-.5h.762C1548.881,94.275,1548.659,94.426,1548.15,94.426Zm6.356.454h.445v.453h-.381Zm2.13.151h-.826V94.88l.731-.076Zm.191-3.023c.063.328-.191.5-.763.5l1.3,1.033c-1.113.1-1.652.378-1.652.806a4.208,4.208,0,0,0-1.59-.5l-.095-.3c0-.252.286-.4.826-.5l-.444-1.183,2.415-.076Zm-8.009,1.184h-.762v-.3c0-.3.253-.479.762-.529Zm2.606-6.347v.5h-.381l-.1-.5Zm7.914-.957c.063.327-.191.5-.764.5l-.825.076v-.529l-.382-1.763.667-.3A3.453,3.453,0,0,0,1559.338,85.888Zm-3.623-1.638v-.3h.826v.227Zm-5.785-1.914h.477a1.3,1.3,0,0,0,.35.655l-1.589-.226C1549.168,82.537,1549.422,82.386,1549.93,82.336Zm-2.8.076h-.731l-.095-.529h.826Zm6.42-.151.286-2.6h.827l.095,2.821A4.193,4.193,0,0,0,1553.553,82.261Zm-3.623-.731v.278h-.826v-.2Zm-1.589.075h-.381v-.529h.381Zm3.623-.377h.858v.5h-.858Zm1.144-1.033h-.763v-.529Q1553.014,79.666,1553.108,80.195Zm4.831,1.99h-.667l-.1-.227.763-.075Zm0-.806-.763.075v-.528l.763-.076Zm1.113-1.561.095.528h-.477v-.528Zm-1.208,0-.731.075v-.428C1557.59,79.414,1557.844,79.54,1557.844,79.818Zm-.731-1.386c0,.327-.286.5-.859.5h-.825a.826.826,0,0,1-.859-.5c1.145,0,1.684-.176,1.684-.529C1556.764,77.9,1557.049,78.08,1557.113,78.432Zm-3.75-.957v1.537h-.35a3.424,3.424,0,0,0-1.589-.5v-.227a1.488,1.488,0,0,1,1.208-.806Zm2.8-1.335-.349.957-.859.075a.771.771,0,0,1-.826-.528v-.428a4.176,4.176,0,0,0,1.208-.3Zm-2.892,1.032h-.349v-.528h.349Zm1.239-1.787c-.317,0-.6-.228-.858-.731.255,0,.382-.177.382-.5h1.208c0,.152.159.378.477.73C1555.715,75.082,1555.3,75.258,1554.506,75.385Zm-6.8-.882h-.477V73.47h.381Zm4.354-.579-.1-.529h.476v.529Zm5.974.378-.381.075-.095-.529.476-.076Zm-2.8-.984a4.958,4.958,0,0,0,1.207-.2h.382l-.763.731c-.286,0-.445-.076-.445-.227l-2.066.227-.381.076v-.3a1.623,1.623,0,0,1,1.24-.731C1554.888,72.89,1555.174,73.042,1555.238,73.318Zm-2.416-.655a2.594,2.594,0,0,0-2.065,1.034l-1.589-.227v-.278a5.3,5.3,0,0,0,1.589-.226,1.448,1.448,0,0,0-.446-1.259c1.367-.05,2.034-.252,2.034-.579h.763V71.4l-.763.755Zm-3.718-.654h-1.144l-.064-.529h.445Q1549.1,71.48,1549.1,72.009Zm10.774-1.788h-.826V70.1l.826-.076Zm-1.3-2.192a1.552,1.552,0,0,1-.349.731l.445,1.033a2.5,2.5,0,0,0-1.557,1.032,1.729,1.729,0,0,0,1.207.731q0,.528-.858.528c-1.3-.453-1.938-.856-1.938-1.259l-2.066.3V70.9l.763-.805c2.415-.151,3.591-.857,3.528-2.066Zm1.24-.83h-2.065l-.1-.2c0-.252.286-.4.826-.454C1559.306,66.795,1559.751,67.022,1559.814,67.2Zm-7.85-3.6v.428h-.35V63.6Zm28.89-.529v-.5h.826v.5Zm-1.4,3.1v.226h-.858v-.226Zm3.528-.354v-.528h.826v.528Zm3.623-.83v.529h-.445v-.529Zm4.386-1.109h-.827v-.125l.731-.076Zm-3.274-.881c.381,0,.954.4,1.685,1.184h-.827c0-.3-.413-.428-1.207-.428l-.1-.756Zm-2.8-.2c.508,0,.763.152.763.5h-.382c-.413,0-.667-.177-.731-.5Zm3.177-.076a9.184,9.184,0,0,0-3.622-.956l.381-.983a8.47,8.47,0,0,0,4.068,1.109Zm.764-1.989v.126l-.859.075v-.2Zm-5.689-.151c.063.781-.477,1.259-1.589,1.461l.476-.5-.1-.227-.381-.529.731-.2Zm2.415-.3V60.5h-.731v-.227Zm1.589-.075a1.541,1.541,0,0,0-.476-1.033h.476c.477,0,.763.176.826.5C1588,60.02,1587.718,60.2,1587.178,60.2Zm5.212-.579h-.826v-.529C1592.1,59.088,1592.39,59.264,1592.39,59.617Zm-7.278-.681c-.35.555-.731.807-1.112.807h-.445v-.2l.826-.831Zm-8.1-.075h-.349c0-.2.126-.277.349-.277l-.445-1.184h.445c.509,0,.795.151.858.429v.528C1577.866,58.685,1577.58,58.861,1577.008,58.861Zm-23.741-.353a.73.73,0,0,1-.731-.529v-.655h.731Zm2.448-.6.1.3h-.859v-.227Zm-4.863-.58h-.826V57.1h.826Zm24.6-.453c0-.3.222-.453.635-.5l.1,1.033C1575.737,57.4,1575.514,57.224,1575.451,56.871Zm4.1,1.411-.477-1.184h.731l.477,1.184Zm7.151-.605v.454l-.445.075v-.529Zm6.8-.353V57.6a.754.754,0,0,1-.827-.5v-.227C1593.217,56.82,1593.5,56.972,1593.5,57.324Zm-1.3-1.989v.5h-.381v-.5Zm-6.419.579h-.477c0-.3.286-.454.858-.5h.35C1586.574,55.737,1586.32,55.914,1585.78,55.914Zm-2.066-1.41h.476a8.987,8.987,0,0,1-2.32,3.249l-1.3-.429c0-.554.414-.831,1.208-.831v-.5a4.166,4.166,0,0,1-1.208-.227l.382-.5-.477-.529,2.416-1.259a1.486,1.486,0,0,1-.382,1.033v.151A6.16,6.16,0,0,0,1583.714,54.5Zm-21.04-1.159q.477,0,.477-.832h.732l2.606,1.789v.2a6.74,6.74,0,0,0-2.035.226h-.477V54.5h.859A6.5,6.5,0,0,1,1562.674,53.345Zm-.349.5h-.667l-.1-.226.763-.076Zm.445.656v.529a.644.644,0,0,1-.731-.529Zm3.719.226h.762v.529Q1566.584,55.259,1566.489,54.73Zm7.182.378c0-.151.414-.252,1.208-.3v-.429l-.827-.755V53.4l1.208-.05a1.531,1.531,0,0,0,.477.806c-.318,0-.572.478-.763,1.46h.381a1.676,1.676,0,0,0-.381.756h-.382l-.826-.227c0-.151.127-.226.382-.226C1574.148,55.712,1573.989,55.46,1573.671,55.108Zm6.42-1.562V54.3h-.731l-.095-.227C1579.265,53.773,1579.551,53.6,1580.091,53.546Zm8.39-.151q.094.53-.763.529v-.806Zm-7.723-1.158a4.749,4.749,0,0,0-1.112.276l-.477-.5v-.3a3.854,3.854,0,0,0,1.589-.3Zm-4.481-.907q0,.226.477.68c-.254,0-.382.277-.382.806l-1.112-.5a1.151,1.151,0,0,0,.286-.982Zm-3.082,1.259h-.827v-.73h.731Zm1.588-.806h-.381a5.179,5.179,0,0,0-1.3-.226V51.4h.382a7.9,7.9,0,0,0,1.3.152Zm-7.723.454.826-.3c.891.353,1.3.579,1.3.731l1.207-.5h1.145a1.8,1.8,0,0,0-.286,1.032h-.381l-.828-.3a3.347,3.347,0,0,1-2.065,1.612h-.349a1.852,1.852,0,0,1,.349-.807v-.226h-.445l-.763.3c-.921-1.184-1.621-1.763-2.033-1.763l-.858.227c0-.152-.255-.227-.827-.227l1.208-.957A14.165,14.165,0,0,0,1567.06,52.237Zm-4.386.075h-.73c0-.3.253-.479.73-.529Zm-1.588-.227v.227c.063.328-.16.5-.731.5q0,.3.381.3v.227c-1.049.781-1.557,1.36-1.494,1.763h-.826a1.2,1.2,0,0,1,.35-.68l-.446-.5a5.108,5.108,0,0,0,1.208-2.065A4.676,4.676,0,0,0,1561.086,52.085Zm-3.528,2.8h-.731v-.226c0-.227.254-.4.731-.5Zm-4.545-2.141c.54-.05.858.1.922.453l-.826.076Zm2.956.453h.381v.2c0,.3-.508.58-1.589.832h-.826C1555.3,53.773,1555.969,53.42,1555.969,53.193Zm-4.831,1.537V54.3h.476v.428Zm1.3.529c.192-1.184.541-1.788,1.018-1.788V54l-.286,1.259Zm12.4,0,.095.5c-1.017.882-1.685,1.336-2.066,1.336a6.68,6.68,0,0,1,1.208-1.839Zm-1.59.579h-.826v-.3h.826Zm-1.969-.5v.5a19.888,19.888,0,0,0-2.8.806l-.063-.73a3.727,3.727,0,0,0,1.653-.579Zm-6.516.151.095.5a4.373,4.373,0,0,0-1.208.228l-.476.074v-.3c.572,0,.858-.176.858-.5Zm-7.914.352-.1-.227.858-.075v.3Zm4.005.958-.1-1.26c.573-.05.858.1.858.453l.1.807Zm-4.005.377v-.3h.382l.827.227-.35.5C1547.26,57.652,1546.974,57.526,1546.847,57.173Zm1.3.882v-.226h.763v.226Zm-2.891.6v-.528c.571,0,.858.176.858.528Zm16.494-1.058a.764.764,0,0,0,.826.756v.5a5.608,5.608,0,0,1-1.208-.2l-1.207.5h-.35v-.5A3.091,3.091,0,0,0,1561.753,57.6Zm-17.226,2.066-.73-.2.253-.529q.859,0,.859.529v.2Zm17.322-.05.095.5-.858.076C1561.086,59.894,1561.34,59.692,1561.849,59.617Zm1.207,0c.508,0,.763.151.827.5h-.827Zm13.221.277a3.925,3.925,0,0,0,1.208-.277h.477l-.477.5.477.529h-.382C1576.722,60.4,1576.277,60.146,1576.277,59.894Zm-30.924.529.859.3a2,2,0,0,1-1.208.73Zm-2.224,2.065-.095-.529h.763v.529Zm3.528-.6v-.5c1.3.2,1.97.428,1.97.73q0,.53-.667.529C1547.1,62.387,1546.657,62.135,1546.657,61.883Zm-.731,1.033h.826c0,.352-.254.529-.826.529Zm1.207.3,1.208-.076v.3c0,.3-.255.428-.731.428C1547.61,63.747,1547.451,63.521,1547.133,63.219Zm-1.938.957-.1-.227,1.653-.076v.3Zm-.382,2.594V65.737h.382c0,.2.127.429.445.731v.3Zm1.685,0v-.3l.731-.731c0-.3-.286-.478-.827-.529,0-.3.509-.554,1.558-.805l.857.73v1.033a3.917,3.917,0,0,0-1.97.6Zm.54,2.494.763-.806v-.5h-.858c.063-.353,1.239-1.033,3.559-2.066l-.476-.528v-.227c.508-.429.73-.781.73-1.033a4.44,4.44,0,0,0,1.684.453c0,.353-.285.5-.826.5l.446.529-1.208.076v.5l.858-.076v.529c-.826.05-1.208.227-1.208.5,0,.353.254.53.826.53l1.59-.731-.478-1.335V65.36h.478l4.449,2.14v.3a5.233,5.233,0,0,0-1.557.226l.826,1.033h-.382l-1.3-.453-1.588,1.486-.636-.151c0,.277-.287.428-.826.428h-.858c0-.781-.446-1.184-1.3-1.184.445-.529.827-.806,1.208-.806l.1.806a30.183,30.183,0,0,1,3.527-.579v-.5a11.964,11.964,0,0,0-2.765.5c0-.151-.159-.4-.476-.731-1.049.277-1.59.554-1.59.807a4.391,4.391,0,0,1-1.207-.227l-1.494,1.032Zm-1.685.957v-.428h.477c.509,0,.763.151.827.428Zm3.56-1.235c.064.127-.063.378-.381.731a2.132,2.132,0,0,0,.477.731q0,.528-.668.528h-.827v-.528C1548.119,69.465,1548.6,68.986,1548.913,68.986Zm-6.261,2.066v-.529h.382v.529Zm7.183.151v-.529h.476V71.2Zm-3.528.05v.756h-.381q0-.227-.477-.756Zm-2.7,1.335-.1-.3.382-.5.826.3c0,.328-.286.5-.826.5Zm4,.454v-.53h.35v.53Zm-3.273.075h.762a3.729,3.729,0,0,0,.922,1.688v.227C1545.259,74.982,1544.718,74.352,1544.337,73.117Zm-.287,2.721c-.063-.152-.285-.227-.73-.227l-.1-.5a2.631,2.631,0,0,0,1.113-.3c.063.3.667.806,1.78,1.562v.125a5.791,5.791,0,0,1-1.208-.125l-.859.2Zm3.656-.58h.35l.094.5h-.444Zm-1.208.806h.349l.1.428h-.445Zm4-1.108h.731a5.5,5.5,0,0,0,.922,1.688c-.254,0-.35.1-.35.3a5.678,5.678,0,0,0-1.3-.226Zm-5.149,3.6v-.731q.859,0,.859.529v.2Zm2.893.226v-.226c-.064-.882.286-1.386,1.017-1.537l.476-.075-.381.6v.5l.859-.075a1.738,1.738,0,0,1-1.208.805Zm-1.685.076-.349.529v.151l.445.5c.827,0,1.239-.252,1.239-.73h.35v.226l-.732,1.033-.857-.227h-.35v1.033l-.858-.3.381-2.216Zm-1.843,3.98c0-.428-.54-.655-1.589-.655V80.648a3.27,3.27,0,0,0,2.415.957V82.84Zm2.034.227V82.84l.858-.075v.3Zm9.693.075v-.226h.827v.226Zm2.416,0-.095-.5h.476v.5Zm.763-.3h.826c0,.352-.254.529-.731.529Zm-15.668,1.335v-.3h.857V84.7A.809.809,0,0,1,1543.956,84.175Zm8.962.6V84.25h.254l.095.529Zm-1.971,1.235v-.428h.382c.54,0,.826.151.826.428Zm-1.684.075.1,1.033c-1.049-.428-1.557-.781-1.557-1.033Zm-4.354.605.825-.3a1.129,1.129,0,0,0,.478.731c-.318,0-.478.176-.478.529l-.381.075A1.3,1.3,0,0,0,1544.909,86.694Zm2.129.73.763-.075.095.528c0,.328-.286.529-.858.58Zm4.481,1.184c-.063-.3.191-.478.732-.529v.529Zm4.831.378-.1-.454h.477v.454Zm-4.005,1.31v-.5h.382l.095.5Zm5.594.453v-.3h.827v.3Zm1.685.73h-1.208l.35-.5C1559.338,90.976,1559.624,91.152,1559.624,91.479Zm-14.08.454v-.454h.381l.1.454Zm-2.7,1.335q.762-.681.763-1.058h.35v.227l-.255,1.032-.858.076Zm2.416,1.007c.635-.73,1.175-1.083,1.588-1.083l.858.2a7.372,7.372,0,0,0-1.588,1.335Q1545.354,94.8,1545.259,94.275Zm.475,1.411v-.5h.383v.5Zm1.59-.227v-.428a2.8,2.8,0,0,1,1.208.151,5.1,5.1,0,0,0,1.207-.227c.509,0,.8.151.827.428a4.284,4.284,0,0,0-1.653.3A3.2,3.2,0,0,0,1547.324,95.459Zm-1.59,1.033v-.5h.383l.1.5Zm-1.937.831v-.529h.73c.572,0,.826.176.826.529Zm10.424.076v-.832h.826q-.477.528-.381.832Zm2.033-.076V97.6h-.73l-.1-.2Zm-10.042.428v-.226h.826v.226Zm7.246.378v.73h-.35l-.1-.73Zm-6.325,1.411-.1-1.033h.476V99.54Zm2.416.957c-.795-.252-1.208-.5-1.208-.756v-1.31h.668a3.539,3.539,0,0,0,1.4,1.764v.3Zm7.723,1.612v-.3h.762v.3Zm-5.117,1.334v-.226h1.112v.226Zm-4.005,1.537.382,1.335h-.636l-.476-1.259Zm-5.561.68c.222,0,.349-.1.349-.3q.858,0,.859.529c0,.327-.255.5-.763.5A1.189,1.189,0,0,0,1542.589,105.66Zm3.241.655v.529l-.477.051a.778.778,0,0,1-.826-.5Zm-3.178.378h.382c.508-.05.763.1.763.428l-.287.076C1543,107.2,1542.716,107.02,1542.652,106.693Zm4.005.428c0-.277.254-.453.763-.5l.826-.075c0,.3-.509.554-1.589.806Zm8.486,2.066v.3h-.731v-.3Zm-3.91.6-.1-.529a2.811,2.811,0,0,0,1.3.227v.529A5.392,5.392,0,0,0,1551.233,109.791Zm4.386.731a5.162,5.162,0,0,0,2.034.654v.227l-1.938.075Zm-8.772,1.637v-.53h.382l.095.53Zm4.482-.378c.508,0,.762.176.826.5v.53l-1.3-.53Zm-2.893,1.108v-.528c.573,0,.827.175.827.528Zm2.511.882v.806a4.206,4.206,0,0,0-1.208.3,5.263,5.263,0,0,0-2.319-.227v-.5a5.269,5.269,0,0,1,1.112.2A5.719,5.719,0,0,0,1550.947,113.771Zm-7.15,1.184v-.529c.476,0,.73.176.73.529Zm8.835.075c0-.3.254-.478.731-.53v.3c0,.353-.223.529-.731.529Zm-7.628.655h.349a2.756,2.756,0,0,0,.954,1.184l-1.684.075A1.7,1.7,0,0,0,1545,115.685Zm3.242-.3.095,1.033c0,.3-.285.453-.827.453h-.381l-.476-1.184A4.09,4.09,0,0,0,1548.246,115.383Zm.763,1.259v-.73l1.207-.075-.381,1.259A.781.781,0,0,1,1549.009,116.642Zm-1.049,2.293c-.477,0-.922-.5-1.3-1.537h1.3l.381,1.234v.3Zm2.892,1.183h1.207l-.349.5C1551.2,120.622,1550.916,120.471,1550.852,120.118Zm7.627.58v-.5h.763l.1.5Zm-3.909,2.594v-.454h.381v.454Zm-5.212,1.184v-.3q.858,0,.858.528v.2A.724.724,0,0,1,1549.358,124.476Zm4.958.881-.1-.73c.127,0,.667.075,1.652.2v.3a4.6,4.6,0,0,0-1.207.227Zm3.146.227a.644.644,0,0,1-.731-.529v-.227h1.113v.756Zm-.286.5v.453h-.826v-.453Zm-13.284.957.349-.5c.827.252,1.24.478,1.3.731v.529C1544.432,127.548,1543.892,127.3,1543.892,127.045Zm10.869.3h.858q0,.528-.858.529Zm-6.038,1.41a.747.747,0,0,1-.764-.453V128h1.971v.226c.064.354-.191.529-.763.529Zm-3.083.5-.1-.429h.477v.429Zm2.7,5.843c0,.277.255.428.763.428v.227h-.477c-.731-.2-1.113-.428-1.113-.655Zm-.921-1.562c0-.3.285-.453.826-.5v.2c0,.353-.287.554-.826.6Zm9.311.378v-.3h.731v.3Zm-4.386.579-.094-.5c.508,0,.762.177.762.5Zm-6.9.378a3.95,3.95,0,0,0,1.208-.3v.529a1.525,1.525,0,0,1-1.208.73Zm5.308,1.411.381-.982.826.151c-.286.352-.413.63-.35.831Zm-3.624.579,1.208-.076c.508,0,.8.177.826.53l-1.208.05A.776.776,0,0,1,1547.133,136.868Zm15.541,5.743-.095-.5h.477v.5Zm3.655.226a.823.823,0,0,1-.858-.5v-.3q0-.378.858-.454h.35v1.259Zm4.831-.352v-.3c.509,0,.731.176.731.5v.3C1571.478,142.989,1571.224,142.813,1571.16,142.485Z" fill="#003097"/>
      <path id="Контур_182" data-name="Контур 182" d="M1601.21,174.46a1.371,1.371,0,0,1,.453-.125h.389v.282a1.809,1.809,0,0,1-.863.67c-.051,2.2-.086,5.265-.106,9.532.358.05.58.192.58.469v.308a6.062,6.062,0,0,0-.583-.2c.051,17.949.209,92.261.777,92.261h17.8c.518,0,.777-.2.777-.591V243.433c0-.125,12.649-1.924,13.981-2.192,4.265-.86,9.681-1.246,12.86-4.563,5.112-5.323,5.906-12.738,6.881-19.679.8-5.668,1.509-11.357,1.778-17.078.13-2.753.319-5.9.224-8.989h.493v-.309c0-.231-.215-.372-.547-.452a23.969,23.969,0,0,0-1.092-6.686,22.575,22.575,0,0,0-6.545-9.688h-.166a12.036,12.036,0,0,1-1.878-.514l.356-.538c.28.148.468.223.69.325a16.442,16.442,0,0,0-9.882-3.4h-35.732C1601.555,169.667,1601.339,169.784,1601.21,174.46Zm9.548-.664.744.308c0,.267-.176.389-.453.451v.062a2.461,2.461,0,0,0-.938.231l-.389-.077.389-.436h.647Zm-3.4.308v-.615h.744C1608.1,173.9,1607.845,174.1,1607.36,174.1Zm-3.82-.308h.389a1.874,1.874,0,0,0,.777,1.359v.232a3.592,3.592,0,0,0-.389.094v.111h-.388l0-.018c-.145.043-.218.035-.392.1Zm30.748,4.592h-.388V177.26h.388Zm2.265-.308h.388v.539h-.388Zm-3.042,1.052v-.513h.389v.513Zm-1.877.539h-.777v-.539h.777Zm-11.684-.154v.23h-.389l-1.779-.922v-.745a1.1,1.1,0,0,0-.195-.82,2.025,2.025,0,0,0,1.23-.232l.68.308-1.069,1.052Zm-4.726-1.283v.539h-.291v-.539Zm1.425-1.283h.258v.821l-.647-.077A1.216,1.216,0,0,0,1616.649,176.951Zm-3.237.309h-.744v-.232h.744Zm5.7.82c0-.385.745-.667,2.266-.82h.777v.307l-.389.513-.776-.308Zm9.484,0v-.82c.485,0,.744.179.744.512v.308Zm3.786.308h-.388a.994.994,0,0,0-1.133-1.128l.777-.744a5.037,5.037,0,0,0,1.133.2A2.679,2.679,0,0,0,1632.378,178.388Zm-3.786-1.668h-.777v-.2h.777Zm-.777,1.36h-1.877c0-.9-.389-1.36-1.133-1.36,0-.281.226-.461.744-.512h.389C1625.938,176.644,1626.552,177.285,1627.815,178.08Zm-5.308-1.052h-.356v-.82h.356Zm-3.3-.436-.939-.076v-.3a3.792,3.792,0,0,0-1.068.3,2.849,2.849,0,0,0-.284-.077h-.266v-.073a3.44,3.44,0,0,0-.583-.158V175.9c.777,0,1.133-.359,1.133-1.052a3.26,3.26,0,0,0,1.909,1.052l-.087.138.185.015Zm-3.884-.384h-.777V175.9h.777Zm-1.91-.308v-.745h.777v.232C1614.189,175.72,1613.93,175.9,1613.412,175.9Zm-7.218-.231h.778q0,.538-.778.538Zm3.82,2.411a1.6,1.6,0,0,0-.389-.82h1.133v.82Zm1.132-.077v-.231l.356-.512a.6.6,0,0,1-.647-.54h.291l-1.909-.2q0-.462.777-.616h.258v-.308c.454.051.712-.077.777-.437h.939l-.1.514a3.23,3.23,0,0,0-1.12.258,1.512,1.512,0,0,0,.375.793h.648a1.779,1.779,0,0,0,.971,1.36l-.1.308Zm-1.327.539h.292c.42,0,.647.18.647.512v.309C1610.143,179.054,1609.819,178.773,1609.819,178.542Zm1.874.6c-.327-.19-.547-.369-.547-.521h.745c.518,0,.777.154.777.513v.308l-.1.513a2.407,2.407,0,0,0-1.231.154h-.388C1611.466,179.725,1611.69,179.4,1611.693,179.14Zm-1.679,1.044v.615h-.389a.687.687,0,0,1-.777-.615v-.513h.389C1609.755,179.671,1610.014,179.85,1610.014,180.184Zm-7.606.307v-.307h.777v.307Zm2.2-.692.356.077-.1.538-.258-.077Zm-3.334,1.513v-.307h.777v.307Zm4.563-1.641h.744l-.388.513v.307l1.91-.307v.307c-.37.231-.69.433-.968.613a.373.373,0,0,1,.224.439,3.554,3.554,0,0,0-.972.231h-.236c-.186.14-.314.246-.314.283-.776-.231-1.132-.488-1.132-.745C1605.45,181.312,1605.838,180.773,1605.838,179.671Zm7.185,3.232h-.355l-1.166-.539c.13-.487.777-.846,1.91-1.052h.389v.231C1613.283,181.543,1613.023,181.979,1613.023,182.9Zm2.3-1.283.355.077-.1.513-.258-.077Zm2.363,3.309h.646l-.064.513A.554.554,0,0,1,1617.685,184.929Zm-4.273.667h-.389v-.513h.389Zm-2.169.821-1.618.231v-.308l.647-.744-.161-1.282c.227,0,.444.227.647.639v-.486a4.151,4.151,0,0,0,1.133-.23c.777,0,1.132.179,1.132.538l-2.213.3A7.284,7.284,0,0,1,1611.243,186.417Zm-2.751,3.155h-1.52v-.821a3,3,0,0,0,1.52.615Zm7.38-1.052v-.513c.841.308,1.23.565,1.23.821v.231A2.274,2.274,0,0,0,1615.872,188.52Zm-2.071,0c-.454,0-.712-.154-.778-.513v-.539h.778c0,.36.258.539.744.539a.432.432,0,0,1-.3.415c0,.009.007.012.007.021l-.082,0A1.034,1.034,0,0,1,1613.8,188.52Zm1.521-1.052q-.389,0-.389.231l-.744-.231.356-.512,1.909.23v1.052C1615.677,187.981,1615.322,187.725,1615.322,187.468Zm2.556-.436v-.307c.55-.641,1-.975,1.328-.975v.308c-.454.384-.681.718-.681.974Zm-5.405-.23-.679-.077v-.231h.679Zm2.46-3.309-.1.744-.291-.019v.019c-.043,0-.063-.022-.1-.025l-.836-.052c0-.1.124-.2.284-.29-.026-.053-.077-.079-.089-.146h.425A4.621,4.621,0,0,1,1614.933,183.493Zm1.23,0,.939.077q.68,0,.68.538l-.1.513C1616.681,184.108,1616.163,183.749,1616.163,183.493Zm2.945-.077c0-.308.227-.462.648-.513h.291v.282c-.388.512-.712.77-1.036.77Zm17.833,0c-.452,0-.711-.18-.776-.513a3.938,3.938,0,0,0-1.133.282c-.453,0-.679-.154-.744-.513v-.308c2.007.205,3.01.487,3.01.821v.231Zm-20.389-.667h-.68l.1-.539Q1616.551,182.21,1616.552,182.749Zm-4.37-1.283h-.291v-.538h.291Zm-9.774,1.719h-.356V182.9a1.99,1.99,0,0,0,.744-1.36c.518,0,.744.18.744.514v.307a1.989,1.989,0,0,1-.266.3l1.5-.145-.355,1.282c-.8-.437-1.158-.777-1.2-1.073A1.21,1.21,0,0,1,1602.408,183.185Zm3.98-.9-.1.54h-.551C1605.741,182.518,1605.968,182.338,1606.388,182.286Zm1.328-.229h.388a1,1,0,0,0,.195.7v-.4a9.219,9.219,0,0,0,1.132,0l-.194-.821h.388c.389,0,.745.385,1.133,1.129l-.551.249v.058l-.117,0-.465.21-.054-.231-1.079-.044c0,.841-.13,1.353-.388,1.557l.046.162.051-.162.939.077-.1.231h-.851l.3,1.052v.513h-.388c0-1.591-.647-2.385-1.91-2.385C1606.907,182.7,1607.424,182.057,1607.716,182.057Zm-3.01,2.257-.1.23q0,.54-.68.539l.1-.769Zm-2.3.974v-.513h.388v.513Zm3.786-.359q0-.462.68-.539c-.065.718.129,1.078.55,1.129v.745h-1.036Zm-1.877,1.719v-.513h.389v.513Zm2.363.667.1-.821c.583.308.842.59.842.821Zm2.945-.359h.745v.512C1609.949,187.468,1609.69,187.315,1609.625,186.956Zm-1.91.512h.777a1.61,1.61,0,0,0-.388,1.052,3.933,3.933,0,0,0-1.132-.282v-.231C1606.972,187.7,1607.23,187.52,1607.715,187.468Zm-6.052,1.052v-.513h.389v.513Zm1.522.231c0-.308.226-.462.744-.513v.821Zm2.75.9a6.832,6.832,0,0,0,.357-.821l.582.077v.231c0,.333-.227.513-.68.513Zm5.955.23v.539h-.647l.1-.539Zm-5.7.744h-.744v-.205h.744Zm-4.142.308c-.454,0-.712-.179-.777-.513v-.308a3.4,3.4,0,0,0,1.133.308v.513Zm2.168.231v-.308l.647.077v.231Zm2.46.9.1-1.36a2.086,2.086,0,0,0,.938.309v.538a.578.578,0,0,1-.647.513Zm6.343-.821v-.307h.778v.82C1613.347,191.752,1613.089,191.573,1613.023,191.239Zm-.841.513h-.68v-.513h.68Zm1.23.308.582.82-.1,1.053-.1-.008v.238h-.778v-.3l-.1-.008v-.206l.389-.538a2.1,2.1,0,0,0-.939-.308l.1-.513A3.388,3.388,0,0,0,1613.412,192.06Zm-2.945,1.206v-.744h.679a1.211,1.211,0,0,0-.388.744Zm2.2.384v.513h-.389v-.513Zm-1.166.206h.2q.582,0,.582.538v.308c-.873-.051-1.327.154-1.327.667h-.68a3.164,3.164,0,0,1,.624-1.24.655.655,0,0,1,.277-.17c.057-.018.109-.111.167-.1Zm3.043.384h.582v.539h-.68Zm-.1.744.68.077v.231h-.68Zm-7.67.462-.583-.308c0-.257.227-.384.68-.436Zm3.334-1.436-.1.538a.559.559,0,0,1-.583-.538Zm-7.7.384a4.131,4.131,0,0,0,1.132-.231c0,.154.13.231.389.231-.194.9-.55,1.36-1.133,1.36Zm9.774,1.36h.68l-.1.744a.559.559,0,0,1-.583-.539Zm3.884,0h.388c.486,0,.745.154.745.513a4.491,4.491,0,0,0-1.877.308v-.308C1615.322,195.959,1615.548,195.8,1616.066,195.754Zm-4.176.821h-.744v-.308h.744Zm-8.35,0a3.856,3.856,0,0,0,1.91-.539v.769a3.715,3.715,0,0,0-1.133.283C1603.864,197.088,1603.6,196.934,1603.54,196.575Zm9.483.743V196.8h.389l-.1.513Zm-.938.231h-.647v-.308h.647Zm-2.848.154v-.539q.679,0,.582.539Zm4.466-.077c.615-1.051,1.068-1.565,1.327-1.513v.539l-.389,1.282A2.523,2.523,0,0,0,1613.7,197.626Zm-8.253.513h.744v.308c0,.359-.226.539-.744.539Zm1.132.847q0-.462.778-.538v.743Zm7.607,1.052c-1.716-.206-2.59-.513-2.59-.924l.1-.282a2.454,2.454,0,0,1,.874.282,10.313,10.313,0,0,0,2.265-.666Zm-3.237.358-.68-.077v-.513l.68.078Zm-3.139-1.487.388.077c.583.282.842.564.842.82v.232h-.259c-.648-.309-.971-.59-.971-.847Zm-2.946,1.718.1-1.051.582.308a1.528,1.528,0,0,0-.388.743Zm5.34.744.065-.512,1.23.076v.308a1.425,1.425,0,0,0-.938.206Zm-4.174.9v.231h-.68v-.231Zm-2.848,1.205a2.548,2.548,0,0,0,1.877-1.051,11.021,11.021,0,0,0-.357,1.59c-.258,0-.388-.077-.388-.23l-1.132.538Zm9.483,22.235v-.231h.55v.308Zm-4.953,1.513v-.539c.519,0,.777.18.777.539Zm3.625-.769a.485.485,0,0,1,.55.538h-.647Zm-2.1.538a7.356,7.356,0,0,1,2.653.744h.389l1.719-.208-.489-.69V226.3a.7.7,0,0,1,.68-.512l.258,1.359-.043.56a.494.494,0,0,0,.141.03l.517-.154c.2-.781.507-1.2,1-1.2-.152.721-.427,1.041-.761,1.161-.022.41-.523,1.012-1.5,1.865h-.778v-.538l-3.786-1.642Zm7.509-.308.55.077v.231h-.648Zm-.874,2.1h.68v.82l-.68-.076Zm-8.448-1.206v-.231h.583v.308Zm-2.719.769h.745v-.307h.291v.513h-.291v.308C1605,228.864,1604.738,228.684,1604.7,228.35Zm3.4.744v-.744h.744v.744Zm-2.654,1.36a1.656,1.656,0,0,0,.388-.847h.744v.308c0,.36-.258.539-.744.539Zm3.4.282-.744-.282a1.656,1.656,0,0,0,.388-.847l.745.308,1.133-.513a1.959,1.959,0,0,0,.388,1.334,3.93,3.93,0,0,1-1.133-.282Zm26.184-.282v.205a2.389,2.389,0,0,0-1.133,1.9h-.388c-1-.41-1.521-.769-1.521-1.051A6,6,0,0,0,1635.032,230.454Zm-3.787,1.052a3.382,3.382,0,0,0-1.52-.539v-.308c1-.488,1.52-.923,1.52-1.257h.745a1.784,1.784,0,0,0,.388.744C1631.634,230.505,1631.245,230.941,1631.245,231.506Zm6.441,1.565-.388.615c-1.262,0-2.007-.462-2.266-1.359l.745-.308C1635.777,232.711,1636.424,233.071,1637.686,233.071Zm.777-1.052c.485,0,.744.179.744.538v.283c-.453,0-.712-.18-.744-.513Zm-22.948,2.8c0-.154-.193-.257-.582-.308v-.231a1.948,1.948,0,0,0,1.619-.975l.647.307-.357,1.258-.679-.282Zm-.97-.308h-.551v-.538h.647Zm.1-.77-.29-.051v-.769h.29Zm4.856-.359h-.972v-.538h.292Q1619.5,232.84,1619.5,233.378Zm14.014-.307h.777v.307h-.777Zm-13.755-.436h-.55l.1-1.36.551.077Zm-10.908-1.129h-1.133c0-.308.26-.488.777-.539h.356Zm-5.21.128v-.513h.291v.513Zm2.492.385.064-.513h.583v.513Zm12.137.538a.611.611,0,0,1-.68.514h-.388c.065-.309.291-.463.679-.514Zm-9.775.821v-.743h.356v.743Zm1.522.513v.539h.356c1.779-.795,2.653-1.411,2.653-1.795h.778l-1.522,1.795.256.744h.133l-.028.3.028.082c-.016,0-.02,0-.036,0l-.061.662h-.292a1.837,1.837,0,0,0-.205-.578c-.339.078-.572.2-.572.424-.744-.283-1.132-.565-1.132-.821a6.5,6.5,0,0,1-3.4,1.051v-.513C1607.975,235.789,1608.978,235.148,1610.014,233.891Zm25.763,3.463h-.745l-.388-1.872h.776A6.238,6.238,0,0,0,1635.777,237.354Zm1.521-1.052v1.052h-.357a1.534,1.534,0,0,0-.388-.744Zm-19.031.744h.647l-.1.308-.55-.077Zm-.68.231h-.291v-.821h.388Zm-1.133-1.488a.925.925,0,0,1-.335-.084l-.053.443-.551-.282a.455.455,0,0,1,.285-.411c-.041-.068-.106-.114-.123-.2h.777Zm-10.324.975.064-.538h.292v.538Zm1.974,1.206c0,.128.13.205.388.205h.744v-.205l-.388-.539a13.367,13.367,0,0,0,2.654-.308l-.356.539.356.513c-.226,0-.356.1-.356.308l-.776-.308h-.745q-.68,0-.777.539l-1.877-.231v-.308A5.369,5.369,0,0,0,1608.1,237.97Zm-1.91,2.616c0-.359-.485-.974-1.489-1.872v-.231h.745c.582,0,.938.462,1.132,1.359v.744Zm28.45-2.411h.388c.518,0,.745.18.745.539h-1.133Zm-25.861,2.24h.26v.182l.971-.524h.744c0,.539.259.821.744.821a1.455,1.455,0,0,1-.323.765,3.116,3.116,0,0,0,.711-.175l.029.232a4.762,4.762,0,0,0,.554-.327h.389c-.126,1.22-.593,1.873-1.36,2v.193h-1.132a1.786,1.786,0,0,0-.356-.82c.226,0,.356-.1.356-.308,0-.283-.227-.462-.745-.513l-.777.307v-.307a.868.868,0,0,0-.4.1c.025-.424.054-.808.085-1.178l.184-.1Zm6.991.479-.1.513-.55-.077C1615.127,241.048,1615.354,240.894,1615.774,240.894Zm-2.362,2.257h.582v.282l-.582-.076Zm-2.266,1.206h.356v.282c0,.244-.373.487-1.07.723l-.095-.639Zm2.266,0h.389v.513h-.389Zm3.69,3.024-.55-.282a.442.442,0,0,1,.132-.293l-.036-.005v-.743c.421,0,.648.179.648.512l-.1.308-.037-.005Zm-1.495-.073-.577-.181a1.355,1.355,0,0,0,.389-.744h.174Zm.556,2.512-.136-.011c.011-.131.02-.268.03-.4l.785.21-.1.513Zm-.495,1.317.006.368-.547-.171V251.1ZM1609.139,249h-.291a1.753,1.753,0,0,0-.259-.82h.356l-.193-.4h-.163c0-.037-.06-.055-.07-.09a.734.734,0,0,0-.609.493l-.55-.308-.68.231c.064-.539-.129-.821-.55-.821l.452-.52v-.224h.195l-.291-.539c.647,0,.97-.359,1.035-1.051l.366.041,0,.272h.379a.641.641,0,0,0,.029.1v.131h-.405l.017,1.223h.187c-.022.041-.081.057-.09.1,0,.01.008.013.008.022a3.558,3.558,0,0,0,.671-.116,2.052,2.052,0,0,0,.224.709h.035l.163-.055a2.626,2.626,0,0,0,.128-.842h.389c0,.045.081.132.1.185v1.023a.912.912,0,0,1-.262.068Zm2.363-2.121v.232h-.647l.018-.137h-.2l-.031-.208c-.014,0-.023.006-.038.006l.022-.116-.058-.391.58.066c0,.038-.031.048-.036.081A.423.423,0,0,1,1611.5,246.878Zm2.007-.572q0-.462.68-.538l.258.076v.232c0,.358-.226.512-.646.512l-.292-.051Zm.842,1.565c0-.02-.03-.073-.033-.1h-.615v-.513h.436c-.025-.057-.018-.07-.047-.136h.647l-.1.821Zm-1.489.468h-.583v-.513h.647Zm-1.424.335-.1.308-.378-.05-.039-.258Zm1.035.716h.647v.539h-.647Zm-.485.508h-.648v-.283l.648.077Zm-3.7-3.4c0-.227.008-.628.021-1.1a.79.79,0,0,0,.735.451v.539A1.367,1.367,0,0,0,1608.287,246.494Zm.949-.8c0-.057-.1-.183-.122-.259h-.169v-.357c-.049-.08-.032-.115-.1-.205h.874v.154a.352.352,0,0,1,.194.408h-.194v.135C1609.56,245.608,1609.422,245.65,1609.236,245.691Zm.778-.821.01,0,.011.622-.021.005Zm-1.166-.513a4.353,4.353,0,0,0-.5-.1c.005-.141.012-.29.018-.436h.486Zm-.7-1.975c-.01.03-.041.043-.048.077l-.1-.027v-.05Zm-.284,1.146,0,.29h.233v.28a.682.682,0,0,1-.23-.1l0,.162c-.042,0-.124-.033-.161-.033v-.2a.557.557,0,0,1-.194-.445Zm-1.7,1.016h.7v.539h-.721Zm7.339,5.567.1-.513h.291v.513Zm1.036-.059V249l1.094.294.007.485-.422-.035Zm1.075-1.968h-.4l.1-.23h.294Zm-3.837-2.132h.01l-.1.513h-.259v-.29c-.069.015-.11.055-.195.055l.1-1.052c.421,0,.616.179.55.513A.475.475,0,0,1,1611.783,245.952Zm.5-1.716.1-.743h.292v.82Zm-4.457-4.128,0,.307h-.013v-.309Zm.088-.881-.648-.077v-.2h.648Zm7.6.308.065-.745c.648.283.939.565.874.822Zm-10.81,2.924v-.206h.745v.206Zm.551.946a2.908,2.908,0,0,1,.194-.526v-.343h.127c.03-.056.033-.129.067-.182l-.009.182h.106v.42l.537-.645a5.471,5.471,0,0,1-.148-.922l.356-.513a2.464,2.464,0,0,0,.8.22l.425-.51.114.045.007.507c.1,0,.165.02.268.02l-.1.308c-.07.058-.1.128-.164.188l.01.735-.493-.136h-.04a2.334,2.334,0,0,0-.349,1.009.542.542,0,0,1-.259-.122,7.959,7.959,0,0,1-.518.986h-.012l.012-.413a1.936,1.936,0,0,0-.6-.2l-.028.611h-.111v-.657C1605.391,243.46,1605.309,243.4,1605.256,243.4Zm-2.46,1.465c0-.308.258-.462.744-.513v.821Zm1.812,1.283-.679-.309a.379.379,0,0,1,.388-.23,2,2,0,0,0-.291-.821c0-.154.323-.308.938-.436h.586l-.007.14a2.6,2.6,0,0,0-.676,1.656Zm.745,2.18h.01l-.01.23Zm.7.024,1.563.052v.232c-1.068,0-1.587.154-1.587.513Zm1.854,1.105v-.54h.291c.452.052.647.257.647.616l-.356.437C1608.1,249.975,1607.91,249.795,1607.91,249.462Zm1.035.851v-.538h.68l-.1.538Zm-2.913,1.18v-.282l.648.077-.1.205Zm8.157-.467.55.077c0,.359-.227.513-.647.461Zm-11.588,17.4.1-1.051,1.618.078-.1,1.051Zm6.927,1.335.1-.513c.389.051.582.257.582.59Zm-4.467,1.128v-.512h.292v.512Zm8.74,1.95h-.583c0-.283.226-.462.679-.513Zm-3.69-1.411v.231h-.68v-.307Zm-1.263-.385-.647.309a1.79,1.79,0,0,0-.291-.822v-.539C1608.233,269.987,1608.557,270.347,1608.848,271.039Zm2.007-.9V269.6h.647A.563.563,0,0,1,1610.855,270.142Zm.938-.539a1.216,1.216,0,0,0,.389-.744h.291v.821Zm2.3-1.18c.42,0,.647.154.647.513h-.388a.545.545,0,0,1-.55-.513Zm-5.406.513v.539a4.27,4.27,0,0,0-2.006.2c.064-.539-.227-.821-.842-.821v-.512Zm-1.812-1.128h-1.036l.1-.822,1.586.385A.5.5,0,0,1,1606.874,267.808Zm6.344-.744-.292.513a.6.6,0,0,1-.647-.591Zm1.423-2.565v.23h-.549v-.23Zm-7.217-1.129.1-1.257h.292c.452,0,.679.154.679.513C1608.1,263.139,1607.748,263.37,1607.424,263.37Zm3.916-1.642v.513h-.68l.1-.513Zm3.3-.9-.647-.077c0-.256.227-.41.647-.462Zm-3.883.078v.282l-.551-.282a5.722,5.722,0,0,1-2.006.974l-.388-.077.1-.23c.323,0,.97-.513,2.006-1.514C1610.531,260.369,1610.823,260.651,1610.758,260.908Zm-2.169-.617q-.97-.076-.97.771l-.357-.078a1.974,1.974,0,0,0-.291-.769c.065-.2.421-.36,1.036-.513C1608.46,259.753,1608.653,259.958,1608.589,260.291Zm-2.2-.153c-.064.308.13.692.583,1.129l-.1.769c-.647,0-.939.154-.939.513v.231c-.064.359.13.539.551.59l-.648.769-.1.206a2.085,2.085,0,0,1,.939.308,4.85,4.85,0,0,0,1.618-.437l.647.283.68-.231a1.924,1.924,0,0,1,.842,1.359h.679v-.513h.292c.42.052.647.231.647.59h-.388c-.745,1-1.3,1.513-1.586,1.513l-.389-.077.1-1.282.388-.513c-.259,0-.355-.077-.291-.231l-2.654,1.411-1.23-.821c-.452-.051-.679.206-.679.744h-.389c.065-.949-.485-1.949-1.683-3v-.231h.357q.971.462.873.847l.647-.231-1.132-1.667v-.206a2.461,2.461,0,0,0,.938-.231v.231q.681,0,.68-.539l.1-.743h-.68c-.065.487-.291.743-.647.743l-1.229-.82.647-.822-.551-.769v-.282a10.789,10.789,0,0,1,2.557-.693c.356,0,.648.565.842,1.668Zm2.655-1.949h.29l-.1,1.359-.291-.077Zm2.556.384-.1,1.052h-.259v-1.052Zm2.59-.384-.68-.078v-.23a.7.7,0,0,1,.68-.513Zm-5.988-1.642v.282l-.939-.077v-.205Zm1.035-1.514q0,.308.292.308l-.389,1.052-.55-.077c0-.154.1-.231.259-.231,0-.359-.615-.539-1.877-.59l.1-.539.551.309h.97Zm7.769-1.488v.283l-.648-.077v-.206Zm-2.913.359h-.583v-.23h.68Zm-3.528.385h-.939c-.389,0-.582-.205-.582-.615V252.7a3.087,3.087,0,0,0,1.617.846Zm3.042-1.667-.388.462a4.783,4.783,0,0,0-.939-.308c0-.256.227-.385.647-.436Zm2.751-.9-.569-.178a3.486,3.486,0,0,0,.082-.392l.487.031Zm.842-1.56a.7.7,0,0,1,.679-.538v.538Zm2.2-1-.1.538h-.291v-.538Zm-1.618-.685c.453,0,.615.154.55.513h-.938l.1-.513Zm-1.606-.984c.016-.316.029-.6.041-.854a.5.5,0,0,1,.141.342l-.1.539Zm2.642-.127-.389-.054v.077h-.647v-.205c0-.307.227-.487.647-.539v.058a.973.973,0,0,1,.486-.158Zm-.842-.821-.679-.076c0-.308.226-.463.679-.463Zm1.327-1.282v.23h-.679v-.23Zm.454-3.045v.539h-.357a.559.559,0,0,1-.582-.539l.389-.513C1619.626,241.7,1619.82,241.876,1619.756,242.21Zm-1.133-1.471h.027l.264-.094v.094c.453.053.647.257.647.591v.231h-.355a.5.5,0,0,1-.416-.213,1.97,1.97,0,0,1-.815-.266.609.609,0,0,0-.679.538l.194,1.282-.648.308c0-.057-.027-.077-.027-.132a5.541,5.541,0,0,1-.361.509c.383.343.629.584.869.821l1.008.231v.539l-.369-.018.013.018a4.158,4.158,0,0,0-1.133.23,2.262,2.262,0,0,0-2.3-1.59V243.3c.259,0,.388.077.388.282.582,0,.939-.436,1.133-1.334h.575a1.059,1.059,0,0,0-.964-.71l2.007-.975.583.308.356-.127ZM1613.9,240v.282c0,.359-.226.514-.679.461l.1-.743Zm19.614-.23v-.744h.777v.744Zm6.085-.539.356-1.334,1.165.59a1.526,1.526,0,0,1-1.165.744Zm3.01-1.052v.308h-.356l-.777-.308.389-.513C1642.379,237.662,1642.606,237.842,1642.606,238.175Zm-27.673-.513-1.132,1.052h-1.522c.55-2.1,1.068-3.155,1.522-3.155h1.034l-.1.821-.292-.078a2.108,2.108,0,0,0-.258-.743,1.653,1.653,0,0,1-.388.743l1.132,1.129Zm26.929-1.052v.744h-1.134v-.744Zm0-2.18-.389.513v.308l.389.538-.745.283V234.43Zm-1.91-.231-.356,1.59.356.513c-.486.693-.874,1.052-1.133,1.052,0-.488-.356-.744-1.133-.744a6.56,6.56,0,0,0,1.521-2.411Zm3.431-.821-.389.513c-.453,0-.679-.154-.744-.513Zm-3.431,0v-.538h.776v.538Zm3.819-2.719v.539c-.777.59-1.165,1.154-1.165,1.642h-.356c0-.693-.259-1.052-.777-1.052l1.133-1.334A5.574,5.574,0,0,0,1643.771,230.659Zm-3.819-1.257v.513c0,.36-.227.539-.745.539l.389.513v.231h-.777c0-.693-.745-1.128-2.266-1.283V229.4a4.088,4.088,0,0,0,2.266-.846C1638.819,229.12,1639.207,229.4,1639.952,229.4Zm6.473-.846v.231h-.777v-.231Zm-1.165-.282v.282h-1.133v-.282Zm-1.877-.231v.513l-.389.539c-.453,0-.679-.18-.744-.539,0-.282.259-.462.744-.513Zm-1.91-.539v.77l-1.521-.231v-.308a4.547,4.547,0,0,0,1.165-.231Zm-3.01-1.128v.307h-.777v-.307Zm-1.165-.206v.513c-.421,0-.68-.179-.745-.513Zm6.473-.538v.231h-.777v-.231Zm-7.606,0v.538h-.388v-.526a6.429,6.429,0,0,1-3.4,3.232c-.969.449-11.545,3.338-11.551,3.143v-46.5h7.865c2.469,0,6.182.065,7.174,2.866a9.116,9.116,0,0,1,.344,3.082q-.048,15.593-.03,31.184a8.544,8.544,0,0,1-.313,2.823c-.019.057-.059.1-.081.158Zm1.133-36.06h1.165v.538a3.564,3.564,0,0,0-1.165.308Zm0,5.335h.388v.539h-.388Zm-.357,29.6v-.744l.745.231C1637.686,224.323,1637.427,224.5,1636.941,224.5Zm4.176-.513h.356v.513h-.356Zm2.654,0c0,.282.485.564,1.489.821l-.356.512a3.919,3.919,0,0,1-2.3-1.333v-.231a2.923,2.923,0,0,0,1.909-.821h.389v.821h-1.133Zm4.92-1.052v.514h-1.91l-.744-.232.388-.589A5.4,5.4,0,0,0,1648.691,222.938Zm-6.441-2.95v.231h-.777v-.744C1641.991,219.475,1642.25,219.655,1642.25,219.988Zm.356-8.056c0,.333-.227,7.235-.744,7.235h-.745c.226-.358.356-7.338.356-7.543A3.635,3.635,0,0,0,1642.606,211.932Zm3.431-16.178v15.639h-.777V195.754Zm-5.309,15.126c-.517.436-.776,7.621-.776,8.057l-.745-.283c0-.2.129-7.03.389-7.03l-.389-16.717a1.506,1.506,0,0,0,.389-1.051l.744.23a1.862,1.862,0,0,1-.388,1.129C1639.952,195.574,1640.211,210.88,1640.728,210.88Zm4.92-18.076c0,.872.518,1.282,1.522,1.282l-.389.616c-1.263,0-1.877-.564-1.877-1.667V192.8Zm-1.877-.282v1.052h-.777v-.539h-.388l-1.133.539v-1.052a4.688,4.688,0,0,0,1.91-.308C1643.383,192.419,1643.512,192.522,1643.771,192.522Zm-.388-.539a3.3,3.3,0,0,0-1.521-.513v-.308l.388-.539c1,.462,1.521.822,1.521,1.052v.308Zm1.132-2.411,1.522.846-.389.514v.23l.389.513h-.777c-.226,0-.874-.693-1.877-2.1Zm-4.563-.513c0,.359-.227.513-.745.513v-.513Zm3.819-.538a1.694,1.694,0,0,0-.388-.822h.744v.822Zm4.142-.822-.355.539-.777-.231.389-.539Zm3.432-1.051v.538h-.389v-.538Zm-14.4-2.181v-.512h.357c0,.384.906.923,2.654,1.564C1638.139,185.519,1637.136,185.16,1636.941,184.467Zm11.75-.743v.231a4,4,0,0,0-1.521.282v-.513Zm-2.266,0v.513a4.572,4.572,0,0,0-1.165.23c0-.153-.1-.23-.356-.23a1.421,1.421,0,0,0,.356-.821A3.563,3.563,0,0,0,1646.425,183.724Zm.745-.821v.513h-.745V182.9Zm-4.176.821h-1.132V182.9l.388-.539c.485,0,.744.179.744.539Zm10.626-1.614c-.2.268-.432.254-.754.254v-.307A2.7,2.7,0,0,1,1653.62,182.11Zm-3.8-.053v.615a.657.657,0,0,1-.745-.615Zm-.745-1.566v.514h-.777v-.514Zm-14.791,0v.308h-.777v-.308Zm-6.085.308-1.877.206v-.514l1.877-.307Zm-9.872-.615-.064.307a.383.383,0,0,1-.212.378,2.956,2.956,0,0,0-.08.674h-.776a1.724,1.724,0,0,0-.356-.744l1.132-.615Zm-1.877-.077-.194,1.59h-.291a1.783,1.783,0,0,0-.292-.821,1.729,1.729,0,0,0,.195-.385H1613.8v-.307a5.856,5.856,0,0,0,1.876-.231,1.9,1.9,0,0,0-.355-.821c0-.307.226-.462.744-.513v1.488Zm5.308-.154v-.513h.745v.513Zm16.312-.513v.231h-.776v-.231Zm-2.653-.308v-.744h.356v.744Zm2.653-1.36c.486,0,.745.206.745.616v.513h-.356c-.453,0-.712-.154-.777-.513v-.616Zm3.043-.205v-.539h.356v.539Zm3.4-.847v.308h-.745v-.308Zm-8.739-.512v.512a5.712,5.712,0,0,1-1.133-.2l-.744.2-.389-.512V175.9Zm-16.28-.308v-.231a4.528,4.528,0,0,1,2.265-1.565h.389l.356,1.565-.745-.282A5.967,5.967,0,0,0,1619.5,175.9Zm-1.522-2.411v.615a5.241,5.241,0,0,0-2.3-.615v-.206a4.684,4.684,0,0,0,1.909-.307Zm3.787-.513h.745v.307h-.745Zm-5.21.82-.1.539h-.679l.1-.539Zm18.869,1.873h-.777v-.514C1635.162,175.155,1635.421,175.336,1635.421,175.669Zm-7.606-1.565h-.745v-.615C1627.588,173.489,1627.815,173.694,1627.815,174.1Zm-3.01-.615h-.388c-.454,0-.713-.154-.777-.513v-.231C1624.417,173,1624.805,173.258,1624.805,173.489Zm-11-1.257a2.169,2.169,0,0,1-.1.193l-.054.7a7.509,7.509,0,0,1,1.676,1.209v.191l.193.015v.23h-.679v-.223a4.148,4.148,0,0,1-2.557-1.8c.518,0,.744-.179.744-.513Z" fill="#003097"/>
      <path id="Контур_183" data-name="Контур 183" d="M1543.224,170.123v91.383a11.158,11.158,0,0,0,1.048,4.49q5.01,13.158,16.21,13.158h15.261a15.89,15.89,0,0,0,8.154-2.361q9.137-6.774,9.137-15.287V170.123c0-.364-.23-.571-.688-.623h-16.964a.642.642,0,0,0-.687.623v20.155c.324-.414.646-.69.949-.69h.394v1.583l-1.343-.281v11.545h.2l-.1.831c-.041,0-.06-.033-.1-.038V206.2a.63.63,0,0,1,.491.644h-.491v40.307h.3a.74.74,0,0,1,.851.83h-.459a.787.787,0,0,1-.687-.449v11.012c0,3.945-1.343,5.944-4.028,5.944H1565.2c-2.03,0-3.275-1.3-3.635-3.893v-2.522a3.413,3.413,0,0,0,.655-.126,3.624,3.624,0,0,0-.655-1.777v-.392c.176-.041.3-.119.3-.27a2.827,2.827,0,0,1-.3-.061v-.859a1.628,1.628,0,0,0,.851-1.52h-.851V170.123q0-.546-.688-.623h-16.963A.643.643,0,0,0,1543.224,170.123Zm35.4,6.229v-.389h.492l.851.389-.458.83C1579.05,177.182,1578.756,176.923,1578.624,176.352Zm5.764,2.958v-.83l.393.077v.831Zm2.588,2.907v-.856h.392v.856Zm1.636,3.349v.752h-.492l.1-.752Zm-6.713.985c0,.546-.294.831-.884.831v-.467c0-.441.328-.7.983-.753Zm-2.226.286h-.852v-.363h.852Zm-4.782-.519h.394a3.29,3.29,0,0,0,.359,1.219l-.851.442Zm14.278,10.875c0,.545-.261.83-.851.83v-.389c0-.493.3-.779.851-.831Zm-4.781-3.738.1-.752h.393v.752Zm3.537.156.884.389c0,1.453-1.179,2.232-3.569,2.284v-.39C1587.041,194.779,1587.925,194.026,1587.925,193.611Zm-8.908,3.737v-.467a3.869,3.869,0,0,0,1.834-.753l-.1,1.22Zm7.467.6c0-.493.328-.778.983-.83v.363a.877.877,0,0,1-.983.856Zm-5.37,2.673v-.389H1582v.389Zm3.569.909h.851c0,.545-.327.83-.949.83Zm2.489,4.023V204.8l.491.077v.831Zm3.536.545v-.39l.884.078v.364Zm-.949,53.983v.364h-1.834v-.364Zm-1.245-4.048v.778h-.95l.1-.778Zm.59-5.684a2.681,2.681,0,0,0,.36,1.194v.467c-1.146-.7-1.736-1.272-1.736-1.661Zm-1.376,1.661h-.458v-.831h.458Zm-.851-2.128v.389h-.851v-.389Zm2.129-10.408-.1.83h-.394v-.83Zm-3.472-5.71c.59,0,.885.286.885.831a5.067,5.067,0,0,0-2.227.389v-1.22Zm-2.685.312h-1.343l.1-.389a3.866,3.866,0,0,0,1.343-.468Zm3.472-13.626a2.305,2.305,0,0,0,.458,1.219c-.066.806-.36,1.221-.95,1.221l-.393-2.44ZM1583.9,211.1v.831h-.459l.1-.831Zm8.056-1.3c0,.519-.262.753-.851.753V210.2c0-.467.294-.726.851-.778Zm-.361-1.22v.39l-.982-.078v-.39Zm-6.254-.233a2.809,2.809,0,0,0,.393,1.22l-.851.467v-1.687Zm-1.7-.052-.1.83h-.394v-.83Zm1.343-1.142a.792.792,0,0,1-.983.752v-.83Zm-5.4,1.064v-.467l.885.467.949-.312-.1.753-.459.831C1580,209.054,1579.574,208.612,1579.574,208.223Zm-3.144,1.895v-.39l.852.078v.389Zm1.343.441h.851a.759.759,0,0,1-.851.856Zm3.078-.286v-.389a3.458,3.458,0,0,0,1.343.389c0,1.35-.327,2.05-.983,2.05Zm2.1,3.634c.654,0,.916.285.85.856v.364a.813.813,0,0,1-.85-.831Zm-6.223.986,1.343.156v.389a4.142,4.142,0,0,0-1.343.312Zm5.371,1.064v-.441h.852v.441Zm3.045,1.3-.1.389a4.556,4.556,0,0,0-1.342.311h-.361v-.778Zm-7.564,1.375v-.752h.393v.752Zm2.194-.389.884.078c0,.571-.3.8-.884.753Zm1.637,2.907.1-1.609H1582l-.1,1.609Zm-5.764,1.064v-.857h.492v.857Zm7.5.987.1-1.61h.393v1.61Zm7.107,3.036c0-.415.262-.649.852-.753v.831Zm-3.177.312v.752h-.851v-.752Zm-6.713,1.063c.065-.467.393-.727.95-.778h.393c0,.519-.3.778-.852.778Zm9.3.208.1-.363a.774.774,0,0,1,.851-.831v1.194Zm-4.421.7h.884v.83A.822.822,0,0,1,1585.24,228.519Zm-10.349,4.931a2.83,2.83,0,0,0,.491-1.22h.852v1.22Zm.852,1.609v-.389h.885v.389Zm2.685.156c0-.83-.426-1.22-1.343-1.22v-.83q.1-.7.983-.857l1.7,1.22-.459.83.459.857Zm2.227.83c0-.467.295-.7.851-.752h1.343l.852.441v.83l-.459-.077v-.831l-2.227.389Zm-4.912.6v-.363h.885v.363Zm11.527,0v-.363h.852v.363Zm-5.764.234.852.389c0,.545-.3.831-.95.831Zm4.815.545h.458c.917.441,1.343.882,1.343,1.272l-1.8-.519Zm-7.107,1.738v-.751h.852v.751Zm4.88.234q0-.7.884-.778v.778Zm-.951,1.142v-.467l.852.156v.389Zm1.343.441v-.752h.492v.752Zm1.835-1.972h.458c.393.052.819.623,1.244,1.687v.441C1587.4,240.976,1586.811,240.276,1586.321,239Zm-6.747,2.6v-.39l1.376.078v.467Zm2.62,2.128.851-.39a2.517,2.517,0,0,0,.492,1.22l-.983.389A3.757,3.757,0,0,0,1582.194,243.728Zm-1.441,3.192v-.778h.459v.778Zm1.343.441v-.441h.852v.441Zm3.537-.752a4.355,4.355,0,0,0,1.342-.312c-.392-1.116-.785-1.661-1.245-1.661V243.8h.492c-.065.7.491,1.169,1.7,1.35l-.458.779.36.83-1.343.675C1585.993,247.439,1585.7,247.18,1585.633,246.609Zm-4.028,1.972a5.329,5.329,0,0,0,2.193-.753c.917,2.181,1.932,3.271,3.079,3.271v.389h-.458l-2.227-.389v1.22l-.852-.546.852-1.894-2.587-.908Zm-1.834.7.982.078-.1.83A1.151,1.151,0,0,1,1579.771,249.282Zm1.735,3.711V251.41H1582a4.139,4.139,0,0,0,.36,1.22v.363Zm7.5.623a2.438,2.438,0,0,0-.492,1.194h-.851v-.441c0-.467.3-.7.95-.753Zm-10.677.077a5.2,5.2,0,0,0,1.246,2.8h-.361a3.981,3.981,0,0,0-2.227-.753C1577.38,254.369,1577.839,253.693,1578.329,253.693Zm-1.44,3.271.1-.467h.885v.467Zm7.991.986h.949l-.1,1.584h-.85Zm-6.256,2.206,2.227.519h.459c0-.544-.884-.856-2.686-.908a2.51,2.51,0,0,0,.492-1.22l1.834.078c-.066.8.621,1.22,2.1,1.22a2.929,2.929,0,0,0-.851,1.972l-.982-.389h-1.245a.816.816,0,0,0-.95.7.771.771,0,0,1-.851-.779v-.441Zm-1.8,2.414v-1.22h.459a3.269,3.269,0,0,0,.393,1.22v.389Zm-25.347-1.22h1.245a1.853,1.853,0,0,0,.491.934l-1.833-.311Zm-2.292.857v-.312l1.8.078-.458.519A5.014,5.014,0,0,0,1549.184,262.207Zm2.98,3.4v-.286l3.144.078v.286Zm-.982,2.128.1-1.194h1.245a2.885,2.885,0,0,0-.459,1.194Zm4.421,1.921v-.312h1.342v.312Zm2.128.986c.885,0,1.376-.312,1.408-.908h.394v.908c-.557,0-.885.208-.95.6A.784.784,0,0,1,1557.731,270.642Zm4.487.077h.884c0,.6.262.909.851.909v-.622l.852.077c-1.081.986-1.8,1.454-2.194,1.454Zm5.272,1.3.884.077c0,.39-.327.572-.982.519Zm-12.542,3.114a2.086,2.086,0,0,0,.458-.909h.491l-.1.909Zm.753,3.037.492-.624v-.285h-.885q0-.546.885-.623c0,.312.425.753,1.342,1.3v.311Zm2.292-1.142h1.343c-.065.414-.36.6-.95.6h-.393Zm20.533-.545c0,.207-.163.311-.458.311,0,.415.261.623.851.623l-.393.6.393.6-.851.311h-.491v-.311l.491-.6-.885-.311v-1.219Zm2.325-1.428a1.432,1.432,0,0,0-.491.908l-.851-.078a4.3,4.3,0,0,0,.458-.83Zm2.686-.831v.286l-1.343-.078v-.285Zm-5.371-.155v.6h-.393v-.6Zm-13.918.675v.311l-1.244-.7c0-.337.262-.545.851-.6A2,2,0,0,0,1564.248,274.743Zm-4.814-.753v.285l-.458.624a6.263,6.263,0,0,0-1.834-.39,1.867,1.867,0,0,0,.95-1.427C1559.008,273.367,1559.434,273.679,1559.434,273.99Zm11.724-1.3.95-1.22a1.8,1.8,0,0,0-.492-.908l1.343.078a1.8,1.8,0,0,0,.492.908l-1.835,1.142Zm11.134-1.3v.311h-.884v-.311Zm-2.717-.078a7.481,7.481,0,0,0-2.686.622l.1-.933.885.311h.392l.065-.6h.393C1579.378,270.719,1579.64,270.927,1579.575,271.317Zm3.176-.831v.312h-.852v-.312Zm-16.6,0v.909h-.459l.1-.909Zm2.685-.83v.311a5.535,5.535,0,0,0-1.343.207c0-.207-.393-.285-1.244-.285l.884-.934A3.373,3.373,0,0,0,1568.833,269.656Zm9.137-1.973a2.325,2.325,0,0,0-.983,1.194h-.359v-1.194Zm-16.112.6h-.884v-.311h.884Zm-4.061.234a6.855,6.855,0,0,0-2.685.233,4.581,4.581,0,0,1,.491-.934h1.342l.95-.208Zm.589-2.129v.312h-.949v-.312Zm16.505-.311.1-.389c0-.494.3-.779.851-.831v.39C1575.841,265.788,1575.513,266.074,1574.891,266.074Zm10.742-1.3v.389h-.95l.1-.389Zm0-1.583v1.142h-.492l.1-1.142Zm-9.3.908v-.83a.821.821,0,0,1,.85.908Zm6.221-.622c.851.467,1.244.908,1.244,1.3v.389l-2.193-.077A2.36,2.36,0,0,0,1582.554,263.479Zm-24.168,1.064h-.393a4.414,4.414,0,0,0-2.194-.675l.492-.6a4.558,4.558,0,0,0,2.095.986Zm-.294-3.634a3.921,3.921,0,0,0,1.735.6l-.1,2.751h-.851l.458-1.531v-.311a9.819,9.819,0,0,0-1.7-1.506ZM1546.6,226.468v-.908h.36v.908Zm1.8,15.287-1.342-.986.491-.934a.614.614,0,0,1,.491.623l.852-.468h.491a.751.751,0,0,1,.851.831H1548.4l.394.934Zm.492,17.39v-.287h.851v.287Zm.687-9.344a3.316,3.316,0,0,0-.491,1.817h-.491V249.8Zm9.3-.519h-.492a1.156,1.156,0,0,1-.851-1.012l-.885.389h-.457c.065-.493.982-1.065,2.783-1.661Zm.95-3.14h-.852a.817.817,0,0,1,.852-.909Zm-3.079-1.065.884.467a.8.8,0,0,1-.884.909h-.95l.1-1.376Zm.884-.441V243.8l.95.078C1558.517,244.48,1558.19,244.74,1557.633,244.636Zm2.293-1.219a.891.891,0,0,1-.95.907v-.907Zm-3.079-1.9c.59,0,.884.286.884.909H1555.9l.1-.909Zm-3.144-.077h-.884a3.979,3.979,0,0,0-.393-1.376.8.8,0,0,0,.884-.909c-1.473,0-2.226-.284-2.226-.83a3.024,3.024,0,0,0,1.342-.467l1.343,1.765Zm.066-2.673v-.442l1.343.079v.44Zm3.176-.363H1555.6v-.468a3.288,3.288,0,0,0,1.342-.441Zm-3.537-1.454a3.317,3.317,0,0,0-.883-1.817h1.342v1.817Zm4.487-2.44v.83l-.458-.051v-.935Zm-11.1-1.349v.441h-.884v-.441Zm.95-.779a3.458,3.458,0,0,0-.394-1.427,3.04,3.04,0,0,0,.492-1.3h.36l.393,2.725Zm5.37-2.129v1.3h-.491v-1.3Zm-3.079-.985a4.014,4.014,0,0,0,.394,1.3v.468h-.491l-.852-.468a3.433,3.433,0,0,0,.491-1.3Zm7.107-2.518v.934a2.934,2.934,0,0,0-1.343.441h-.393a7.653,7.653,0,0,0,.491-1.375Zm-3.078-1.427v1.349h-.459l.1-1.349Zm1.833-1.687v1.375c-.883-.545-1.309-1.012-1.244-1.375Zm-6.156-1.584-.458.909a3.552,3.552,0,0,0-1.736-.986v-.467a2.985,2.985,0,0,0,1.834-.286Zm2.685-2.517c.655,0,.95.285.884.831h-.392c-.525,0-.787-.261-.852-.831Zm-.753-4.931.1-1.376.852.467A.83.83,0,0,1,1551.673,214.608Zm3.177-1.221v.442a1.06,1.06,0,0,1-.885-1.064v-.442A.96.96,0,0,1,1554.85,213.387Zm-3.963-3.814v.467h-.852v-.467Zm.1-1.817v.908c-.883,0-1.342.312-1.342.909-.491,0-.786-.286-.851-.909a4.324,4.324,0,0,0-1.343.312c-.885,0-1.343-.286-1.343-.831a4.034,4.034,0,0,1,1.343.363,11,11,0,0,1,2.194-2.128A1.21,1.21,0,0,0,1550.985,207.756Zm-3.045-1.453v-1.351l.458.131-.1,1.3Zm.852-1.22.1-1.35h.851v1.35Zm8.055-.676H1556V203.5C1556.553,203.5,1556.847,203.811,1556.847,204.407Zm1.441-22.813h-.851a.893.893,0,0,1,.851-.908Zm-2.095-4.022-.1.908h-.393v-.908Z" fill="#003097"/>
    </g>
  </g>
</svg>
