<svg xmlns="http://www.w3.org/2000/svg" xmlns:xlink="http://www.w3.org/1999/xlink" width="280.63" height="139.64" viewBox="0 0 280.63 139.64">
  <defs>
    <clipPath id="clip-Монтажная_область_1">
      <rect width="280.63" height="139.64"/>
    </clipPath>
  </defs>
  <g id="Монтажная_область_1" data-name="Монтажная область – 1" clip-path="url(#clip-Монтажная_область_1)">
    <g id="Сгруппировать_154" data-name="Сгруппировать 154" transform="translate(0 -79)">
      <g id="Сгруппировать_147" data-name="Сгруппировать 147">
        <g id="Сгруппировать_142" data-name="Сгруппировать 142">
          <path id="Контур_542" data-name="Контур 542" d="M223.521,86.523c-7.283,1.993-21.111,9.3-18.715,36.006,3.227,35.972,54.576,34.8,51.5-3.766-1.76-22.076-12.513-37.788-32.785-32.24Zm5,22.805c-1.858.508-5.385,2.373-4.773,9.184.823,9.175,13.92,8.875,13.135-.961-.449-5.631-3.191-9.638-8.362-8.223Z" fill="#fff" fill-rule="evenodd"/>
          <path id="Контур_543" data-name="Контур 543" d="M224.273,89.957c-6.466,1.769-18.743,8.26-16.616,31.968,2.866,31.936,48.455,30.892,45.724-3.344-1.563-19.6-11.11-33.55-29.108-28.624Zm4.435,20.247c-1.65.451-4.781,2.107-4.238,8.154.731,8.145,12.358,7.879,11.662-.853-.4-5-2.834-8.557-7.424-7.3Z" fill="#3d0a7a" fill-rule="evenodd"/>
          <path id="Контур_544" data-name="Контур 544" d="M225.226,94.47c-5.4,1.479-15.666,6.9-13.89,26.713,2.393,26.686,40.5,25.81,38.217-2.8-1.3-16.377-9.284-28.033-24.327-23.916Zm3.705,16.918c-1.379.378-4,1.761-3.542,6.814.61,6.806,10.328,6.583,9.747-.714-.333-4.177-2.368-7.15-6.205-6.1Z" fill="#fff" fill-rule="evenodd"/>
        </g>
        <g id="Сгруппировать_143" data-name="Сгруппировать 143">
          <path id="Контур_545" data-name="Контур 545" d="M179.43,149.485c9.746,6.335,46.6,3.171,43.424-16.365-2.348-14.434-12.771-15.023-22.051-11.684,1.819-5.561.722-27.317-13.1-30.716-25.9-6.374-17.826,52.558-8.278,58.765Z" fill="#fff" fill-rule="evenodd"/>
          <path id="Контур_546" data-name="Контур 546" d="M194.848,149.367a45.116,45.116,0,0,1-7.621-.3c-5.183-.669-8.633-4.727-10.013-8-2.306-5.464-7.277-32.488-.86-42.614a9.058,9.058,0,0,1,7.342-4.482,9.348,9.348,0,0,1,1.071.016,11.436,11.436,0,0,1,8.39,4.721c5.424,7.083,5.4,20.181,4.114,26.773-.011.051-.02.1-.03.152l.13-.05c3.141-1.214,6.689-2.585,10.17-2.731,3.641-.152,10.013,1.026,11.788,10.63a9.482,9.482,0,0,1-2.036,7.712C212.9,146.713,202.815,149.033,194.848,149.367Z" fill="#3d0a7a" fill-rule="evenodd"/>
          <path id="Контур_547" data-name="Контур 547" d="M194.725,146.435a42.039,42.039,0,0,1-7.121-.274c-3.95-.51-6.609-3.675-7.686-6.229-2.47-5.854-6.511-31.341-1.085-39.9a6.13,6.13,0,0,1,4.985-3.122,6.559,6.559,0,0,1,.739.012,8.473,8.473,0,0,1,6.27,3.577c4.581,5.984,4.842,17.887,3.564,24.427-.236,1.2-.787,4.024-.269,4.628.068.079.3.078.389.074a3.84,3.84,0,0,0,1.035-.228c.9-.305,1.865-.678,2.887-1.074,2.921-1.129,6.231-2.409,9.231-2.534,4.78-.2,7.733,2.569,8.779,8.23a6.506,6.506,0,0,1-1.444,5.35C211.213,144.117,201.712,146.143,194.725,146.435Z" fill="#fff" fill-rule="evenodd"/>
          <path id="Контур_548" data-name="Контур 548" d="M181.044,139.457c.934,2.213,3.292,5.049,6.717,5.492,11.746,1.519,28.953-2.728,27.48-10.707-2.216-12-12.521-5.99-19.3-3.687-4.019,1.365-3.455-2.259-2.75-5.866,1.634-8.359.54-25.892-8.719-26.551-11.464-.816-6.367,34.35-3.427,41.319Z" fill="#d7006c" fill-rule="evenodd"/>
        </g>
        <g id="Сгруппировать_144" data-name="Сгруппировать 144">
          <path id="Контур_549" data-name="Контур 549" d="M113.957,89.313c-23.026-2.4-21.984,8-24.671,27.886-2.04,15.1-6.607,30.641,14.6,34.628,13.67,2.57,29.222,2.546,30.618-12.517.694-7.495-3.734-9.214-7.549-9.949,5.893.013,8.078-11.072,1.3-13.277,1.9-.805,7.763,1.5,8.053-10.807.28-11.88-11.386-14.82-22.352-15.964Z" fill="#fff" fill-rule="evenodd"/>
          <path id="Контур_550" data-name="Контур 550" d="M114.395,92.58C93.886,90.44,94.863,99.885,92.47,117.6c-1.817,13.452-6.535,27.3,12.357,30.851,17.305,3.253,25.651-1.4,26.311-7.931,1.11-10.977-6.351-10-15.944-10.734-.936.008-.92-.71,0-.679,8.881.232,12.976-1.33,13.435-6.744.412-4.866-3.994-6.719-9.349-7.568-.957-.152-.982-.749-.019-.648,10.361,1.086,14.2-.72,13.75-9.533-.311-6.1-7-10.82-18.614-12.033Z" fill="#3d0a7a" fill-rule="evenodd"/>
          <path id="Контур_551" data-name="Контур 551" d="M113.786,96.285c-17.2-1.793-15.461,6.3-17.524,21.672-1.567,11.675-6.518,23.8,9.322,26.823,14.509,2.768,20.677-.656,21.3-6.314.633-5.748-6.557-6.788-14.243-7.4-2.243-.178-1.893-4.183.656-4.148,6.8.1,10.567-.594,10.949-5.071.4-4.718-4.706-5.434-10.177-5.9-2.439-.213-1.645-3.958.539-3.916,8.148.15,14.056.952,14.334-5.365.241-5.458-5.411-9.365-15.155-10.38Z" fill="#fff" fill-rule="evenodd"/>
        </g>
        <g id="Сгруппировать_145" data-name="Сгруппировать 145">
          <path id="Контур_552" data-name="Контур 552" d="M35.193,145.979c12.574,1.956,15.949-3.794,17.522-8.674,2.485-7.708.26-4.059,5.334-3.583,3.676.346,4.377-2.927,4.177,2.922C62.06,141.5,64.7,150.92,77.377,149.859c14.08-1.18,12.653-19.672,13.321-31.955.641-11.784,3.373-30-14.71-31.271-7.725-.544-11.118,2.291-13.157,7.416-.39.979-1.335,1.778-2.263-.29-1.1-2.454-3.686-9.985-15.831-9.792-9.47.151-12.953,7.5-14.578,15.89-1.135,5.862-2.829,21.967-3.09,24.538-1.018,10.006-.437,20.254,8.124,21.584Z" fill="#fff" fill-rule="evenodd"/>
          <path id="Контур_553" data-name="Контур 553" d="M37.7,142.971c18.176,2.827,12.652-22.3,16.68-15.089,1.264,2.261,5.99,3.436,8.112,1.041,5.937-6.7-4.368,19,13.706,17.482,12.561-1.054,11.175-19.033,11.616-29.752.416-10.066,2.9-25.387-11.566-26.754-10.364-.98-11.006,4.456-13.759,10.425-.4.859-1.323,1.4-2.137-.459C59.268,97.379,57.77,88,46.26,87.347,37.119,86.826,34.418,93.739,33.3,100.9c-.542,3.464-2.187,16.782-2.692,20.969-1.145,9.491-1.083,19.829,7.094,21.1Z" fill="#3d0a7a" fill-rule="evenodd"/>
          <path id="Контур_554" data-name="Контур 554" d="M40.735,139.63c10.362.925,9.659-20.252,9.945-21.708s1.744-.457,1.744-.457,1.885,8.312,6.968,8.534,6.625-6.7,7.376-7.255,1.966-.748,2.073.665-4.6,22.318,5.476,23.217c6.088.543,7.9-5.641,8.58-12.722.446-4.638,1.416-18.5,1.5-21.8.171-6.824-1.268-14.51-10.029-14.826-7.194-.259-8.269,7.85-11.5,12.96-.442.7-2.991,1.057-3.7-.57-.946-2.171-3.077-13.913-10.954-14.616-7.18-.64-9.668,4.3-10.727,9.938-.682,3.63-2.39,17.811-2.881,22.156-.891,7.9-.55,15.89,6.135,16.486Z" fill="#fff" fill-rule="evenodd"/>
        </g>
        <g id="Сгруппировать_146" data-name="Сгруппировать 146">
          <path id="Контур_555" data-name="Контур 555" d="M140.444,150.977c9.473,6.737,46.427,5.115,44.069-14.537-1.742-14.519-12.132-15.543-21.543-12.594,2.05-5.481,1.862-27.263-11.8-31.237-25.617-7.45-20.007,51.768-10.726,58.368Z" fill="#fff" fill-rule="evenodd"/>
          <path id="Контур_556" data-name="Контур 556" d="M155.853,151.5a45.029,45.029,0,0,1-7.6-.613c-5.151-.886-8.428-5.084-9.67-8.411-2.076-5.555-5.914-32.764.921-42.613a9.058,9.058,0,0,1,7.522-4.171,9.589,9.589,0,0,1,1.069.06,11.44,11.44,0,0,1,8.186,5.068c5.123,7.3,4.554,20.389,2.992,26.921-.013.051-.025.1-.036.151l.132-.045c3.188-1.081,6.791-2.3,10.275-2.3,3.644,0,9.962,1.443,11.334,11.112a9.489,9.489,0,0,1-2.356,7.621C174,149.606,163.828,151.5,155.853,151.5Z" fill="#3d0a7a" fill-rule="evenodd"/>
          <path id="Контур_557" data-name="Контур 557" d="M155.853,148.569a42.071,42.071,0,0,1-7.1-.571c-3.925-.675-6.45-3.948-7.419-6.545-2.224-5.952-5.2-31.586.583-39.914a6.127,6.127,0,0,1,5.111-2.91,6.651,6.651,0,0,1,.737.042,8.477,8.477,0,0,1,6.116,3.836c4.326,6.17,4.09,18.073,2.54,24.555-.286,1.193-.955,3.988-.462,4.613.065.081.291.09.386.09a3.851,3.851,0,0,0,1.043-.185c.911-.267,1.892-.6,2.93-.952,2.965-1.006,6.325-2.147,9.328-2.147,4.784,0,7.62,2.89,8.428,8.59a6.508,6.508,0,0,1-1.666,5.285C172.424,146.942,162.846,148.569,155.853,148.569Z" fill="#fff" fill-rule="evenodd"/>
          <path id="Контур_558" data-name="Контур 558" d="M142.476,141.025c.84,2.25,3.078,5.182,6.481,5.768,11.672,2.008,29.042-1.516,27.9-9.55-1.713-12.081-12.259-6.507-19.13-4.49-4.072,1.2-3.357-2.4-2.5-5.975,1.982-8.284,1.621-25.847-7.6-26.892-11.42-1.294-7.8,34.054-5.15,41.139Z" fill="#d7006c" fill-rule="evenodd"/>
        </g>
      </g>
      <g id="Сгруппировать_150" data-name="Сгруппировать 150">
        <ellipse id="Эллипс_3" data-name="Эллипс 3" cx="77.183" cy="22.842" rx="77.183" ry="22.842" transform="translate(24.191 167.324)" fill="#fff"/>
        <g id="Сгруппировать_149" data-name="Сгруппировать 149">
          <path id="Контур_559" data-name="Контур 559" d="M161.362,185.693a3.9,3.9,0,0,0-5.637.21,3.493,3.493,0,0,0-2.89-1.311h0a3.632,3.632,0,0,0-2.132.745,3.986,3.986,0,0,0-.609.587,3.7,3.7,0,0,0-2.972-1.332h0a3.85,3.85,0,0,0-2.668,1.12c-.089.09-.157.193-.236.29a7.472,7.472,0,0,0-.667-.494,7.083,7.083,0,0,0-3.813-1.1,7.3,7.3,0,0,0-2.948.6,6.837,6.837,0,0,0-1.48.892v-1.763a3.816,3.816,0,0,0-1.048-2.666,3.759,3.759,0,0,0-5.272-.168,3.756,3.756,0,0,0-5.271.169,3.816,3.816,0,0,0-1.037,2.665v.725a3.831,3.831,0,0,0-1.284-.227,3.7,3.7,0,0,0-1.447.288,6.109,6.109,0,0,0-2.651-.507h-.013a6.337,6.337,0,0,0-3.27,1.1,7.1,7.1,0,0,0-1.456,1.324,5.108,5.108,0,0,0-2.061-1.8,6.818,6.818,0,0,0-2.68-.626,6.328,6.328,0,0,0-2.1.328,6.715,6.715,0,0,0-.8.343,6.188,6.188,0,0,0-5.219-.18l-.007,0a3.991,3.991,0,0,0-1.583-.308,3.7,3.7,0,0,0-2.71,1.171,4.082,4.082,0,0,0-.254.322,5.194,5.194,0,0,0-1.558-1.1,6.7,6.7,0,0,0-2.993-.577v-.279a3.869,3.869,0,0,0-1.007-2.646,3.767,3.767,0,0,0-5.5-.025,3.834,3.834,0,0,0-1.047,2.671v.931a6.17,6.17,0,0,0-.927-.347,6.665,6.665,0,0,0-5.14.439c-.079.042-.148.094-.224.139a3.726,3.726,0,0,0-2.323-.886,4.737,4.737,0,0,0-2.1.49,4.076,4.076,0,0,0-1.472-.268,3.773,3.773,0,0,0-2.553.98,3.738,3.738,0,0,0-2.547-.98,3.692,3.692,0,0,0-1.446.288,6.109,6.109,0,0,0-2.651-.507h-.014a6.337,6.337,0,0,0-3.269,1.1,7.11,7.11,0,0,0-1.527,1.412l-.33-1.911a4.5,4.5,0,0,0-1.407-2.641,4.252,4.252,0,0,0-2.929-1.119,4,4,0,0,0-3.13,1.393,6.805,6.805,0,0,0-.923,1.477,8.135,8.135,0,0,0-.648-1.184,3.9,3.9,0,0,0-3.355-1.686,3.986,3.986,0,0,0-3.248,1.379,4.144,4.144,0,0,0-.816,1.392,10.118,10.118,0,0,0-.347,1.407l-1.5,8.639c-.025.168-.051.344-.077.543l-.089.76a2.324,2.324,0,0,0-.012.514,3.841,3.841,0,0,0,1.171,2.464,3.731,3.731,0,0,0,2.63,1.031,3.778,3.778,0,0,0,3.1-1.586,3.682,3.682,0,0,0,.671.735,4.073,4.073,0,0,0,2.707.848h.007a3.773,3.773,0,0,0,2.563-1.029,3.959,3.959,0,0,0,.439-.51,3.96,3.96,0,0,0,.291.356,3.713,3.713,0,0,0,2.778,1.186,3.854,3.854,0,0,0,2.7-1.048,3.779,3.779,0,0,0,.444-.514,7.179,7.179,0,0,0,.668.558,6.208,6.208,0,0,0,3.741,1.19,5.739,5.739,0,0,0,2.385-.486,4.041,4.041,0,0,0,1.575.3c.069,0,.138,0,.223-.01a3.683,3.683,0,0,0,2.186-.989,3.907,3.907,0,0,0,1.992.968,2.318,2.318,0,0,0,.38.031,4.044,4.044,0,0,0,2.67-.947,3.476,3.476,0,0,0,.937-1.283,4.555,4.555,0,0,0,1.383,1.354,8.035,8.035,0,0,0,4.22,1.062,6.741,6.741,0,0,0,2.834-.605,5.783,5.783,0,0,0,1.3-.817c.029.031.049.067.079.1a3.807,3.807,0,0,0,5.447-.018,4.133,4.133,0,0,0,.329-.4,3.885,3.885,0,0,0,.312.382,3.659,3.659,0,0,0,2.72,1.174,3.706,3.706,0,0,0,2.609-1.029,3.787,3.787,0,0,0,5.319-.127c.061-.066.12-.133.177-.2.063.076.129.15.2.221a3.806,3.806,0,0,0,5.446-.02c.058-.062.115-.125.168-.19q.091.109.192.213a3.807,3.807,0,0,0,5.444-.023,3.766,3.766,0,0,0,.48-.638,7.065,7.065,0,0,0,.891.791,6.208,6.208,0,0,0,3.741,1.19,5.739,5.739,0,0,0,2.385-.486,4.041,4.041,0,0,0,1.575.3c.071,0,.139,0,.224-.01a3.636,3.636,0,0,0,2.162-.963,3.754,3.754,0,0,0,5.059-.014,3.726,3.726,0,0,0,2.545.987,3.68,3.68,0,0,0,2.719-1.147,3.792,3.792,0,0,0,.491-.647,6.887,6.887,0,0,0,1.2.951,7.422,7.422,0,0,0,6.754.4,6.844,6.844,0,0,0,2.333-1.739A7.552,7.552,0,0,0,145.87,196l.133.378a4.746,4.746,0,0,0,1.355,2.083,3.957,3.957,0,0,0,2.659.911,3.841,3.841,0,0,0,2.683-.979c.068-.063.133-.129.2-.2.062.067.126.132.191.193a3.829,3.829,0,0,0,2.693.984,3.994,3.994,0,0,0,2.651-.9,5.029,5.029,0,0,0,1.4-2.11l1.98-5.641.235-.648a7.227,7.227,0,0,0,.221-.709,4.147,4.147,0,0,0,.134-1.038A3.707,3.707,0,0,0,161.362,185.693ZM62.3,190.707v1.156h0Zm55.648,1.156s-.009,0-.013,0v-1.156Zm-43.32.815v-.053l.018.032Z" fill="#3d0a7a"/>
          <g id="Сгруппировать_148" data-name="Сгруппировать 148">
            <path id="Контур_560" data-name="Контур 560" d="M42.005,185.822a7.984,7.984,0,0,1,.254-1.044,1.8,1.8,0,0,1,.377-.631,1.769,1.769,0,0,1,1.49-.576,1.6,1.6,0,0,1,1.428.663,8.743,8.743,0,0,1,.9,1.96l1.676,5.183h.036l1.8-5.669a5.652,5.652,0,0,1,.868-1.574,1.658,1.658,0,0,1,1.348-.563,1.934,1.934,0,0,1,1.356.506,2.225,2.225,0,0,1,.688,1.314l1.6,9.108c.009.076.029.246.063.511a5.308,5.308,0,0,1,.05.588,1.365,1.365,0,0,1-.441,1.037,1.544,1.544,0,0,1-1.1.415,1.374,1.374,0,0,1-1.065-.433,1.961,1.961,0,0,1-.479-1.128l-.986-6.322h-.036l-2.048,6.58a2.119,2.119,0,0,1-.52.935,1.536,1.536,0,0,1-1.042.368,1.72,1.72,0,0,1-1.122-.313,1.954,1.954,0,0,1-.572-.99l-2.08-6.58H44.4l-.854,5.873q-.3,2.01-1.712,2.01a1.422,1.422,0,0,1-1.024-.388,1.51,1.51,0,0,1-.461-.991c0-.018.013-.109.032-.273s.038-.332.061-.508.047-.342.071-.5Z" fill="#fff"/>
            <path id="Контур_561" data-name="Контур 561" d="M58.131,189.131a4.845,4.845,0,0,1,1.544-1.7,4.015,4.015,0,0,1,2.084-.7,3.68,3.68,0,0,1,1.579.3,3.232,3.232,0,0,1,1.083.837,1.391,1.391,0,0,1,.539-.678,1.492,1.492,0,0,1,1.825.172,1.479,1.479,0,0,1,.424,1.119v7.085a1.561,1.561,0,0,1-.346.984,1.311,1.311,0,0,1-.958.5,1.524,1.524,0,0,1-.994-.308,1.545,1.545,0,0,1-.49-.6,2.979,2.979,0,0,1-2.475,1.1,3.9,3.9,0,0,1-2.369-.742,4.866,4.866,0,0,1-1.567-1.949,6.736,6.736,0,0,1-.606-2.555A6.5,6.5,0,0,1,58.131,189.131Zm4.169.408a1.688,1.688,0,0,0-1.433.708,3.029,3.029,0,0,0-.561,1.743,2.764,2.764,0,0,0,.543,1.725,1.732,1.732,0,0,0,1.451.712,1.852,1.852,0,0,0,1.091-.32,1.943,1.943,0,0,0,.687-.876,3.224,3.224,0,0,0,.229-1.241,2.83,2.83,0,0,0-.527-1.752A1.748,1.748,0,0,0,62.3,189.539Z" fill="#fff"/>
            <path id="Контур_562" data-name="Контур 562" d="M69.4,188.477a1.426,1.426,0,0,1,1.453-1.525,1.705,1.705,0,0,1,.886.234,1.3,1.3,0,0,1,.564.678,2.654,2.654,0,0,1,2.12-1.134,1.309,1.309,0,0,1,.99.492,1.623,1.623,0,0,1,.386,1.069,1.058,1.058,0,0,1-.436.939,4.838,4.838,0,0,1-1.278.561,4.59,4.59,0,0,0-1.147.474,1.7,1.7,0,0,0-.635,1.52v3.663a1.509,1.509,0,0,1-.457,1.212,1.725,1.725,0,0,1-1.161.39,1.555,1.555,0,0,1-.926-.492,1.536,1.536,0,0,1-.359-1.069Z" fill="#fff"/>
            <path id="Контур_563" data-name="Контур 563" d="M76.044,195.226a1.531,1.531,0,0,1,.332-1.015,1.032,1.032,0,0,1,.822-.4,1.945,1.945,0,0,1,.657.111,7.333,7.333,0,0,1,.744.327,6.839,6.839,0,0,0,.743.325,2,2,0,0,0,.663.109q.84-.051.84-.577a.544.544,0,0,0-.209-.46,4.9,4.9,0,0,0-.988-.466q-.779-.3-1.074-.431a7.733,7.733,0,0,1-1.3-.662,2.162,2.162,0,0,1-.733-.806,2.675,2.675,0,0,1-.252-1.246,3.055,3.055,0,0,1,.462-1.609,3.41,3.41,0,0,1,1.329-1.232,4.08,4.08,0,0,1,1.969-.467,5.3,5.3,0,0,1,1.434.22,3.52,3.52,0,0,1,1.338.688,1.451,1.451,0,0,1,.556,1.157,1.23,1.23,0,0,1-.336.9,1.138,1.138,0,0,1-.854.347,1.524,1.524,0,0,1-.527-.136c-.223-.091-.43-.178-.619-.263a5.47,5.47,0,0,0-.591-.225,1.936,1.936,0,0,0-.588-.1.912.912,0,0,0-.547.157.532.532,0,0,0-.216.456q0,.336.686.649.749.3,1.678.674a4.494,4.494,0,0,1,1.551,1.021A2.378,2.378,0,0,1,83.634,194a2.94,2.94,0,0,1-.511,1.714,3.319,3.319,0,0,1-1.365,1.13,4.417,4.417,0,0,1-1.862.392,5.735,5.735,0,0,1-3.016-.726A1.537,1.537,0,0,1,76.044,195.226Z" fill="#fff"/>
            <path id="Контур_564" data-name="Контур 564" d="M85.363,195.562V184.129a1.523,1.523,0,0,1,.417-1.08,1.367,1.367,0,0,1,1.036-.445,1.349,1.349,0,0,1,1.047.443,1.551,1.551,0,0,1,.4,1.082v3.327h.04a5.068,5.068,0,0,1,2.471-.726,4.418,4.418,0,0,1,1.846.372,2.882,2.882,0,0,1,1.292,1.143,3.591,3.591,0,0,1,.473,1.907v5.41a1.475,1.475,0,0,1-.409,1.062,1.408,1.408,0,0,1-1.063.426,1.322,1.322,0,0,1-1.015-.429,1.5,1.5,0,0,1-.4-1.059v-4.611a1.809,1.809,0,0,0-.439-1.264,1.531,1.531,0,0,0-1.2-.484,1.5,1.5,0,0,0-1.163.486,1.8,1.8,0,0,0-.44,1.262v4.611a1.491,1.491,0,0,1-.4,1.062,1.484,1.484,0,0,1-2.084,0A1.46,1.46,0,0,1,85.363,195.562Z" fill="#fff"/>
            <path id="Контур_565" data-name="Контур 565" d="M96.652,195.562v-7.121a1.506,1.506,0,0,1,.427-1.076,1.363,1.363,0,0,1,1.026-.449,1.5,1.5,0,0,1,.942.281,1.48,1.48,0,0,1,.507.667,2.354,2.354,0,0,1,1.061-.832,3.618,3.618,0,0,1,1.45-.3,3.163,3.163,0,0,1,2.7,1.211l.737-.515a4.139,4.139,0,0,1,.992-.5,3.977,3.977,0,0,1,1.323-.2,4.393,4.393,0,0,1,1.683.4,2.846,2.846,0,0,1,1.217,1.112,3.578,3.578,0,0,1,.465,1.909v5.41a1.49,1.49,0,0,1-.4,1.062,1.485,1.485,0,0,1-2.085,0,1.463,1.463,0,0,1-.415-1.059v-4.611a1.987,1.987,0,0,0-.386-1.239,1.365,1.365,0,0,0-2.128,0,1.981,1.981,0,0,0-.388,1.237v4.611a1.491,1.491,0,0,1-.4,1.062,1.485,1.485,0,0,1-2.085,0,1.463,1.463,0,0,1-.415-1.059v-4.611a1.966,1.966,0,0,0-.391-1.239,1.263,1.263,0,0,0-1.058-.509,1.285,1.285,0,0,0-1.073.511,1.945,1.945,0,0,0-.4,1.237v4.611a1.491,1.491,0,0,1-.4,1.062,1.484,1.484,0,0,1-2.084,0A1.46,1.46,0,0,1,96.652,195.562Z" fill="#fff"/>
            <path id="Контур_566" data-name="Контур 566" d="M113.767,189.131a4.845,4.845,0,0,1,1.544-1.7,4.018,4.018,0,0,1,2.084-.7,3.677,3.677,0,0,1,1.579.3,3.232,3.232,0,0,1,1.083.837,1.393,1.393,0,0,1,.54-.678,1.49,1.49,0,0,1,1.824.172,1.479,1.479,0,0,1,.424,1.119v7.085a1.566,1.566,0,0,1-.345.984,1.313,1.313,0,0,1-.959.5,1.526,1.526,0,0,1-.994-.308,1.554,1.554,0,0,1-.49-.6,2.979,2.979,0,0,1-2.475,1.1,3.9,3.9,0,0,1-2.369-.742,4.866,4.866,0,0,1-1.567-1.949,6.774,6.774,0,0,1-.606-2.555A6.518,6.518,0,0,1,113.767,189.131Zm4.169.408a1.688,1.688,0,0,0-1.433.708,3.036,3.036,0,0,0-.561,1.743,2.764,2.764,0,0,0,.543,1.725,1.732,1.732,0,0,0,1.451.712,1.855,1.855,0,0,0,1.092-.32,1.941,1.941,0,0,0,.686-.876,3.224,3.224,0,0,0,.229-1.241,2.83,2.83,0,0,0-.527-1.752A1.745,1.745,0,0,0,117.936,189.539Z" fill="#fff"/>
            <path id="Контур_567" data-name="Контур 567" d="M125,195.562V184.129a1.51,1.51,0,0,1,.407-1.073,1.461,1.461,0,0,1,2.082,0,1.5,1.5,0,0,1,.413,1.069v11.433a1.472,1.472,0,0,1-.411,1.059,1.487,1.487,0,0,1-2.087,0A1.488,1.488,0,0,1,125,195.562Z" fill="#fff"/>
            <path id="Контур_568" data-name="Контур 568" d="M130.078,195.562V184.129a1.509,1.509,0,0,1,.406-1.073,1.461,1.461,0,0,1,2.082,0,1.5,1.5,0,0,1,.413,1.069v11.433a1.475,1.475,0,0,1-.41,1.059,1.487,1.487,0,0,1-2.087,0A1.484,1.484,0,0,1,130.078,195.562Z" fill="#fff"/>
            <path id="Контур_569" data-name="Контур 569" d="M139.732,197.236a4.818,4.818,0,0,1-2.577-.685,4.546,4.546,0,0,1-1.714-1.886,5.9,5.9,0,0,1-.6-2.675,6.133,6.133,0,0,1,.341-2.058,4.96,4.96,0,0,1,.983-1.684,4.441,4.441,0,0,1,1.553-1.119,4.96,4.96,0,0,1,2.014-.4,4.721,4.721,0,0,1,2.554.733A4.8,4.8,0,0,1,144,189.376a5.733,5.733,0,0,1,.6,2.614,6.107,6.107,0,0,1-.354,2,5.26,5.26,0,0,1-.981,1.68,4.54,4.54,0,0,1-1.547,1.15A4.72,4.72,0,0,1,139.732,197.236Zm0-2.809a1.777,1.777,0,0,0,1.069-.322,1.967,1.967,0,0,0,.674-.878,3.233,3.233,0,0,0,.228-1.237,2.847,2.847,0,0,0-.508-1.736,1.781,1.781,0,0,0-1.463-.715,1.715,1.715,0,0,0-1.474.706,2.881,2.881,0,0,0-.515,1.745,2.914,2.914,0,0,0,.506,1.733,1.694,1.694,0,0,0,1.405.74.164.164,0,0,1,.048-.029A.1.1,0,0,1,139.732,194.427Z" fill="#fff"/>
            <path id="Контур_570" data-name="Контур 570" d="M148.192,195.6l-1.989-5.669a5.743,5.743,0,0,1-.486-1.6,1.359,1.359,0,0,1,.39-.992,1.565,1.565,0,0,1,1.1-.424,1.334,1.334,0,0,1,1.376,1.062l1.435,4.683h.037l1.3-4.07a5.663,5.663,0,0,1,.3-.831,1.6,1.6,0,0,1,.47-.588,1.34,1.34,0,0,1,.793-.256,1.118,1.118,0,0,1,.979.426,5.052,5.052,0,0,1,.583,1.249l1.3,4.07h.041l1.412-4.683a1.32,1.32,0,0,1,1.4-1.062,1.419,1.419,0,0,1,1.067.4,1.4,1.4,0,0,1,.386,1.019,1.846,1.846,0,0,1-.061.458q-.062.242-.152.49l-.237.649-1.989,5.669a2.706,2.706,0,0,1-.71,1.1,1.736,1.736,0,0,1-1.152.349,1.544,1.544,0,0,1-1.1-.349,2.589,2.589,0,0,1-.61-1.139l-1.154-3.459h-.04l-1.132,3.459a2.658,2.658,0,0,1-.633,1.134,1.551,1.551,0,0,1-1.1.354,1.709,1.709,0,0,1-1.146-.351A2.539,2.539,0,0,1,148.192,195.6Z" fill="#fff"/>
          </g>
        </g>
      </g>
    </g>
  </g>
</svg>
