<svg xmlns="http://www.w3.org/2000/svg" xmlns:xlink="http://www.w3.org/1999/xlink" width="280.63" height="139.64" viewBox="0 0 280.63 139.64">
  <defs>
    <filter id="COOKIES" x="133.875" y="88.906" width="98.835" height="30" filterUnits="userSpaceOnUse">
      <feOffset dx="2.835" input="SourceAlpha"/>
      <feGaussianBlur result="blur"/>
      <feFlood flood-color="#161615" flood-opacity="0.749"/>
      <feComposite operator="in" in2="blur"/>
      <feComposite in="SourceGraphic"/>
    </filter>
    <clipPath id="clip-Монтажная_область_7">
      <rect width="280.63" height="139.64"/>
    </clipPath>
  </defs>
  <g id="Монтажная_область_7" data-name="Монтажная область – 7" clip-path="url(#clip-Монтажная_область_7)">
    <g id="Сгруппировать_159" data-name="Сгруппировать 159" transform="translate(-562 -381)">
      <g id="Сгруппировать_125" data-name="Сгруппировать 125">
        <g id="Сгруппировать_124" data-name="Сгруппировать 124">
          <g id="Сгруппировать_122" data-name="Сгруппировать 122" opacity="0.75" style="mix-blend-mode: multiply;isolation: isolate">
            <path id="Контур_469" data-name="Контур 469" d="M780.9,413.771q-1.226,5.828-2.3,11.393t-1.808,10.72q1.777-.15,3.4-.187t3.4.037q-.308-1.866-.674-4.519t-.736-5.6q-.367-2.951-.7-6.014T780.9,413.771Zm-14.83,39.743q.183-2.838.827-7.022t1.562-9.039q.921-4.857,2.023-9.936t2.176-9.674q1.071-4.594,2.022-8.292t1.563-5.79q1.531-.3,3.094-.449t3.279-.149a12.784,12.784,0,0,1,2.145.187,6.793,6.793,0,0,1,2.084.71q.612,4.855,1.409,11.056t1.808,12.924q1.011,6.723,2.329,13.484t3.034,12.663a10.933,10.933,0,0,1-3.157,1.045,19.809,19.809,0,0,1-3.768.374,5.209,5.209,0,0,1-1.165-1.27,8.16,8.16,0,0,1-.888-2.017,30.311,30.311,0,0,1-.767-3.138q-.367-1.867-.8-4.706a9.665,9.665,0,0,0-1.532-.075q-1.166,0-2.575.038t-2.88.112q-1.47.074-2.513.149a28.384,28.384,0,0,0-.765,4.52q-.276,2.726-.4,5.715a4.061,4.061,0,0,1-1.225.186q-.858.037-1.87.038a19.347,19.347,0,0,1-2.052-.112q-1.043-.112-1.778-.262a1.62,1.62,0,0,1-.858-.523A1.59,1.59,0,0,1,766.069,453.514Zm-28.743.224q-.49-10.608-.092-21.44T738,410.335q-.367-1.42-.582-2.316t-.521-2.54a8.841,8.841,0,0,1,2.022-.9,27.9,27.9,0,0,1,2.912-.784q1.562-.336,3.155-.56a20.442,20.442,0,0,1,2.82-.224q8.7,0,12.5,6.91t3.8,20.133a49.771,49.771,0,0,1-.951,10.011,25.635,25.635,0,0,1-3.064,8.142,16.7,16.7,0,0,1-5.423,5.6,16.324,16.324,0,0,1-8.09,2.316,12.648,12.648,0,0,1-2.543-.112,21.884,21.884,0,0,1-2.574-.523,20.139,20.139,0,0,1-2.36-.784A7.531,7.531,0,0,1,737.326,453.738Zm7.783-6.872a4.679,4.679,0,0,0,1.655.3,6.149,6.149,0,0,0,4.382-1.643,12.064,12.064,0,0,0,2.819-4.221,22.9,22.9,0,0,0,1.5-5.715,39.814,39.814,0,0,0,.368-6.2,66.76,66.76,0,0,0-.49-7.172,20.28,20.28,0,0,0-1.532-5.864,7.542,7.542,0,0,0-3.034-3.549,6.159,6.159,0,0,0-4.872-.3q-.429,8.367-.613,17.07T745.109,446.866Zm-21.878,8.068q-.429-5.679-.4-12.215t.215-13.26q.183-6.723.429-13.26t.183-12.214a8.4,8.4,0,0,1,2.973-.747q1.746-.15,3.524-.15a6.9,6.9,0,0,1,1.44.15q.7.15.644,1.046-.492,12.326-.92,24.764t-.061,25.512a5.642,5.642,0,0,1-1.624.448q-1.011.15-2.115.224a16.678,16.678,0,0,1-2.236,0A12.1,12.1,0,0,1,723.231,454.934Zm-22.124-26.371q.367.075.705.112a6.356,6.356,0,0,0,.705.037,5.757,5.757,0,0,0,3.339-1.083,11.646,11.646,0,0,0,2.728-2.652,13.955,13.955,0,0,0,1.838-3.324,8.829,8.829,0,0,0,.674-3.1,6.728,6.728,0,0,0-1.716-4.855q-1.716-1.794-6.128-1.793a5.434,5.434,0,0,0-1.471.224q-.123,2.988-.245,5.3t-.215,4.221q-.091,1.9-.153,3.585T701.107,428.563Zm8.028,6.574q2.207,4.557,4.811,9.3a81.453,81.453,0,0,0,5.3,8.478,8.552,8.552,0,0,1-1.164.822,14.777,14.777,0,0,1-1.655.859,14.219,14.219,0,0,1-1.992.71,8.3,8.3,0,0,1-2.237.3,10.258,10.258,0,0,1-2.6-2.54,41.83,41.83,0,0,1-2.85-4.3q-1.472-2.5-2.911-5.453t-2.788-6.014q-.185,4.258,0,8.517t.49,8.665a5.062,5.062,0,0,1-1.9.859,9.5,9.5,0,0,1-2.206.262,7.409,7.409,0,0,1-3.922-.971q-.49-5.454-.583-11.579t.062-12.065q.153-5.94.4-11.281t.49-9.3q-.306-1.045-.674-2.427a19.621,19.621,0,0,1-.49-2.279,14.258,14.258,0,0,1,4.075-1.9,24.391,24.391,0,0,1,12.533.224,12.632,12.632,0,0,1,5.056,2.988,13.7,13.7,0,0,1,3.279,5.3,23.222,23.222,0,0,1,1.164,7.806,16.02,16.02,0,0,1-2.7,9.488A15.43,15.43,0,0,1,709.135,435.137Zm-23.748-24.728a24.505,24.505,0,0,1,2.728,7.322,44.655,44.655,0,0,1,.919,9.412,60.607,60.607,0,0,1-.98,11.094,35.769,35.769,0,0,1-2.973,9.3,17.986,17.986,0,0,1-5.025,6.387,11.307,11.307,0,0,1-7.14,2.353,10.607,10.607,0,0,1-6.68-2.129,15.878,15.878,0,0,1-4.5-5.677,30.728,30.728,0,0,1-2.574-8.143,57.69,57.69,0,0,1-.889-9.525,54.975,54.975,0,0,1,1.012-10.758,34.935,34.935,0,0,1,2.972-8.964,17.941,17.941,0,0,1,4.933-6.2C673.851,399.689,681.533,403.879,685.387,410.409Zm-10.939,2.69a4.9,4.9,0,0,0-3.248,1.98,14.65,14.65,0,0,0-2.329,4.407,31.665,31.665,0,0,0-1.378,5.827,43.427,43.427,0,0,0-.46,6.238,54.671,54.671,0,0,0,.337,6.275,23.367,23.367,0,0,0,1.1,5.08,9.658,9.658,0,0,0,1.961,3.437,4.11,4.11,0,0,0,2.911,1.344,3.884,3.884,0,0,0,3.1-1.643,13.791,13.791,0,0,0,2.206-4.37,33.18,33.18,0,0,0,1.318-6.313,63.558,63.558,0,0,0,.429-7.545,34.352,34.352,0,0,0-1.318-10.758Q677.758,413.248,674.448,413.1Zm-17.1,42.133q-3.984.075-8.427.112t-8.672.187a3.641,3.641,0,0,1-3.431-1.12,38.235,38.235,0,0,1-.429-3.922q-.123-2.055-.123-4,0-4.855.123-10.346t.275-10.982q.153-5.492.276-10.758t.123-9.749a24.871,24.871,0,0,1,2.941-.672,20,20,0,0,1,3.432-.3,5.47,5.47,0,0,1,1.471.187q.675.186.674,1.083.062,4.407-.061,9.674t-.307,10.795q-.183,5.529-.367,10.907t-.184,9.936q3.188-.075,6.4-.038a36.411,36.411,0,0,1,5.792.486q.183.822.337,1.98t.214,2.39q.062,1.233.061,2.354A10.39,10.39,0,0,1,657.35,455.232Zm-45.228-1.12q-.613-5.379-.8-10.534t-.092-10.309q.093-5.154.4-10.384t.674-10.683q-.306-1.567-.643-3.585a22.016,22.016,0,0,1-.338-3.586,9.7,9.7,0,0,1,2.36-.747q1.684-.373,3.891-.636t4.658-.373q2.451-.112,4.688-.037a25.971,25.971,0,0,1,3.984.41,5.8,5.8,0,0,1,2.482.934,26.5,26.5,0,0,1-.307,3.922,16,16,0,0,1-.8,3.325,45.283,45.283,0,0,0-5.821-.523,27.662,27.662,0,0,0-6.006.523,22.909,22.909,0,0,0-.215,2.5q-.091,1.832-.184,4.072t-.183,4.557q-.093,2.316-.092,3.959,1.531-.148,3.37-.261t3.585-.112a25.75,25.75,0,0,1,3.218.186,6.381,6.381,0,0,1,2.267.635q0,1.942-.184,4.146a15.153,15.153,0,0,1-.674,3.624,36.013,36.013,0,0,0-5.852-.262q-2.85.113-5.914.411-.123,3.436-.061,5.678t.183,4.183q.123,1.942.307,4.072t.306,5.266a6.45,6.45,0,0,1-2.084.822,11.622,11.622,0,0,1-2.635.3,5.413,5.413,0,0,1-1.93-.336A3.713,3.713,0,0,1,612.122,454.112Z" fill="#161615"/>
          </g>
          <g id="Сгруппировать_123" data-name="Сгруппировать 123">
            <path id="Контур_470" data-name="Контур 470" d="M778.065,413.771q-1.226,5.828-2.3,11.393t-1.807,10.72q1.776-.15,3.4-.187t3.4.037q-.306-1.866-.674-4.519t-.736-5.6q-.366-2.951-.7-6.014T778.065,413.771Zm-14.831,39.743q.183-2.838.827-7.022t1.563-9.039q.919-4.857,2.022-9.936t2.176-9.674q1.072-4.594,2.022-8.292t1.563-5.79q1.531-.3,3.1-.449t3.279-.149a12.8,12.8,0,0,1,2.145.187,6.8,6.8,0,0,1,2.083.71q.614,4.855,1.41,11.056t1.808,12.924q1.011,6.723,2.328,13.484t3.034,12.663a10.926,10.926,0,0,1-3.156,1.045,19.827,19.827,0,0,1-3.769.374,5.207,5.207,0,0,1-1.165-1.27,8.192,8.192,0,0,1-.888-2.017,30.085,30.085,0,0,1-.766-3.138q-.367-1.867-.8-4.706a9.656,9.656,0,0,0-1.532-.075q-1.164,0-2.574.038t-2.88.112q-1.472.074-2.513.149a28.358,28.358,0,0,0-.766,4.52q-.276,2.726-.4,5.715a4.069,4.069,0,0,1-1.226.186q-.858.037-1.869.038a19.353,19.353,0,0,1-2.053-.112q-1.043-.112-1.777-.262a1.62,1.62,0,0,1-.858-.523A1.592,1.592,0,0,1,763.234,453.514Zm-28.742.224Q734,443.13,734.4,432.3t.766-21.963q-.367-1.42-.583-2.316t-.52-2.54a8.8,8.8,0,0,1,2.022-.9A27.879,27.879,0,0,1,739,403.8q1.563-.336,3.156-.56a20.417,20.417,0,0,1,2.819-.224q8.7,0,12.5,6.91t3.8,20.133a49.848,49.848,0,0,1-.95,10.011,25.657,25.657,0,0,1-3.064,8.142,16.71,16.71,0,0,1-5.424,5.6,16.321,16.321,0,0,1-8.09,2.316,12.648,12.648,0,0,1-2.543-.112,21.923,21.923,0,0,1-2.574-.523,20.13,20.13,0,0,1-2.359-.784A7.511,7.511,0,0,1,734.492,453.738Zm7.783-6.872a4.673,4.673,0,0,0,1.654.3,6.147,6.147,0,0,0,4.382-1.643,12.064,12.064,0,0,0,2.819-4.221,22.9,22.9,0,0,0,1.5-5.715,39.819,39.819,0,0,0,.367-6.2,66.776,66.776,0,0,0-.49-7.172,20.278,20.278,0,0,0-1.532-5.864,7.542,7.542,0,0,0-3.034-3.549,6.159,6.159,0,0,0-4.872-.3q-.429,8.367-.612,17.07T742.275,446.866ZM720.4,454.934q-.429-5.679-.4-12.215t.214-13.26q.185-6.723.429-13.26t.184-12.214a8.393,8.393,0,0,1,2.972-.747q1.747-.15,3.524-.15a6.9,6.9,0,0,1,1.44.15q.705.15.644,1.046-.491,12.326-.92,24.764t-.06,25.512a5.65,5.65,0,0,1-1.625.448q-1.011.15-2.114.224a16.692,16.692,0,0,1-2.237,0A12.1,12.1,0,0,1,720.4,454.934Zm-22.124-26.371q.368.075.705.112a6.383,6.383,0,0,0,.705.037,5.757,5.757,0,0,0,3.34-1.083,11.623,11.623,0,0,0,2.727-2.652,14,14,0,0,0,1.839-3.324,8.825,8.825,0,0,0,.673-3.1,6.727,6.727,0,0,0-1.715-4.855q-1.716-1.794-6.129-1.793a5.44,5.44,0,0,0-1.471.224q-.121,2.988-.245,5.3t-.214,4.221q-.093,1.9-.153,3.585T698.272,428.563Zm8.029,6.574q2.2,4.557,4.811,9.3a81.628,81.628,0,0,0,5.3,8.478,8.552,8.552,0,0,1-1.164.822,14.692,14.692,0,0,1-1.655.859,14.161,14.161,0,0,1-1.991.71,8.306,8.306,0,0,1-2.237.3,10.259,10.259,0,0,1-2.6-2.54,41.991,41.991,0,0,1-2.85-4.3q-1.47-2.5-2.911-5.453t-2.788-6.014q-.184,4.258,0,8.517t.49,8.665a5.055,5.055,0,0,1-1.9.859,9.492,9.492,0,0,1-2.206.262,7.412,7.412,0,0,1-3.922-.971q-.49-5.454-.582-11.579t.061-12.065q.153-5.94.4-11.281t.49-9.3q-.306-1.045-.674-2.427a19.441,19.441,0,0,1-.491-2.279,14.266,14.266,0,0,1,4.076-1.9,24.388,24.388,0,0,1,12.532.224,12.637,12.637,0,0,1,5.057,2.988,13.7,13.7,0,0,1,3.278,5.3,23.221,23.221,0,0,1,1.165,7.806,16.013,16.013,0,0,1-2.7,9.488A15.427,15.427,0,0,1,706.3,435.137Zm-23.748-24.728a24.533,24.533,0,0,1,2.727,7.322,44.659,44.659,0,0,1,.919,9.412,60.516,60.516,0,0,1-.98,11.094,35.769,35.769,0,0,1-2.972,9.3,17.976,17.976,0,0,1-5.026,6.387,11.307,11.307,0,0,1-7.14,2.353,10.6,10.6,0,0,1-6.679-2.129,15.88,15.88,0,0,1-4.505-5.677,30.728,30.728,0,0,1-2.574-8.143,57.685,57.685,0,0,1-.888-9.525,55.051,55.051,0,0,1,1.011-10.758,35.012,35.012,0,0,1,2.972-8.964,17.955,17.955,0,0,1,4.934-6.2C671.017,399.689,678.7,403.879,682.553,410.409Zm-10.939,2.69a4.9,4.9,0,0,0-3.248,1.98,14.629,14.629,0,0,0-2.329,4.407,31.58,31.58,0,0,0-1.379,5.827,43.568,43.568,0,0,0-.46,6.238,54.647,54.647,0,0,0,.338,6.275,23.374,23.374,0,0,0,1.1,5.08,9.645,9.645,0,0,0,1.962,3.437,4.108,4.108,0,0,0,2.911,1.344,3.886,3.886,0,0,0,3.1-1.643,13.813,13.813,0,0,0,2.206-4.37,33.264,33.264,0,0,0,1.317-6.313,63.571,63.571,0,0,0,.429-7.545,34.357,34.357,0,0,0-1.317-10.758Q674.922,413.248,671.614,413.1Zm-17.1,42.133q-3.983.075-8.426.112t-8.672.187a3.642,3.642,0,0,1-3.432-1.12,38.511,38.511,0,0,1-.429-3.922q-.123-2.055-.122-4,0-4.855.122-10.346t.276-10.982q.153-5.492.276-10.758t.122-9.749a24.847,24.847,0,0,1,2.942-.672,19.994,19.994,0,0,1,3.432-.3,5.48,5.48,0,0,1,1.471.187q.673.186.673,1.083.062,4.407-.06,9.674t-.307,10.795q-.184,5.529-.368,10.907t-.184,9.936q3.188-.075,6.405-.038a36.409,36.409,0,0,1,5.791.486q.183.822.337,1.98t.215,2.39q.06,1.233.061,2.354A10.38,10.38,0,0,1,654.515,455.232Zm-45.228-1.12q-.612-5.379-.8-10.534t-.092-10.309q.092-5.154.4-10.384t.674-10.683q-.306-1.567-.643-3.585a22.011,22.011,0,0,1-.337-3.586,9.691,9.691,0,0,1,2.359-.747q1.686-.373,3.892-.636t4.658-.373q2.451-.112,4.688-.037a25.957,25.957,0,0,1,3.983.41,5.8,5.8,0,0,1,2.482.934,26.636,26.636,0,0,1-.306,3.922,16.07,16.07,0,0,1-.8,3.325,45.3,45.3,0,0,0-5.822-.523,27.661,27.661,0,0,0-6.006.523,23.163,23.163,0,0,0-.215,2.5q-.091,1.832-.183,4.072t-.184,4.557q-.093,2.316-.092,3.959,1.531-.148,3.37-.261t3.585-.112a25.738,25.738,0,0,1,3.218.186,6.386,6.386,0,0,1,2.268.635q0,1.942-.184,4.146a15.257,15.257,0,0,1-.674,3.624,36.021,36.021,0,0,0-5.853-.262q-2.85.113-5.914.411-.123,3.436-.061,5.678t.184,4.183q.121,1.942.306,4.072t.306,5.266a6.444,6.444,0,0,1-2.083.822,11.622,11.622,0,0,1-2.635.3,5.419,5.419,0,0,1-1.931-.336A3.719,3.719,0,0,1,609.287,454.112Z" fill="#fff"/>
          </g>
        </g>
        <path id="Контур_471" data-name="Контур 471" d="M778.065,413.771q-1.226,5.828-2.3,11.393t-1.807,10.72q1.776-.15,3.4-.187t3.4.037q-.306-1.866-.674-4.519t-.736-5.6q-.366-2.951-.7-6.014T778.065,413.771Zm-14.831,39.743q.183-2.838.827-7.022t1.563-9.039q.919-4.857,2.022-9.936t2.176-9.674q1.072-4.594,2.022-8.292t1.563-5.79q1.531-.3,3.1-.449t3.279-.149a12.8,12.8,0,0,1,2.145.187,6.8,6.8,0,0,1,2.083.71q.614,4.855,1.41,11.056t1.808,12.924q1.011,6.723,2.328,13.484t3.034,12.663a10.926,10.926,0,0,1-3.156,1.045,19.827,19.827,0,0,1-3.769.374,5.207,5.207,0,0,1-1.165-1.27,8.192,8.192,0,0,1-.888-2.017,30.085,30.085,0,0,1-.766-3.138q-.367-1.867-.8-4.706a9.656,9.656,0,0,0-1.532-.075q-1.164,0-2.574.038t-2.88.112q-1.472.074-2.513.149a28.358,28.358,0,0,0-.766,4.52q-.276,2.726-.4,5.715a4.069,4.069,0,0,1-1.226.186q-.858.037-1.869.038a19.353,19.353,0,0,1-2.053-.112q-1.043-.112-1.777-.262a1.62,1.62,0,0,1-.858-.523A1.592,1.592,0,0,1,763.234,453.514Zm-28.742.224Q734,443.13,734.4,432.3t.766-21.963q-.367-1.42-.583-2.316t-.52-2.54a8.8,8.8,0,0,1,2.022-.9A27.879,27.879,0,0,1,739,403.8q1.563-.336,3.156-.56a20.417,20.417,0,0,1,2.819-.224q8.7,0,12.5,6.91t3.8,20.133a49.848,49.848,0,0,1-.95,10.011,25.657,25.657,0,0,1-3.064,8.142,16.71,16.71,0,0,1-5.424,5.6,16.321,16.321,0,0,1-8.09,2.316,12.648,12.648,0,0,1-2.543-.112,21.923,21.923,0,0,1-2.574-.523,20.13,20.13,0,0,1-2.359-.784A7.511,7.511,0,0,1,734.492,453.738Zm7.783-6.872a4.673,4.673,0,0,0,1.654.3,6.147,6.147,0,0,0,4.382-1.643,12.064,12.064,0,0,0,2.819-4.221,22.9,22.9,0,0,0,1.5-5.715,39.819,39.819,0,0,0,.367-6.2,66.776,66.776,0,0,0-.49-7.172,20.278,20.278,0,0,0-1.532-5.864,7.542,7.542,0,0,0-3.034-3.549,6.159,6.159,0,0,0-4.872-.3q-.429,8.367-.612,17.07T742.275,446.866ZM720.4,454.934q-.429-5.679-.4-12.215t.214-13.26q.185-6.723.429-13.26t.184-12.214a8.393,8.393,0,0,1,2.972-.747q1.747-.15,3.524-.15a6.9,6.9,0,0,1,1.44.15q.705.15.644,1.046-.491,12.326-.92,24.764t-.06,25.512a5.65,5.65,0,0,1-1.625.448q-1.011.15-2.114.224a16.692,16.692,0,0,1-2.237,0A12.1,12.1,0,0,1,720.4,454.934Zm-22.124-26.371q.368.075.705.112a6.383,6.383,0,0,0,.705.037,5.757,5.757,0,0,0,3.34-1.083,11.623,11.623,0,0,0,2.727-2.652,14,14,0,0,0,1.839-3.324,8.825,8.825,0,0,0,.673-3.1,6.727,6.727,0,0,0-1.715-4.855q-1.716-1.794-6.129-1.793a5.44,5.44,0,0,0-1.471.224q-.121,2.988-.245,5.3t-.214,4.221q-.093,1.9-.153,3.585T698.272,428.563Zm8.029,6.574q2.2,4.557,4.811,9.3a81.628,81.628,0,0,0,5.3,8.478,8.552,8.552,0,0,1-1.164.822,14.692,14.692,0,0,1-1.655.859,14.161,14.161,0,0,1-1.991.71,8.306,8.306,0,0,1-2.237.3,10.259,10.259,0,0,1-2.6-2.54,41.991,41.991,0,0,1-2.85-4.3q-1.47-2.5-2.911-5.453t-2.788-6.014q-.184,4.258,0,8.517t.49,8.665a5.055,5.055,0,0,1-1.9.859,9.492,9.492,0,0,1-2.206.262,7.412,7.412,0,0,1-3.922-.971q-.49-5.454-.582-11.579t.061-12.065q.153-5.94.4-11.281t.49-9.3q-.306-1.045-.674-2.427a19.441,19.441,0,0,1-.491-2.279,14.266,14.266,0,0,1,4.076-1.9,24.388,24.388,0,0,1,12.532.224,12.637,12.637,0,0,1,5.057,2.988,13.7,13.7,0,0,1,3.278,5.3,23.221,23.221,0,0,1,1.165,7.806,16.013,16.013,0,0,1-2.7,9.488A15.427,15.427,0,0,1,706.3,435.137Zm-23.748-24.728a24.533,24.533,0,0,1,2.727,7.322,44.659,44.659,0,0,1,.919,9.412,60.516,60.516,0,0,1-.98,11.094,35.769,35.769,0,0,1-2.972,9.3,17.976,17.976,0,0,1-5.026,6.387,11.307,11.307,0,0,1-7.14,2.353,10.6,10.6,0,0,1-6.679-2.129,15.88,15.88,0,0,1-4.505-5.677,30.728,30.728,0,0,1-2.574-8.143,57.685,57.685,0,0,1-.888-9.525,55.051,55.051,0,0,1,1.011-10.758,35.012,35.012,0,0,1,2.972-8.964,17.955,17.955,0,0,1,4.934-6.2C671.017,399.689,678.7,403.879,682.553,410.409Zm-10.939,2.69a4.9,4.9,0,0,0-3.248,1.98,14.629,14.629,0,0,0-2.329,4.407,31.58,31.58,0,0,0-1.379,5.827,43.568,43.568,0,0,0-.46,6.238,54.647,54.647,0,0,0,.338,6.275,23.374,23.374,0,0,0,1.1,5.08,9.645,9.645,0,0,0,1.962,3.437,4.108,4.108,0,0,0,2.911,1.344,3.886,3.886,0,0,0,3.1-1.643,13.813,13.813,0,0,0,2.206-4.37,33.264,33.264,0,0,0,1.317-6.313,63.571,63.571,0,0,0,.429-7.545,34.357,34.357,0,0,0-1.317-10.758Q674.922,413.248,671.614,413.1Zm-17.1,42.133q-3.983.075-8.426.112t-8.672.187a3.642,3.642,0,0,1-3.432-1.12,38.511,38.511,0,0,1-.429-3.922q-.123-2.055-.122-4,0-4.855.122-10.346t.276-10.982q.153-5.492.276-10.758t.122-9.749a24.847,24.847,0,0,1,2.942-.672,19.994,19.994,0,0,1,3.432-.3,5.48,5.48,0,0,1,1.471.187q.673.186.673,1.083.062,4.407-.06,9.674t-.307,10.795q-.184,5.529-.368,10.907t-.184,9.936q3.188-.075,6.405-.038a36.409,36.409,0,0,1,5.791.486q.183.822.337,1.98t.215,2.39q.06,1.233.061,2.354A10.38,10.38,0,0,1,654.515,455.232Zm-45.228-1.12q-.612-5.379-.8-10.534t-.092-10.309q.092-5.154.4-10.384t.674-10.683q-.306-1.567-.643-3.585a22.011,22.011,0,0,1-.337-3.586,9.691,9.691,0,0,1,2.359-.747q1.686-.373,3.892-.636t4.658-.373q2.451-.112,4.688-.037a25.957,25.957,0,0,1,3.983.41,5.8,5.8,0,0,1,2.482.934,26.636,26.636,0,0,1-.306,3.922,16.07,16.07,0,0,1-.8,3.325,45.3,45.3,0,0,0-5.822-.523,27.661,27.661,0,0,0-6.006.523,23.163,23.163,0,0,0-.215,2.5q-.091,1.832-.183,4.072t-.184,4.557q-.093,2.316-.092,3.959,1.531-.148,3.37-.261t3.585-.112a25.738,25.738,0,0,1,3.218.186,6.386,6.386,0,0,1,2.268.635q0,1.942-.184,4.146a15.257,15.257,0,0,1-.674,3.624,36.021,36.021,0,0,0-5.853-.262q-2.85.113-5.914.411-.123,3.436-.061,5.678t.184,4.183q.121,1.942.306,4.072t.306,5.266a6.444,6.444,0,0,1-2.083.822,11.622,11.622,0,0,1-2.635.3,5.419,5.419,0,0,1-1.931-.336A3.719,3.719,0,0,1,609.287,454.112Z" fill="none" stroke="#010000" stroke-miterlimit="22.926" stroke-width="0.2"/>
      </g>
      <g transform="matrix(1, 0, 0, 1, 562, 381)" filter="url(#COOKIES)">
        <text id="COOKIES-2" data-name="COOKIES" transform="translate(133.88 112.91)" fill="#f7feff" font-size="24" font-family="MyriadPro-Bold, Myriad Pro" font-weight="700"><tspan x="0" y="0">COOKIES</tspan></text>
      </g>
    </g>
  </g>
</svg>
