<svg xmlns="http://www.w3.org/2000/svg" xmlns:xlink="http://www.w3.org/1999/xlink" width="280.63" height="139.64" viewBox="0 0 280.63 139.64">
  <defs>
    <clipPath id="clip-Монтажная_область_14">
      <rect width="280.63" height="139.64"/>
    </clipPath>
  </defs>
  <g id="Монтажная_область_14" data-name="Монтажная область – 14" clip-path="url(#clip-Монтажная_область_14)">
    <g id="Сгруппировать_167" data-name="Сгруппировать 167" transform="translate(-2083 -79)">
      <path id="Контур_161" data-name="Контур 161" d="M2123.343,168.562V129.606h5.318v34.17h17.6v4.786Zm32.2-35.446q0,7.047-7.046,11.488l-1.781-2.367,1.994-1.7a3.877,3.877,0,0,0,1.462-3.058,4.076,4.076,0,0,0-1.3-2.526,4.124,4.124,0,0,1-1.3-2.633q0-3.909,3.857-3.908Q2155.543,128.41,2155.544,133.116Z" fill="#74613c"/>
      <g id="Сгруппировать_48" data-name="Сгруппировать 48">
        <path id="Контур_162" data-name="Контур 162" d="M2185.386,168.505l-1.887-4.976h-15.1l-1.889,4.976h-5.491l14.93-40.1,14.928,40.1Zm-3.776-10.125-5.661-15.213-5.663,15.213Z" fill="#74613c"/>
        <path id="Контур_163" data-name="Контур 163" d="M2227.6,168.505l-3.946-22.593-10.067,22.65-10.123-22.65-3.948,22.593h-5.2l6.921-40.1,12.354,27.512,12.3-27.512,6.921,40.1Z" fill="#74613c"/>
        <path id="Контур_164" data-name="Контур 164" d="M2254.5,129.61a11.527,11.527,0,0,1,4.4,3.146,15.789,15.789,0,0,1,3.776,10.753v9.953a15.787,15.787,0,0,1-3.776,10.753,12.309,12.309,0,0,1-4.4,3.2,15,15,0,0,1-11.211,0,12.339,12.339,0,0,1-4.4-3.2,15.789,15.789,0,0,1-3.776-10.753v-9.953a15.79,15.79,0,0,1,3.776-10.753,11.553,11.553,0,0,1,4.4-3.146,14.317,14.317,0,0,1,11.211,0Zm-11.782,6.578a10.783,10.783,0,0,0-2.46,7.321v9.953a10.686,10.686,0,0,0,2.46,7.322,8.7,8.7,0,0,0,12.355,0,10.685,10.685,0,0,0,2.458-7.322v-9.953a10.782,10.782,0,0,0-2.458-7.321,8.7,8.7,0,0,0-12.355,0Z" fill="#74613c"/>
      </g>
      <g id="Сгруппировать_49" data-name="Сгруппировать 49">
        <path id="Контур_165" data-name="Контур 165" d="M2293.018,154.738c0,8.146-5.162,13.824-12.562,13.824s-12.618-5.678-12.618-13.824V128.41H2273v26.328a9.524,9.524,0,0,0,2.123,6.425,7.41,7.41,0,0,0,10.611,0,9.527,9.527,0,0,0,2.122-6.425V128.41h5.162Z" fill="#74613c"/>
        <path id="Контур_166" data-name="Контур 166" d="M2311.318,128.41c7.4,0,12.562,5.162,12.562,12.562,0,5.736-3.039,10.1-7.858,11.816l7.858,15.774h-5.735l-7.514-14.971h-6.712v14.971h-5.161V128.41Zm-7.4,20.019h7.4a6.849,6.849,0,0,0,7.4-7.457,6.841,6.841,0,0,0-7.4-7.4h-7.4Z" fill="#74613c"/>
      </g>
    </g>
  </g>
</svg>
