<svg xmlns="http://www.w3.org/2000/svg" xmlns:xlink="http://www.w3.org/1999/xlink" width="280.63" height="139.64" viewBox="0 0 280.63 139.64">
  <defs>
    <clipPath id="clip-Монтажная_область_20">
      <rect width="280.63" height="139.64"/>
    </clipPath>
  </defs>
  <g id="Монтажная_область_20" data-name="Монтажная область – 20" clip-path="url(#clip-Монтажная_область_20)">
    <g id="Сгруппировать_173" data-name="Сгруппировать 173" transform="translate(-2978 -79)">
      <path id="Контур_79" data-name="Контур 79" d="M3031.247,165.136q-1.2-1.758-3.424-5.091l-1.851-2.776-1.943-2.868q-10.181-15.357-11.012-21.56-1.481-11.658,5.645-18.415,6.291-6.014,16.749-6.013,7.31,0,11.844,3.793a13.229,13.229,0,0,1,4.626,10.55q0,7.215-2.96,11.381a10.8,10.8,0,0,1-9.439,4.627,7.976,7.976,0,0,1-5.275-1.851,5.131,5.131,0,0,1-2.312-4.164q7.031-1.758,10.086-7.125a19.06,19.06,0,0,0,1.666-4.535,21.355,21.355,0,0,0,.37-3.979q0-5.919-6.57-5.921a16.214,16.214,0,0,0-10.55,4.071,14.713,14.713,0,0,0-5.644,11.752q0,4.442,11.2,20.449a127.6,127.6,0,0,1,7.68,12.031q3.516,6.66,3.518,11.1a14.947,14.947,0,0,1-3.148,9.715,11.091,11.091,0,0,1-9.252,4.257q-9.255,0-14.991-5.089a16.091,16.091,0,0,1-5.644-12.586,12.373,12.373,0,0,1,1.758-6.754,6.267,6.267,0,0,1,5.459-3.054,7.021,7.021,0,0,1,3.146.647,2.579,2.579,0,0,1,1.388,2.313,4.439,4.439,0,0,0-2.961,2.87,12.506,12.506,0,0,0-.647,4.441q0,4.441,3.7,9.439,3.792,5.09,7.495,5.089a4.952,4.952,0,0,0,4.72-2.5q1.295-2.5.37-7.032Q3034.669,170.409,3031.247,165.136Z" fill="#f1ac66"/>
      <path id="Контур_80" data-name="Контур 80" d="M3070.829,145.28a14.083,14.083,0,0,0-1.787-.6.147.147,0,0,0-.066-.015,14.006,14.006,0,0,0-3.869-.062,17.627,17.627,0,0,0-13.1,7.455,21.9,21.9,0,0,0-4.161,14.1q.426,9.635,5.9,14.184c2.977,2.547,6.524,3.447,10.639,3.2C3084.511,182.317,3081.255,150.3,3070.829,145.28Zm1.148,30.526c-2.029,2.753-4.235,4.422-7.055,4.707-2.093.212-3.81-1.189-5.175-4.224a25.311,25.311,0,0,1-1.993-8.818c-.386-6.154,1.676-16.57,9.62-18.8C3072.654,147.191,3080.916,163.679,3071.977,175.806Z" fill="#f1ac66"/>
      <path id="Контур_81" data-name="Контур 81" d="M3121.943,179.837a14.2,14.2,0,0,0,1.391-2.344c.1-.221.173-.451.263-.676.119-.374.251-.745.342-1.127.067-.281.115-.565.169-.848.014-.149.027-.3.035-.446.03-.564.023-1.131.023-1.7-2.075,4.092-4.529,6.293-7.373,6.559q-4.7.448-4.1-10.616.082-1.859.413-4.287l.253-2.145.257-2.053a48.922,48.922,0,0,0,.522-5.682q-.458-8.314-6.37-7.99a5,5,0,0,0-4.811,3.509q3.02,2.706-1.33,16.29a49.783,49.783,0,0,1-4.019,9.489q-2.364,4.209-4.212,4.31-2.217.121-2.455-4.223-.223-4.063,1.82-14.093,1.95-10.023,1.829-12.239a4.6,4.6,0,0,0-1.471-3.164,4.252,4.252,0,0,0-3.31-1.208,13.692,13.692,0,0,0-1.474.174,13.207,13.207,0,0,0-1.822.564,5.191,5.191,0,0,0-3.03,2.205q1.861,1.843.8,9.408l-.479,3.085-.577,3a37.665,37.665,0,0,0-.563,4.942q-.1,6.59,2.433,10.523a7.383,7.383,0,0,0,7.07,3.877q4.619-.255,8.853-7.532a37.275,37.275,0,0,0,2.76-5.433c.274-.632.543-1.359.808-2.175l.163-.381.166-.379c.108-.254.19-.443.246-.57a29.994,29.994,0,0,0,2.992,10.585q2.885,5.313,7.968,5.03a10.894,10.894,0,0,0,5.129-1.616A3.523,3.523,0,0,1,3121.943,179.837Z" fill="#f1ac66"/>
      <path id="Контур_82" data-name="Контур 82" d="M3159.02,129.035q-.834,2.868-1.48,6.292a29.534,29.534,0,0,0-.464,3.979,9.279,9.279,0,0,0,3.7-1.019,17.427,17.427,0,0,1,2.314-1.017q1.293,0,1.942,2.036a1.2,1.2,0,0,1-.092,1.017,2.029,2.029,0,0,1-1.018,1.019,15.166,15.166,0,0,1-7.124,2.036q-.834,8.7-1.3,21.56-.463,11.382-.464,21.744,0,1.758-1.48,1.852-2.591.185-3.516-1.017a2.442,2.442,0,0,1-.556-1.2l-.184-.648-.186-.74q-1.665-5.736-2.405-21.006-.277-5.643-.463-11.844v-8.7a34.734,34.734,0,0,1-5.737-.74,22.253,22.253,0,0,1-4.164-1.111q-.093.646-.277,3.423-.094,3.148-.278,7.033-.463,10.271-.463,17.4,0,3.981.278,7.68.185,3.705.185,3.979,0,2.13-2.221,2.128a2.582,2.582,0,0,1-2.035-.648q-3.054-3.053-4.535-18.784-.555-5.827-.833-12.768-.277-5.555-.277-10.272-5.922-1.85-9.9,1.017a3.332,3.332,0,0,1-2.684-.648,3.665,3.665,0,0,1-1.573-3.329q0-3.8,5.182-5.368a22.439,22.439,0,0,1,9.809-.463v-1.665c.061-.927.153-1.881.277-2.868a36.054,36.054,0,0,1,1.666-7.775q3.609-10.64,12.492-10.64a7.462,7.462,0,0,1,5.645,2.22,9.562,9.562,0,0,1,2.312,6.756,12.819,12.819,0,0,1-2.22,7.587,2.25,2.25,0,0,1-2.221,1.112q-1.481-.091-1.481-1.944,2.406-1.39,2.314-6.107,0-4.533-1.666-4.536-3.794,0-5.736,10a57.074,57.074,0,0,0-.926,7.032,15.022,15.022,0,0,0-.185,2.313,2.71,2.71,0,0,0-.093.648v.279a25.761,25.761,0,0,0,4.072,1.665,37.145,37.145,0,0,0,5.552,1.664q.922-3.975,1.943-7.032a46.962,46.962,0,0,1,2.961-6.753q4.256-7.218,10.456-7.219a7.733,7.733,0,0,1,4.9,1.388q2.313,1.853,2.036,6.015a5.788,5.788,0,0,1-.184,1.388,14.617,14.617,0,0,1-.464,1.757q-.741,2.039-1.85,2.036a1.686,1.686,0,0,1-1.48-.648,1.76,1.76,0,0,1-.278-1.48q.924-5.457-.556-5.829Q3161.333,120.705,3159.02,129.035Z" fill="#f1ac66"/>
      <path id="Контур_83" data-name="Контур 83" d="M3191.667,179.706l-.21.272c.085-.113.169-.227.25-.343q.162-.229.317-.465c.205-.31.4-.629.582-.953.205-.365.389-.738.569-1.115.015-.032.019-.036.031-.06.074-.167.126-.358.18-.516.228-.668.425-1.349.6-2.032.187-.719.321-1.442.464-2.169l.024-.27c-3.709,5.445-7.329,8.263-10.859,8.363q-4.719.176-5.681-9.178a71.322,71.322,0,0,1,.874-18.1q2.622-.7,6.294-5.068a32.745,32.745,0,0,0,5.594-9.178q4.72-11.886,4.109-19.231-.788-8.391-8.829-8.129-6.557.351-11.976,12.674a61.918,61.918,0,0,0-5.069,28.41q.871,18.182,5.506,25.524,3.585,5.769,9.965,5.418a11.592,11.592,0,0,0,6.741-3.2C3191.329,180.175,3191.665,179.848,3191.667,179.706Zm-7-51.908q3.756-12.064,5.244-10.753,1.66,1.488,1.486,6.207a40.178,40.178,0,0,1-1.835,9.79q-4.11,12.85-10.14,16A172.6,172.6,0,0,1,3184.668,127.8Z" fill="#f1ac66"/>
      <path id="Контур_84" data-name="Контур 84" d="M3224.714,178.691c.073-.118.158-.228.23-.346.383-.631.718-1.282,1.042-1.946.041-.084.049-.1.066-.129.041-.113.08-.225.087-.244.128-.346.244-.7.351-1.048.046-.152.078-.308.122-.461-.311.293-.612.6-.938.871a14.723,14.723,0,0,1-1.539,1.25c-.019.013-.036.029-.054.043-2.915,2.166-6.378,3.958-10.072,4.175a2.955,2.955,0,0,1-1.024-.137,6.171,6.171,0,0,1-5.061-3.462,16.22,16.22,0,0,1-1.85-8.142,35.341,35.341,0,0,1,.277-4.719q.185-.834.278-1.388c.123-.371.215-.648.277-.833a14.316,14.316,0,0,0,4.35.74,9.379,9.379,0,0,0,7.31-3.7,11,11,0,0,0,2.961-7.309q0-5.46-8.513-5.46a17.731,17.731,0,0,0-12.492,4.9,16.752,16.752,0,0,0-5.645,12.861q0,8.328,4.442,13.6,4.9,5.831,13.695,5.831a16.328,16.328,0,0,0,11.659-4.906C3224.688,178.722,3224.7,178.706,3224.714,178.691Zm-13.551-25.03q2.959-3.421,5.645-3.424.832,0,.832,2.036a7.9,7.9,0,0,1-2.868,6.2,7.768,7.768,0,0,1-5.09,2.035h-.37l-.555-.184a1.746,1.746,0,0,1-1.018-.371A15.177,15.177,0,0,1,3211.163,153.661Z" fill="#f1ac66"/>
    </g>
  </g>
</svg>
