<svg xmlns="http://www.w3.org/2000/svg" xmlns:xlink="http://www.w3.org/1999/xlink" width="280.63" height="139.64" viewBox="0 0 280.63 139.64">
  <defs>
    <linearGradient id="linear-gradient" y1="0.5" x2="1.185" y2="0.5" gradientUnits="objectBoundingBox">
      <stop offset="0" stop-color="#bd8047"/>
      <stop offset="0.449" stop-color="#fdb571"/>
      <stop offset="0.567" stop-color="#eba565"/>
      <stop offset="0.801" stop-color="#be7f48"/>
      <stop offset="1" stop-color="#935a2c"/>
    </linearGradient>
    <linearGradient id="linear-gradient-2" x1="0" y1="0.5" x2="1" y2="0.5" xlink:href="#linear-gradient"/>
    <linearGradient id="linear-gradient-7" x1="0" y1="0.5" x2="2.072" y2="0.5" xlink:href="#linear-gradient"/>
    <linearGradient id="linear-gradient-8" x1="-1.317" y1="0.009" x2="4.669" y2="0.009" xlink:href="#linear-gradient"/>
    <linearGradient id="linear-gradient-9" x1="-5.224" y1="-0.006" x2="1" y2="-0.006" xlink:href="#linear-gradient"/>
    <linearGradient id="linear-gradient-10" x1="-4.252" y1="-0.006" x2="1.972" y2="-0.006" xlink:href="#linear-gradient"/>
    <linearGradient id="linear-gradient-11" x1="-1.715" y1="0.392" x2="2.576" y2="0.392" xlink:href="#linear-gradient"/>
    <linearGradient id="linear-gradient-12" x1="-2.431" y1="0.392" x2="1.859" y2="0.392" xlink:href="#linear-gradient"/>
    <linearGradient id="linear-gradient-13" x1="0" y1="0.637" x2="18.622" y2="0.637" xlink:href="#linear-gradient"/>
    <linearGradient id="linear-gradient-14" x1="-1.041" y1="0.455" x2="20.049" y2="0.455" xlink:href="#linear-gradient"/>
    <linearGradient id="linear-gradient-15" x1="-2.51" y1="0.469" x2="21.954" y2="0.469" xlink:href="#linear-gradient"/>
    <linearGradient id="linear-gradient-16" x1="-4.1" y1="0.464" x2="24.208" y2="0.464" xlink:href="#linear-gradient"/>
    <linearGradient id="linear-gradient-17" x1="-3.764" y1="0.463" x2="16.508" y2="0.463" xlink:href="#linear-gradient"/>
    <linearGradient id="linear-gradient-18" x1="-5.017" y1="0.327" x2="16.16" y2="0.327" xlink:href="#linear-gradient"/>
    <linearGradient id="linear-gradient-19" x1="-6.699" y1="0.464" x2="16.324" y2="0.464" xlink:href="#linear-gradient"/>
    <linearGradient id="linear-gradient-20" x1="-8.167" y1="0.463" x2="15.836" y2="0.463" xlink:href="#linear-gradient"/>
    <linearGradient id="linear-gradient-21" x1="-9.483" y1="0.469" x2="14.98" y2="0.469" xlink:href="#linear-gradient"/>
    <linearGradient id="linear-gradient-22" x1="-8.737" y1="0.463" x2="11.535" y2="0.463" xlink:href="#linear-gradient"/>
    <linearGradient id="linear-gradient-23" x1="-9.828" y1="0.463" x2="10.442" y2="0.463" xlink:href="#linear-gradient"/>
    <linearGradient id="linear-gradient-24" x1="-13.21" y1="0.469" x2="11.252" y2="0.469" xlink:href="#linear-gradient"/>
    <linearGradient id="linear-gradient-25" x1="-13.184" y1="0.463" x2="9.506" y2="0.463" xlink:href="#linear-gradient"/>
    <linearGradient id="linear-gradient-26" x1="-14.222" y1="0.469" x2="7.498" y2="0.469" xlink:href="#linear-gradient"/>
    <linearGradient id="linear-gradient-27" x1="-16.111" y1="0.464" x2="6.914" y2="0.464" xlink:href="#linear-gradient"/>
    <linearGradient id="linear-gradient-28" x1="-15.18" y1="0.463" x2="5.09" y2="0.463" xlink:href="#linear-gradient"/>
    <linearGradient id="linear-gradient-29" x1="-14.206" y1="0.5" x2="3.447" y2="0.5" xlink:href="#linear-gradient"/>
    <linearGradient id="linear-gradient-30" x1="-22.831" y1="0.465" x2="3.429" y2="0.465" xlink:href="#linear-gradient"/>
    <linearGradient id="linear-gradient-31" x1="-21.31" y1="0.463" x2="2.084" y2="0.463" xlink:href="#linear-gradient"/>
    <linearGradient id="linear-gradient-32" x1="-23.463" y1="0.469" x2="1" y2="0.469" xlink:href="#linear-gradient"/>
    <clipPath id="clip-Монтажная_область_24">
      <rect width="280.63" height="139.64"/>
    </clipPath>
  </defs>
  <g id="Монтажная_область_24" data-name="Монтажная область – 24" clip-path="url(#clip-Монтажная_область_24)">
    <g id="Сгруппировать_175" data-name="Сгруппировать 175" transform="translate(-2698 -376)">
      <g id="Сгруппировать_15" data-name="Сгруппировать 15">
        <g id="Сгруппировать_13" data-name="Сгруппировать 13">
          <path id="Контур_47" data-name="Контур 47" d="M2830.9,396.726c-7.821-2.407-37.787-4.832-50.437-4.065-13.67.831-24.6,3.574-31.242,6.712-7.479,3.533-10.885,8.37-9.486,13.778,4.337-8.052,22.284-12.621,36.784-15a74.657,74.657,0,0,1,7.966-.83c-4.318,8.306-23.69,45.891-24.325,53-.539,6.041,4.36,10.426,7.152,10.418-4.35-8.809,19.439-54.672,24.134-63.559,16.351-.07,29.321,1.086,33.516.826A29.747,29.747,0,0,0,2830.9,396.726Z" fill="url(#linear-gradient)"/>
          <path id="Контур_48" data-name="Контур 48" d="M2807.481,426.855a13.99,13.99,0,0,0-7.539.074,22.786,22.786,0,0,0-6.809,3.387,30.658,30.658,0,0,0-10.433,12.307,13.932,13.932,0,0,0-1.549,6.748,5.392,5.392,0,0,0,1.357,3.315,7.788,7.788,0,0,0,2.736,1.77,9.487,9.487,0,0,0,1.784.43,14.265,14.265,0,0,0,5.907-.554,31.754,31.754,0,0,0,10.642-5.793,30.674,30.674,0,0,0,6.005-5.963,16.263,16.263,0,0,0,3.17-7.771,7.874,7.874,0,0,0-.8-4.529A7.309,7.309,0,0,0,2807.481,426.855Zm.423,14.71a26.2,26.2,0,0,1-2.542,2.821,28.366,28.366,0,0,1-9.849,6.678,9.455,9.455,0,0,1-4.208.67,3.327,3.327,0,0,1-2.67-1.08c-.741-.993-.612-2.6-.442-3.75a19.433,19.433,0,0,1,4.266-9,22.953,22.953,0,0,1,5.992-5.494,15.044,15.044,0,0,1,7.75-2.228c4.457,0,4.508,4.638,3.992,6.669A13.043,13.043,0,0,1,2807.9,441.565Z" fill="url(#linear-gradient-2)"/>
          <path id="Контур_49" data-name="Контур 49" d="M2929,431.533a5.858,5.858,0,0,1-.871,2.84q-1.743,2.952-6.486,5.227a20.96,20.96,0,0,1-8.938,2.226c-1.1,0-1.678-.1-1.775-.258-.1-.193,0-.355.226-.452a3.177,3.177,0,0,1,1.064-.129c2.55,0,5.551-.9,9-2.678,3.388-1.871,5.066-3.743,5.066-5.646,0-1.937-1.129-2.9-3.42-2.9a7.927,7.927,0,0,0-3.453.871,22.513,22.513,0,0,0-7.776,6.325c-3.066,3.711-4.582,7.164-4.582,10.357a6.182,6.182,0,0,0,1,3.388,3.9,3.9,0,0,0,3.582,1.581c3,0,6.808-1.581,11.39-4.743.291-.193.548-.387.839-.613-.361,1.573-3.221,4.382-6.406,5.912a20.832,20.832,0,0,1-2.794,1.087,19.812,19.812,0,0,1-5.933.939,11.74,11.74,0,0,1-7.486-2.162,7.172,7.172,0,0,1-2.711-5.969q0-8.131,7.26-14.036,7.31-5.906,15.23-5.9c3.582,0,5.97.774,7.2,2.323A4.221,4.221,0,0,1,2929,431.533Z" fill="url(#linear-gradient-2)"/>
          <path id="Контур_50" data-name="Контур 50" d="M2899.4,431.533a5.858,5.858,0,0,1-.871,2.84q-1.743,2.952-6.486,5.227a20.96,20.96,0,0,1-8.938,2.226c-1.1,0-1.678-.1-1.775-.258-.1-.193,0-.355.226-.452a3.177,3.177,0,0,1,1.064-.129c2.55,0,5.551-.9,9-2.678,3.388-1.871,5.066-3.743,5.066-5.646,0-1.937-1.129-2.9-3.42-2.9a7.926,7.926,0,0,0-3.453.871,22.515,22.515,0,0,0-7.776,6.325c-3.066,3.711-4.582,7.164-4.582,10.357a6.182,6.182,0,0,0,1,3.388,3.9,3.9,0,0,0,3.582,1.581c3,0,6.808-1.581,11.39-4.743.291-.193.548-.387.839-.613-.361,1.573-3.221,4.382-6.406,5.912a20.817,20.817,0,0,1-2.794,1.087,19.812,19.812,0,0,1-5.933.939,11.74,11.74,0,0,1-7.486-2.162,7.171,7.171,0,0,1-2.711-5.969q0-8.131,7.26-14.036,7.31-5.906,15.23-5.9c3.582,0,5.97.774,7.2,2.323A4.22,4.22,0,0,1,2899.4,431.533Z" fill="url(#linear-gradient-2)"/>
          <path id="Контур_51" data-name="Контур 51" d="M2859.377,411.889a3.905,3.905,0,0,1-7.81,0,3.826,3.826,0,0,1,1.517-3h-.742a12.674,12.674,0,0,0-8.26,2.614c-4.228,3.194-7.809,7.485-11.165,13.39,3.517.323,6.2,1.066,7.486,1.9,1.807,1.161,2.711,2.742,2.711,3.742a19.015,19.015,0,0,0-8.164-1.387,18.688,18.688,0,0,0-5.841,1.387,88.714,88.714,0,0,0-9.97,20.038c-1.936,5.292-.936,9.39-1.259,10.164-.807-.838-2.516-3.033-2.677-7.389-.162-4.162,1.968-10.745,5.839-19.748-.321.13-.548.13-.709,0a2.809,2.809,0,0,1-.581-.871,6.2,6.2,0,0,1-.515-1.645,4.818,4.818,0,0,1,.031-2.033,4.488,4.488,0,0,1,1.388-2.065,10.932,10.932,0,0,1,4.517-1.807c4.711-8.745,9.293-14.617,13.681-17.618a16.163,16.163,0,0,1,9.1-2.969,15.447,15.447,0,0,1,8.39,2.066A6.044,6.044,0,0,1,2859.377,411.889Z" fill="url(#linear-gradient-2)"/>
          <path id="Контур_52" data-name="Контур 52" d="M2891.034,411.889a3.9,3.9,0,0,1-7.81,0,3.826,3.826,0,0,1,1.517-3H2884a12.674,12.674,0,0,0-8.26,2.614c-4.227,3.194-7.809,7.485-11.165,13.39,3.517.323,6.2,1.066,7.486,1.9,1.807,1.161,2.711,2.742,2.711,3.742a19.011,19.011,0,0,0-8.164-1.387,18.684,18.684,0,0,0-5.841,1.387,88.743,88.743,0,0,0-9.97,20.038c-1.936,5.292-.936,9.39-1.259,10.164-.806-.838-2.516-3.033-2.677-7.389-.162-4.162,1.968-10.745,5.839-19.748-.321.13-.548.13-.709,0a2.809,2.809,0,0,1-.581-.871,6.2,6.2,0,0,1-.515-1.645,4.818,4.818,0,0,1,.031-2.033,4.488,4.488,0,0,1,1.388-2.065,10.932,10.932,0,0,1,4.518-1.807c4.71-8.745,9.292-14.617,13.68-17.618a16.163,16.163,0,0,1,9.1-2.969,15.447,15.447,0,0,1,8.39,2.066A6.044,6.044,0,0,1,2891.034,411.889Z" fill="url(#linear-gradient-2)"/>
        </g>
        <g id="Сгруппировать_14" data-name="Сгруппировать 14">
          <path id="Контур_53" data-name="Контур 53" d="M2830.9,396.726c-7.821-2.407-37.787-4.832-50.437-4.065-13.67.831-24.6,3.574-31.242,6.712-7.479,3.533-10.885,8.37-9.486,13.778,4.337-8.052,22.284-12.621,36.784-15a74.657,74.657,0,0,1,7.966-.83c-4.318,8.306-23.69,45.891-24.325,53-.539,6.041,4.36,10.426,7.152,10.418-4.35-8.809,19.439-54.672,24.134-63.559,16.351-.07,29.321,1.086,33.516.826A29.747,29.747,0,0,0,2830.9,396.726Z" fill="url(#linear-gradient-7)"/>
          <path id="Контур_54" data-name="Контур 54" d="M2807.481,426.855a13.99,13.99,0,0,0-7.539.074,22.786,22.786,0,0,0-6.809,3.387,30.658,30.658,0,0,0-10.433,12.307,13.932,13.932,0,0,0-1.549,6.748,5.392,5.392,0,0,0,1.357,3.315,7.788,7.788,0,0,0,2.736,1.77,9.487,9.487,0,0,0,1.784.43,14.265,14.265,0,0,0,5.907-.554,31.754,31.754,0,0,0,10.642-5.793,30.674,30.674,0,0,0,6.005-5.963,16.263,16.263,0,0,0,3.17-7.771,7.874,7.874,0,0,0-.8-4.529A7.309,7.309,0,0,0,2807.481,426.855Zm.423,14.71a26.2,26.2,0,0,1-2.542,2.821,28.366,28.366,0,0,1-9.849,6.678,9.455,9.455,0,0,1-4.208.67,3.327,3.327,0,0,1-2.67-1.08c-.741-.993-.612-2.6-.442-3.75a19.433,19.433,0,0,1,4.266-9,22.953,22.953,0,0,1,5.992-5.494,15.044,15.044,0,0,1,7.75-2.228c4.457,0,4.508,4.638,3.992,6.669A13.043,13.043,0,0,1,2807.9,441.565Z" fill="url(#linear-gradient-8)"/>
          <path id="Контур_55" data-name="Контур 55" d="M2929,431.533a5.858,5.858,0,0,1-.871,2.84q-1.743,2.952-6.486,5.227a20.96,20.96,0,0,1-8.938,2.226c-1.1,0-1.678-.1-1.775-.258-.1-.193,0-.355.226-.452a3.177,3.177,0,0,1,1.064-.129c2.55,0,5.551-.9,9-2.678,3.388-1.871,5.066-3.743,5.066-5.646,0-1.937-1.129-2.9-3.42-2.9a7.927,7.927,0,0,0-3.453.871,22.513,22.513,0,0,0-7.776,6.325c-3.066,3.711-4.582,7.164-4.582,10.357a6.182,6.182,0,0,0,1,3.388,3.9,3.9,0,0,0,3.582,1.581c3,0,6.808-1.581,11.39-4.743.291-.193.548-.387.839-.613-.361,1.573-3.221,4.382-6.406,5.912a20.832,20.832,0,0,1-2.794,1.087,19.812,19.812,0,0,1-5.933.939,11.74,11.74,0,0,1-7.486-2.162,7.172,7.172,0,0,1-2.711-5.969q0-8.131,7.26-14.036,7.31-5.906,15.23-5.9c3.582,0,5.97.774,7.2,2.323A4.221,4.221,0,0,1,2929,431.533Z" fill="url(#linear-gradient-9)"/>
          <path id="Контур_56" data-name="Контур 56" d="M2899.4,431.533a5.858,5.858,0,0,1-.871,2.84q-1.743,2.952-6.486,5.227a20.96,20.96,0,0,1-8.938,2.226c-1.1,0-1.678-.1-1.775-.258-.1-.193,0-.355.226-.452a3.177,3.177,0,0,1,1.064-.129c2.55,0,5.551-.9,9-2.678,3.388-1.871,5.066-3.743,5.066-5.646,0-1.937-1.129-2.9-3.42-2.9a7.926,7.926,0,0,0-3.453.871,22.515,22.515,0,0,0-7.776,6.325c-3.066,3.711-4.582,7.164-4.582,10.357a6.182,6.182,0,0,0,1,3.388,3.9,3.9,0,0,0,3.582,1.581c3,0,6.808-1.581,11.39-4.743.291-.193.548-.387.839-.613-.361,1.573-3.221,4.382-6.406,5.912a20.817,20.817,0,0,1-2.794,1.087,19.812,19.812,0,0,1-5.933.939,11.74,11.74,0,0,1-7.486-2.162,7.171,7.171,0,0,1-2.711-5.969q0-8.131,7.26-14.036,7.31-5.906,15.23-5.9c3.582,0,5.97.774,7.2,2.323A4.22,4.22,0,0,1,2899.4,431.533Z" fill="url(#linear-gradient-10)"/>
          <path id="Контур_57" data-name="Контур 57" d="M2859.377,411.889a3.905,3.905,0,0,1-7.81,0,3.826,3.826,0,0,1,1.517-3h-.742a12.674,12.674,0,0,0-8.26,2.614c-4.228,3.194-7.809,7.485-11.165,13.39,3.517.323,6.2,1.066,7.486,1.9,1.807,1.161,2.711,2.742,2.711,3.742a19.015,19.015,0,0,0-8.164-1.387,18.688,18.688,0,0,0-5.841,1.387,88.714,88.714,0,0,0-9.97,20.038c-1.936,5.292-.936,9.39-1.259,10.164-.807-.838-2.516-3.033-2.677-7.389-.162-4.162,1.968-10.745,5.839-19.748-.321.13-.548.13-.709,0a2.809,2.809,0,0,1-.581-.871,6.2,6.2,0,0,1-.515-1.645,4.818,4.818,0,0,1,.031-2.033,4.488,4.488,0,0,1,1.388-2.065,10.932,10.932,0,0,1,4.517-1.807c4.711-8.745,9.293-14.617,13.681-17.618a16.163,16.163,0,0,1,9.1-2.969,15.447,15.447,0,0,1,8.39,2.066A6.044,6.044,0,0,1,2859.377,411.889Z" fill="url(#linear-gradient-11)"/>
          <path id="Контур_58" data-name="Контур 58" d="M2891.034,411.889a3.9,3.9,0,0,1-7.81,0,3.826,3.826,0,0,1,1.517-3H2884a12.674,12.674,0,0,0-8.26,2.614c-4.227,3.194-7.809,7.485-11.165,13.39,3.517.323,6.2,1.066,7.486,1.9,1.807,1.161,2.711,2.742,2.711,3.742a19.011,19.011,0,0,0-8.164-1.387,18.684,18.684,0,0,0-5.841,1.387,88.743,88.743,0,0,0-9.97,20.038c-1.936,5.292-.936,9.39-1.259,10.164-.806-.838-2.516-3.033-2.677-7.389-.162-4.162,1.968-10.745,5.839-19.748-.321.13-.548.13-.709,0a2.809,2.809,0,0,1-.581-.871,6.2,6.2,0,0,1-.515-1.645,4.818,4.818,0,0,1,.031-2.033,4.488,4.488,0,0,1,1.388-2.065,10.932,10.932,0,0,1,4.518-1.807c4.71-8.745,9.292-14.617,13.68-17.618a16.163,16.163,0,0,1,9.1-2.969,15.447,15.447,0,0,1,8.39,2.066A6.044,6.044,0,0,1,2891.034,411.889Z" fill="url(#linear-gradient-12)"/>
        </g>
      </g>
      <g id="Сгруппировать_19" data-name="Сгруппировать 19">
        <g id="Сгруппировать_18" data-name="Сгруппировать 18">
          <g id="Сгруппировать_17" data-name="Сгруппировать 17">
            <path id="Контур_59" data-name="Контур 59" d="M2743.521,479.717l.051,3.3h-.406a3.2,3.2,0,0,0-.427-1.6,1.69,1.69,0,0,0-.942-.766,6.143,6.143,0,0,0-1.609-.161h-3.957v10.777a2.826,2.826,0,0,0,.36,1.77,2.57,2.57,0,0,0,1.661.416v.386h-6.06v-.386a2.616,2.616,0,0,0,1.676-.416,2.791,2.791,0,0,0,.364-1.77v-8.975a2.789,2.789,0,0,0-.364-1.77,2.616,2.616,0,0,0-1.676-.416v-.386Z" fill="url(#linear-gradient-13)"/>
            <path id="Контур_60" data-name="Контур 60" d="M2744.177,484.3h8.527v.4a2.092,2.092,0,0,0-.942.14,1.1,1.1,0,0,0-.369.35,3.6,3.6,0,0,0-.136,1.353V491.6a4.1,4.1,0,0,0,.114,1.316,1.036,1.036,0,0,0,.359.375,1.97,1.97,0,0,0,.974.161v.386h-4.935v-.386a4.9,4.9,0,0,0,1.109-.083.778.778,0,0,0,.483-.4,3.338,3.338,0,0,0,.178-1.369v-6.623h-3.176v4.019a17.112,17.112,0,0,1-.2,3.2,2.209,2.209,0,0,1-.8,1.364,2.249,2.249,0,0,1-1.369.443q-1.332,0-1.333-1.1a.891.891,0,0,1,.214-.614.71.71,0,0,1,.557-.239.961.961,0,0,1,.677.3c.27.264.475.4.614.4.312,0,.54-.262.681-.786a11.963,11.963,0,0,0,.214-2.754v-2.1a4.758,4.758,0,0,0-.234-1.979q-.234-.354-1.2-.427Z" fill="url(#linear-gradient-14)"/>
            <path id="Контур_61" data-name="Контур 61" d="M2759.243,492.462a15.669,15.669,0,0,1-1.843,1.311,2.81,2.81,0,0,1-1.2.261,2.143,2.143,0,0,1-1.63-.677,2.483,2.483,0,0,1-.64-1.781,2.273,2.273,0,0,1,.312-1.208,4.129,4.129,0,0,1,1.484-1.332,22.923,22.923,0,0,1,3.514-1.52v-.375a3.1,3.1,0,0,0-.453-1.957,1.632,1.632,0,0,0-1.316-.532,1.484,1.484,0,0,0-1.042.354,1.065,1.065,0,0,0-.4.812l.021.6a1.04,1.04,0,0,1-.244.74.842.842,0,0,1-.641.26.809.809,0,0,1-.63-.271,1.059,1.059,0,0,1-.244-.739,2.129,2.129,0,0,1,.916-1.645,3.951,3.951,0,0,1,2.571-.749,4.457,4.457,0,0,1,2.083.426,1.96,1.96,0,0,1,.905,1.01,5.683,5.683,0,0,1,.188,1.832v3.238a14.681,14.681,0,0,0,.053,1.672.691.691,0,0,0,.172.411.4.4,0,0,0,.275.1.567.567,0,0,0,.292-.072,6.5,6.5,0,0,0,.843-.761v.584q-1.167,1.561-2.228,1.561a1.011,1.011,0,0,1-.812-.354A1.9,1.9,0,0,1,2759.243,492.462Zm0-.677V488.15a20.587,20.587,0,0,0-2.03.886,3.5,3.5,0,0,0-1.177.958,1.849,1.849,0,0,0-.353,1.093,1.779,1.779,0,0,0,.447,1.244,1.356,1.356,0,0,0,1.031.495A3.776,3.776,0,0,0,2759.243,491.785Z" fill="url(#linear-gradient-15)"/>
            <path id="Контур_62" data-name="Контур 62" d="M2763.513,487.286V484.3h.436a.614.614,0,0,0,.417.167,3.863,3.863,0,0,0,.771-.167,6.149,6.149,0,0,1,1.614-.28,3.955,3.955,0,0,1,2.3.634,1.959,1.959,0,0,1,.921,1.687q0,1.614-2.447,2.343,2.853.592,2.853,2.675a2.554,2.554,0,0,1-.916,1.932,3.819,3.819,0,0,1-2.666.839,4.666,4.666,0,0,1-2.015-.412,7.427,7.427,0,0,1-1.889-1.39l.27-.27a5.384,5.384,0,0,0,3.238,1.322,1.891,1.891,0,0,0,1.437-.594,2.147,2.147,0,0,0,.563-1.541q0-2.072-2.676-2.2v-.6a2.264,2.264,0,0,0,1.827-.671,2.192,2.192,0,0,0,.567-1.442,1.672,1.672,0,0,0-.483-1.187,1.692,1.692,0,0,0-1.286-.51q-1.856,0-2.458,2.654Z" fill="url(#linear-gradient-16)"/>
            <path id="Контур_63" data-name="Контур 63" d="M2774.706,490.9l4.123-4.768a1.751,1.751,0,0,0-.3-1.114,1.284,1.284,0,0,0-.968-.323v-.4h4.435v.4a2.089,2.089,0,0,0-.936.14,1.081,1.081,0,0,0-.375.35,3.6,3.6,0,0,0-.136,1.353V491.6a4.06,4.06,0,0,0,.115,1.316,1.028,1.028,0,0,0,.359.375,1.965,1.965,0,0,0,.973.161v.386h-4.612v-.386a1.567,1.567,0,0,0,1.155-.317,2.565,2.565,0,0,0,.292-1.535v-4.489l-4.123,4.78a2.394,2.394,0,0,0,.25,1.218,1.163,1.163,0,0,0,.989.343v.386h-4.405v-.386q.927,0,1.188-.338a2.833,2.833,0,0,0,.26-1.514v-5.061a4.04,4.04,0,0,0-.115-1.317,1.1,1.1,0,0,0-.353-.365,1.983,1.983,0,0,0-.98-.161v-.4h4.613v.4a2.1,2.1,0,0,0-.937.14,1.117,1.117,0,0,0-.375.35,3.63,3.63,0,0,0-.135,1.353Z" fill="url(#linear-gradient-17)"/>
            <path id="Контур_64" data-name="Контур 64" d="M2782.452,485.246l2.936-1.187h.4v2.228a5.379,5.379,0,0,1,1.484-1.765,2.748,2.748,0,0,1,1.567-.5,3.014,3.014,0,0,1,2.394,1.124,5.312,5.312,0,0,1,1.177,3.582,5.963,5.963,0,0,1-1.416,4.081,3.748,3.748,0,0,1-2.936,1.323,3.669,3.669,0,0,1-1.333-.219,3.108,3.108,0,0,1-.937-.625v2.9a3.871,3.871,0,0,0,.119,1.245.893.893,0,0,0,.417.421,2.558,2.558,0,0,0,1.077.157v.384h-5v-.384h.261a1.9,1.9,0,0,0,.979-.219.753.753,0,0,0,.307-.37,4.424,4.424,0,0,0,.11-1.3v-9.018a4.913,4.913,0,0,0-.084-1.176.707.707,0,0,0-.266-.374.855.855,0,0,0-.494-.125,1.858,1.858,0,0,0-.635.145Zm3.332,1.655v3.561a7.588,7.588,0,0,0,.094,1.52,1.946,1.946,0,0,0,.713,1.063,2.2,2.2,0,0,0,1.431.458,2.052,2.052,0,0,0,1.687-.813,4.7,4.7,0,0,0,.844-2.988,5.208,5.208,0,0,0-.958-3.363,2,2,0,0,0-1.583-.812,2.168,2.168,0,0,0-.99.249A5.831,5.831,0,0,0,2785.784,486.9Z" fill="url(#linear-gradient-18)"/>
            <path id="Контур_65" data-name="Контур 65" d="M2798.467,484.018a4.224,4.224,0,0,1,3.477,1.644,5.05,5.05,0,0,1,1.115,3.228,6.068,6.068,0,0,1-.615,2.592,4.364,4.364,0,0,1-4.091,2.646,4.039,4.039,0,0,1-3.426-1.719,5.323,5.323,0,0,1-1.073-3.248,5.761,5.761,0,0,1,.651-2.608,4.34,4.34,0,0,1,3.962-2.535Zm-.322.676a2.186,2.186,0,0,0-1.11.327,2.3,2.3,0,0,0-.9,1.152,5.516,5.516,0,0,0-.344,2.113,7.347,7.347,0,0,0,.828,3.592,2.464,2.464,0,0,0,2.181,1.511,2.036,2.036,0,0,0,1.666-.833,4.741,4.741,0,0,0,.656-2.865,6.521,6.521,0,0,0-1.094-4A2.252,2.252,0,0,0,2798.145,484.694Z" fill="url(#linear-gradient-19)"/>
            <path id="Контур_66" data-name="Контур 66" d="M2810.514,488.8q2.613.542,2.613,2.447a2.116,2.116,0,0,1-1.088,1.947,5.965,5.965,0,0,1-3.035.646H2804.3v-.386c.617,0,1.008-.115,1.171-.348a2.989,2.989,0,0,0,.245-1.5v-5.061a4.164,4.164,0,0,0-.11-1.322,1.086,1.086,0,0,0-.343-.36,1.914,1.914,0,0,0-.963-.161v-.4h4.393a8.69,8.69,0,0,1,2.057.2,2.462,2.462,0,0,1,1.291.781,2.088,2.088,0,0,1,.5,1.416Q2812.544,488.318,2810.514,488.8Zm-3.072-.239c.305.006.49.01.552.01a3.143,3.143,0,0,0,2.062-.546,1.691,1.691,0,0,0,.634-1.328,1.43,1.43,0,0,0-.645-1.312,4,4,0,0,0-2.062-.406h-.541Zm0,4.435a4.058,4.058,0,0,0,1.24.167,2.693,2.693,0,0,0,1.842-.541,1.787,1.787,0,0,0,.6-1.4,1.652,1.652,0,0,0-.78-1.469,3.943,3.943,0,0,0-2.166-.51c-.23,0-.476.007-.74.021Z" fill="url(#linear-gradient-20)"/>
            <path id="Контур_67" data-name="Контур 67" d="M2819.655,492.462a15.7,15.7,0,0,1-1.842,1.311,2.814,2.814,0,0,1-1.2.261,2.143,2.143,0,0,1-1.63-.677,2.487,2.487,0,0,1-.64-1.781,2.273,2.273,0,0,1,.312-1.208,4.134,4.134,0,0,1,1.485-1.332,22.89,22.89,0,0,1,3.513-1.52v-.375a3.1,3.1,0,0,0-.453-1.957,1.632,1.632,0,0,0-1.316-.532,1.485,1.485,0,0,0-1.042.354,1.065,1.065,0,0,0-.4.812l.021.6a1.041,1.041,0,0,1-.244.74.841.841,0,0,1-.641.26.808.808,0,0,1-.63-.271,1.059,1.059,0,0,1-.244-.739,2.129,2.129,0,0,1,.916-1.645,3.953,3.953,0,0,1,2.571-.749,4.457,4.457,0,0,1,2.083.426,1.968,1.968,0,0,1,.906,1.01,5.692,5.692,0,0,1,.187,1.832v3.238a14.681,14.681,0,0,0,.053,1.672.7.7,0,0,0,.172.411.4.4,0,0,0,.275.1.568.568,0,0,0,.292-.072,6.435,6.435,0,0,0,.843-.761v.584q-1.167,1.561-2.228,1.561a1.011,1.011,0,0,1-.812-.354A1.911,1.911,0,0,1,2819.655,492.462Zm0-.677V488.15a20.531,20.531,0,0,0-2.03.886,3.51,3.51,0,0,0-1.177.958,1.848,1.848,0,0,0-.353,1.093,1.778,1.778,0,0,0,.447,1.244,1.357,1.357,0,0,0,1.031.495A3.774,3.774,0,0,0,2819.655,491.785Z" fill="url(#linear-gradient-21)"/>
            <path id="Контур_68" data-name="Контур 68" d="M2826.694,488.557h4.123v-2.02a5.826,5.826,0,0,0-.073-1.182.813.813,0,0,0-.358-.468,1.929,1.929,0,0,0-1.016-.193v-.4h4.612v.4a2.252,2.252,0,0,0-.942.146.763.763,0,0,0-.4.422,4.625,4.625,0,0,0-.1,1.275V491.6a5.805,5.805,0,0,0,.078,1.2.8.8,0,0,0,.38.474,2.014,2.014,0,0,0,.989.181v.386h-4.612v-.386a1.566,1.566,0,0,0,1.155-.317,2.556,2.556,0,0,0,.292-1.535v-2.365h-4.123V491.6a5.739,5.739,0,0,0,.078,1.2.791.791,0,0,0,.38.474,2.018,2.018,0,0,0,.99.181v.386h-4.614v-.386q.927,0,1.188-.338a2.82,2.82,0,0,0,.261-1.514v-5.061a5.7,5.7,0,0,0-.079-1.2.772.772,0,0,0-.38-.469,2.059,2.059,0,0,0-.99-.177v-.4h4.614v.4a2.249,2.249,0,0,0-.943.146.76.76,0,0,0-.4.422,4.671,4.671,0,0,0-.1,1.275Z" fill="url(#linear-gradient-22)"/>
            <path id="Контур_69" data-name="Контур 69" d="M2838.106,488.557h4.123v-2.02a5.826,5.826,0,0,0-.073-1.182.814.814,0,0,0-.358-.468,1.928,1.928,0,0,0-1.016-.193v-.4h4.613v.4a2.256,2.256,0,0,0-.943.146.763.763,0,0,0-.4.422,4.615,4.615,0,0,0-.1,1.275V491.6a5.829,5.829,0,0,0,.078,1.2.8.8,0,0,0,.38.474,2.018,2.018,0,0,0,.99.181v.386h-4.613v-.386a1.571,1.571,0,0,0,1.156-.317,2.565,2.565,0,0,0,.291-1.535v-2.365h-4.123V491.6a5.641,5.641,0,0,0,.079,1.2.786.786,0,0,0,.379.474,2.018,2.018,0,0,0,.99.181v.386h-4.614v-.386c.619,0,1.014-.112,1.188-.338a2.818,2.818,0,0,0,.261-1.514v-5.061a5.8,5.8,0,0,0-.078-1.2.776.776,0,0,0-.381-.469,2.055,2.055,0,0,0-.99-.177v-.4h4.614v.4a2.251,2.251,0,0,0-.943.146.762.762,0,0,0-.4.422,4.681,4.681,0,0,0-.1,1.275Z" fill="url(#linear-gradient-23)"/>
            <path id="Контур_70" data-name="Контур 70" d="M2851.944,492.462a15.7,15.7,0,0,1-1.842,1.311,2.815,2.815,0,0,1-1.2.261,2.143,2.143,0,0,1-1.63-.677,2.487,2.487,0,0,1-.64-1.781,2.273,2.273,0,0,1,.312-1.208,4.135,4.135,0,0,1,1.485-1.332,22.9,22.9,0,0,1,3.513-1.52v-.375a3.1,3.1,0,0,0-.453-1.957,1.632,1.632,0,0,0-1.316-.532,1.485,1.485,0,0,0-1.042.354,1.065,1.065,0,0,0-.4.812l.021.6a1.04,1.04,0,0,1-.244.74.84.84,0,0,1-.641.26.809.809,0,0,1-.63-.271,1.06,1.06,0,0,1-.244-.739,2.129,2.129,0,0,1,.916-1.645,3.952,3.952,0,0,1,2.571-.749,4.457,4.457,0,0,1,2.083.426,1.964,1.964,0,0,1,.906,1.01,5.692,5.692,0,0,1,.187,1.832v3.238a14.618,14.618,0,0,0,.053,1.672.7.7,0,0,0,.172.411.4.4,0,0,0,.275.1.568.568,0,0,0,.292-.072,6.435,6.435,0,0,0,.843-.761v.584q-1.166,1.561-2.228,1.561a1.012,1.012,0,0,1-.812-.354A1.908,1.908,0,0,1,2851.944,492.462Zm0-.677V488.15a20.531,20.531,0,0,0-2.03.886,3.51,3.51,0,0,0-1.177.958,1.848,1.848,0,0,0-.353,1.093,1.778,1.778,0,0,0,.447,1.244,1.356,1.356,0,0,0,1.031.495A3.774,3.774,0,0,0,2851.944,491.785Z" fill="url(#linear-gradient-24)"/>
            <path id="Контур_71" data-name="Контур 71" d="M2864.668,484.3v.4a1.969,1.969,0,0,0-.952.177.847.847,0,0,0-.4.447,4.817,4.817,0,0,0-.093,1.219V491.6a5.252,5.252,0,0,0,.084,1.191.814.814,0,0,0,.4.475,1.944,1.944,0,0,0,.963.186v.386h-4.612v-.386a1.571,1.571,0,0,0,1.156-.317,2.573,2.573,0,0,0,.291-1.535v-2.073l-.427.01c-.062,0-.174,0-.333-.01l-3.041,4.311h-2.374v-.386a1.352,1.352,0,0,0,.724-.139,4.784,4.784,0,0,0,.755-.922l2.228-3.145q-2.4-.834-2.394-2.551a2.13,2.13,0,0,1,.858-1.681,4.642,4.642,0,0,1,2.932-.714Zm-3.165.792a2.855,2.855,0,0,0-.771-.115,2.133,2.133,0,0,0-1.572.521,1.691,1.691,0,0,0-.52,1.238,1.881,1.881,0,0,0,.739,1.521,2.852,2.852,0,0,0,1.863.6,1.844,1.844,0,0,0,.261-.02Z" fill="url(#linear-gradient-25)"/>
            <path id="Контур_72" data-name="Контур 72" d="M2880.714,493.836H2877.9a40.131,40.131,0,0,1-2.374-3.9,3.572,3.572,0,0,0-.453-.683.716.716,0,0,0-.556-.224q-.125,0-.4.021V491.6a4.391,4.391,0,0,0,.119,1.316.749.749,0,0,0,.433.412,3.128,3.128,0,0,0,1.052.124v.386h-4.77v-.386q.927,0,1.188-.338a2.83,2.83,0,0,0,.26-1.514v-5.061a4.04,4.04,0,0,0-.115-1.317,1.1,1.1,0,0,0-.353-.365,1.983,1.983,0,0,0-.98-.161v-.4h4.77v.4a2.633,2.633,0,0,0-1.068.125,1.709,1.709,0,0,0-.37.307,3.116,3.116,0,0,0-.166,1.411v1.874c.159.014.267.021.322.021a2.149,2.149,0,0,0,1.193-.36,3.041,3.041,0,0,0,.994-1.525,7.616,7.616,0,0,1,.672-1.488,1.973,1.973,0,0,1,.739-.63,2.137,2.137,0,0,1,.994-.245,1.382,1.382,0,0,1,.9.27.88.88,0,0,1-.573,1.583,1.759,1.759,0,0,1-.573-.125,2.19,2.19,0,0,0-.666-.156q-.479,0-.791.822a9.326,9.326,0,0,1-.52,1.224,4.3,4.3,0,0,1-.636.734,1.743,1.743,0,0,1,.7.479,13.912,13.912,0,0,1,1.411,2.2,9.115,9.115,0,0,0,1.233,1.833,1.751,1.751,0,0,0,1.193.4Z" fill="url(#linear-gradient-26)"/>
            <path id="Контур_73" data-name="Контур 73" d="M2885.087,484.018a4.224,4.224,0,0,1,3.477,1.644,5.048,5.048,0,0,1,1.115,3.228,6.065,6.065,0,0,1-.615,2.592,4.364,4.364,0,0,1-4.091,2.646,4.04,4.04,0,0,1-3.426-1.719,5.322,5.322,0,0,1-1.072-3.248,5.757,5.757,0,0,1,.65-2.608,4.442,4.442,0,0,1,1.713-1.916A4.395,4.395,0,0,1,2885.087,484.018Zm-.322.676a2.185,2.185,0,0,0-1.11.327,2.3,2.3,0,0,0-.9,1.152,5.516,5.516,0,0,0-.344,2.113,7.358,7.358,0,0,0,.828,3.592,2.465,2.465,0,0,0,2.181,1.511,2.036,2.036,0,0,0,1.666-.833,4.741,4.741,0,0,0,.656-2.865,6.521,6.521,0,0,0-1.094-4A2.251,2.251,0,0,0,2884.765,484.694Z" fill="url(#linear-gradient-27)"/>
            <path id="Контур_74" data-name="Контур 74" d="M2894.063,488.557h4.123v-2.02a5.819,5.819,0,0,0-.074-1.182.814.814,0,0,0-.358-.468,1.924,1.924,0,0,0-1.016-.193v-.4h4.613v.4a2.255,2.255,0,0,0-.943.146.762.762,0,0,0-.4.422,4.615,4.615,0,0,0-.1,1.275V491.6a5.811,5.811,0,0,0,.078,1.2.8.8,0,0,0,.38.474,2.018,2.018,0,0,0,.99.181v.386h-4.613v-.386a1.571,1.571,0,0,0,1.156-.317,2.565,2.565,0,0,0,.292-1.535v-2.365h-4.123V491.6a5.647,5.647,0,0,0,.078,1.2.784.784,0,0,0,.38.474,2.011,2.011,0,0,0,.989.181v.386H2890.9v-.386c.619,0,1.014-.112,1.188-.338a2.818,2.818,0,0,0,.261-1.514v-5.061a5.8,5.8,0,0,0-.078-1.2.777.777,0,0,0-.381-.469,2.055,2.055,0,0,0-.99-.177v-.4h4.614v.4a2.253,2.253,0,0,0-.943.146.761.761,0,0,0-.4.422,4.685,4.685,0,0,0-.1,1.275Z" fill="url(#linear-gradient-28)"/>
            <path id="Контур_75" data-name="Контур 75" d="M2906.276,480.206l2.812-1.177h.458v5.863a2.847,2.847,0,0,1,1.926-.874,2.751,2.751,0,0,1,2.306,1.478,6.42,6.42,0,0,1,.963,3.581,6.348,6.348,0,0,1-.978,3.557,2.82,2.82,0,0,1-2.374,1.494,2.416,2.416,0,0,1-1.843-.917v2.947a4.434,4.434,0,0,0,.119,1.327.727.727,0,0,0,.433.407,4.474,4.474,0,0,0,1.311.12v.384h-5.133v-.384a2.081,2.081,0,0,0,1.349-.3,2.457,2.457,0,0,0,.307-1.557v-2.947a2.347,2.347,0,0,1-1.832.917,2.8,2.8,0,0,1-2.406-1.5,6.644,6.644,0,0,1-.958-3.654,6.505,6.505,0,0,1,.916-3.453,2.733,2.733,0,0,1,2.4-1.5,2.346,2.346,0,0,1,1.885,1v-2.582a5.191,5.191,0,0,0-.167-1.7.589.589,0,0,0-.583-.364,1.884,1.884,0,0,0-.749.177Zm1.656,5.737q-.583-1.229-1.5-1.228-.887,0-1.38,1.161a9.22,9.22,0,0,0-.494,3.451,7.358,7.358,0,0,0,.494,3.057,1.524,1.524,0,0,0,1.38,1.036,1.9,1.9,0,0,0,1.5-.948Zm1.614,6.352a1.684,1.684,0,0,0,.655.833,1.584,1.584,0,0,0,.855.292,1.519,1.519,0,0,0,1.317-1.011,7.289,7.289,0,0,0,.515-3.154q0-4.539-1.8-4.54a2.174,2.174,0,0,0-1.541.844Z" fill="url(#linear-gradient-29)"/>
            <path id="Контур_76" data-name="Контур 76" d="M2917.916,487.891a4.9,4.9,0,0,0,1.031,3.332,3.15,3.15,0,0,0,2.448,1.208,2.647,2.647,0,0,0,1.628-.516,3.808,3.808,0,0,0,1.162-1.765l.323.208a4.973,4.973,0,0,1-1.271,2.6,3.392,3.392,0,0,1-2.634,1.172,3.846,3.846,0,0,1-2.942-1.339,5.128,5.128,0,0,1-1.223-3.6,5.437,5.437,0,0,1,1.254-3.816,4.094,4.094,0,0,1,3.15-1.369,3.525,3.525,0,0,1,2.635,1.056,3.881,3.881,0,0,1,1.031,2.828Zm0-.6h4.415a4.033,4.033,0,0,0-.219-1.291,2.07,2.07,0,0,0-.775-.916,1.958,1.958,0,0,0-1.078-.333,2.148,2.148,0,0,0-1.546.672A2.913,2.913,0,0,0,2917.916,487.286Z" fill="url(#linear-gradient-30)"/>
            <path id="Контур_77" data-name="Контур 77" d="M2925.632,484.3h8.247l.416,2.583h-.469a2.985,2.985,0,0,0-.416-1.208,1.4,1.4,0,0,0-.667-.563,4.246,4.246,0,0,0-1.28-.135h-.833V491.6a4.154,4.154,0,0,0,.13,1.347.67.67,0,0,0,.422.381,6.2,6.2,0,0,0,1.333.124v.386h-5.186v-.386a1.92,1.92,0,0,0,1.286-.322,2.545,2.545,0,0,0,.286-1.53v-6.623h-.853a4.493,4.493,0,0,0-1.219.109,1.336,1.336,0,0,0-.619.521,3.736,3.736,0,0,0-.5,1.276h-.469Z" fill="url(#linear-gradient-31)"/>
            <path id="Контур_78" data-name="Контур 78" d="M2940.762,492.462a15.757,15.757,0,0,1-1.843,1.311,2.81,2.81,0,0,1-1.2.261,2.143,2.143,0,0,1-1.63-.677,2.483,2.483,0,0,1-.641-1.781,2.273,2.273,0,0,1,.313-1.208,4.132,4.132,0,0,1,1.484-1.332,22.868,22.868,0,0,1,3.514-1.52v-.375a3.11,3.11,0,0,0-.453-1.957,1.635,1.635,0,0,0-1.317-.532,1.487,1.487,0,0,0-1.042.354,1.068,1.068,0,0,0-.4.812l.02.6a1.041,1.041,0,0,1-.244.74.841.841,0,0,1-.641.26.808.808,0,0,1-.629-.271,1.055,1.055,0,0,1-.245-.739,2.13,2.13,0,0,1,.916-1.645,3.956,3.956,0,0,1,2.572-.749,4.46,4.46,0,0,1,2.083.426,1.963,1.963,0,0,1,.905,1.01,5.692,5.692,0,0,1,.187,1.832v3.238a14.681,14.681,0,0,0,.053,1.672.7.7,0,0,0,.172.411.4.4,0,0,0,.275.1.562.562,0,0,0,.292-.072,6.435,6.435,0,0,0,.843-.761v.584q-1.166,1.561-2.227,1.561a1.013,1.013,0,0,1-.813-.354A1.911,1.911,0,0,1,2940.762,492.462Zm0-.677V488.15a20.643,20.643,0,0,0-2.031.886,3.507,3.507,0,0,0-1.176.958,1.844,1.844,0,0,0-.354,1.093,1.784,1.784,0,0,0,.447,1.244,1.358,1.358,0,0,0,1.032.495A3.779,3.779,0,0,0,2940.762,491.785Z" fill="url(#linear-gradient-32)"/>
          </g>
        </g>
      </g>
    </g>
  </g>
</svg>
