<svg xmlns="http://www.w3.org/2000/svg" xmlns:xlink="http://www.w3.org/1999/xlink" width="280.63" height="139.64" viewBox="0 0 280.63 139.64">
  <defs>
    <clipPath id="clip-Монтажная_область_21">
      <rect width="280.63" height="139.64"/>
    </clipPath>
  </defs>
  <g id="Монтажная_область_21" data-name="Монтажная область – 21" clip-path="url(#clip-Монтажная_область_21)">
    <g id="Сгруппировать_174" data-name="Сгруппировать 174" transform="translate(-3256 -88)">
      <g id="Сгруппировать_29" data-name="Сгруппировать 29">
        <path id="Контур_120" data-name="Контур 120" d="M3326.029,149.815l17.643-15.976h-8.757l-19.838,16.251,5.458-16.251h-7.841l-12.132,39.684h7.841l4.041-13.12,8.28-6.834a7.528,7.528,0,0,1,1.32,1.59,6.644,6.644,0,0,1,.4,5.085l-3.866,13.279h8.539l3.512-12.233a10.244,10.244,0,0,0-1.065-8.355,7.778,7.778,0,0,0-1.218-1.507A11.553,11.553,0,0,0,3326.029,149.815Z" fill="#fff" stroke="#1ec0ca" stroke-miterlimit="10" stroke-width="0.25"/>
        <path id="Контур_121" data-name="Контур 121" d="M3409.215,158a13.842,13.842,0,0,0-5.573-1.4l2.28-1.687,13.4-11.831h-8.735l-13.228,12.064,7.713-27.967h-7.256l-12.86,46.5h7.257l2.957-10.675,4.48-3.448,0,0a6.848,6.848,0,0,1,2.394.7,1.981,1.981,0,0,1,1.15,1.473,2.562,2.562,0,0,1-.073,1l-2.311,11.024h8.287l2.255-11.024a5.632,5.632,0,0,0,.091-1.852A4,4,0,0,0,3409.215,158Z" fill="#fff" stroke="#1ec0ca" stroke-miterlimit="10" stroke-width="0.25"/>
        <g id="Сгруппировать_24" data-name="Сгруппировать 24">
          <path id="Контур_122" data-name="Контур 122" d="M3333.072,173.523h7.254l5.03-16.514a10.013,10.013,0,0,1,2.65-4.657,5.542,5.542,0,0,1,3.706-1.443,3.061,3.061,0,0,1,3.071,1.933l6.405-2.6a5.606,5.606,0,0,0,.217-1.013,3.448,3.448,0,0,0-.906-2.888c-.839-.772-2.3-1.169-4.331-1.169a11.044,11.044,0,0,0-7.613,3.223l-2.6,2.489,1.543-5.011h-5.971Z" fill="#fff" stroke="#1ec0ca" stroke-miterlimit="10" stroke-width="0.25"/>
        </g>
        <g id="Сгруппировать_25" data-name="Сгруппировать 25">
          <path id="Контур_123" data-name="Контур 123" d="M3377.048,145.174a17.194,17.194,0,0,0-10.6,3.273c-6.924,4.925-8.352,13.308-8.626,15.759a9.132,9.132,0,0,0,1.569,6.857c1.647,2.13,4.366,3.162,8.319,3.162a17.671,17.671,0,0,0,10.718-3.278c6.921-4.937,8.352-13.354,8.628-15.814.333-2.99-.15-5.084-1.569-6.788l0-.007C3383.209,145.533,3379.779,145.174,3377.048,145.174Zm-7.371,24.19a4.536,4.536,0,0,1-3.719-1.647,4.417,4.417,0,0,1-.68-3.235,12.481,12.481,0,0,1,.594-2.584l1.462-4.775a10.142,10.142,0,0,1,3.37-5.565,7.842,7.842,0,0,1,4.5-1.523,4.6,4.6,0,0,1,3.72,1.645,4.481,4.481,0,0,1,.675,3.294,13.581,13.581,0,0,1-.539,2.363l-.043.142-1.469,4.794a10.143,10.143,0,0,1-3.37,5.565A7.854,7.854,0,0,1,3369.677,169.364Z" fill="#fff" stroke="#1ec0ca" stroke-miterlimit="10" stroke-width="0.25"/>
        </g>
        <g id="Сгруппировать_26" data-name="Сгруппировать 26">
          <path id="Контур_124" data-name="Контур 124" d="M3433.578,174.225h3.323l1.65-7.414,5.59-18.39a31.875,31.875,0,0,0-4.811-2.109,22.8,22.8,0,0,0-6.393-1.138,18.4,18.4,0,0,0-10.109,2.938c-5.463,3.66-8.5,10.544-9.075,15.742a11.36,11.36,0,0,0,.865,6.482c1.385,2.431,4.309,3.889,7.815,3.889a13.144,13.144,0,0,0,6.674-1.838,17.022,17.022,0,0,0,2.444-1.844l.715-.64.295.9Zm-1.6-3.25.4.454Zm-6.882-1.611a3.816,3.816,0,0,1-3.394-1.614,4.827,4.827,0,0,1-.537-3.268,18.8,18.8,0,0,1,.754-3.254l.851-2.888c.656-2.263,1.335-4.6,3.917-6.653a6.877,6.877,0,0,1,4.753-1.652,5.657,5.657,0,0,1,4.1,1.744l.276.259-3.052,9.872c-.589,1.923-1.26,4.1-3.244,5.79A6.687,6.687,0,0,1,3425.1,169.364Z" fill="#fff" stroke="#1ec0ca" stroke-miterlimit="10" stroke-width="0.25"/>
        </g>
        <g id="Сгруппировать_27" data-name="Сгруппировать 27">
          <path id="Контур_125" data-name="Контур 125" d="M3459.665,173.523h7.254l5.5-18.09a20.042,20.042,0,0,0,.682-3.048,6.305,6.305,0,0,0-1.058-4.7c-1.718-2.225-4.6-2.51-6.923-2.51a12.4,12.4,0,0,0-5.265,1.008,15.8,15.8,0,0,0-3.732,2.087l-1.46,1.072,1.034-3.466h-5.919l-8.34,27.648h7.257l6.382-20.94.2-.119a28.892,28.892,0,0,1,2.555-1.436,9.134,9.134,0,0,1,3.81-.993,3.942,3.942,0,0,1,3.4,1.355,3.232,3.232,0,0,1,.542,2.417,8.025,8.025,0,0,1-.376,1.645Z" fill="#fff" stroke="#1ec0ca" stroke-miterlimit="10" stroke-width="0.25"/>
        </g>
        <g id="Сгруппировать_28" data-name="Сгруппировать 28">
          <path id="Контур_126" data-name="Контур 126" d="M3472.8,173.523h7.259l7.065-23.02h5.607l1.393-4.628h-5.615l2.931-9.522h-7.257l-2.928,9.522h-4.906l-1.393,4.628h4.911Z" fill="#fff" stroke="#1ec0ca" stroke-miterlimit="10" stroke-width="0.25"/>
        </g>
      </g>
      <g id="Сгруппировать_30" data-name="Сгруппировать 30">
        <path id="Контур_127" data-name="Контур 127" d="M3510.322,149.876l-10.3,26.911a13.527,13.527,0,0,1-12.294,8.711l-17.486.488H3282.3c-.2.615-.405,1.229-.561,1.857-.143.574-.175.872-.2,1.009h188.747l17.526-.488c6.662-.185,11.4-5.352,13.786-11.577l10.3-26.911Z" fill="#f6ad32"/>
      </g>
    </g>
  </g>
</svg>
