<svg xmlns="http://www.w3.org/2000/svg" xmlns:xlink="http://www.w3.org/1999/xlink" width="280.63" height="139.64" viewBox="0 0 280.63 139.64">
  <defs>
    <clipPath id="clip-Монтажная_область_16">
      <rect width="280.63" height="139.64"/>
    </clipPath>
  </defs>
  <g id="Монтажная_область_16" data-name="Монтажная область – 16" clip-path="url(#clip-Монтажная_область_16)">
    <g id="Сгруппировать_170" data-name="Сгруппировать 170" transform="translate(-2083 -373)">
      <g id="Сгруппировать_51" data-name="Сгруппировать 51">
        <path id="Контур_167" data-name="Контур 167" d="M2148.752,396.065l2.224.083c-.494,2.306-.906,4.695-1.318,7.083-.411,2.471-.823,4.942-1.235,7.5h-2.306c.082-.741.082-1.482.164-2.141,0-.577.083-1.071.083-1.483a10.934,10.934,0,0,0-3.048-7.989,11.279,11.279,0,0,0-8.154-2.965,15.412,15.412,0,0,0-13.26,7c-3.377,4.694-5.024,10.872-5.024,18.614,0,5.106,1.235,9.06,3.624,11.778,2.306,2.8,5.683,4.2,9.966,4.2a15.359,15.359,0,0,0,8.565-2.388,19.191,19.191,0,0,0,6.26-7.495l2.142.988a21.6,21.6,0,0,1-7.66,9.142,19.872,19.872,0,0,1-11.284,3.13q-9.761,0-15.32-5.436c-3.706-3.624-5.6-8.566-5.6-14.908q0-11.983,7.412-19.767a24.55,24.55,0,0,1,18.7-7.824,21.113,21.113,0,0,1,7.66,1.4,19.325,19.325,0,0,1,6.177,4.118Zm16.638,31.463-3.048,13.014h-7.412l5.436-22.815c.164-.741.247-1.4.329-1.977a11.342,11.342,0,0,0,.165-1.318,3.137,3.137,0,0,0-.494-1.812,1.568,1.568,0,0,0-1.236-.658,5.455,5.455,0,0,0-3.377,1.4,21.7,21.7,0,0,0-3.706,4.365l-1.565-1.071a18.62,18.62,0,0,1,5.354-5.848,10.665,10.665,0,0,1,6.259-1.976,6.115,6.115,0,0,1,3.954,1.153,4.282,4.282,0,0,1,1.4,3.377,11.508,11.508,0,0,1-.247,2.224c-.165.906-.412,1.976-.659,3.212a25.273,25.273,0,0,1,5.189-7.495,8.355,8.355,0,0,1,5.6-2.471,4.541,4.541,0,0,1,4.86,4.859,4.339,4.339,0,0,1-1.071,2.965,3.822,3.822,0,0,1-5.024.247,2.587,2.587,0,0,1-.906-2.141V414.1a2.847,2.847,0,0,0,.082-.741,1.957,1.957,0,0,0-.247-.989c-.164-.247-.329-.411-.494-.411-1.318,0-2.883,1.564-4.777,4.694a34.951,34.951,0,0,0-4.365,10.872Zm39.04-1.4,2.388-9.8a7.16,7.16,0,0,0-1.482-4.036,3.974,3.974,0,0,0-3.295-1.4,6.458,6.458,0,0,0-4.118,1.647,16.605,16.605,0,0,0-3.624,4.86,44.247,44.247,0,0,0-2.965,7.495,25.207,25.207,0,0,0-1.071,6.753,8.5,8.5,0,0,0,.906,4.283,3.258,3.258,0,0,0,2.8,1.4,4.806,4.806,0,0,0,2.471-.906,15.4,15.4,0,0,0,2.965-2.553,26.432,26.432,0,0,0,3.294-4.2,16.668,16.668,0,0,0,1.73-3.542Zm4.7-17.461h6.918l-5.765,22.815c-.247.906-.412,1.647-.577,2.306a12.385,12.385,0,0,0-.165,1.4,1.99,1.99,0,0,0,2.142,2.141,4.148,4.148,0,0,0,2.718-1.4,16.822,16.822,0,0,0,2.718-4.2l1.812.823a16.462,16.462,0,0,1-4.612,6.342,9.765,9.765,0,0,1-6.095,2.224,6.008,6.008,0,0,1-4.119-1.235,5.138,5.138,0,0,1-1.317-3.871,13.423,13.423,0,0,1,.082-1.73c.082-.659.165-1.4.329-2.306a23.864,23.864,0,0,1-6.094,6.836,11.711,11.711,0,0,1-6.754,2.306c-2.553,0-4.448-.741-5.766-2.388-1.4-1.565-2.059-3.871-2.059-6.754A24.513,24.513,0,0,1,2184,423.74a26.666,26.666,0,0,1,4.2-7.66,23.622,23.622,0,0,1,6.095-5.519,13.7,13.7,0,0,1,6.672-1.894,8.667,8.667,0,0,1,4.283.988,6.6,6.6,0,0,1,2.718,2.883Zm36.4,2.306-.412,2.389h-7.906l-2.224,13.178c-.989,6.012-1.9,10.954-2.8,14.908-.906,3.871-1.894,7.412-2.882,10.46l-7.578,2.553c1.812-5.6,3.789-15.072,6.013-28.415l.164-.824,1.977-11.86h-6.507l.33-2.389h6.589c.741-5.93,2.553-10.625,5.271-13.919a12.825,12.825,0,0,1,10.3-4.942,10.421,10.421,0,0,1,6.424,1.812,5.521,5.521,0,0,1,2.389,4.612,4.4,4.4,0,0,1-.906,2.8,3.049,3.049,0,0,1-2.389.988,3.1,3.1,0,0,1-2.306-.906,2.991,2.991,0,0,1-.906-2.388,5.736,5.736,0,0,1,.329-1.9c.165-.659.33-1.153.33-1.235,0-.412-.247-.742-.824-1.071a3.284,3.284,0,0,0-1.812-.412,5.648,5.648,0,0,0-5.024,2.965c-1.153,2.059-2.306,6.589-3.542,13.59Zm24.544,19.85,1.73.988a18.338,18.338,0,0,1-6.095,7,15.422,15.422,0,0,1-8.483,2.306c-3.542,0-6.26-.988-8.319-3.047q-2.966-2.966-2.965-8.4a19.581,19.581,0,0,1,2.059-8.648,21.334,21.334,0,0,1,5.518-7.413,18.312,18.312,0,0,1,6.013-3.707,20.233,20.233,0,0,1,7-1.235c2.8,0,4.942.494,6.424,1.565a5.527,5.527,0,0,1,2.224,4.7c0,3.047-1.812,5.518-5.436,7.248q-5.436,2.718-14.825,2.718a38.116,38.116,0,0,0-.742,3.788c-.082,1.153-.164,2.224-.164,3.212,0,2.142.411,3.789,1.317,4.778.906,1.07,2.307,1.564,4.283,1.564a9.475,9.475,0,0,0,5.6-1.976,17.422,17.422,0,0,0,4.859-5.436Zm-14.743-8.072c4.448-.082,7.743-.823,10.049-2.224a6.419,6.419,0,0,0,3.294-5.93,3.475,3.475,0,0,0-.988-2.635,3.805,3.805,0,0,0-2.718-.989,7.3,7.3,0,0,0-5.765,2.965,23.88,23.88,0,0,0-3.872,8.813Zm36.817,4.777-3.048,13.014h-7.412l5.353-22.815c.165-.741.247-1.4.33-1.977a4.374,4.374,0,0,0,.164-1.318,3.13,3.13,0,0,0-.494-1.812,1.564,1.564,0,0,0-1.235-.658,5.253,5.253,0,0,0-3.295,1.4,17.442,17.442,0,0,0-3.706,4.365l-1.647-1.071a19.643,19.643,0,0,1,5.353-5.848,10.92,10.92,0,0,1,6.342-1.976,6.115,6.115,0,0,1,3.954,1.153,4.523,4.523,0,0,1,1.318,3.377,11.439,11.439,0,0,1-.248,2.224c-.164.906-.329,1.976-.658,3.212a26.9,26.9,0,0,1,5.188-7.495,8.386,8.386,0,0,1,5.684-2.471,4.856,4.856,0,0,1,3.459,1.318,4.721,4.721,0,0,1,1.318,3.541,4.3,4.3,0,0,1-.989,2.965,3.421,3.421,0,0,1-2.718,1.071,3.377,3.377,0,0,1-2.388-.824,2.852,2.852,0,0,1-.906-2.141,2.66,2.66,0,0,1,.082-.659v-.741a1.957,1.957,0,0,0-.247-.989.521.521,0,0,0-.494-.411c-1.236,0-2.883,1.564-4.777,4.694a34.871,34.871,0,0,0-4.283,10.872Zm37.475-14.743a5.573,5.573,0,0,0-2.388-1.482,9.231,9.231,0,0,0-3.13-.495,6.347,6.347,0,0,0-4.283,1.318,4.11,4.11,0,0,0-1.73,3.46q0,2.964,5.436,5.683c.412.247.659.329.906.494,3.212,1.647,5.354,3.13,6.342,4.447a7.227,7.227,0,0,1,1.647,4.86,8.823,8.823,0,0,1-3.459,7.248c-2.306,1.894-5.271,2.8-9.06,2.8a14.156,14.156,0,0,1-8.071-2.141,6.514,6.514,0,0,1-3.212-5.519,4.371,4.371,0,0,1,.988-2.882,2.858,2.858,0,0,1,2.388-1.071,2.671,2.671,0,0,1,1.977.741,2.554,2.554,0,0,1,.824,1.977,5.333,5.333,0,0,1-.577,2.388,7.074,7.074,0,0,0-.659,1.483c0,.659.577,1.318,1.812,1.977a10.33,10.33,0,0,0,4.366.906,6.723,6.723,0,0,0,4.612-1.4A4.614,4.614,0,0,0,2326,433.7q0-3.088-5.189-5.683a9.859,9.859,0,0,0-1.07-.494,18.945,18.945,0,0,1-5.931-4.2,7.542,7.542,0,0,1-1.647-4.86,8.877,8.877,0,0,1,3.212-7.083,12.642,12.642,0,0,1,8.484-2.718,14.032,14.032,0,0,1,7.742,1.977c2.059,1.318,3.047,2.882,3.047,4.859a3.592,3.592,0,0,1-.823,2.471,2.732,2.732,0,0,1-2.142.906,3.288,3.288,0,0,1-2.141-.824,2.986,2.986,0,0,1-.906-2.141,4.556,4.556,0,0,1,.247-1.4,13.63,13.63,0,0,1,.741-1.73Z" fill="#fff" stroke="#fff" stroke-miterlimit="10" stroke-width="0.198"/>
      </g>
      <g id="Сгруппировать_52" data-name="Сгруппировать 52">
        <path id="Контур_168" data-name="Контур 168" d="M2220.975,474.332a3.112,3.112,0,0,1,3.107,1.7,8.083,8.083,0,0,1,0,4.52c-.141.706-.423,1.836-.847,3.249a23.606,23.606,0,0,0-.989,3.39c-.141.564-.141.847-.282,1.271a2.756,2.756,0,0,1-.141.988,1.2,1.2,0,0,0,.282.848c.141.282.283.282.565.282.989,0,1.977-.706,3.249-2.26a19.54,19.54,0,0,0,3.107-5.649c.141-.142.282-.142.565-.142a.759.759,0,0,1,.565.424c.282.141.282.283.282.565-.565,1.13-1.13,2.26-1.694,3.249a33.743,33.743,0,0,1-1.837,2.966,10.1,10.1,0,0,1-2.542,2.4,3.965,3.965,0,0,1-2.684.989c-2.542,0-3.672-1.413-3.248-4.1,0-.565.706-3.39,1.977-8.616.565-2.26.283-3.249-.989-3.249a5.527,5.527,0,0,0-3.248,1.695,18.542,18.542,0,0,0-3.39,3.955c-.706,2.4-1.554,5.65-2.4,9.322a.993.993,0,0,1-.706.565c-.424,0-.848.141-1.272.141-.423-.141-.847-.141-1.271-.282a1.01,1.01,0,0,1-.424-.848c.424-1.836,1.13-4.519,2.119-7.909.989-3.531,1.7-6.356,2.26-8.758a1.731,1.731,0,0,1,1.836-.564c.989.141,1.554.564,1.554,1.129l-1.13,4.1a22.633,22.633,0,0,1,3.531-3.814,6.227,6.227,0,0,1,4.1-1.554Zm18.221,0a6.12,6.12,0,0,1,3.389,1.271,3.479,3.479,0,0,1,1.272,2.684,6.351,6.351,0,0,1-.565,3.107,6.671,6.671,0,0,1-4.238,3.532c-1.977.706-4.1.565-6.779-.142a6.074,6.074,0,0,0,.706,3.955,5,5,0,0,0,3.39,1.836,10.229,10.229,0,0,0,3.531-.282,11.6,11.6,0,0,0,3.955-2.543,14.588,14.588,0,0,0,3.389-5.084c0-.142.142-.142.424-.142.141.142.424.283.565.424a.564.564,0,0,1,.283.565c-2.684,6.639-6.921,9.887-12.712,9.605-2.966-.141-5.085-1.271-6.215-3.249a8.608,8.608,0,0,1-.565-7.062,12.28,12.28,0,0,1,3.955-6.356,9,9,0,0,1,6.215-2.119Zm-.565,2.543a5.454,5.454,0,0,0-3.532,1.7,10.263,10.263,0,0,0-2.4,4.378c3.673.706,6.074,0,7.345-2.26a3.306,3.306,0,0,0,.424-2.542c-.141-.848-.706-1.271-1.836-1.271Zm16.808,16.243c-1.837,0-3.249-.424-4.1-1.413a4.536,4.536,0,0,1-1.272-3.813c0-2.825,1.837-6.5,5.226-10.735a8.5,8.5,0,0,1-4.1-2.542,39.46,39.46,0,0,1-3.39,10.452c-.141.141-.282.141-.565.141s-.423-.141-.706-.282a1.07,1.07,0,0,1-.141-.565,51.642,51.642,0,0,0,3.672-11.159c-.847-1.271-.988-2.26-.423-3.107a1.385,1.385,0,0,1,1.7-.424,2.555,2.555,0,0,1,.988,2.684,6.226,6.226,0,0,0,4.379,2.966,2.227,2.227,0,0,1,1.7.141.991.991,0,0,1,.565,1.271,5.3,5.3,0,0,1-1.271,2.26c-2.543,3.108-3.955,5.933-3.955,8.757a2.243,2.243,0,0,0,.565,1.978,2.368,2.368,0,0,0,1.977.847,6.678,6.678,0,0,0,3.955-1.836,18.017,18.017,0,0,0,3.672-6.073c.142-.142.283-.142.565-.142.142.142.424.283.565.424a.564.564,0,0,1,.283.565,30.485,30.485,0,0,1-4.52,7.2,8.153,8.153,0,0,1-5.367,2.4Zm18.644-18.786a6.126,6.126,0,0,1,3.39,1.271,3.481,3.481,0,0,1,1.271,2.684,8.528,8.528,0,0,1-.565,3.107,7.04,7.04,0,0,1-4.237,3.532,11.16,11.16,0,0,1-6.78-.142,5.32,5.32,0,0,0,.706,3.955,4.987,4.987,0,0,0,3.249,1.836,11.038,11.038,0,0,0,3.672-.282,11.591,11.591,0,0,0,3.955-2.543,16.576,16.576,0,0,0,3.249-5.084c.141-.142.282-.142.565-.142.141.142.423.283.565.424a1.073,1.073,0,0,1,.282.565c-2.684,6.639-7.062,9.887-12.853,9.605-2.825-.141-4.944-1.271-6.074-3.249a8.607,8.607,0,0,1-.565-7.062,11.457,11.457,0,0,1,3.955-6.356,8.788,8.788,0,0,1,6.215-2.119Zm-.565,2.543a5.449,5.449,0,0,0-3.531,1.7,10.242,10.242,0,0,0-2.4,4.378c3.672.706,6.073,0,7.2-2.26a3.4,3.4,0,0,0,.565-2.542c-.141-.848-.847-1.271-1.836-1.271Zm20.9,16.243a3.582,3.582,0,0,1-2.26-.565,2.764,2.764,0,0,1-.847-1.7,15.373,15.373,0,0,1,.141-2.543,17.419,17.419,0,0,1,.565-3.248h-7.062c-.989,3.813-1.554,6.215-1.7,7.062,0,.283-.424.565-1.13.706a8.066,8.066,0,0,1-1.836-.141c-.565-.282-.707-.565-.565-.989,1.7-6.779,3.107-12.288,4.1-16.525a1.1,1.1,0,0,1,1.13-.565,2.366,2.366,0,0,1,1.7.141c.565.141.847.424.706.847-.989,4.1-1.554,6.356-1.7,6.921h6.921c.847-2.966,1.554-5.367,1.977-7.344,0-.283.424-.565,1.13-.565a2.366,2.366,0,0,1,1.695.141c.565.141.848.424.706.847-.988,3.532-1.977,7.345-3.107,11.3-.565,2.542-.565,3.672.424,3.672.847,0,1.977-.706,3.248-2.26a29.787,29.787,0,0,0,3.249-5.649c0-.142.141-.142.424-.142s.423.142.706.424c.141.141.141.283.141.565-2.966,6.356-5.791,9.464-8.757,9.605Zm25-10.452c.142-.142.283-.142.565-.142a3.069,3.069,0,0,0,.706.424c.142.141.283.424.142.565-1.978,4.8-4.661,7.062-8.051,6.639a8.482,8.482,0,0,1-6.78,2.966c-2.966,0-4.661-1.7-4.943-4.8-.142-2.683.847-7.2,2.966-13.277,0-.423.423-.564.988-.706a6.3,6.3,0,0,1,1.7.142c.565.282.707.423.565.706-.988,2.825-1.695,5.226-2.26,7.486a7.342,7.342,0,0,1,2.684-2.4,5.192,5.192,0,0,1,3.531-.707,3.277,3.277,0,0,1,2.684,1.695,5.476,5.476,0,0,1,.706,3.39,9.324,9.324,0,0,1-.847,3.814,4.184,4.184,0,0,0,3.248-1.554,10.137,10.137,0,0,0,2.4-4.237Zm-8.192,3.672q1.059-4.026-1.271-4.237a4.433,4.433,0,0,0-3.531.988,6.556,6.556,0,0,0-2.26,3.673c-.141,2.542.565,3.813,2.26,3.813a4.063,4.063,0,0,0,3.531-1.836,1.484,1.484,0,0,1,0-1.836c.424-.424.847-.706,1.271-.565Zm18.362-12.006a6.126,6.126,0,0,1,3.39,1.271,3.481,3.481,0,0,1,1.271,2.684,6.34,6.34,0,0,1-.565,3.107,6.671,6.671,0,0,1-4.237,3.532c-1.837.706-4.1.565-6.78-.142a7.117,7.117,0,0,0,.706,3.955,5,5,0,0,0,3.39,1.836,10.229,10.229,0,0,0,3.531-.282,10.412,10.412,0,0,0,3.955-2.543,14.6,14.6,0,0,0,3.39-5.084c0-.142.141-.142.424-.142a1.985,1.985,0,0,1,.565.424.564.564,0,0,1,.282.565c-2.684,6.639-6.921,9.887-12.712,9.605-2.966-.141-4.944-1.271-6.215-3.249a9.193,9.193,0,0,1-.565-7.062,12.284,12.284,0,0,1,3.955-6.356,9,9,0,0,1,6.215-2.119Zm-.565,2.543a5.449,5.449,0,0,0-3.531,1.7,10.242,10.242,0,0,0-2.4,4.378c3.672.706,6.073,0,7.344-2.26a2.8,2.8,0,0,0,.424-2.542c-.141-.848-.706-1.271-1.836-1.271Z" fill="#fff"/>
      </g>
    </g>
  </g>
</svg>
