<svg xmlns="http://www.w3.org/2000/svg" xmlns:xlink="http://www.w3.org/1999/xlink" width="280.63" height="139.64" viewBox="0 0 280.63 139.64">
  <defs>
    <clipPath id="clip-Монтажная_область_19">
      <rect width="280.63" height="139.64"/>
    </clipPath>
  </defs>
  <g id="Монтажная_область_19" data-name="Монтажная область – 19" clip-path="url(#clip-Монтажная_область_19)">
    <g id="Сгруппировать_177" data-name="Сгруппировать 177" transform="translate(-3254 -373)">
      <g id="Сгруппировать_34" data-name="Сгруппировать 34">
        <path id="Контур_128" data-name="Контур 128" d="M3382.933,427.873v1.445H3371.9v28.959h-4.366V429.318h-10.67v-1.445Z" fill="#fcb470"/>
        <path id="Контур_129" data-name="Контур 129" d="M3410.748,437.76a17.839,17.839,0,0,0-2.67-5.119,14.106,14.106,0,0,0-4.347-3.835,12.151,12.151,0,0,0-5.952-1.495,14.235,14.235,0,0,0-8.111,2.4,15.027,15.027,0,0,0-5.029,5.952,16.809,16.809,0,0,0-.01,14.736,15.473,15.473,0,0,0,4.949,6.012,13.457,13.457,0,0,0,7.94,2.46,12.991,12.991,0,0,0,6.033-1.516A14.277,14.277,0,0,0,3408,453.59a16.982,16.982,0,0,0,2.731-5.11,16.193,16.193,0,0,0,.02-10.72Zm-4.287,9.034a25.316,25.316,0,0,1-.973,4.085,16.645,16.645,0,0,1-1.727,3.725,8.9,8.9,0,0,1-2.589,2.73,6.219,6.219,0,0,1-3.554,1.024,7.216,7.216,0,0,1-5.792-2.972,16.488,16.488,0,0,1-3.071-6.4,22.911,22.911,0,0,1-.914-5.932,22.259,22.259,0,0,1,2.138-9.7q2.591-5.434,7.76-5.561,4.7.03,7.056,5.561a23.943,23.943,0,0,1,1.968,9.657A26.232,26.232,0,0,1,3406.461,446.794Z" fill="#fcb470"/>
        <path id="Контур_130" data-name="Контур 130" d="M3511.875,437.76a18.047,18.047,0,0,0-2.67-5.119,14.031,14.031,0,0,0-4.356-3.835,12.128,12.128,0,0,0-5.953-1.495,14.174,14.174,0,0,0-8.1,2.4,15.016,15.016,0,0,0-5.029,5.952,16.754,16.754,0,0,0-.02,14.736,15.558,15.558,0,0,0,4.948,6.012,13.491,13.491,0,0,0,7.95,2.46,13.019,13.019,0,0,0,6.033-1.516,14.392,14.392,0,0,0,4.447-3.764,16.974,16.974,0,0,0,2.73-5.11,16.173,16.173,0,0,0,.02-10.72Zm-4.286,9.034a25.45,25.45,0,0,1-.974,4.085,16.614,16.614,0,0,1-1.736,3.725,8.763,8.763,0,0,1-2.58,2.73,6.225,6.225,0,0,1-3.563,1.024,7.228,7.228,0,0,1-5.792-2.972,16.786,16.786,0,0,1-3.072-6.4,23.32,23.32,0,0,1-.9-5.932,22.259,22.259,0,0,1,2.138-9.7q2.589-5.434,7.759-5.561,4.7.03,7.057,5.561a23.946,23.946,0,0,1,1.967,9.657A26.254,26.254,0,0,1,3507.589,446.794Z" fill="#fcb470"/>
        <path id="Контур_131" data-name="Контур 131" d="M3430.609,443.291a11.881,11.881,0,0,0,5.41-1.767,7.361,7.361,0,0,0,3-3.4,9.244,9.244,0,0,0,.623-2.921,6.933,6.933,0,0,0-3.594-6.053,12.358,12.358,0,0,0-6.434-1.6h-5.5c-1.295.021-3.925.041-7.9.041v30.685h4.407l-.07-14.364h5.591l11.011,14.364h4.628Zm-10.058-.522.07-14.615,5.531.08,3.362-.04a4.46,4.46,0,0,1,3.634,1.435,5.359,5.359,0,0,1,1.375,2.851,19.108,19.108,0,0,1,.161,2.078,11.093,11.093,0,0,1-.412,2.961,9.4,9.4,0,0,1-1.746,3.674,3.958,3.958,0,0,1-2.821,1.576Z" fill="#fcb470"/>
        <rect id="Прямоугольник_7" data-name="Прямоугольник 7" width="4.366" height="30.485" transform="translate(3445.907 427.792)" fill="#fcb470"/>
        <path id="Контур_132" data-name="Контур 132" d="M3479.222,458.157l-20.688-26.139.01,26.259h-1.215V427.712h3.814l16.874,21.9V427.873h1.2Z" fill="#fcb470"/>
        <path id="Контур_133" data-name="Контур 133" d="M3297.8,449.193a7.613,7.613,0,0,1-1.485,4.577,10.351,10.351,0,0,1-4.015,3.293,12.586,12.586,0,0,1-5.561,1.214,11.227,11.227,0,0,1-9.476-4.5v1.948a.922.922,0,0,1-.924-.924v-3.36a.922.922,0,0,1,.864.592c.523,1.384,1.576,2.317,3.222,3.662.11.09.221.17.331.251.02.02.05.03.07.05a10.139,10.139,0,0,0,5.852,1.566,9.291,9.291,0,0,0,4.608-1.205,7.456,7.456,0,0,0,3.152-3.2,5.144,5.144,0,0,0,.522-2.409c0-1.676-.984-3.072-2.952-4.166a21.677,21.677,0,0,0-6.785-2.078c-1.185-.22-2.209-.441-3.072-.682q-6.022-1.641-6.022-7.488v-.563a7.765,7.765,0,0,1,1.425-4.527,10.066,10.066,0,0,1,3.814-3.252,11.927,11.927,0,0,1,5.371-1.194l.261-.041a11.7,11.7,0,0,1,5.159,1.235,8.414,8.414,0,0,1,3.1,2.61v-2.469a.918.918,0,0,1,.923.913v3.845a.961.961,0,0,1-.763-.392v-.01a.351.351,0,0,1-.05-.08.593.593,0,0,1-.04-.08,12.036,12.036,0,0,0-1.124-1.817,9.793,9.793,0,0,0-7.529-2.992,9.289,9.289,0,0,0-4.818,1.556,5.78,5.78,0,0,0-2.981,4.929,5.42,5.42,0,0,0,1.315,3.282,6.578,6.578,0,0,0,3.473,2.048c.994.291,2.078.562,3.272.8,1.014.211,2.018.462,3.032.733a22.869,22.869,0,0,1,2.931,1.024,9.447,9.447,0,0,1,2.509,1.546,6.723,6.723,0,0,1,1.747,2.338A8.121,8.121,0,0,1,3297.8,449.193Z" fill="#fcb470"/>
        <g id="Сгруппировать_32" data-name="Сгруппировать 32">
          <path id="Контур_134" data-name="Контур 134" d="M3312.524,427.792l-12.758,30.485h1.254l4.2-9.977h11.765l4.276,9.977h4.266Zm-7.077,19.946,5.611-13.341,5.7,13.341Z" fill="#fcb470"/>
          <path id="Прямоугольник_8" data-name="Прямоугольник 8" d="M.686,0H.923a0,0,0,0,1,0,0V4.708a0,0,0,0,1,0,0H.686A.686.686,0,0,1,0,4.022V.686A.686.686,0,0,1,.686,0Z" transform="translate(3302.931 457.35) rotate(90)" fill="#fcb470"/>
        </g>
        <g id="Сгруппировать_33" data-name="Сгруппировать 33">
          <path id="Контур_135" data-name="Контур 135" d="M3351.725,427.873v30.284l-20.638-26.078v26.2h-1.255V427.712h3.814l16.924,21.973V427.873Z" fill="#fcb470"/>
          <path id="Прямоугольник_9" data-name="Прямоугольник 9" d="M.686,0H.923a0,0,0,0,1,0,0V4.708a0,0,0,0,1,0,0H.686A.686.686,0,0,1,0,4.022V.686A.686.686,0,0,1,.686,0Z" transform="translate(3332.838 457.35) rotate(90)" fill="#fcb470"/>
          <path id="Прямоугольник_10" data-name="Прямоугольник 10" d="M.686,0H.923a0,0,0,0,1,0,0V4.708a0,0,0,0,1,0,0H.686A.686.686,0,0,1,0,4.022V.686A.686.686,0,0,1,.686,0Z" transform="translate(3348.764 428.796) rotate(-90)" fill="#fcb470"/>
        </g>
        <path id="Прямоугольник_11" data-name="Прямоугольник 11" d="M.686,0H.923a0,0,0,0,1,0,0V4.708a0,0,0,0,1,0,0H.686A.686.686,0,0,1,0,4.022V.686A.686.686,0,0,1,.686,0Z" transform="translate(3460.74 457.361) rotate(90)" fill="#fcb470"/>
        <path id="Прямоугольник_12" data-name="Прямоугольник 12" d="M.686,0H.923a0,0,0,0,1,0,0V4.708a0,0,0,0,1,0,0H.686A.686.686,0,0,1,0,4.022V.686A.686.686,0,0,1,.686,0Z" transform="translate(3475.572 428.705) rotate(-90)" fill="#fcb470"/>
        <path id="Контур_136" data-name="Контур 136" d="M3311.974,433.95l-10.056,23.862-1.722-.059,11.117-25.192Z" fill="#fcb470"/>
      </g>
      <path id="Контур_137" data-name="Контур 137" d="M3292.738,429.237a11.722,11.722,0,0,1-1.217-.472,10.255,10.255,0,0,0-6.566-.172c-2.321.785-4.73,2.69-4.9,5.586-.071,1.232-.042,2.708,2.354,4.9,1.2,1.1-.345.817.021,1.041l-3.542-2.166s-2.083-3.417-1.416-4.75,1.416-3.25,2.875-4a17.923,17.923,0,0,1,3.458-1.488,9.772,9.772,0,0,1,3.333-.6,17.013,17.013,0,0,1,3.5.6,10.379,10.379,0,0,1,2.542,1.446C3293.391,429.366,3292.738,429.237,3292.738,429.237Z" fill="#fcb470"/>
      <path id="Контур_138" data-name="Контур 138" d="M3281.1,442.518c4.344.1,10.348,1.063,13.291,4.6,2.191,2.753,1.042,7.777-2.431,9.423a12.615,12.615,0,0,1-7.485,1.077c1.213-.286,2.687-.418,3.829-.791,3.423-1.04,6.339-3.568,4.92-7.375-1.713-4.214-8.061-5.365-12.124-6.932Z" fill="#fcb470"/>
      <rect id="Прямоугольник_13" data-name="Прямоугольник 13" width="1.699" height="26.904" transform="translate(3330.266 430.908)" fill="#fcb470"/>
      <rect id="Прямоугольник_14" data-name="Прямоугольник 14" width="1.319" height="24.625" transform="translate(3349.532 428.533)" fill="#fcb470"/>
      <rect id="Прямоугольник_15" data-name="Прямоугольник 15" width="26.068" height="1.333" transform="translate(3356.864 428.991)" fill="#fcb470"/>
      <rect id="Прямоугольник_16" data-name="Прямоугольник 16" width="1.832" height="26.542" transform="translate(3457.766 431.075)" fill="#fcb470"/>
      <rect id="Прямоугольник_17" data-name="Прямоугольник 17" width="1.888" height="23.875" transform="translate(3476.64 428.533)" fill="#fcb470"/>
      <rect id="Прямоугольник_18" data-name="Прямоугольник 18" width="13.772" height="2.439" transform="translate(3304.427 447.738)" fill="#fcb470"/>
    </g>
  </g>
</svg>
