<svg width="55" height="55" viewBox="0 0 55 55" fill="none" xmlns="http://www.w3.org/2000/svg">
<path fill-rule="evenodd" clip-rule="evenodd" d="M30.7573 3.13043L34.0322 5.58179C34.9279 6.25221 35.8706 6.59532 36.9877 6.65752L41.072 6.88471C43.5177 7.02071 45.504 8.68736 46.0626 11.0723L46.9957 15.0552C47.2508 16.1445 47.7525 17.0133 48.5682 17.7789L51.551 20.5784C53.337 22.2546 53.7872 24.8082 52.6823 26.9942L50.8369 30.6449C50.3322 31.6434 50.158 32.6314 50.2907 33.7422L50.7763 37.8041C51.067 40.2362 49.7705 42.4816 47.5189 43.446L43.7585 45.0564C42.7301 45.4969 41.9616 46.1417 41.3493 47.078L39.1103 50.5015C37.7696 52.5515 35.3331 53.4382 32.9885 52.7297L29.0728 51.5463C28.0019 51.2227 26.9987 51.2227 25.9277 51.5463L22.0119 52.7297C19.6673 53.4382 17.2308 52.5515 15.8902 50.5015L13.6512 47.078C13.0388 46.1417 12.2703 45.4969 11.2419 45.0564L7.48128 43.4457C5.22972 42.4814 3.93325 40.236 4.22393 37.8038L4.70948 33.742C4.84225 32.6312 4.66801 31.6432 4.16334 30.6447L2.31794 26.994C1.213 24.8081 1.66321 22.2545 3.4492 20.5782L6.43199 17.7787C7.24775 17.0131 7.7493 16.1443 8.00443 15.055L8.93749 11.0721C9.49609 8.68725 11.4824 7.0206 13.9281 6.8845L18.0124 6.6573C19.1295 6.59521 20.0722 6.252 20.9679 5.58158L24.2427 3.13021C26.2035 1.66261 28.7965 1.66261 30.7573 3.13043ZM25.411 28.903L21.857 25.349C20.9359 24.4279 19.4417 24.4279 18.5207 25.349C17.5996 26.2702 17.5996 27.7642 18.5207 28.6853L23.748 33.9125C24.6691 34.8335 26.1632 34.8336 27.0843 33.9125C30.235 30.7617 33.35 27.5756 36.4862 24.4104C37.4006 23.4874 37.3977 21.9981 36.476 21.0815C35.5541 20.1646 34.0605 20.1672 33.145 21.0918L25.411 28.903ZM27.5 9.93163C22.6487 9.93163 18.2566 11.8981 15.0773 15.0773C11.898 18.2567 9.93158 22.6488 9.93158 27.5C9.93158 32.3513 11.898 36.7435 15.0773 39.9227C18.2566 43.102 22.6487 45.0685 27.5 45.0685C32.3513 45.0685 36.7434 43.102 39.9227 39.9227C43.1019 36.7435 45.0684 32.3513 45.0684 27.5C45.0684 22.6488 43.1019 18.2566 39.9227 15.0773C36.7434 11.8981 32.3513 9.93163 27.5 9.93163ZM38.7074 16.2926C35.8393 13.4245 31.8768 11.6504 27.5 11.6504C23.1232 11.6504 19.1607 13.4245 16.2926 16.2926C13.4244 19.1608 11.6503 23.1232 11.6503 27.5C11.6503 31.8768 13.4244 35.8393 16.2926 38.7075C19.1607 41.5756 23.1232 43.3497 27.5 43.3497C31.8768 43.3497 35.8393 41.5756 38.7074 38.7076C41.5756 35.8394 43.3496 31.8769 43.3496 27.5002C43.3497 23.1232 41.5756 19.1608 38.7074 16.2926Z" fill="#0046E6"/>
</svg>
